%
M48
M72
T01C0.01300
T02C0.03150
T03C0.03543
T04C0.04000
T05C0.09400
T06C0.12598
T07C0.13600
T08C0.25000
%
T01
X71595Y103933
X86595Y168933
X77595Y192933
X97595Y192933
X117595Y197933
X120595Y181933
X150595Y207933
X138595Y213933
X138595Y218933
X138595Y223933
X112595Y231933
X90595Y231933
X91595Y257933
X101595Y257933
X120595Y257933
X137595Y257933
X136595Y278933
X136595Y288933
X156595Y288933
X156595Y278933
X181595Y288933
X161595Y299933
X161595Y314933
X176595Y321933
X181595Y309933
X194595Y324933
X216595Y316933
X224595Y321933
X239595Y321933
X247595Y321933
X253595Y317933
X260595Y317933
X264595Y311933
X262595Y308933
X263595Y304233
X263595Y296933
X266595Y293933
X277095Y292933
X277095Y279933
X273095Y274933
X273095Y268933
X271095Y256933
X264095Y258933
X256595Y258933
X240138Y254476
X236595Y250933
X216595Y260933
X216595Y269933
X206595Y272933
X196595Y268933
X216595Y288933
X211595Y303933
X231595Y302933
X238595Y307933
X240595Y312933
X243595Y296933
X246595Y293933
X251595Y284933
X277095Y317933
X284095Y317933
X287095Y311933
X291095Y317933
X292095Y326933
X284095Y327933
X271595Y331433
X263595Y327933
X259095Y340933
X238595Y342933
X239595Y329933
X222595Y348933
X209595Y350933
X199095Y364933
X178595Y362933
X156595Y369933
X188595Y392933
X209595Y389933
X231595Y389933
X237095Y381933
X241595Y384933
X251595Y384933
X260095Y383933
X256595Y392933
X276095Y392933
X286095Y394933
X302095Y391933
X305595Y389933
X313595Y389933
X313595Y400933
X324095Y402933
X313595Y412933
X318095Y429933
X344095Y435933
X342595Y412933
X356595Y398933
X367595Y403933
X391595Y412933
X422095Y436933
X424095Y406933
X443095Y392933
X451595Y389933
X457095Y389933
X447095Y385933
X451595Y401933
X459595Y412933
X459595Y422933
X492095Y428933
X487595Y453933
X504595Y456933
X504595Y469933
X527595Y473933
X532595Y458933
X529595Y427933
X529595Y410933
X507595Y390933
X505595Y381283
X497095Y384933
X482095Y378933
X469095Y385933
X473095Y366933
X489595Y353933
X468595Y334433
X447595Y338933
X446595Y333933
X436595Y333933
X426595Y330433
X423595Y344433
X436595Y363933
X446095Y366933
X400595Y338933
X395595Y349933
X386595Y339933
X401595Y327933
X415595Y313433
X401595Y308933
X389595Y302933
X381595Y303733
X381595Y297733
X378595Y289933
X381595Y283733
X389595Y281933
X390595Y287933
X401595Y275933
X411095Y278933
X395595Y266933
X378595Y275933
X357595Y282933
X356595Y276933
X354595Y268933
X351595Y261933
X355595Y255933
X346595Y248933
X337595Y244233
X337495Y234533
X323595Y228433
X341595Y219433
X351595Y219433
X361595Y219433
X372595Y219433
X391595Y231633
X385595Y240933
X377595Y240933
X378595Y251933
X396595Y248933
X428595Y287933
X448595Y280433
X461095Y279933
X449595Y294933
X429595Y307933
X468595Y314433
X500595Y320433
X496595Y268433
X488595Y254433
X497595Y251933
X507595Y248933
X507595Y234933
X488595Y238933
X462595Y245933
X408995Y186533
X391595Y168933
X415595Y157933
X371595Y198433
X361595Y198433
X351595Y198433
X341595Y198433
X321595Y203433
X291595Y193933
X278595Y193933
X276595Y208433
X287595Y207433
X271595Y218933
X274695Y225933
X278095Y234933
X284095Y235533
X288595Y235933
X291895Y231633
X314095Y259933
X315768Y266933
X326095Y259933
X334095Y259933
X337595Y266933
X331595Y273933
X325095Y279933
X319095Y279933
X318595Y301933
X326095Y301933
X322595Y308933
X314595Y308933
X315595Y317933
X324595Y317933
X322095Y326933
X315095Y326933
X328395Y336933
X336095Y343933
X326595Y355933
X323595Y367933
X298595Y370933
X295095Y366433
X289595Y369933
X292595Y377933
X274095Y364933
X277595Y360933
X269595Y359933
X266095Y362933
X256595Y359933
X259095Y370933
X244595Y359933
X286095Y352433
X300095Y348433
X353095Y359933
X364095Y377933
X384595Y358933
X396595Y374933
X351595Y316433
X351595Y304433
X301595Y303933
X256595Y225933
X251595Y203433
X255095Y186933
X252595Y177933
X250595Y157933
X272595Y157933
X310595Y157933
X320245Y148933
X351595Y163933
X474595Y157933
X526595Y103933
X234595Y110933
X202595Y157933
X176595Y148933
X150595Y152933
X180595Y181933
X177595Y202933
X177595Y227933
X231595Y208433
X71595Y308933
X73595Y319933
X61595Y319933
X74595Y383933
X81595Y390933
X89595Y383933
X96595Y409933
X84595Y417933
X124595Y439933
X145595Y419933
X168595Y439933
X145595Y459933
X212095Y416933
X248095Y439933
X276095Y407933
X284595Y408933
X246095Y475933
X376595Y468933
X462595Y464933
X463595Y477933
X497595Y403933
X70595Y473933
T02
X360453Y179287
X336241Y155075
T03
X517595Y411272
X517595Y428594
T04
X376595Y213933
X366595Y213933
X356595Y213933
X346595Y213933
X336595Y213933
X336595Y203933
X346595Y203933
X356595Y203933
X366595Y203933
X376595Y203933
X151595Y273933
X141595Y273933
X141595Y283933
X141595Y293933
X151595Y293933
X151595Y283933
X81595Y353933
X81595Y363933
X81595Y373933
X81595Y383933
T05
X441995Y408083
T06
X419784Y377122
X361595Y439583
X231595Y439583
X178839Y377122
X178839Y242870
X419784Y242870
T07
X192145Y408083
X409645Y471083
T08
X509095Y121433
X89095Y121433
M30
