G75*
%MOIN*%
%OFA0B0*%
%FSLAX25Y25*%
%IPPOS*%
%LPD*%
%AMOC8*
5,1,8,0,0,1.08239X$1,22.5*
%
%ADD10C,0.00000*%
%ADD11C,0.25600*%
%ADD12R,0.05324X0.03750*%
%ADD13R,0.05600X0.02175*%
%ADD14R,0.02175X0.05600*%
%ADD15R,0.03750X0.05324*%
%ADD16R,0.03356X0.03356*%
%ADD17R,0.09300X0.03000*%
%ADD18R,0.03750X0.01781*%
%ADD19R,0.01781X0.03750*%
%ADD20R,0.08868X0.06112*%
%ADD21R,0.03000X0.09300*%
%ADD22R,0.02765X0.05324*%
%ADD23R,0.03868X0.03080*%
%ADD24R,0.06112X0.05324*%
%ADD25R,0.04143X0.03750*%
%ADD26R,0.10443X0.02569*%
%ADD27R,0.10443X0.08474*%
%ADD28C,0.04143*%
%ADD29C,0.14200*%
%ADD30R,0.32400X0.28100*%
%ADD31C,0.10000*%
%ADD32C,0.13198*%
%ADD33R,0.03100X0.05600*%
%ADD34R,0.05600X0.03100*%
%ADD35OC8,0.08000*%
%ADD36R,0.01978X0.03750*%
%ADD37R,0.05324X0.06112*%
%ADD38R,0.08474X0.04537*%
%ADD39R,0.14380X0.08474*%
%ADD40C,0.03750*%
%ADD41C,0.04537*%
%ADD42R,0.04537X0.07687*%
%ADD43R,0.06899X0.03356*%
%ADD44R,0.04931X0.08080*%
%ADD45R,0.03150X0.01181*%
%ADD46R,0.06811X0.07402*%
%ADD47R,0.08000X0.08000*%
%ADD48C,0.08000*%
%ADD49R,0.17529X0.10443*%
%ADD50R,0.04537X0.06112*%
%ADD51C,0.00800*%
%ADD52C,0.02000*%
%ADD53R,0.05324X0.08474*%
%ADD54C,0.00500*%
%ADD55C,0.00394*%
D10*
X0066595Y0088933D02*
X0531595Y0088933D01*
X0531837Y0088936D01*
X0532078Y0088945D01*
X0532319Y0088959D01*
X0532560Y0088980D01*
X0532800Y0089006D01*
X0533040Y0089038D01*
X0533279Y0089076D01*
X0533516Y0089119D01*
X0533753Y0089169D01*
X0533988Y0089224D01*
X0534222Y0089284D01*
X0534454Y0089351D01*
X0534685Y0089422D01*
X0534914Y0089500D01*
X0535141Y0089583D01*
X0535366Y0089671D01*
X0535589Y0089765D01*
X0535809Y0089864D01*
X0536027Y0089969D01*
X0536242Y0090078D01*
X0536455Y0090193D01*
X0536665Y0090313D01*
X0536871Y0090438D01*
X0537075Y0090568D01*
X0537276Y0090703D01*
X0537473Y0090843D01*
X0537667Y0090987D01*
X0537857Y0091136D01*
X0538043Y0091290D01*
X0538226Y0091448D01*
X0538405Y0091610D01*
X0538580Y0091777D01*
X0538751Y0091948D01*
X0538918Y0092123D01*
X0539080Y0092302D01*
X0539238Y0092485D01*
X0539392Y0092671D01*
X0539541Y0092861D01*
X0539685Y0093055D01*
X0539825Y0093252D01*
X0539960Y0093453D01*
X0540090Y0093657D01*
X0540215Y0093863D01*
X0540335Y0094073D01*
X0540450Y0094286D01*
X0540559Y0094501D01*
X0540664Y0094719D01*
X0540763Y0094939D01*
X0540857Y0095162D01*
X0540945Y0095387D01*
X0541028Y0095614D01*
X0541106Y0095843D01*
X0541177Y0096074D01*
X0541244Y0096306D01*
X0541304Y0096540D01*
X0541359Y0096775D01*
X0541409Y0097012D01*
X0541452Y0097249D01*
X0541490Y0097488D01*
X0541522Y0097728D01*
X0541548Y0097968D01*
X0541569Y0098209D01*
X0541583Y0098450D01*
X0541592Y0098691D01*
X0541595Y0098933D01*
X0541595Y0478933D01*
X0541592Y0479175D01*
X0541583Y0479416D01*
X0541569Y0479657D01*
X0541548Y0479898D01*
X0541522Y0480138D01*
X0541490Y0480378D01*
X0541452Y0480617D01*
X0541409Y0480854D01*
X0541359Y0481091D01*
X0541304Y0481326D01*
X0541244Y0481560D01*
X0541177Y0481792D01*
X0541106Y0482023D01*
X0541028Y0482252D01*
X0540945Y0482479D01*
X0540857Y0482704D01*
X0540763Y0482927D01*
X0540664Y0483147D01*
X0540559Y0483365D01*
X0540450Y0483580D01*
X0540335Y0483793D01*
X0540215Y0484003D01*
X0540090Y0484209D01*
X0539960Y0484413D01*
X0539825Y0484614D01*
X0539685Y0484811D01*
X0539541Y0485005D01*
X0539392Y0485195D01*
X0539238Y0485381D01*
X0539080Y0485564D01*
X0538918Y0485743D01*
X0538751Y0485918D01*
X0538580Y0486089D01*
X0538405Y0486256D01*
X0538226Y0486418D01*
X0538043Y0486576D01*
X0537857Y0486730D01*
X0537667Y0486879D01*
X0537473Y0487023D01*
X0537276Y0487163D01*
X0537075Y0487298D01*
X0536871Y0487428D01*
X0536665Y0487553D01*
X0536455Y0487673D01*
X0536242Y0487788D01*
X0536027Y0487897D01*
X0535809Y0488002D01*
X0535589Y0488101D01*
X0535366Y0488195D01*
X0535141Y0488283D01*
X0534914Y0488366D01*
X0534685Y0488444D01*
X0534454Y0488515D01*
X0534222Y0488582D01*
X0533988Y0488642D01*
X0533753Y0488697D01*
X0533516Y0488747D01*
X0533279Y0488790D01*
X0533040Y0488828D01*
X0532800Y0488860D01*
X0532560Y0488886D01*
X0532319Y0488907D01*
X0532078Y0488921D01*
X0531837Y0488930D01*
X0531595Y0488933D01*
X0066595Y0488933D01*
X0066353Y0488930D01*
X0066112Y0488921D01*
X0065871Y0488907D01*
X0065630Y0488886D01*
X0065390Y0488860D01*
X0065150Y0488828D01*
X0064911Y0488790D01*
X0064674Y0488747D01*
X0064437Y0488697D01*
X0064202Y0488642D01*
X0063968Y0488582D01*
X0063736Y0488515D01*
X0063505Y0488444D01*
X0063276Y0488366D01*
X0063049Y0488283D01*
X0062824Y0488195D01*
X0062601Y0488101D01*
X0062381Y0488002D01*
X0062163Y0487897D01*
X0061948Y0487788D01*
X0061735Y0487673D01*
X0061525Y0487553D01*
X0061319Y0487428D01*
X0061115Y0487298D01*
X0060914Y0487163D01*
X0060717Y0487023D01*
X0060523Y0486879D01*
X0060333Y0486730D01*
X0060147Y0486576D01*
X0059964Y0486418D01*
X0059785Y0486256D01*
X0059610Y0486089D01*
X0059439Y0485918D01*
X0059272Y0485743D01*
X0059110Y0485564D01*
X0058952Y0485381D01*
X0058798Y0485195D01*
X0058649Y0485005D01*
X0058505Y0484811D01*
X0058365Y0484614D01*
X0058230Y0484413D01*
X0058100Y0484209D01*
X0057975Y0484003D01*
X0057855Y0483793D01*
X0057740Y0483580D01*
X0057631Y0483365D01*
X0057526Y0483147D01*
X0057427Y0482927D01*
X0057333Y0482704D01*
X0057245Y0482479D01*
X0057162Y0482252D01*
X0057084Y0482023D01*
X0057013Y0481792D01*
X0056946Y0481560D01*
X0056886Y0481326D01*
X0056831Y0481091D01*
X0056781Y0480854D01*
X0056738Y0480617D01*
X0056700Y0480378D01*
X0056668Y0480138D01*
X0056642Y0479898D01*
X0056621Y0479657D01*
X0056607Y0479416D01*
X0056598Y0479175D01*
X0056595Y0478933D01*
X0056595Y0098933D01*
X0056598Y0098691D01*
X0056607Y0098450D01*
X0056621Y0098209D01*
X0056642Y0097968D01*
X0056668Y0097728D01*
X0056700Y0097488D01*
X0056738Y0097249D01*
X0056781Y0097012D01*
X0056831Y0096775D01*
X0056886Y0096540D01*
X0056946Y0096306D01*
X0057013Y0096074D01*
X0057084Y0095843D01*
X0057162Y0095614D01*
X0057245Y0095387D01*
X0057333Y0095162D01*
X0057427Y0094939D01*
X0057526Y0094719D01*
X0057631Y0094501D01*
X0057740Y0094286D01*
X0057855Y0094073D01*
X0057975Y0093863D01*
X0058100Y0093657D01*
X0058230Y0093453D01*
X0058365Y0093252D01*
X0058505Y0093055D01*
X0058649Y0092861D01*
X0058798Y0092671D01*
X0058952Y0092485D01*
X0059110Y0092302D01*
X0059272Y0092123D01*
X0059439Y0091948D01*
X0059610Y0091777D01*
X0059785Y0091610D01*
X0059964Y0091448D01*
X0060147Y0091290D01*
X0060333Y0091136D01*
X0060523Y0090987D01*
X0060717Y0090843D01*
X0060914Y0090703D01*
X0061115Y0090568D01*
X0061319Y0090438D01*
X0061525Y0090313D01*
X0061735Y0090193D01*
X0061948Y0090078D01*
X0062163Y0089969D01*
X0062381Y0089864D01*
X0062601Y0089765D01*
X0062824Y0089671D01*
X0063049Y0089583D01*
X0063276Y0089500D01*
X0063505Y0089422D01*
X0063736Y0089351D01*
X0063968Y0089284D01*
X0064202Y0089224D01*
X0064437Y0089169D01*
X0064674Y0089119D01*
X0064911Y0089076D01*
X0065150Y0089038D01*
X0065390Y0089006D01*
X0065630Y0088980D01*
X0065871Y0088959D01*
X0066112Y0088945D01*
X0066353Y0088936D01*
X0066595Y0088933D01*
X0076595Y0121433D02*
X0076599Y0121740D01*
X0076610Y0122046D01*
X0076629Y0122353D01*
X0076655Y0122658D01*
X0076689Y0122963D01*
X0076730Y0123267D01*
X0076779Y0123570D01*
X0076835Y0123872D01*
X0076899Y0124172D01*
X0076970Y0124470D01*
X0077048Y0124767D01*
X0077133Y0125062D01*
X0077226Y0125354D01*
X0077326Y0125644D01*
X0077433Y0125932D01*
X0077547Y0126217D01*
X0077667Y0126499D01*
X0077795Y0126777D01*
X0077930Y0127053D01*
X0078071Y0127325D01*
X0078219Y0127594D01*
X0078373Y0127859D01*
X0078534Y0128120D01*
X0078702Y0128378D01*
X0078875Y0128631D01*
X0079055Y0128879D01*
X0079241Y0129123D01*
X0079432Y0129363D01*
X0079630Y0129598D01*
X0079833Y0129827D01*
X0080042Y0130052D01*
X0080256Y0130272D01*
X0080476Y0130486D01*
X0080701Y0130695D01*
X0080930Y0130898D01*
X0081165Y0131096D01*
X0081405Y0131287D01*
X0081649Y0131473D01*
X0081897Y0131653D01*
X0082150Y0131826D01*
X0082408Y0131994D01*
X0082669Y0132155D01*
X0082934Y0132309D01*
X0083203Y0132457D01*
X0083475Y0132598D01*
X0083751Y0132733D01*
X0084029Y0132861D01*
X0084311Y0132981D01*
X0084596Y0133095D01*
X0084884Y0133202D01*
X0085174Y0133302D01*
X0085466Y0133395D01*
X0085761Y0133480D01*
X0086058Y0133558D01*
X0086356Y0133629D01*
X0086656Y0133693D01*
X0086958Y0133749D01*
X0087261Y0133798D01*
X0087565Y0133839D01*
X0087870Y0133873D01*
X0088175Y0133899D01*
X0088482Y0133918D01*
X0088788Y0133929D01*
X0089095Y0133933D01*
X0089402Y0133929D01*
X0089708Y0133918D01*
X0090015Y0133899D01*
X0090320Y0133873D01*
X0090625Y0133839D01*
X0090929Y0133798D01*
X0091232Y0133749D01*
X0091534Y0133693D01*
X0091834Y0133629D01*
X0092132Y0133558D01*
X0092429Y0133480D01*
X0092724Y0133395D01*
X0093016Y0133302D01*
X0093306Y0133202D01*
X0093594Y0133095D01*
X0093879Y0132981D01*
X0094161Y0132861D01*
X0094439Y0132733D01*
X0094715Y0132598D01*
X0094987Y0132457D01*
X0095256Y0132309D01*
X0095521Y0132155D01*
X0095782Y0131994D01*
X0096040Y0131826D01*
X0096293Y0131653D01*
X0096541Y0131473D01*
X0096785Y0131287D01*
X0097025Y0131096D01*
X0097260Y0130898D01*
X0097489Y0130695D01*
X0097714Y0130486D01*
X0097934Y0130272D01*
X0098148Y0130052D01*
X0098357Y0129827D01*
X0098560Y0129598D01*
X0098758Y0129363D01*
X0098949Y0129123D01*
X0099135Y0128879D01*
X0099315Y0128631D01*
X0099488Y0128378D01*
X0099656Y0128120D01*
X0099817Y0127859D01*
X0099971Y0127594D01*
X0100119Y0127325D01*
X0100260Y0127053D01*
X0100395Y0126777D01*
X0100523Y0126499D01*
X0100643Y0126217D01*
X0100757Y0125932D01*
X0100864Y0125644D01*
X0100964Y0125354D01*
X0101057Y0125062D01*
X0101142Y0124767D01*
X0101220Y0124470D01*
X0101291Y0124172D01*
X0101355Y0123872D01*
X0101411Y0123570D01*
X0101460Y0123267D01*
X0101501Y0122963D01*
X0101535Y0122658D01*
X0101561Y0122353D01*
X0101580Y0122046D01*
X0101591Y0121740D01*
X0101595Y0121433D01*
X0101591Y0121126D01*
X0101580Y0120820D01*
X0101561Y0120513D01*
X0101535Y0120208D01*
X0101501Y0119903D01*
X0101460Y0119599D01*
X0101411Y0119296D01*
X0101355Y0118994D01*
X0101291Y0118694D01*
X0101220Y0118396D01*
X0101142Y0118099D01*
X0101057Y0117804D01*
X0100964Y0117512D01*
X0100864Y0117222D01*
X0100757Y0116934D01*
X0100643Y0116649D01*
X0100523Y0116367D01*
X0100395Y0116089D01*
X0100260Y0115813D01*
X0100119Y0115541D01*
X0099971Y0115272D01*
X0099817Y0115007D01*
X0099656Y0114746D01*
X0099488Y0114488D01*
X0099315Y0114235D01*
X0099135Y0113987D01*
X0098949Y0113743D01*
X0098758Y0113503D01*
X0098560Y0113268D01*
X0098357Y0113039D01*
X0098148Y0112814D01*
X0097934Y0112594D01*
X0097714Y0112380D01*
X0097489Y0112171D01*
X0097260Y0111968D01*
X0097025Y0111770D01*
X0096785Y0111579D01*
X0096541Y0111393D01*
X0096293Y0111213D01*
X0096040Y0111040D01*
X0095782Y0110872D01*
X0095521Y0110711D01*
X0095256Y0110557D01*
X0094987Y0110409D01*
X0094715Y0110268D01*
X0094439Y0110133D01*
X0094161Y0110005D01*
X0093879Y0109885D01*
X0093594Y0109771D01*
X0093306Y0109664D01*
X0093016Y0109564D01*
X0092724Y0109471D01*
X0092429Y0109386D01*
X0092132Y0109308D01*
X0091834Y0109237D01*
X0091534Y0109173D01*
X0091232Y0109117D01*
X0090929Y0109068D01*
X0090625Y0109027D01*
X0090320Y0108993D01*
X0090015Y0108967D01*
X0089708Y0108948D01*
X0089402Y0108937D01*
X0089095Y0108933D01*
X0088788Y0108937D01*
X0088482Y0108948D01*
X0088175Y0108967D01*
X0087870Y0108993D01*
X0087565Y0109027D01*
X0087261Y0109068D01*
X0086958Y0109117D01*
X0086656Y0109173D01*
X0086356Y0109237D01*
X0086058Y0109308D01*
X0085761Y0109386D01*
X0085466Y0109471D01*
X0085174Y0109564D01*
X0084884Y0109664D01*
X0084596Y0109771D01*
X0084311Y0109885D01*
X0084029Y0110005D01*
X0083751Y0110133D01*
X0083475Y0110268D01*
X0083203Y0110409D01*
X0082934Y0110557D01*
X0082669Y0110711D01*
X0082408Y0110872D01*
X0082150Y0111040D01*
X0081897Y0111213D01*
X0081649Y0111393D01*
X0081405Y0111579D01*
X0081165Y0111770D01*
X0080930Y0111968D01*
X0080701Y0112171D01*
X0080476Y0112380D01*
X0080256Y0112594D01*
X0080042Y0112814D01*
X0079833Y0113039D01*
X0079630Y0113268D01*
X0079432Y0113503D01*
X0079241Y0113743D01*
X0079055Y0113987D01*
X0078875Y0114235D01*
X0078702Y0114488D01*
X0078534Y0114746D01*
X0078373Y0115007D01*
X0078219Y0115272D01*
X0078071Y0115541D01*
X0077930Y0115813D01*
X0077795Y0116089D01*
X0077667Y0116367D01*
X0077547Y0116649D01*
X0077433Y0116934D01*
X0077326Y0117222D01*
X0077226Y0117512D01*
X0077133Y0117804D01*
X0077048Y0118099D01*
X0076970Y0118396D01*
X0076899Y0118694D01*
X0076835Y0118994D01*
X0076779Y0119296D01*
X0076730Y0119599D01*
X0076689Y0119903D01*
X0076655Y0120208D01*
X0076629Y0120513D01*
X0076610Y0120820D01*
X0076599Y0121126D01*
X0076595Y0121433D01*
X0172540Y0242870D02*
X0172542Y0243028D01*
X0172548Y0243186D01*
X0172558Y0243344D01*
X0172572Y0243502D01*
X0172590Y0243659D01*
X0172611Y0243816D01*
X0172637Y0243972D01*
X0172667Y0244128D01*
X0172700Y0244283D01*
X0172738Y0244436D01*
X0172779Y0244589D01*
X0172824Y0244741D01*
X0172873Y0244892D01*
X0172926Y0245041D01*
X0172982Y0245189D01*
X0173042Y0245335D01*
X0173106Y0245480D01*
X0173174Y0245623D01*
X0173245Y0245765D01*
X0173319Y0245905D01*
X0173397Y0246042D01*
X0173479Y0246178D01*
X0173563Y0246312D01*
X0173652Y0246443D01*
X0173743Y0246572D01*
X0173838Y0246699D01*
X0173935Y0246824D01*
X0174036Y0246946D01*
X0174140Y0247065D01*
X0174247Y0247182D01*
X0174357Y0247296D01*
X0174470Y0247407D01*
X0174585Y0247516D01*
X0174703Y0247621D01*
X0174824Y0247723D01*
X0174947Y0247823D01*
X0175073Y0247919D01*
X0175201Y0248012D01*
X0175331Y0248102D01*
X0175464Y0248188D01*
X0175599Y0248272D01*
X0175735Y0248351D01*
X0175874Y0248428D01*
X0176015Y0248500D01*
X0176157Y0248570D01*
X0176301Y0248635D01*
X0176447Y0248697D01*
X0176594Y0248755D01*
X0176743Y0248810D01*
X0176893Y0248861D01*
X0177044Y0248908D01*
X0177196Y0248951D01*
X0177349Y0248990D01*
X0177504Y0249026D01*
X0177659Y0249057D01*
X0177815Y0249085D01*
X0177971Y0249109D01*
X0178128Y0249129D01*
X0178286Y0249145D01*
X0178443Y0249157D01*
X0178602Y0249165D01*
X0178760Y0249169D01*
X0178918Y0249169D01*
X0179076Y0249165D01*
X0179235Y0249157D01*
X0179392Y0249145D01*
X0179550Y0249129D01*
X0179707Y0249109D01*
X0179863Y0249085D01*
X0180019Y0249057D01*
X0180174Y0249026D01*
X0180329Y0248990D01*
X0180482Y0248951D01*
X0180634Y0248908D01*
X0180785Y0248861D01*
X0180935Y0248810D01*
X0181084Y0248755D01*
X0181231Y0248697D01*
X0181377Y0248635D01*
X0181521Y0248570D01*
X0181663Y0248500D01*
X0181804Y0248428D01*
X0181943Y0248351D01*
X0182079Y0248272D01*
X0182214Y0248188D01*
X0182347Y0248102D01*
X0182477Y0248012D01*
X0182605Y0247919D01*
X0182731Y0247823D01*
X0182854Y0247723D01*
X0182975Y0247621D01*
X0183093Y0247516D01*
X0183208Y0247407D01*
X0183321Y0247296D01*
X0183431Y0247182D01*
X0183538Y0247065D01*
X0183642Y0246946D01*
X0183743Y0246824D01*
X0183840Y0246699D01*
X0183935Y0246572D01*
X0184026Y0246443D01*
X0184115Y0246312D01*
X0184199Y0246178D01*
X0184281Y0246042D01*
X0184359Y0245905D01*
X0184433Y0245765D01*
X0184504Y0245623D01*
X0184572Y0245480D01*
X0184636Y0245335D01*
X0184696Y0245189D01*
X0184752Y0245041D01*
X0184805Y0244892D01*
X0184854Y0244741D01*
X0184899Y0244589D01*
X0184940Y0244436D01*
X0184978Y0244283D01*
X0185011Y0244128D01*
X0185041Y0243972D01*
X0185067Y0243816D01*
X0185088Y0243659D01*
X0185106Y0243502D01*
X0185120Y0243344D01*
X0185130Y0243186D01*
X0185136Y0243028D01*
X0185138Y0242870D01*
X0185136Y0242712D01*
X0185130Y0242554D01*
X0185120Y0242396D01*
X0185106Y0242238D01*
X0185088Y0242081D01*
X0185067Y0241924D01*
X0185041Y0241768D01*
X0185011Y0241612D01*
X0184978Y0241457D01*
X0184940Y0241304D01*
X0184899Y0241151D01*
X0184854Y0240999D01*
X0184805Y0240848D01*
X0184752Y0240699D01*
X0184696Y0240551D01*
X0184636Y0240405D01*
X0184572Y0240260D01*
X0184504Y0240117D01*
X0184433Y0239975D01*
X0184359Y0239835D01*
X0184281Y0239698D01*
X0184199Y0239562D01*
X0184115Y0239428D01*
X0184026Y0239297D01*
X0183935Y0239168D01*
X0183840Y0239041D01*
X0183743Y0238916D01*
X0183642Y0238794D01*
X0183538Y0238675D01*
X0183431Y0238558D01*
X0183321Y0238444D01*
X0183208Y0238333D01*
X0183093Y0238224D01*
X0182975Y0238119D01*
X0182854Y0238017D01*
X0182731Y0237917D01*
X0182605Y0237821D01*
X0182477Y0237728D01*
X0182347Y0237638D01*
X0182214Y0237552D01*
X0182079Y0237468D01*
X0181943Y0237389D01*
X0181804Y0237312D01*
X0181663Y0237240D01*
X0181521Y0237170D01*
X0181377Y0237105D01*
X0181231Y0237043D01*
X0181084Y0236985D01*
X0180935Y0236930D01*
X0180785Y0236879D01*
X0180634Y0236832D01*
X0180482Y0236789D01*
X0180329Y0236750D01*
X0180174Y0236714D01*
X0180019Y0236683D01*
X0179863Y0236655D01*
X0179707Y0236631D01*
X0179550Y0236611D01*
X0179392Y0236595D01*
X0179235Y0236583D01*
X0179076Y0236575D01*
X0178918Y0236571D01*
X0178760Y0236571D01*
X0178602Y0236575D01*
X0178443Y0236583D01*
X0178286Y0236595D01*
X0178128Y0236611D01*
X0177971Y0236631D01*
X0177815Y0236655D01*
X0177659Y0236683D01*
X0177504Y0236714D01*
X0177349Y0236750D01*
X0177196Y0236789D01*
X0177044Y0236832D01*
X0176893Y0236879D01*
X0176743Y0236930D01*
X0176594Y0236985D01*
X0176447Y0237043D01*
X0176301Y0237105D01*
X0176157Y0237170D01*
X0176015Y0237240D01*
X0175874Y0237312D01*
X0175735Y0237389D01*
X0175599Y0237468D01*
X0175464Y0237552D01*
X0175331Y0237638D01*
X0175201Y0237728D01*
X0175073Y0237821D01*
X0174947Y0237917D01*
X0174824Y0238017D01*
X0174703Y0238119D01*
X0174585Y0238224D01*
X0174470Y0238333D01*
X0174357Y0238444D01*
X0174247Y0238558D01*
X0174140Y0238675D01*
X0174036Y0238794D01*
X0173935Y0238916D01*
X0173838Y0239041D01*
X0173743Y0239168D01*
X0173652Y0239297D01*
X0173563Y0239428D01*
X0173479Y0239562D01*
X0173397Y0239698D01*
X0173319Y0239835D01*
X0173245Y0239975D01*
X0173174Y0240117D01*
X0173106Y0240260D01*
X0173042Y0240405D01*
X0172982Y0240551D01*
X0172926Y0240699D01*
X0172873Y0240848D01*
X0172824Y0240999D01*
X0172779Y0241151D01*
X0172738Y0241304D01*
X0172700Y0241457D01*
X0172667Y0241612D01*
X0172637Y0241768D01*
X0172611Y0241924D01*
X0172590Y0242081D01*
X0172572Y0242238D01*
X0172558Y0242396D01*
X0172548Y0242554D01*
X0172542Y0242712D01*
X0172540Y0242870D01*
X0172540Y0377122D02*
X0172542Y0377280D01*
X0172548Y0377438D01*
X0172558Y0377596D01*
X0172572Y0377754D01*
X0172590Y0377911D01*
X0172611Y0378068D01*
X0172637Y0378224D01*
X0172667Y0378380D01*
X0172700Y0378535D01*
X0172738Y0378688D01*
X0172779Y0378841D01*
X0172824Y0378993D01*
X0172873Y0379144D01*
X0172926Y0379293D01*
X0172982Y0379441D01*
X0173042Y0379587D01*
X0173106Y0379732D01*
X0173174Y0379875D01*
X0173245Y0380017D01*
X0173319Y0380157D01*
X0173397Y0380294D01*
X0173479Y0380430D01*
X0173563Y0380564D01*
X0173652Y0380695D01*
X0173743Y0380824D01*
X0173838Y0380951D01*
X0173935Y0381076D01*
X0174036Y0381198D01*
X0174140Y0381317D01*
X0174247Y0381434D01*
X0174357Y0381548D01*
X0174470Y0381659D01*
X0174585Y0381768D01*
X0174703Y0381873D01*
X0174824Y0381975D01*
X0174947Y0382075D01*
X0175073Y0382171D01*
X0175201Y0382264D01*
X0175331Y0382354D01*
X0175464Y0382440D01*
X0175599Y0382524D01*
X0175735Y0382603D01*
X0175874Y0382680D01*
X0176015Y0382752D01*
X0176157Y0382822D01*
X0176301Y0382887D01*
X0176447Y0382949D01*
X0176594Y0383007D01*
X0176743Y0383062D01*
X0176893Y0383113D01*
X0177044Y0383160D01*
X0177196Y0383203D01*
X0177349Y0383242D01*
X0177504Y0383278D01*
X0177659Y0383309D01*
X0177815Y0383337D01*
X0177971Y0383361D01*
X0178128Y0383381D01*
X0178286Y0383397D01*
X0178443Y0383409D01*
X0178602Y0383417D01*
X0178760Y0383421D01*
X0178918Y0383421D01*
X0179076Y0383417D01*
X0179235Y0383409D01*
X0179392Y0383397D01*
X0179550Y0383381D01*
X0179707Y0383361D01*
X0179863Y0383337D01*
X0180019Y0383309D01*
X0180174Y0383278D01*
X0180329Y0383242D01*
X0180482Y0383203D01*
X0180634Y0383160D01*
X0180785Y0383113D01*
X0180935Y0383062D01*
X0181084Y0383007D01*
X0181231Y0382949D01*
X0181377Y0382887D01*
X0181521Y0382822D01*
X0181663Y0382752D01*
X0181804Y0382680D01*
X0181943Y0382603D01*
X0182079Y0382524D01*
X0182214Y0382440D01*
X0182347Y0382354D01*
X0182477Y0382264D01*
X0182605Y0382171D01*
X0182731Y0382075D01*
X0182854Y0381975D01*
X0182975Y0381873D01*
X0183093Y0381768D01*
X0183208Y0381659D01*
X0183321Y0381548D01*
X0183431Y0381434D01*
X0183538Y0381317D01*
X0183642Y0381198D01*
X0183743Y0381076D01*
X0183840Y0380951D01*
X0183935Y0380824D01*
X0184026Y0380695D01*
X0184115Y0380564D01*
X0184199Y0380430D01*
X0184281Y0380294D01*
X0184359Y0380157D01*
X0184433Y0380017D01*
X0184504Y0379875D01*
X0184572Y0379732D01*
X0184636Y0379587D01*
X0184696Y0379441D01*
X0184752Y0379293D01*
X0184805Y0379144D01*
X0184854Y0378993D01*
X0184899Y0378841D01*
X0184940Y0378688D01*
X0184978Y0378535D01*
X0185011Y0378380D01*
X0185041Y0378224D01*
X0185067Y0378068D01*
X0185088Y0377911D01*
X0185106Y0377754D01*
X0185120Y0377596D01*
X0185130Y0377438D01*
X0185136Y0377280D01*
X0185138Y0377122D01*
X0185136Y0376964D01*
X0185130Y0376806D01*
X0185120Y0376648D01*
X0185106Y0376490D01*
X0185088Y0376333D01*
X0185067Y0376176D01*
X0185041Y0376020D01*
X0185011Y0375864D01*
X0184978Y0375709D01*
X0184940Y0375556D01*
X0184899Y0375403D01*
X0184854Y0375251D01*
X0184805Y0375100D01*
X0184752Y0374951D01*
X0184696Y0374803D01*
X0184636Y0374657D01*
X0184572Y0374512D01*
X0184504Y0374369D01*
X0184433Y0374227D01*
X0184359Y0374087D01*
X0184281Y0373950D01*
X0184199Y0373814D01*
X0184115Y0373680D01*
X0184026Y0373549D01*
X0183935Y0373420D01*
X0183840Y0373293D01*
X0183743Y0373168D01*
X0183642Y0373046D01*
X0183538Y0372927D01*
X0183431Y0372810D01*
X0183321Y0372696D01*
X0183208Y0372585D01*
X0183093Y0372476D01*
X0182975Y0372371D01*
X0182854Y0372269D01*
X0182731Y0372169D01*
X0182605Y0372073D01*
X0182477Y0371980D01*
X0182347Y0371890D01*
X0182214Y0371804D01*
X0182079Y0371720D01*
X0181943Y0371641D01*
X0181804Y0371564D01*
X0181663Y0371492D01*
X0181521Y0371422D01*
X0181377Y0371357D01*
X0181231Y0371295D01*
X0181084Y0371237D01*
X0180935Y0371182D01*
X0180785Y0371131D01*
X0180634Y0371084D01*
X0180482Y0371041D01*
X0180329Y0371002D01*
X0180174Y0370966D01*
X0180019Y0370935D01*
X0179863Y0370907D01*
X0179707Y0370883D01*
X0179550Y0370863D01*
X0179392Y0370847D01*
X0179235Y0370835D01*
X0179076Y0370827D01*
X0178918Y0370823D01*
X0178760Y0370823D01*
X0178602Y0370827D01*
X0178443Y0370835D01*
X0178286Y0370847D01*
X0178128Y0370863D01*
X0177971Y0370883D01*
X0177815Y0370907D01*
X0177659Y0370935D01*
X0177504Y0370966D01*
X0177349Y0371002D01*
X0177196Y0371041D01*
X0177044Y0371084D01*
X0176893Y0371131D01*
X0176743Y0371182D01*
X0176594Y0371237D01*
X0176447Y0371295D01*
X0176301Y0371357D01*
X0176157Y0371422D01*
X0176015Y0371492D01*
X0175874Y0371564D01*
X0175735Y0371641D01*
X0175599Y0371720D01*
X0175464Y0371804D01*
X0175331Y0371890D01*
X0175201Y0371980D01*
X0175073Y0372073D01*
X0174947Y0372169D01*
X0174824Y0372269D01*
X0174703Y0372371D01*
X0174585Y0372476D01*
X0174470Y0372585D01*
X0174357Y0372696D01*
X0174247Y0372810D01*
X0174140Y0372927D01*
X0174036Y0373046D01*
X0173935Y0373168D01*
X0173838Y0373293D01*
X0173743Y0373420D01*
X0173652Y0373549D01*
X0173563Y0373680D01*
X0173479Y0373814D01*
X0173397Y0373950D01*
X0173319Y0374087D01*
X0173245Y0374227D01*
X0173174Y0374369D01*
X0173106Y0374512D01*
X0173042Y0374657D01*
X0172982Y0374803D01*
X0172926Y0374951D01*
X0172873Y0375100D01*
X0172824Y0375251D01*
X0172779Y0375403D01*
X0172738Y0375556D01*
X0172700Y0375709D01*
X0172667Y0375864D01*
X0172637Y0376020D01*
X0172611Y0376176D01*
X0172590Y0376333D01*
X0172572Y0376490D01*
X0172558Y0376648D01*
X0172548Y0376806D01*
X0172542Y0376964D01*
X0172540Y0377122D01*
X0185345Y0408083D02*
X0185347Y0408250D01*
X0185353Y0408417D01*
X0185363Y0408583D01*
X0185378Y0408750D01*
X0185396Y0408915D01*
X0185419Y0409081D01*
X0185445Y0409246D01*
X0185476Y0409410D01*
X0185510Y0409573D01*
X0185549Y0409735D01*
X0185591Y0409897D01*
X0185638Y0410057D01*
X0185688Y0410216D01*
X0185743Y0410374D01*
X0185801Y0410530D01*
X0185863Y0410685D01*
X0185928Y0410839D01*
X0185998Y0410990D01*
X0186071Y0411140D01*
X0186148Y0411288D01*
X0186228Y0411435D01*
X0186312Y0411579D01*
X0186400Y0411721D01*
X0186491Y0411861D01*
X0186585Y0411998D01*
X0186683Y0412134D01*
X0186784Y0412267D01*
X0186889Y0412397D01*
X0186996Y0412525D01*
X0187107Y0412650D01*
X0187220Y0412772D01*
X0187337Y0412891D01*
X0187456Y0413008D01*
X0187578Y0413121D01*
X0187703Y0413232D01*
X0187831Y0413339D01*
X0187961Y0413444D01*
X0188094Y0413545D01*
X0188230Y0413643D01*
X0188367Y0413737D01*
X0188507Y0413828D01*
X0188649Y0413916D01*
X0188793Y0414000D01*
X0188940Y0414080D01*
X0189088Y0414157D01*
X0189238Y0414230D01*
X0189389Y0414300D01*
X0189543Y0414365D01*
X0189698Y0414427D01*
X0189854Y0414485D01*
X0190012Y0414540D01*
X0190171Y0414590D01*
X0190331Y0414637D01*
X0190493Y0414679D01*
X0190655Y0414718D01*
X0190818Y0414752D01*
X0190982Y0414783D01*
X0191147Y0414809D01*
X0191313Y0414832D01*
X0191478Y0414850D01*
X0191645Y0414865D01*
X0191811Y0414875D01*
X0191978Y0414881D01*
X0192145Y0414883D01*
X0192312Y0414881D01*
X0192479Y0414875D01*
X0192645Y0414865D01*
X0192812Y0414850D01*
X0192977Y0414832D01*
X0193143Y0414809D01*
X0193308Y0414783D01*
X0193472Y0414752D01*
X0193635Y0414718D01*
X0193797Y0414679D01*
X0193959Y0414637D01*
X0194119Y0414590D01*
X0194278Y0414540D01*
X0194436Y0414485D01*
X0194592Y0414427D01*
X0194747Y0414365D01*
X0194901Y0414300D01*
X0195052Y0414230D01*
X0195202Y0414157D01*
X0195350Y0414080D01*
X0195497Y0414000D01*
X0195641Y0413916D01*
X0195783Y0413828D01*
X0195923Y0413737D01*
X0196060Y0413643D01*
X0196196Y0413545D01*
X0196329Y0413444D01*
X0196459Y0413339D01*
X0196587Y0413232D01*
X0196712Y0413121D01*
X0196834Y0413008D01*
X0196953Y0412891D01*
X0197070Y0412772D01*
X0197183Y0412650D01*
X0197294Y0412525D01*
X0197401Y0412397D01*
X0197506Y0412267D01*
X0197607Y0412134D01*
X0197705Y0411998D01*
X0197799Y0411861D01*
X0197890Y0411721D01*
X0197978Y0411579D01*
X0198062Y0411435D01*
X0198142Y0411288D01*
X0198219Y0411140D01*
X0198292Y0410990D01*
X0198362Y0410839D01*
X0198427Y0410685D01*
X0198489Y0410530D01*
X0198547Y0410374D01*
X0198602Y0410216D01*
X0198652Y0410057D01*
X0198699Y0409897D01*
X0198741Y0409735D01*
X0198780Y0409573D01*
X0198814Y0409410D01*
X0198845Y0409246D01*
X0198871Y0409081D01*
X0198894Y0408915D01*
X0198912Y0408750D01*
X0198927Y0408583D01*
X0198937Y0408417D01*
X0198943Y0408250D01*
X0198945Y0408083D01*
X0198943Y0407916D01*
X0198937Y0407749D01*
X0198927Y0407583D01*
X0198912Y0407416D01*
X0198894Y0407251D01*
X0198871Y0407085D01*
X0198845Y0406920D01*
X0198814Y0406756D01*
X0198780Y0406593D01*
X0198741Y0406431D01*
X0198699Y0406269D01*
X0198652Y0406109D01*
X0198602Y0405950D01*
X0198547Y0405792D01*
X0198489Y0405636D01*
X0198427Y0405481D01*
X0198362Y0405327D01*
X0198292Y0405176D01*
X0198219Y0405026D01*
X0198142Y0404878D01*
X0198062Y0404731D01*
X0197978Y0404587D01*
X0197890Y0404445D01*
X0197799Y0404305D01*
X0197705Y0404168D01*
X0197607Y0404032D01*
X0197506Y0403899D01*
X0197401Y0403769D01*
X0197294Y0403641D01*
X0197183Y0403516D01*
X0197070Y0403394D01*
X0196953Y0403275D01*
X0196834Y0403158D01*
X0196712Y0403045D01*
X0196587Y0402934D01*
X0196459Y0402827D01*
X0196329Y0402722D01*
X0196196Y0402621D01*
X0196060Y0402523D01*
X0195923Y0402429D01*
X0195783Y0402338D01*
X0195641Y0402250D01*
X0195497Y0402166D01*
X0195350Y0402086D01*
X0195202Y0402009D01*
X0195052Y0401936D01*
X0194901Y0401866D01*
X0194747Y0401801D01*
X0194592Y0401739D01*
X0194436Y0401681D01*
X0194278Y0401626D01*
X0194119Y0401576D01*
X0193959Y0401529D01*
X0193797Y0401487D01*
X0193635Y0401448D01*
X0193472Y0401414D01*
X0193308Y0401383D01*
X0193143Y0401357D01*
X0192977Y0401334D01*
X0192812Y0401316D01*
X0192645Y0401301D01*
X0192479Y0401291D01*
X0192312Y0401285D01*
X0192145Y0401283D01*
X0191978Y0401285D01*
X0191811Y0401291D01*
X0191645Y0401301D01*
X0191478Y0401316D01*
X0191313Y0401334D01*
X0191147Y0401357D01*
X0190982Y0401383D01*
X0190818Y0401414D01*
X0190655Y0401448D01*
X0190493Y0401487D01*
X0190331Y0401529D01*
X0190171Y0401576D01*
X0190012Y0401626D01*
X0189854Y0401681D01*
X0189698Y0401739D01*
X0189543Y0401801D01*
X0189389Y0401866D01*
X0189238Y0401936D01*
X0189088Y0402009D01*
X0188940Y0402086D01*
X0188793Y0402166D01*
X0188649Y0402250D01*
X0188507Y0402338D01*
X0188367Y0402429D01*
X0188230Y0402523D01*
X0188094Y0402621D01*
X0187961Y0402722D01*
X0187831Y0402827D01*
X0187703Y0402934D01*
X0187578Y0403045D01*
X0187456Y0403158D01*
X0187337Y0403275D01*
X0187220Y0403394D01*
X0187107Y0403516D01*
X0186996Y0403641D01*
X0186889Y0403769D01*
X0186784Y0403899D01*
X0186683Y0404032D01*
X0186585Y0404168D01*
X0186491Y0404305D01*
X0186400Y0404445D01*
X0186312Y0404587D01*
X0186228Y0404731D01*
X0186148Y0404878D01*
X0186071Y0405026D01*
X0185998Y0405176D01*
X0185928Y0405327D01*
X0185863Y0405481D01*
X0185801Y0405636D01*
X0185743Y0405792D01*
X0185688Y0405950D01*
X0185638Y0406109D01*
X0185591Y0406269D01*
X0185549Y0406431D01*
X0185510Y0406593D01*
X0185476Y0406756D01*
X0185445Y0406920D01*
X0185419Y0407085D01*
X0185396Y0407251D01*
X0185378Y0407416D01*
X0185363Y0407583D01*
X0185353Y0407749D01*
X0185347Y0407916D01*
X0185345Y0408083D01*
X0225296Y0439583D02*
X0225298Y0439741D01*
X0225304Y0439899D01*
X0225314Y0440057D01*
X0225328Y0440215D01*
X0225346Y0440372D01*
X0225367Y0440529D01*
X0225393Y0440685D01*
X0225423Y0440841D01*
X0225456Y0440996D01*
X0225494Y0441149D01*
X0225535Y0441302D01*
X0225580Y0441454D01*
X0225629Y0441605D01*
X0225682Y0441754D01*
X0225738Y0441902D01*
X0225798Y0442048D01*
X0225862Y0442193D01*
X0225930Y0442336D01*
X0226001Y0442478D01*
X0226075Y0442618D01*
X0226153Y0442755D01*
X0226235Y0442891D01*
X0226319Y0443025D01*
X0226408Y0443156D01*
X0226499Y0443285D01*
X0226594Y0443412D01*
X0226691Y0443537D01*
X0226792Y0443659D01*
X0226896Y0443778D01*
X0227003Y0443895D01*
X0227113Y0444009D01*
X0227226Y0444120D01*
X0227341Y0444229D01*
X0227459Y0444334D01*
X0227580Y0444436D01*
X0227703Y0444536D01*
X0227829Y0444632D01*
X0227957Y0444725D01*
X0228087Y0444815D01*
X0228220Y0444901D01*
X0228355Y0444985D01*
X0228491Y0445064D01*
X0228630Y0445141D01*
X0228771Y0445213D01*
X0228913Y0445283D01*
X0229057Y0445348D01*
X0229203Y0445410D01*
X0229350Y0445468D01*
X0229499Y0445523D01*
X0229649Y0445574D01*
X0229800Y0445621D01*
X0229952Y0445664D01*
X0230105Y0445703D01*
X0230260Y0445739D01*
X0230415Y0445770D01*
X0230571Y0445798D01*
X0230727Y0445822D01*
X0230884Y0445842D01*
X0231042Y0445858D01*
X0231199Y0445870D01*
X0231358Y0445878D01*
X0231516Y0445882D01*
X0231674Y0445882D01*
X0231832Y0445878D01*
X0231991Y0445870D01*
X0232148Y0445858D01*
X0232306Y0445842D01*
X0232463Y0445822D01*
X0232619Y0445798D01*
X0232775Y0445770D01*
X0232930Y0445739D01*
X0233085Y0445703D01*
X0233238Y0445664D01*
X0233390Y0445621D01*
X0233541Y0445574D01*
X0233691Y0445523D01*
X0233840Y0445468D01*
X0233987Y0445410D01*
X0234133Y0445348D01*
X0234277Y0445283D01*
X0234419Y0445213D01*
X0234560Y0445141D01*
X0234699Y0445064D01*
X0234835Y0444985D01*
X0234970Y0444901D01*
X0235103Y0444815D01*
X0235233Y0444725D01*
X0235361Y0444632D01*
X0235487Y0444536D01*
X0235610Y0444436D01*
X0235731Y0444334D01*
X0235849Y0444229D01*
X0235964Y0444120D01*
X0236077Y0444009D01*
X0236187Y0443895D01*
X0236294Y0443778D01*
X0236398Y0443659D01*
X0236499Y0443537D01*
X0236596Y0443412D01*
X0236691Y0443285D01*
X0236782Y0443156D01*
X0236871Y0443025D01*
X0236955Y0442891D01*
X0237037Y0442755D01*
X0237115Y0442618D01*
X0237189Y0442478D01*
X0237260Y0442336D01*
X0237328Y0442193D01*
X0237392Y0442048D01*
X0237452Y0441902D01*
X0237508Y0441754D01*
X0237561Y0441605D01*
X0237610Y0441454D01*
X0237655Y0441302D01*
X0237696Y0441149D01*
X0237734Y0440996D01*
X0237767Y0440841D01*
X0237797Y0440685D01*
X0237823Y0440529D01*
X0237844Y0440372D01*
X0237862Y0440215D01*
X0237876Y0440057D01*
X0237886Y0439899D01*
X0237892Y0439741D01*
X0237894Y0439583D01*
X0237892Y0439425D01*
X0237886Y0439267D01*
X0237876Y0439109D01*
X0237862Y0438951D01*
X0237844Y0438794D01*
X0237823Y0438637D01*
X0237797Y0438481D01*
X0237767Y0438325D01*
X0237734Y0438170D01*
X0237696Y0438017D01*
X0237655Y0437864D01*
X0237610Y0437712D01*
X0237561Y0437561D01*
X0237508Y0437412D01*
X0237452Y0437264D01*
X0237392Y0437118D01*
X0237328Y0436973D01*
X0237260Y0436830D01*
X0237189Y0436688D01*
X0237115Y0436548D01*
X0237037Y0436411D01*
X0236955Y0436275D01*
X0236871Y0436141D01*
X0236782Y0436010D01*
X0236691Y0435881D01*
X0236596Y0435754D01*
X0236499Y0435629D01*
X0236398Y0435507D01*
X0236294Y0435388D01*
X0236187Y0435271D01*
X0236077Y0435157D01*
X0235964Y0435046D01*
X0235849Y0434937D01*
X0235731Y0434832D01*
X0235610Y0434730D01*
X0235487Y0434630D01*
X0235361Y0434534D01*
X0235233Y0434441D01*
X0235103Y0434351D01*
X0234970Y0434265D01*
X0234835Y0434181D01*
X0234699Y0434102D01*
X0234560Y0434025D01*
X0234419Y0433953D01*
X0234277Y0433883D01*
X0234133Y0433818D01*
X0233987Y0433756D01*
X0233840Y0433698D01*
X0233691Y0433643D01*
X0233541Y0433592D01*
X0233390Y0433545D01*
X0233238Y0433502D01*
X0233085Y0433463D01*
X0232930Y0433427D01*
X0232775Y0433396D01*
X0232619Y0433368D01*
X0232463Y0433344D01*
X0232306Y0433324D01*
X0232148Y0433308D01*
X0231991Y0433296D01*
X0231832Y0433288D01*
X0231674Y0433284D01*
X0231516Y0433284D01*
X0231358Y0433288D01*
X0231199Y0433296D01*
X0231042Y0433308D01*
X0230884Y0433324D01*
X0230727Y0433344D01*
X0230571Y0433368D01*
X0230415Y0433396D01*
X0230260Y0433427D01*
X0230105Y0433463D01*
X0229952Y0433502D01*
X0229800Y0433545D01*
X0229649Y0433592D01*
X0229499Y0433643D01*
X0229350Y0433698D01*
X0229203Y0433756D01*
X0229057Y0433818D01*
X0228913Y0433883D01*
X0228771Y0433953D01*
X0228630Y0434025D01*
X0228491Y0434102D01*
X0228355Y0434181D01*
X0228220Y0434265D01*
X0228087Y0434351D01*
X0227957Y0434441D01*
X0227829Y0434534D01*
X0227703Y0434630D01*
X0227580Y0434730D01*
X0227459Y0434832D01*
X0227341Y0434937D01*
X0227226Y0435046D01*
X0227113Y0435157D01*
X0227003Y0435271D01*
X0226896Y0435388D01*
X0226792Y0435507D01*
X0226691Y0435629D01*
X0226594Y0435754D01*
X0226499Y0435881D01*
X0226408Y0436010D01*
X0226319Y0436141D01*
X0226235Y0436275D01*
X0226153Y0436411D01*
X0226075Y0436548D01*
X0226001Y0436688D01*
X0225930Y0436830D01*
X0225862Y0436973D01*
X0225798Y0437118D01*
X0225738Y0437264D01*
X0225682Y0437412D01*
X0225629Y0437561D01*
X0225580Y0437712D01*
X0225535Y0437864D01*
X0225494Y0438017D01*
X0225456Y0438170D01*
X0225423Y0438325D01*
X0225393Y0438481D01*
X0225367Y0438637D01*
X0225346Y0438794D01*
X0225328Y0438951D01*
X0225314Y0439109D01*
X0225304Y0439267D01*
X0225298Y0439425D01*
X0225296Y0439583D01*
X0355296Y0439583D02*
X0355298Y0439741D01*
X0355304Y0439899D01*
X0355314Y0440057D01*
X0355328Y0440215D01*
X0355346Y0440372D01*
X0355367Y0440529D01*
X0355393Y0440685D01*
X0355423Y0440841D01*
X0355456Y0440996D01*
X0355494Y0441149D01*
X0355535Y0441302D01*
X0355580Y0441454D01*
X0355629Y0441605D01*
X0355682Y0441754D01*
X0355738Y0441902D01*
X0355798Y0442048D01*
X0355862Y0442193D01*
X0355930Y0442336D01*
X0356001Y0442478D01*
X0356075Y0442618D01*
X0356153Y0442755D01*
X0356235Y0442891D01*
X0356319Y0443025D01*
X0356408Y0443156D01*
X0356499Y0443285D01*
X0356594Y0443412D01*
X0356691Y0443537D01*
X0356792Y0443659D01*
X0356896Y0443778D01*
X0357003Y0443895D01*
X0357113Y0444009D01*
X0357226Y0444120D01*
X0357341Y0444229D01*
X0357459Y0444334D01*
X0357580Y0444436D01*
X0357703Y0444536D01*
X0357829Y0444632D01*
X0357957Y0444725D01*
X0358087Y0444815D01*
X0358220Y0444901D01*
X0358355Y0444985D01*
X0358491Y0445064D01*
X0358630Y0445141D01*
X0358771Y0445213D01*
X0358913Y0445283D01*
X0359057Y0445348D01*
X0359203Y0445410D01*
X0359350Y0445468D01*
X0359499Y0445523D01*
X0359649Y0445574D01*
X0359800Y0445621D01*
X0359952Y0445664D01*
X0360105Y0445703D01*
X0360260Y0445739D01*
X0360415Y0445770D01*
X0360571Y0445798D01*
X0360727Y0445822D01*
X0360884Y0445842D01*
X0361042Y0445858D01*
X0361199Y0445870D01*
X0361358Y0445878D01*
X0361516Y0445882D01*
X0361674Y0445882D01*
X0361832Y0445878D01*
X0361991Y0445870D01*
X0362148Y0445858D01*
X0362306Y0445842D01*
X0362463Y0445822D01*
X0362619Y0445798D01*
X0362775Y0445770D01*
X0362930Y0445739D01*
X0363085Y0445703D01*
X0363238Y0445664D01*
X0363390Y0445621D01*
X0363541Y0445574D01*
X0363691Y0445523D01*
X0363840Y0445468D01*
X0363987Y0445410D01*
X0364133Y0445348D01*
X0364277Y0445283D01*
X0364419Y0445213D01*
X0364560Y0445141D01*
X0364699Y0445064D01*
X0364835Y0444985D01*
X0364970Y0444901D01*
X0365103Y0444815D01*
X0365233Y0444725D01*
X0365361Y0444632D01*
X0365487Y0444536D01*
X0365610Y0444436D01*
X0365731Y0444334D01*
X0365849Y0444229D01*
X0365964Y0444120D01*
X0366077Y0444009D01*
X0366187Y0443895D01*
X0366294Y0443778D01*
X0366398Y0443659D01*
X0366499Y0443537D01*
X0366596Y0443412D01*
X0366691Y0443285D01*
X0366782Y0443156D01*
X0366871Y0443025D01*
X0366955Y0442891D01*
X0367037Y0442755D01*
X0367115Y0442618D01*
X0367189Y0442478D01*
X0367260Y0442336D01*
X0367328Y0442193D01*
X0367392Y0442048D01*
X0367452Y0441902D01*
X0367508Y0441754D01*
X0367561Y0441605D01*
X0367610Y0441454D01*
X0367655Y0441302D01*
X0367696Y0441149D01*
X0367734Y0440996D01*
X0367767Y0440841D01*
X0367797Y0440685D01*
X0367823Y0440529D01*
X0367844Y0440372D01*
X0367862Y0440215D01*
X0367876Y0440057D01*
X0367886Y0439899D01*
X0367892Y0439741D01*
X0367894Y0439583D01*
X0367892Y0439425D01*
X0367886Y0439267D01*
X0367876Y0439109D01*
X0367862Y0438951D01*
X0367844Y0438794D01*
X0367823Y0438637D01*
X0367797Y0438481D01*
X0367767Y0438325D01*
X0367734Y0438170D01*
X0367696Y0438017D01*
X0367655Y0437864D01*
X0367610Y0437712D01*
X0367561Y0437561D01*
X0367508Y0437412D01*
X0367452Y0437264D01*
X0367392Y0437118D01*
X0367328Y0436973D01*
X0367260Y0436830D01*
X0367189Y0436688D01*
X0367115Y0436548D01*
X0367037Y0436411D01*
X0366955Y0436275D01*
X0366871Y0436141D01*
X0366782Y0436010D01*
X0366691Y0435881D01*
X0366596Y0435754D01*
X0366499Y0435629D01*
X0366398Y0435507D01*
X0366294Y0435388D01*
X0366187Y0435271D01*
X0366077Y0435157D01*
X0365964Y0435046D01*
X0365849Y0434937D01*
X0365731Y0434832D01*
X0365610Y0434730D01*
X0365487Y0434630D01*
X0365361Y0434534D01*
X0365233Y0434441D01*
X0365103Y0434351D01*
X0364970Y0434265D01*
X0364835Y0434181D01*
X0364699Y0434102D01*
X0364560Y0434025D01*
X0364419Y0433953D01*
X0364277Y0433883D01*
X0364133Y0433818D01*
X0363987Y0433756D01*
X0363840Y0433698D01*
X0363691Y0433643D01*
X0363541Y0433592D01*
X0363390Y0433545D01*
X0363238Y0433502D01*
X0363085Y0433463D01*
X0362930Y0433427D01*
X0362775Y0433396D01*
X0362619Y0433368D01*
X0362463Y0433344D01*
X0362306Y0433324D01*
X0362148Y0433308D01*
X0361991Y0433296D01*
X0361832Y0433288D01*
X0361674Y0433284D01*
X0361516Y0433284D01*
X0361358Y0433288D01*
X0361199Y0433296D01*
X0361042Y0433308D01*
X0360884Y0433324D01*
X0360727Y0433344D01*
X0360571Y0433368D01*
X0360415Y0433396D01*
X0360260Y0433427D01*
X0360105Y0433463D01*
X0359952Y0433502D01*
X0359800Y0433545D01*
X0359649Y0433592D01*
X0359499Y0433643D01*
X0359350Y0433698D01*
X0359203Y0433756D01*
X0359057Y0433818D01*
X0358913Y0433883D01*
X0358771Y0433953D01*
X0358630Y0434025D01*
X0358491Y0434102D01*
X0358355Y0434181D01*
X0358220Y0434265D01*
X0358087Y0434351D01*
X0357957Y0434441D01*
X0357829Y0434534D01*
X0357703Y0434630D01*
X0357580Y0434730D01*
X0357459Y0434832D01*
X0357341Y0434937D01*
X0357226Y0435046D01*
X0357113Y0435157D01*
X0357003Y0435271D01*
X0356896Y0435388D01*
X0356792Y0435507D01*
X0356691Y0435629D01*
X0356594Y0435754D01*
X0356499Y0435881D01*
X0356408Y0436010D01*
X0356319Y0436141D01*
X0356235Y0436275D01*
X0356153Y0436411D01*
X0356075Y0436548D01*
X0356001Y0436688D01*
X0355930Y0436830D01*
X0355862Y0436973D01*
X0355798Y0437118D01*
X0355738Y0437264D01*
X0355682Y0437412D01*
X0355629Y0437561D01*
X0355580Y0437712D01*
X0355535Y0437864D01*
X0355494Y0438017D01*
X0355456Y0438170D01*
X0355423Y0438325D01*
X0355393Y0438481D01*
X0355367Y0438637D01*
X0355346Y0438794D01*
X0355328Y0438951D01*
X0355314Y0439109D01*
X0355304Y0439267D01*
X0355298Y0439425D01*
X0355296Y0439583D01*
X0402845Y0471083D02*
X0402847Y0471250D01*
X0402853Y0471417D01*
X0402863Y0471583D01*
X0402878Y0471750D01*
X0402896Y0471915D01*
X0402919Y0472081D01*
X0402945Y0472246D01*
X0402976Y0472410D01*
X0403010Y0472573D01*
X0403049Y0472735D01*
X0403091Y0472897D01*
X0403138Y0473057D01*
X0403188Y0473216D01*
X0403243Y0473374D01*
X0403301Y0473530D01*
X0403363Y0473685D01*
X0403428Y0473839D01*
X0403498Y0473990D01*
X0403571Y0474140D01*
X0403648Y0474288D01*
X0403728Y0474435D01*
X0403812Y0474579D01*
X0403900Y0474721D01*
X0403991Y0474861D01*
X0404085Y0474998D01*
X0404183Y0475134D01*
X0404284Y0475267D01*
X0404389Y0475397D01*
X0404496Y0475525D01*
X0404607Y0475650D01*
X0404720Y0475772D01*
X0404837Y0475891D01*
X0404956Y0476008D01*
X0405078Y0476121D01*
X0405203Y0476232D01*
X0405331Y0476339D01*
X0405461Y0476444D01*
X0405594Y0476545D01*
X0405730Y0476643D01*
X0405867Y0476737D01*
X0406007Y0476828D01*
X0406149Y0476916D01*
X0406293Y0477000D01*
X0406440Y0477080D01*
X0406588Y0477157D01*
X0406738Y0477230D01*
X0406889Y0477300D01*
X0407043Y0477365D01*
X0407198Y0477427D01*
X0407354Y0477485D01*
X0407512Y0477540D01*
X0407671Y0477590D01*
X0407831Y0477637D01*
X0407993Y0477679D01*
X0408155Y0477718D01*
X0408318Y0477752D01*
X0408482Y0477783D01*
X0408647Y0477809D01*
X0408813Y0477832D01*
X0408978Y0477850D01*
X0409145Y0477865D01*
X0409311Y0477875D01*
X0409478Y0477881D01*
X0409645Y0477883D01*
X0409812Y0477881D01*
X0409979Y0477875D01*
X0410145Y0477865D01*
X0410312Y0477850D01*
X0410477Y0477832D01*
X0410643Y0477809D01*
X0410808Y0477783D01*
X0410972Y0477752D01*
X0411135Y0477718D01*
X0411297Y0477679D01*
X0411459Y0477637D01*
X0411619Y0477590D01*
X0411778Y0477540D01*
X0411936Y0477485D01*
X0412092Y0477427D01*
X0412247Y0477365D01*
X0412401Y0477300D01*
X0412552Y0477230D01*
X0412702Y0477157D01*
X0412850Y0477080D01*
X0412997Y0477000D01*
X0413141Y0476916D01*
X0413283Y0476828D01*
X0413423Y0476737D01*
X0413560Y0476643D01*
X0413696Y0476545D01*
X0413829Y0476444D01*
X0413959Y0476339D01*
X0414087Y0476232D01*
X0414212Y0476121D01*
X0414334Y0476008D01*
X0414453Y0475891D01*
X0414570Y0475772D01*
X0414683Y0475650D01*
X0414794Y0475525D01*
X0414901Y0475397D01*
X0415006Y0475267D01*
X0415107Y0475134D01*
X0415205Y0474998D01*
X0415299Y0474861D01*
X0415390Y0474721D01*
X0415478Y0474579D01*
X0415562Y0474435D01*
X0415642Y0474288D01*
X0415719Y0474140D01*
X0415792Y0473990D01*
X0415862Y0473839D01*
X0415927Y0473685D01*
X0415989Y0473530D01*
X0416047Y0473374D01*
X0416102Y0473216D01*
X0416152Y0473057D01*
X0416199Y0472897D01*
X0416241Y0472735D01*
X0416280Y0472573D01*
X0416314Y0472410D01*
X0416345Y0472246D01*
X0416371Y0472081D01*
X0416394Y0471915D01*
X0416412Y0471750D01*
X0416427Y0471583D01*
X0416437Y0471417D01*
X0416443Y0471250D01*
X0416445Y0471083D01*
X0416443Y0470916D01*
X0416437Y0470749D01*
X0416427Y0470583D01*
X0416412Y0470416D01*
X0416394Y0470251D01*
X0416371Y0470085D01*
X0416345Y0469920D01*
X0416314Y0469756D01*
X0416280Y0469593D01*
X0416241Y0469431D01*
X0416199Y0469269D01*
X0416152Y0469109D01*
X0416102Y0468950D01*
X0416047Y0468792D01*
X0415989Y0468636D01*
X0415927Y0468481D01*
X0415862Y0468327D01*
X0415792Y0468176D01*
X0415719Y0468026D01*
X0415642Y0467878D01*
X0415562Y0467731D01*
X0415478Y0467587D01*
X0415390Y0467445D01*
X0415299Y0467305D01*
X0415205Y0467168D01*
X0415107Y0467032D01*
X0415006Y0466899D01*
X0414901Y0466769D01*
X0414794Y0466641D01*
X0414683Y0466516D01*
X0414570Y0466394D01*
X0414453Y0466275D01*
X0414334Y0466158D01*
X0414212Y0466045D01*
X0414087Y0465934D01*
X0413959Y0465827D01*
X0413829Y0465722D01*
X0413696Y0465621D01*
X0413560Y0465523D01*
X0413423Y0465429D01*
X0413283Y0465338D01*
X0413141Y0465250D01*
X0412997Y0465166D01*
X0412850Y0465086D01*
X0412702Y0465009D01*
X0412552Y0464936D01*
X0412401Y0464866D01*
X0412247Y0464801D01*
X0412092Y0464739D01*
X0411936Y0464681D01*
X0411778Y0464626D01*
X0411619Y0464576D01*
X0411459Y0464529D01*
X0411297Y0464487D01*
X0411135Y0464448D01*
X0410972Y0464414D01*
X0410808Y0464383D01*
X0410643Y0464357D01*
X0410477Y0464334D01*
X0410312Y0464316D01*
X0410145Y0464301D01*
X0409979Y0464291D01*
X0409812Y0464285D01*
X0409645Y0464283D01*
X0409478Y0464285D01*
X0409311Y0464291D01*
X0409145Y0464301D01*
X0408978Y0464316D01*
X0408813Y0464334D01*
X0408647Y0464357D01*
X0408482Y0464383D01*
X0408318Y0464414D01*
X0408155Y0464448D01*
X0407993Y0464487D01*
X0407831Y0464529D01*
X0407671Y0464576D01*
X0407512Y0464626D01*
X0407354Y0464681D01*
X0407198Y0464739D01*
X0407043Y0464801D01*
X0406889Y0464866D01*
X0406738Y0464936D01*
X0406588Y0465009D01*
X0406440Y0465086D01*
X0406293Y0465166D01*
X0406149Y0465250D01*
X0406007Y0465338D01*
X0405867Y0465429D01*
X0405730Y0465523D01*
X0405594Y0465621D01*
X0405461Y0465722D01*
X0405331Y0465827D01*
X0405203Y0465934D01*
X0405078Y0466045D01*
X0404956Y0466158D01*
X0404837Y0466275D01*
X0404720Y0466394D01*
X0404607Y0466516D01*
X0404496Y0466641D01*
X0404389Y0466769D01*
X0404284Y0466899D01*
X0404183Y0467032D01*
X0404085Y0467168D01*
X0403991Y0467305D01*
X0403900Y0467445D01*
X0403812Y0467587D01*
X0403728Y0467731D01*
X0403648Y0467878D01*
X0403571Y0468026D01*
X0403498Y0468176D01*
X0403428Y0468327D01*
X0403363Y0468481D01*
X0403301Y0468636D01*
X0403243Y0468792D01*
X0403188Y0468950D01*
X0403138Y0469109D01*
X0403091Y0469269D01*
X0403049Y0469431D01*
X0403010Y0469593D01*
X0402976Y0469756D01*
X0402945Y0469920D01*
X0402919Y0470085D01*
X0402896Y0470251D01*
X0402878Y0470416D01*
X0402863Y0470583D01*
X0402853Y0470749D01*
X0402847Y0470916D01*
X0402845Y0471083D01*
X0437295Y0408083D02*
X0437297Y0408220D01*
X0437303Y0408356D01*
X0437313Y0408493D01*
X0437327Y0408629D01*
X0437345Y0408764D01*
X0437366Y0408899D01*
X0437392Y0409033D01*
X0437422Y0409167D01*
X0437455Y0409299D01*
X0437492Y0409431D01*
X0437534Y0409561D01*
X0437578Y0409690D01*
X0437627Y0409818D01*
X0437679Y0409945D01*
X0437735Y0410069D01*
X0437795Y0410192D01*
X0437858Y0410314D01*
X0437925Y0410433D01*
X0437995Y0410550D01*
X0438068Y0410666D01*
X0438145Y0410779D01*
X0438225Y0410890D01*
X0438308Y0410998D01*
X0438395Y0411104D01*
X0438484Y0411208D01*
X0438576Y0411308D01*
X0438672Y0411406D01*
X0438770Y0411502D01*
X0438870Y0411594D01*
X0438974Y0411683D01*
X0439080Y0411770D01*
X0439188Y0411853D01*
X0439299Y0411933D01*
X0439412Y0412010D01*
X0439528Y0412083D01*
X0439645Y0412153D01*
X0439764Y0412220D01*
X0439886Y0412283D01*
X0440009Y0412343D01*
X0440133Y0412399D01*
X0440260Y0412451D01*
X0440388Y0412500D01*
X0440517Y0412544D01*
X0440647Y0412586D01*
X0440779Y0412623D01*
X0440911Y0412656D01*
X0441045Y0412686D01*
X0441179Y0412712D01*
X0441314Y0412733D01*
X0441449Y0412751D01*
X0441585Y0412765D01*
X0441722Y0412775D01*
X0441858Y0412781D01*
X0441995Y0412783D01*
X0442132Y0412781D01*
X0442268Y0412775D01*
X0442405Y0412765D01*
X0442541Y0412751D01*
X0442676Y0412733D01*
X0442811Y0412712D01*
X0442945Y0412686D01*
X0443079Y0412656D01*
X0443211Y0412623D01*
X0443343Y0412586D01*
X0443473Y0412544D01*
X0443602Y0412500D01*
X0443730Y0412451D01*
X0443857Y0412399D01*
X0443981Y0412343D01*
X0444104Y0412283D01*
X0444226Y0412220D01*
X0444345Y0412153D01*
X0444462Y0412083D01*
X0444578Y0412010D01*
X0444691Y0411933D01*
X0444802Y0411853D01*
X0444910Y0411770D01*
X0445016Y0411683D01*
X0445120Y0411594D01*
X0445220Y0411502D01*
X0445318Y0411406D01*
X0445414Y0411308D01*
X0445506Y0411208D01*
X0445595Y0411104D01*
X0445682Y0410998D01*
X0445765Y0410890D01*
X0445845Y0410779D01*
X0445922Y0410666D01*
X0445995Y0410550D01*
X0446065Y0410433D01*
X0446132Y0410314D01*
X0446195Y0410192D01*
X0446255Y0410069D01*
X0446311Y0409945D01*
X0446363Y0409818D01*
X0446412Y0409690D01*
X0446456Y0409561D01*
X0446498Y0409431D01*
X0446535Y0409299D01*
X0446568Y0409167D01*
X0446598Y0409033D01*
X0446624Y0408899D01*
X0446645Y0408764D01*
X0446663Y0408629D01*
X0446677Y0408493D01*
X0446687Y0408356D01*
X0446693Y0408220D01*
X0446695Y0408083D01*
X0446693Y0407946D01*
X0446687Y0407810D01*
X0446677Y0407673D01*
X0446663Y0407537D01*
X0446645Y0407402D01*
X0446624Y0407267D01*
X0446598Y0407133D01*
X0446568Y0406999D01*
X0446535Y0406867D01*
X0446498Y0406735D01*
X0446456Y0406605D01*
X0446412Y0406476D01*
X0446363Y0406348D01*
X0446311Y0406221D01*
X0446255Y0406097D01*
X0446195Y0405974D01*
X0446132Y0405852D01*
X0446065Y0405733D01*
X0445995Y0405616D01*
X0445922Y0405500D01*
X0445845Y0405387D01*
X0445765Y0405276D01*
X0445682Y0405168D01*
X0445595Y0405062D01*
X0445506Y0404958D01*
X0445414Y0404858D01*
X0445318Y0404760D01*
X0445220Y0404664D01*
X0445120Y0404572D01*
X0445016Y0404483D01*
X0444910Y0404396D01*
X0444802Y0404313D01*
X0444691Y0404233D01*
X0444578Y0404156D01*
X0444462Y0404083D01*
X0444345Y0404013D01*
X0444226Y0403946D01*
X0444104Y0403883D01*
X0443981Y0403823D01*
X0443857Y0403767D01*
X0443730Y0403715D01*
X0443602Y0403666D01*
X0443473Y0403622D01*
X0443343Y0403580D01*
X0443211Y0403543D01*
X0443079Y0403510D01*
X0442945Y0403480D01*
X0442811Y0403454D01*
X0442676Y0403433D01*
X0442541Y0403415D01*
X0442405Y0403401D01*
X0442268Y0403391D01*
X0442132Y0403385D01*
X0441995Y0403383D01*
X0441858Y0403385D01*
X0441722Y0403391D01*
X0441585Y0403401D01*
X0441449Y0403415D01*
X0441314Y0403433D01*
X0441179Y0403454D01*
X0441045Y0403480D01*
X0440911Y0403510D01*
X0440779Y0403543D01*
X0440647Y0403580D01*
X0440517Y0403622D01*
X0440388Y0403666D01*
X0440260Y0403715D01*
X0440133Y0403767D01*
X0440009Y0403823D01*
X0439886Y0403883D01*
X0439764Y0403946D01*
X0439645Y0404013D01*
X0439528Y0404083D01*
X0439412Y0404156D01*
X0439299Y0404233D01*
X0439188Y0404313D01*
X0439080Y0404396D01*
X0438974Y0404483D01*
X0438870Y0404572D01*
X0438770Y0404664D01*
X0438672Y0404760D01*
X0438576Y0404858D01*
X0438484Y0404958D01*
X0438395Y0405062D01*
X0438308Y0405168D01*
X0438225Y0405276D01*
X0438145Y0405387D01*
X0438068Y0405500D01*
X0437995Y0405616D01*
X0437925Y0405733D01*
X0437858Y0405852D01*
X0437795Y0405974D01*
X0437735Y0406097D01*
X0437679Y0406221D01*
X0437627Y0406348D01*
X0437578Y0406476D01*
X0437534Y0406605D01*
X0437492Y0406735D01*
X0437455Y0406867D01*
X0437422Y0406999D01*
X0437392Y0407133D01*
X0437366Y0407267D01*
X0437345Y0407402D01*
X0437327Y0407537D01*
X0437313Y0407673D01*
X0437303Y0407810D01*
X0437297Y0407946D01*
X0437295Y0408083D01*
X0413485Y0377122D02*
X0413487Y0377280D01*
X0413493Y0377438D01*
X0413503Y0377596D01*
X0413517Y0377754D01*
X0413535Y0377911D01*
X0413556Y0378068D01*
X0413582Y0378224D01*
X0413612Y0378380D01*
X0413645Y0378535D01*
X0413683Y0378688D01*
X0413724Y0378841D01*
X0413769Y0378993D01*
X0413818Y0379144D01*
X0413871Y0379293D01*
X0413927Y0379441D01*
X0413987Y0379587D01*
X0414051Y0379732D01*
X0414119Y0379875D01*
X0414190Y0380017D01*
X0414264Y0380157D01*
X0414342Y0380294D01*
X0414424Y0380430D01*
X0414508Y0380564D01*
X0414597Y0380695D01*
X0414688Y0380824D01*
X0414783Y0380951D01*
X0414880Y0381076D01*
X0414981Y0381198D01*
X0415085Y0381317D01*
X0415192Y0381434D01*
X0415302Y0381548D01*
X0415415Y0381659D01*
X0415530Y0381768D01*
X0415648Y0381873D01*
X0415769Y0381975D01*
X0415892Y0382075D01*
X0416018Y0382171D01*
X0416146Y0382264D01*
X0416276Y0382354D01*
X0416409Y0382440D01*
X0416544Y0382524D01*
X0416680Y0382603D01*
X0416819Y0382680D01*
X0416960Y0382752D01*
X0417102Y0382822D01*
X0417246Y0382887D01*
X0417392Y0382949D01*
X0417539Y0383007D01*
X0417688Y0383062D01*
X0417838Y0383113D01*
X0417989Y0383160D01*
X0418141Y0383203D01*
X0418294Y0383242D01*
X0418449Y0383278D01*
X0418604Y0383309D01*
X0418760Y0383337D01*
X0418916Y0383361D01*
X0419073Y0383381D01*
X0419231Y0383397D01*
X0419388Y0383409D01*
X0419547Y0383417D01*
X0419705Y0383421D01*
X0419863Y0383421D01*
X0420021Y0383417D01*
X0420180Y0383409D01*
X0420337Y0383397D01*
X0420495Y0383381D01*
X0420652Y0383361D01*
X0420808Y0383337D01*
X0420964Y0383309D01*
X0421119Y0383278D01*
X0421274Y0383242D01*
X0421427Y0383203D01*
X0421579Y0383160D01*
X0421730Y0383113D01*
X0421880Y0383062D01*
X0422029Y0383007D01*
X0422176Y0382949D01*
X0422322Y0382887D01*
X0422466Y0382822D01*
X0422608Y0382752D01*
X0422749Y0382680D01*
X0422888Y0382603D01*
X0423024Y0382524D01*
X0423159Y0382440D01*
X0423292Y0382354D01*
X0423422Y0382264D01*
X0423550Y0382171D01*
X0423676Y0382075D01*
X0423799Y0381975D01*
X0423920Y0381873D01*
X0424038Y0381768D01*
X0424153Y0381659D01*
X0424266Y0381548D01*
X0424376Y0381434D01*
X0424483Y0381317D01*
X0424587Y0381198D01*
X0424688Y0381076D01*
X0424785Y0380951D01*
X0424880Y0380824D01*
X0424971Y0380695D01*
X0425060Y0380564D01*
X0425144Y0380430D01*
X0425226Y0380294D01*
X0425304Y0380157D01*
X0425378Y0380017D01*
X0425449Y0379875D01*
X0425517Y0379732D01*
X0425581Y0379587D01*
X0425641Y0379441D01*
X0425697Y0379293D01*
X0425750Y0379144D01*
X0425799Y0378993D01*
X0425844Y0378841D01*
X0425885Y0378688D01*
X0425923Y0378535D01*
X0425956Y0378380D01*
X0425986Y0378224D01*
X0426012Y0378068D01*
X0426033Y0377911D01*
X0426051Y0377754D01*
X0426065Y0377596D01*
X0426075Y0377438D01*
X0426081Y0377280D01*
X0426083Y0377122D01*
X0426081Y0376964D01*
X0426075Y0376806D01*
X0426065Y0376648D01*
X0426051Y0376490D01*
X0426033Y0376333D01*
X0426012Y0376176D01*
X0425986Y0376020D01*
X0425956Y0375864D01*
X0425923Y0375709D01*
X0425885Y0375556D01*
X0425844Y0375403D01*
X0425799Y0375251D01*
X0425750Y0375100D01*
X0425697Y0374951D01*
X0425641Y0374803D01*
X0425581Y0374657D01*
X0425517Y0374512D01*
X0425449Y0374369D01*
X0425378Y0374227D01*
X0425304Y0374087D01*
X0425226Y0373950D01*
X0425144Y0373814D01*
X0425060Y0373680D01*
X0424971Y0373549D01*
X0424880Y0373420D01*
X0424785Y0373293D01*
X0424688Y0373168D01*
X0424587Y0373046D01*
X0424483Y0372927D01*
X0424376Y0372810D01*
X0424266Y0372696D01*
X0424153Y0372585D01*
X0424038Y0372476D01*
X0423920Y0372371D01*
X0423799Y0372269D01*
X0423676Y0372169D01*
X0423550Y0372073D01*
X0423422Y0371980D01*
X0423292Y0371890D01*
X0423159Y0371804D01*
X0423024Y0371720D01*
X0422888Y0371641D01*
X0422749Y0371564D01*
X0422608Y0371492D01*
X0422466Y0371422D01*
X0422322Y0371357D01*
X0422176Y0371295D01*
X0422029Y0371237D01*
X0421880Y0371182D01*
X0421730Y0371131D01*
X0421579Y0371084D01*
X0421427Y0371041D01*
X0421274Y0371002D01*
X0421119Y0370966D01*
X0420964Y0370935D01*
X0420808Y0370907D01*
X0420652Y0370883D01*
X0420495Y0370863D01*
X0420337Y0370847D01*
X0420180Y0370835D01*
X0420021Y0370827D01*
X0419863Y0370823D01*
X0419705Y0370823D01*
X0419547Y0370827D01*
X0419388Y0370835D01*
X0419231Y0370847D01*
X0419073Y0370863D01*
X0418916Y0370883D01*
X0418760Y0370907D01*
X0418604Y0370935D01*
X0418449Y0370966D01*
X0418294Y0371002D01*
X0418141Y0371041D01*
X0417989Y0371084D01*
X0417838Y0371131D01*
X0417688Y0371182D01*
X0417539Y0371237D01*
X0417392Y0371295D01*
X0417246Y0371357D01*
X0417102Y0371422D01*
X0416960Y0371492D01*
X0416819Y0371564D01*
X0416680Y0371641D01*
X0416544Y0371720D01*
X0416409Y0371804D01*
X0416276Y0371890D01*
X0416146Y0371980D01*
X0416018Y0372073D01*
X0415892Y0372169D01*
X0415769Y0372269D01*
X0415648Y0372371D01*
X0415530Y0372476D01*
X0415415Y0372585D01*
X0415302Y0372696D01*
X0415192Y0372810D01*
X0415085Y0372927D01*
X0414981Y0373046D01*
X0414880Y0373168D01*
X0414783Y0373293D01*
X0414688Y0373420D01*
X0414597Y0373549D01*
X0414508Y0373680D01*
X0414424Y0373814D01*
X0414342Y0373950D01*
X0414264Y0374087D01*
X0414190Y0374227D01*
X0414119Y0374369D01*
X0414051Y0374512D01*
X0413987Y0374657D01*
X0413927Y0374803D01*
X0413871Y0374951D01*
X0413818Y0375100D01*
X0413769Y0375251D01*
X0413724Y0375403D01*
X0413683Y0375556D01*
X0413645Y0375709D01*
X0413612Y0375864D01*
X0413582Y0376020D01*
X0413556Y0376176D01*
X0413535Y0376333D01*
X0413517Y0376490D01*
X0413503Y0376648D01*
X0413493Y0376806D01*
X0413487Y0376964D01*
X0413485Y0377122D01*
X0515823Y0411272D02*
X0515825Y0411356D01*
X0515831Y0411439D01*
X0515841Y0411522D01*
X0515855Y0411605D01*
X0515872Y0411687D01*
X0515894Y0411768D01*
X0515919Y0411847D01*
X0515948Y0411926D01*
X0515981Y0412003D01*
X0516017Y0412078D01*
X0516057Y0412152D01*
X0516100Y0412224D01*
X0516147Y0412293D01*
X0516197Y0412360D01*
X0516250Y0412425D01*
X0516306Y0412487D01*
X0516364Y0412547D01*
X0516426Y0412604D01*
X0516490Y0412657D01*
X0516557Y0412708D01*
X0516626Y0412755D01*
X0516697Y0412800D01*
X0516770Y0412840D01*
X0516845Y0412877D01*
X0516922Y0412911D01*
X0517000Y0412941D01*
X0517079Y0412967D01*
X0517160Y0412990D01*
X0517242Y0413008D01*
X0517324Y0413023D01*
X0517407Y0413034D01*
X0517490Y0413041D01*
X0517574Y0413044D01*
X0517658Y0413043D01*
X0517741Y0413038D01*
X0517825Y0413029D01*
X0517907Y0413016D01*
X0517989Y0413000D01*
X0518070Y0412979D01*
X0518151Y0412955D01*
X0518229Y0412927D01*
X0518307Y0412895D01*
X0518383Y0412859D01*
X0518457Y0412820D01*
X0518529Y0412778D01*
X0518599Y0412732D01*
X0518667Y0412683D01*
X0518732Y0412631D01*
X0518795Y0412576D01*
X0518855Y0412518D01*
X0518913Y0412457D01*
X0518967Y0412393D01*
X0519019Y0412327D01*
X0519067Y0412259D01*
X0519112Y0412188D01*
X0519153Y0412115D01*
X0519192Y0412041D01*
X0519226Y0411965D01*
X0519257Y0411887D01*
X0519284Y0411808D01*
X0519308Y0411727D01*
X0519327Y0411646D01*
X0519343Y0411564D01*
X0519355Y0411481D01*
X0519363Y0411397D01*
X0519367Y0411314D01*
X0519367Y0411230D01*
X0519363Y0411147D01*
X0519355Y0411063D01*
X0519343Y0410980D01*
X0519327Y0410898D01*
X0519308Y0410817D01*
X0519284Y0410736D01*
X0519257Y0410657D01*
X0519226Y0410579D01*
X0519192Y0410503D01*
X0519153Y0410429D01*
X0519112Y0410356D01*
X0519067Y0410285D01*
X0519019Y0410217D01*
X0518967Y0410151D01*
X0518913Y0410087D01*
X0518855Y0410026D01*
X0518795Y0409968D01*
X0518732Y0409913D01*
X0518667Y0409861D01*
X0518599Y0409812D01*
X0518529Y0409766D01*
X0518457Y0409724D01*
X0518383Y0409685D01*
X0518307Y0409649D01*
X0518229Y0409617D01*
X0518151Y0409589D01*
X0518070Y0409565D01*
X0517989Y0409544D01*
X0517907Y0409528D01*
X0517825Y0409515D01*
X0517741Y0409506D01*
X0517658Y0409501D01*
X0517574Y0409500D01*
X0517490Y0409503D01*
X0517407Y0409510D01*
X0517324Y0409521D01*
X0517242Y0409536D01*
X0517160Y0409554D01*
X0517079Y0409577D01*
X0517000Y0409603D01*
X0516922Y0409633D01*
X0516845Y0409667D01*
X0516770Y0409704D01*
X0516697Y0409744D01*
X0516626Y0409789D01*
X0516557Y0409836D01*
X0516490Y0409887D01*
X0516426Y0409940D01*
X0516364Y0409997D01*
X0516306Y0410057D01*
X0516250Y0410119D01*
X0516197Y0410184D01*
X0516147Y0410251D01*
X0516100Y0410320D01*
X0516057Y0410392D01*
X0516017Y0410466D01*
X0515981Y0410541D01*
X0515948Y0410618D01*
X0515919Y0410697D01*
X0515894Y0410776D01*
X0515872Y0410857D01*
X0515855Y0410939D01*
X0515841Y0411022D01*
X0515831Y0411105D01*
X0515825Y0411188D01*
X0515823Y0411272D01*
X0515823Y0428594D02*
X0515825Y0428678D01*
X0515831Y0428761D01*
X0515841Y0428844D01*
X0515855Y0428927D01*
X0515872Y0429009D01*
X0515894Y0429090D01*
X0515919Y0429169D01*
X0515948Y0429248D01*
X0515981Y0429325D01*
X0516017Y0429400D01*
X0516057Y0429474D01*
X0516100Y0429546D01*
X0516147Y0429615D01*
X0516197Y0429682D01*
X0516250Y0429747D01*
X0516306Y0429809D01*
X0516364Y0429869D01*
X0516426Y0429926D01*
X0516490Y0429979D01*
X0516557Y0430030D01*
X0516626Y0430077D01*
X0516697Y0430122D01*
X0516770Y0430162D01*
X0516845Y0430199D01*
X0516922Y0430233D01*
X0517000Y0430263D01*
X0517079Y0430289D01*
X0517160Y0430312D01*
X0517242Y0430330D01*
X0517324Y0430345D01*
X0517407Y0430356D01*
X0517490Y0430363D01*
X0517574Y0430366D01*
X0517658Y0430365D01*
X0517741Y0430360D01*
X0517825Y0430351D01*
X0517907Y0430338D01*
X0517989Y0430322D01*
X0518070Y0430301D01*
X0518151Y0430277D01*
X0518229Y0430249D01*
X0518307Y0430217D01*
X0518383Y0430181D01*
X0518457Y0430142D01*
X0518529Y0430100D01*
X0518599Y0430054D01*
X0518667Y0430005D01*
X0518732Y0429953D01*
X0518795Y0429898D01*
X0518855Y0429840D01*
X0518913Y0429779D01*
X0518967Y0429715D01*
X0519019Y0429649D01*
X0519067Y0429581D01*
X0519112Y0429510D01*
X0519153Y0429437D01*
X0519192Y0429363D01*
X0519226Y0429287D01*
X0519257Y0429209D01*
X0519284Y0429130D01*
X0519308Y0429049D01*
X0519327Y0428968D01*
X0519343Y0428886D01*
X0519355Y0428803D01*
X0519363Y0428719D01*
X0519367Y0428636D01*
X0519367Y0428552D01*
X0519363Y0428469D01*
X0519355Y0428385D01*
X0519343Y0428302D01*
X0519327Y0428220D01*
X0519308Y0428139D01*
X0519284Y0428058D01*
X0519257Y0427979D01*
X0519226Y0427901D01*
X0519192Y0427825D01*
X0519153Y0427751D01*
X0519112Y0427678D01*
X0519067Y0427607D01*
X0519019Y0427539D01*
X0518967Y0427473D01*
X0518913Y0427409D01*
X0518855Y0427348D01*
X0518795Y0427290D01*
X0518732Y0427235D01*
X0518667Y0427183D01*
X0518599Y0427134D01*
X0518529Y0427088D01*
X0518457Y0427046D01*
X0518383Y0427007D01*
X0518307Y0426971D01*
X0518229Y0426939D01*
X0518151Y0426911D01*
X0518070Y0426887D01*
X0517989Y0426866D01*
X0517907Y0426850D01*
X0517825Y0426837D01*
X0517741Y0426828D01*
X0517658Y0426823D01*
X0517574Y0426822D01*
X0517490Y0426825D01*
X0517407Y0426832D01*
X0517324Y0426843D01*
X0517242Y0426858D01*
X0517160Y0426876D01*
X0517079Y0426899D01*
X0517000Y0426925D01*
X0516922Y0426955D01*
X0516845Y0426989D01*
X0516770Y0427026D01*
X0516697Y0427066D01*
X0516626Y0427111D01*
X0516557Y0427158D01*
X0516490Y0427209D01*
X0516426Y0427262D01*
X0516364Y0427319D01*
X0516306Y0427379D01*
X0516250Y0427441D01*
X0516197Y0427506D01*
X0516147Y0427573D01*
X0516100Y0427642D01*
X0516057Y0427714D01*
X0516017Y0427788D01*
X0515981Y0427863D01*
X0515948Y0427940D01*
X0515919Y0428019D01*
X0515894Y0428098D01*
X0515872Y0428179D01*
X0515855Y0428261D01*
X0515841Y0428344D01*
X0515831Y0428427D01*
X0515825Y0428510D01*
X0515823Y0428594D01*
X0413485Y0242870D02*
X0413487Y0243028D01*
X0413493Y0243186D01*
X0413503Y0243344D01*
X0413517Y0243502D01*
X0413535Y0243659D01*
X0413556Y0243816D01*
X0413582Y0243972D01*
X0413612Y0244128D01*
X0413645Y0244283D01*
X0413683Y0244436D01*
X0413724Y0244589D01*
X0413769Y0244741D01*
X0413818Y0244892D01*
X0413871Y0245041D01*
X0413927Y0245189D01*
X0413987Y0245335D01*
X0414051Y0245480D01*
X0414119Y0245623D01*
X0414190Y0245765D01*
X0414264Y0245905D01*
X0414342Y0246042D01*
X0414424Y0246178D01*
X0414508Y0246312D01*
X0414597Y0246443D01*
X0414688Y0246572D01*
X0414783Y0246699D01*
X0414880Y0246824D01*
X0414981Y0246946D01*
X0415085Y0247065D01*
X0415192Y0247182D01*
X0415302Y0247296D01*
X0415415Y0247407D01*
X0415530Y0247516D01*
X0415648Y0247621D01*
X0415769Y0247723D01*
X0415892Y0247823D01*
X0416018Y0247919D01*
X0416146Y0248012D01*
X0416276Y0248102D01*
X0416409Y0248188D01*
X0416544Y0248272D01*
X0416680Y0248351D01*
X0416819Y0248428D01*
X0416960Y0248500D01*
X0417102Y0248570D01*
X0417246Y0248635D01*
X0417392Y0248697D01*
X0417539Y0248755D01*
X0417688Y0248810D01*
X0417838Y0248861D01*
X0417989Y0248908D01*
X0418141Y0248951D01*
X0418294Y0248990D01*
X0418449Y0249026D01*
X0418604Y0249057D01*
X0418760Y0249085D01*
X0418916Y0249109D01*
X0419073Y0249129D01*
X0419231Y0249145D01*
X0419388Y0249157D01*
X0419547Y0249165D01*
X0419705Y0249169D01*
X0419863Y0249169D01*
X0420021Y0249165D01*
X0420180Y0249157D01*
X0420337Y0249145D01*
X0420495Y0249129D01*
X0420652Y0249109D01*
X0420808Y0249085D01*
X0420964Y0249057D01*
X0421119Y0249026D01*
X0421274Y0248990D01*
X0421427Y0248951D01*
X0421579Y0248908D01*
X0421730Y0248861D01*
X0421880Y0248810D01*
X0422029Y0248755D01*
X0422176Y0248697D01*
X0422322Y0248635D01*
X0422466Y0248570D01*
X0422608Y0248500D01*
X0422749Y0248428D01*
X0422888Y0248351D01*
X0423024Y0248272D01*
X0423159Y0248188D01*
X0423292Y0248102D01*
X0423422Y0248012D01*
X0423550Y0247919D01*
X0423676Y0247823D01*
X0423799Y0247723D01*
X0423920Y0247621D01*
X0424038Y0247516D01*
X0424153Y0247407D01*
X0424266Y0247296D01*
X0424376Y0247182D01*
X0424483Y0247065D01*
X0424587Y0246946D01*
X0424688Y0246824D01*
X0424785Y0246699D01*
X0424880Y0246572D01*
X0424971Y0246443D01*
X0425060Y0246312D01*
X0425144Y0246178D01*
X0425226Y0246042D01*
X0425304Y0245905D01*
X0425378Y0245765D01*
X0425449Y0245623D01*
X0425517Y0245480D01*
X0425581Y0245335D01*
X0425641Y0245189D01*
X0425697Y0245041D01*
X0425750Y0244892D01*
X0425799Y0244741D01*
X0425844Y0244589D01*
X0425885Y0244436D01*
X0425923Y0244283D01*
X0425956Y0244128D01*
X0425986Y0243972D01*
X0426012Y0243816D01*
X0426033Y0243659D01*
X0426051Y0243502D01*
X0426065Y0243344D01*
X0426075Y0243186D01*
X0426081Y0243028D01*
X0426083Y0242870D01*
X0426081Y0242712D01*
X0426075Y0242554D01*
X0426065Y0242396D01*
X0426051Y0242238D01*
X0426033Y0242081D01*
X0426012Y0241924D01*
X0425986Y0241768D01*
X0425956Y0241612D01*
X0425923Y0241457D01*
X0425885Y0241304D01*
X0425844Y0241151D01*
X0425799Y0240999D01*
X0425750Y0240848D01*
X0425697Y0240699D01*
X0425641Y0240551D01*
X0425581Y0240405D01*
X0425517Y0240260D01*
X0425449Y0240117D01*
X0425378Y0239975D01*
X0425304Y0239835D01*
X0425226Y0239698D01*
X0425144Y0239562D01*
X0425060Y0239428D01*
X0424971Y0239297D01*
X0424880Y0239168D01*
X0424785Y0239041D01*
X0424688Y0238916D01*
X0424587Y0238794D01*
X0424483Y0238675D01*
X0424376Y0238558D01*
X0424266Y0238444D01*
X0424153Y0238333D01*
X0424038Y0238224D01*
X0423920Y0238119D01*
X0423799Y0238017D01*
X0423676Y0237917D01*
X0423550Y0237821D01*
X0423422Y0237728D01*
X0423292Y0237638D01*
X0423159Y0237552D01*
X0423024Y0237468D01*
X0422888Y0237389D01*
X0422749Y0237312D01*
X0422608Y0237240D01*
X0422466Y0237170D01*
X0422322Y0237105D01*
X0422176Y0237043D01*
X0422029Y0236985D01*
X0421880Y0236930D01*
X0421730Y0236879D01*
X0421579Y0236832D01*
X0421427Y0236789D01*
X0421274Y0236750D01*
X0421119Y0236714D01*
X0420964Y0236683D01*
X0420808Y0236655D01*
X0420652Y0236631D01*
X0420495Y0236611D01*
X0420337Y0236595D01*
X0420180Y0236583D01*
X0420021Y0236575D01*
X0419863Y0236571D01*
X0419705Y0236571D01*
X0419547Y0236575D01*
X0419388Y0236583D01*
X0419231Y0236595D01*
X0419073Y0236611D01*
X0418916Y0236631D01*
X0418760Y0236655D01*
X0418604Y0236683D01*
X0418449Y0236714D01*
X0418294Y0236750D01*
X0418141Y0236789D01*
X0417989Y0236832D01*
X0417838Y0236879D01*
X0417688Y0236930D01*
X0417539Y0236985D01*
X0417392Y0237043D01*
X0417246Y0237105D01*
X0417102Y0237170D01*
X0416960Y0237240D01*
X0416819Y0237312D01*
X0416680Y0237389D01*
X0416544Y0237468D01*
X0416409Y0237552D01*
X0416276Y0237638D01*
X0416146Y0237728D01*
X0416018Y0237821D01*
X0415892Y0237917D01*
X0415769Y0238017D01*
X0415648Y0238119D01*
X0415530Y0238224D01*
X0415415Y0238333D01*
X0415302Y0238444D01*
X0415192Y0238558D01*
X0415085Y0238675D01*
X0414981Y0238794D01*
X0414880Y0238916D01*
X0414783Y0239041D01*
X0414688Y0239168D01*
X0414597Y0239297D01*
X0414508Y0239428D01*
X0414424Y0239562D01*
X0414342Y0239698D01*
X0414264Y0239835D01*
X0414190Y0239975D01*
X0414119Y0240117D01*
X0414051Y0240260D01*
X0413987Y0240405D01*
X0413927Y0240551D01*
X0413871Y0240699D01*
X0413818Y0240848D01*
X0413769Y0240999D01*
X0413724Y0241151D01*
X0413683Y0241304D01*
X0413645Y0241457D01*
X0413612Y0241612D01*
X0413582Y0241768D01*
X0413556Y0241924D01*
X0413535Y0242081D01*
X0413517Y0242238D01*
X0413503Y0242396D01*
X0413493Y0242554D01*
X0413487Y0242712D01*
X0413485Y0242870D01*
X0358878Y0179287D02*
X0358880Y0179366D01*
X0358886Y0179445D01*
X0358896Y0179524D01*
X0358910Y0179602D01*
X0358927Y0179679D01*
X0358949Y0179755D01*
X0358974Y0179830D01*
X0359004Y0179903D01*
X0359036Y0179975D01*
X0359073Y0180046D01*
X0359113Y0180114D01*
X0359156Y0180180D01*
X0359202Y0180244D01*
X0359252Y0180306D01*
X0359305Y0180365D01*
X0359360Y0180421D01*
X0359419Y0180475D01*
X0359480Y0180525D01*
X0359543Y0180573D01*
X0359609Y0180617D01*
X0359677Y0180658D01*
X0359747Y0180695D01*
X0359818Y0180729D01*
X0359892Y0180759D01*
X0359966Y0180785D01*
X0360042Y0180807D01*
X0360119Y0180826D01*
X0360197Y0180841D01*
X0360275Y0180852D01*
X0360354Y0180859D01*
X0360433Y0180862D01*
X0360512Y0180861D01*
X0360591Y0180856D01*
X0360670Y0180847D01*
X0360748Y0180834D01*
X0360825Y0180817D01*
X0360902Y0180797D01*
X0360977Y0180772D01*
X0361051Y0180744D01*
X0361124Y0180712D01*
X0361194Y0180677D01*
X0361263Y0180638D01*
X0361330Y0180595D01*
X0361395Y0180549D01*
X0361457Y0180501D01*
X0361517Y0180449D01*
X0361574Y0180394D01*
X0361628Y0180336D01*
X0361679Y0180276D01*
X0361727Y0180213D01*
X0361772Y0180148D01*
X0361814Y0180080D01*
X0361852Y0180011D01*
X0361886Y0179940D01*
X0361917Y0179867D01*
X0361945Y0179792D01*
X0361968Y0179717D01*
X0361988Y0179640D01*
X0362004Y0179563D01*
X0362016Y0179484D01*
X0362024Y0179406D01*
X0362028Y0179327D01*
X0362028Y0179247D01*
X0362024Y0179168D01*
X0362016Y0179090D01*
X0362004Y0179011D01*
X0361988Y0178934D01*
X0361968Y0178857D01*
X0361945Y0178782D01*
X0361917Y0178707D01*
X0361886Y0178634D01*
X0361852Y0178563D01*
X0361814Y0178494D01*
X0361772Y0178426D01*
X0361727Y0178361D01*
X0361679Y0178298D01*
X0361628Y0178238D01*
X0361574Y0178180D01*
X0361517Y0178125D01*
X0361457Y0178073D01*
X0361395Y0178025D01*
X0361330Y0177979D01*
X0361263Y0177936D01*
X0361194Y0177897D01*
X0361124Y0177862D01*
X0361051Y0177830D01*
X0360977Y0177802D01*
X0360902Y0177777D01*
X0360825Y0177757D01*
X0360748Y0177740D01*
X0360670Y0177727D01*
X0360591Y0177718D01*
X0360512Y0177713D01*
X0360433Y0177712D01*
X0360354Y0177715D01*
X0360275Y0177722D01*
X0360197Y0177733D01*
X0360119Y0177748D01*
X0360042Y0177767D01*
X0359966Y0177789D01*
X0359892Y0177815D01*
X0359818Y0177845D01*
X0359747Y0177879D01*
X0359677Y0177916D01*
X0359609Y0177957D01*
X0359543Y0178001D01*
X0359480Y0178049D01*
X0359419Y0178099D01*
X0359360Y0178153D01*
X0359305Y0178209D01*
X0359252Y0178268D01*
X0359202Y0178330D01*
X0359156Y0178394D01*
X0359113Y0178460D01*
X0359073Y0178528D01*
X0359036Y0178599D01*
X0359004Y0178671D01*
X0358974Y0178744D01*
X0358949Y0178819D01*
X0358927Y0178895D01*
X0358910Y0178972D01*
X0358896Y0179050D01*
X0358886Y0179129D01*
X0358880Y0179208D01*
X0358878Y0179287D01*
X0334666Y0155075D02*
X0334668Y0155154D01*
X0334674Y0155233D01*
X0334684Y0155312D01*
X0334698Y0155390D01*
X0334715Y0155467D01*
X0334737Y0155543D01*
X0334762Y0155618D01*
X0334792Y0155691D01*
X0334824Y0155763D01*
X0334861Y0155834D01*
X0334901Y0155902D01*
X0334944Y0155968D01*
X0334990Y0156032D01*
X0335040Y0156094D01*
X0335093Y0156153D01*
X0335148Y0156209D01*
X0335207Y0156263D01*
X0335268Y0156313D01*
X0335331Y0156361D01*
X0335397Y0156405D01*
X0335465Y0156446D01*
X0335535Y0156483D01*
X0335606Y0156517D01*
X0335680Y0156547D01*
X0335754Y0156573D01*
X0335830Y0156595D01*
X0335907Y0156614D01*
X0335985Y0156629D01*
X0336063Y0156640D01*
X0336142Y0156647D01*
X0336221Y0156650D01*
X0336300Y0156649D01*
X0336379Y0156644D01*
X0336458Y0156635D01*
X0336536Y0156622D01*
X0336613Y0156605D01*
X0336690Y0156585D01*
X0336765Y0156560D01*
X0336839Y0156532D01*
X0336912Y0156500D01*
X0336982Y0156465D01*
X0337051Y0156426D01*
X0337118Y0156383D01*
X0337183Y0156337D01*
X0337245Y0156289D01*
X0337305Y0156237D01*
X0337362Y0156182D01*
X0337416Y0156124D01*
X0337467Y0156064D01*
X0337515Y0156001D01*
X0337560Y0155936D01*
X0337602Y0155868D01*
X0337640Y0155799D01*
X0337674Y0155728D01*
X0337705Y0155655D01*
X0337733Y0155580D01*
X0337756Y0155505D01*
X0337776Y0155428D01*
X0337792Y0155351D01*
X0337804Y0155272D01*
X0337812Y0155194D01*
X0337816Y0155115D01*
X0337816Y0155035D01*
X0337812Y0154956D01*
X0337804Y0154878D01*
X0337792Y0154799D01*
X0337776Y0154722D01*
X0337756Y0154645D01*
X0337733Y0154570D01*
X0337705Y0154495D01*
X0337674Y0154422D01*
X0337640Y0154351D01*
X0337602Y0154282D01*
X0337560Y0154214D01*
X0337515Y0154149D01*
X0337467Y0154086D01*
X0337416Y0154026D01*
X0337362Y0153968D01*
X0337305Y0153913D01*
X0337245Y0153861D01*
X0337183Y0153813D01*
X0337118Y0153767D01*
X0337051Y0153724D01*
X0336982Y0153685D01*
X0336912Y0153650D01*
X0336839Y0153618D01*
X0336765Y0153590D01*
X0336690Y0153565D01*
X0336613Y0153545D01*
X0336536Y0153528D01*
X0336458Y0153515D01*
X0336379Y0153506D01*
X0336300Y0153501D01*
X0336221Y0153500D01*
X0336142Y0153503D01*
X0336063Y0153510D01*
X0335985Y0153521D01*
X0335907Y0153536D01*
X0335830Y0153555D01*
X0335754Y0153577D01*
X0335680Y0153603D01*
X0335606Y0153633D01*
X0335535Y0153667D01*
X0335465Y0153704D01*
X0335397Y0153745D01*
X0335331Y0153789D01*
X0335268Y0153837D01*
X0335207Y0153887D01*
X0335148Y0153941D01*
X0335093Y0153997D01*
X0335040Y0154056D01*
X0334990Y0154118D01*
X0334944Y0154182D01*
X0334901Y0154248D01*
X0334861Y0154316D01*
X0334824Y0154387D01*
X0334792Y0154459D01*
X0334762Y0154532D01*
X0334737Y0154607D01*
X0334715Y0154683D01*
X0334698Y0154760D01*
X0334684Y0154838D01*
X0334674Y0154917D01*
X0334668Y0154996D01*
X0334666Y0155075D01*
X0496595Y0121433D02*
X0496599Y0121740D01*
X0496610Y0122046D01*
X0496629Y0122353D01*
X0496655Y0122658D01*
X0496689Y0122963D01*
X0496730Y0123267D01*
X0496779Y0123570D01*
X0496835Y0123872D01*
X0496899Y0124172D01*
X0496970Y0124470D01*
X0497048Y0124767D01*
X0497133Y0125062D01*
X0497226Y0125354D01*
X0497326Y0125644D01*
X0497433Y0125932D01*
X0497547Y0126217D01*
X0497667Y0126499D01*
X0497795Y0126777D01*
X0497930Y0127053D01*
X0498071Y0127325D01*
X0498219Y0127594D01*
X0498373Y0127859D01*
X0498534Y0128120D01*
X0498702Y0128378D01*
X0498875Y0128631D01*
X0499055Y0128879D01*
X0499241Y0129123D01*
X0499432Y0129363D01*
X0499630Y0129598D01*
X0499833Y0129827D01*
X0500042Y0130052D01*
X0500256Y0130272D01*
X0500476Y0130486D01*
X0500701Y0130695D01*
X0500930Y0130898D01*
X0501165Y0131096D01*
X0501405Y0131287D01*
X0501649Y0131473D01*
X0501897Y0131653D01*
X0502150Y0131826D01*
X0502408Y0131994D01*
X0502669Y0132155D01*
X0502934Y0132309D01*
X0503203Y0132457D01*
X0503475Y0132598D01*
X0503751Y0132733D01*
X0504029Y0132861D01*
X0504311Y0132981D01*
X0504596Y0133095D01*
X0504884Y0133202D01*
X0505174Y0133302D01*
X0505466Y0133395D01*
X0505761Y0133480D01*
X0506058Y0133558D01*
X0506356Y0133629D01*
X0506656Y0133693D01*
X0506958Y0133749D01*
X0507261Y0133798D01*
X0507565Y0133839D01*
X0507870Y0133873D01*
X0508175Y0133899D01*
X0508482Y0133918D01*
X0508788Y0133929D01*
X0509095Y0133933D01*
X0509402Y0133929D01*
X0509708Y0133918D01*
X0510015Y0133899D01*
X0510320Y0133873D01*
X0510625Y0133839D01*
X0510929Y0133798D01*
X0511232Y0133749D01*
X0511534Y0133693D01*
X0511834Y0133629D01*
X0512132Y0133558D01*
X0512429Y0133480D01*
X0512724Y0133395D01*
X0513016Y0133302D01*
X0513306Y0133202D01*
X0513594Y0133095D01*
X0513879Y0132981D01*
X0514161Y0132861D01*
X0514439Y0132733D01*
X0514715Y0132598D01*
X0514987Y0132457D01*
X0515256Y0132309D01*
X0515521Y0132155D01*
X0515782Y0131994D01*
X0516040Y0131826D01*
X0516293Y0131653D01*
X0516541Y0131473D01*
X0516785Y0131287D01*
X0517025Y0131096D01*
X0517260Y0130898D01*
X0517489Y0130695D01*
X0517714Y0130486D01*
X0517934Y0130272D01*
X0518148Y0130052D01*
X0518357Y0129827D01*
X0518560Y0129598D01*
X0518758Y0129363D01*
X0518949Y0129123D01*
X0519135Y0128879D01*
X0519315Y0128631D01*
X0519488Y0128378D01*
X0519656Y0128120D01*
X0519817Y0127859D01*
X0519971Y0127594D01*
X0520119Y0127325D01*
X0520260Y0127053D01*
X0520395Y0126777D01*
X0520523Y0126499D01*
X0520643Y0126217D01*
X0520757Y0125932D01*
X0520864Y0125644D01*
X0520964Y0125354D01*
X0521057Y0125062D01*
X0521142Y0124767D01*
X0521220Y0124470D01*
X0521291Y0124172D01*
X0521355Y0123872D01*
X0521411Y0123570D01*
X0521460Y0123267D01*
X0521501Y0122963D01*
X0521535Y0122658D01*
X0521561Y0122353D01*
X0521580Y0122046D01*
X0521591Y0121740D01*
X0521595Y0121433D01*
X0521591Y0121126D01*
X0521580Y0120820D01*
X0521561Y0120513D01*
X0521535Y0120208D01*
X0521501Y0119903D01*
X0521460Y0119599D01*
X0521411Y0119296D01*
X0521355Y0118994D01*
X0521291Y0118694D01*
X0521220Y0118396D01*
X0521142Y0118099D01*
X0521057Y0117804D01*
X0520964Y0117512D01*
X0520864Y0117222D01*
X0520757Y0116934D01*
X0520643Y0116649D01*
X0520523Y0116367D01*
X0520395Y0116089D01*
X0520260Y0115813D01*
X0520119Y0115541D01*
X0519971Y0115272D01*
X0519817Y0115007D01*
X0519656Y0114746D01*
X0519488Y0114488D01*
X0519315Y0114235D01*
X0519135Y0113987D01*
X0518949Y0113743D01*
X0518758Y0113503D01*
X0518560Y0113268D01*
X0518357Y0113039D01*
X0518148Y0112814D01*
X0517934Y0112594D01*
X0517714Y0112380D01*
X0517489Y0112171D01*
X0517260Y0111968D01*
X0517025Y0111770D01*
X0516785Y0111579D01*
X0516541Y0111393D01*
X0516293Y0111213D01*
X0516040Y0111040D01*
X0515782Y0110872D01*
X0515521Y0110711D01*
X0515256Y0110557D01*
X0514987Y0110409D01*
X0514715Y0110268D01*
X0514439Y0110133D01*
X0514161Y0110005D01*
X0513879Y0109885D01*
X0513594Y0109771D01*
X0513306Y0109664D01*
X0513016Y0109564D01*
X0512724Y0109471D01*
X0512429Y0109386D01*
X0512132Y0109308D01*
X0511834Y0109237D01*
X0511534Y0109173D01*
X0511232Y0109117D01*
X0510929Y0109068D01*
X0510625Y0109027D01*
X0510320Y0108993D01*
X0510015Y0108967D01*
X0509708Y0108948D01*
X0509402Y0108937D01*
X0509095Y0108933D01*
X0508788Y0108937D01*
X0508482Y0108948D01*
X0508175Y0108967D01*
X0507870Y0108993D01*
X0507565Y0109027D01*
X0507261Y0109068D01*
X0506958Y0109117D01*
X0506656Y0109173D01*
X0506356Y0109237D01*
X0506058Y0109308D01*
X0505761Y0109386D01*
X0505466Y0109471D01*
X0505174Y0109564D01*
X0504884Y0109664D01*
X0504596Y0109771D01*
X0504311Y0109885D01*
X0504029Y0110005D01*
X0503751Y0110133D01*
X0503475Y0110268D01*
X0503203Y0110409D01*
X0502934Y0110557D01*
X0502669Y0110711D01*
X0502408Y0110872D01*
X0502150Y0111040D01*
X0501897Y0111213D01*
X0501649Y0111393D01*
X0501405Y0111579D01*
X0501165Y0111770D01*
X0500930Y0111968D01*
X0500701Y0112171D01*
X0500476Y0112380D01*
X0500256Y0112594D01*
X0500042Y0112814D01*
X0499833Y0113039D01*
X0499630Y0113268D01*
X0499432Y0113503D01*
X0499241Y0113743D01*
X0499055Y0113987D01*
X0498875Y0114235D01*
X0498702Y0114488D01*
X0498534Y0114746D01*
X0498373Y0115007D01*
X0498219Y0115272D01*
X0498071Y0115541D01*
X0497930Y0115813D01*
X0497795Y0116089D01*
X0497667Y0116367D01*
X0497547Y0116649D01*
X0497433Y0116934D01*
X0497326Y0117222D01*
X0497226Y0117512D01*
X0497133Y0117804D01*
X0497048Y0118099D01*
X0496970Y0118396D01*
X0496899Y0118694D01*
X0496835Y0118994D01*
X0496779Y0119296D01*
X0496730Y0119599D01*
X0496689Y0119903D01*
X0496655Y0120208D01*
X0496629Y0120513D01*
X0496610Y0120820D01*
X0496599Y0121126D01*
X0496595Y0121433D01*
D11*
X0509095Y0121433D03*
X0089095Y0121433D03*
D12*
X0086595Y0240390D03*
X0086595Y0247476D03*
X0194595Y0330390D03*
X0194595Y0337476D03*
X0231595Y0370390D03*
X0231595Y0377476D03*
X0241595Y0377476D03*
X0241595Y0370390D03*
X0282595Y0372390D03*
X0283095Y0366976D03*
X0283095Y0359890D03*
X0282595Y0379476D03*
X0308095Y0366976D03*
X0308095Y0359890D03*
X0340595Y0361476D03*
X0340595Y0354390D03*
X0374595Y0361390D03*
X0374595Y0368476D03*
X0390595Y0362476D03*
X0390595Y0355390D03*
X0395095Y0327976D03*
X0395095Y0320890D03*
X0453595Y0360390D03*
X0453595Y0367476D03*
X0464095Y0367476D03*
X0464095Y0360390D03*
X0494595Y0389390D03*
X0494595Y0396476D03*
X0484595Y0473390D03*
X0484595Y0480476D03*
X0358595Y0392476D03*
X0358595Y0385390D03*
X0258595Y0304976D03*
X0258595Y0297890D03*
X0245595Y0254476D03*
X0245595Y0247390D03*
X0250595Y0241476D03*
X0250595Y0234390D03*
X0320595Y0260390D03*
X0320595Y0267476D03*
X0391595Y0249476D03*
X0391595Y0242390D03*
X0401595Y0242390D03*
X0401595Y0249476D03*
X0199595Y0374390D03*
X0199595Y0381476D03*
X0084595Y0430390D03*
X0084595Y0437476D03*
D13*
X0271674Y0327555D03*
X0271674Y0324406D03*
X0271674Y0321256D03*
X0271674Y0318106D03*
X0271674Y0314957D03*
X0271674Y0311807D03*
X0271674Y0308657D03*
X0271674Y0305508D03*
X0271674Y0302358D03*
X0271674Y0299209D03*
X0271674Y0296059D03*
X0271674Y0292909D03*
X0271674Y0289760D03*
X0271674Y0286610D03*
X0271674Y0283461D03*
X0271674Y0280311D03*
X0331516Y0280311D03*
X0331516Y0283461D03*
X0331516Y0286610D03*
X0331516Y0289760D03*
X0331516Y0292909D03*
X0331516Y0296059D03*
X0331516Y0299209D03*
X0331516Y0302358D03*
X0331516Y0305508D03*
X0331516Y0308657D03*
X0331516Y0311807D03*
X0331516Y0314957D03*
X0331516Y0318106D03*
X0331516Y0321256D03*
X0331516Y0324406D03*
X0331516Y0327555D03*
D14*
X0325217Y0333854D03*
X0322068Y0333854D03*
X0318918Y0333854D03*
X0315768Y0333854D03*
X0312619Y0333854D03*
X0309469Y0333854D03*
X0306320Y0333854D03*
X0303170Y0333854D03*
X0300020Y0333854D03*
X0296871Y0333854D03*
X0293721Y0333854D03*
X0290572Y0333854D03*
X0287422Y0333854D03*
X0284272Y0333854D03*
X0281123Y0333854D03*
X0277973Y0333854D03*
X0277973Y0274012D03*
X0281123Y0274012D03*
X0284272Y0274012D03*
X0287422Y0274012D03*
X0290572Y0274012D03*
X0293721Y0274012D03*
X0296871Y0274012D03*
X0300020Y0274012D03*
X0303170Y0274012D03*
X0306320Y0274012D03*
X0309469Y0274012D03*
X0312619Y0274012D03*
X0315768Y0274012D03*
X0318918Y0274012D03*
X0322068Y0274012D03*
X0325217Y0274012D03*
D15*
X0339052Y0303933D03*
X0346138Y0303933D03*
X0370552Y0308933D03*
X0377638Y0308933D03*
X0385552Y0308933D03*
X0392638Y0308933D03*
X0391138Y0266933D03*
X0384052Y0266933D03*
X0448052Y0267933D03*
X0455138Y0267933D03*
X0455138Y0275933D03*
X0448052Y0275933D03*
X0457052Y0256933D03*
X0464138Y0256933D03*
X0467052Y0245933D03*
X0474138Y0245933D03*
X0482052Y0245933D03*
X0489138Y0245933D03*
X0373138Y0350933D03*
X0366052Y0350933D03*
X0326138Y0341433D03*
X0319052Y0341433D03*
X0290138Y0345433D03*
X0283052Y0345433D03*
X0257638Y0311933D03*
X0250552Y0311933D03*
X0251552Y0290433D03*
X0258638Y0290433D03*
X0210138Y0279933D03*
X0203052Y0279933D03*
X0203052Y0265933D03*
X0210138Y0265933D03*
X0223052Y0245933D03*
X0230138Y0245933D03*
X0264052Y0233933D03*
X0271138Y0233933D03*
X0288052Y0225933D03*
X0295138Y0225933D03*
X0295138Y0216933D03*
X0288052Y0216933D03*
X0286052Y0177933D03*
X0293138Y0177933D03*
X0180138Y0278933D03*
X0173052Y0278933D03*
X0264052Y0388933D03*
X0271138Y0388933D03*
X0466052Y0390933D03*
X0473138Y0390933D03*
X0473138Y0381933D03*
X0466052Y0381933D03*
X0487052Y0379933D03*
X0494138Y0379933D03*
X0505052Y0376933D03*
X0512138Y0376933D03*
X0512138Y0385933D03*
X0505052Y0385933D03*
X0498138Y0362933D03*
X0491052Y0362933D03*
X0493052Y0453933D03*
X0500138Y0453933D03*
X0509052Y0457933D03*
X0516138Y0457933D03*
X0516138Y0469933D03*
X0509052Y0469933D03*
X0501138Y0473933D03*
X0494052Y0473933D03*
X0477138Y0465933D03*
X0470052Y0465933D03*
D16*
X0507036Y0369575D03*
X0512154Y0369575D03*
X0509595Y0362291D03*
X0477595Y0262575D03*
X0475036Y0255291D03*
X0480154Y0255291D03*
D17*
X0384795Y0316433D03*
X0384795Y0321433D03*
X0384795Y0326433D03*
X0384795Y0331433D03*
X0358295Y0331433D03*
X0358295Y0326433D03*
X0358295Y0321433D03*
X0358295Y0316433D03*
D18*
X0274615Y0372965D03*
X0274615Y0374933D03*
X0274615Y0376902D03*
X0264575Y0376902D03*
X0264575Y0374933D03*
X0264575Y0372965D03*
D19*
X0265658Y0369913D03*
X0267627Y0369913D03*
X0269595Y0369913D03*
X0271564Y0369913D03*
X0273532Y0369913D03*
X0273532Y0379953D03*
X0271564Y0379953D03*
X0269595Y0379953D03*
X0267627Y0379953D03*
X0265658Y0379953D03*
D20*
X0159509Y0207791D03*
X0159509Y0190075D03*
X0153682Y0180291D03*
X0153682Y0162575D03*
X0159509Y0152791D03*
X0159509Y0135075D03*
X0123682Y0135075D03*
X0123682Y0152791D03*
X0129509Y0162575D03*
X0129509Y0180291D03*
X0123682Y0190075D03*
X0123682Y0207791D03*
X0093682Y0180291D03*
X0093682Y0162575D03*
X0189509Y0162575D03*
X0189509Y0180291D03*
X0223682Y0157791D03*
X0223682Y0140075D03*
X0259509Y0140075D03*
X0259509Y0157791D03*
X0283682Y0157791D03*
X0283682Y0140075D03*
X0319509Y0140075D03*
X0319509Y0157791D03*
X0388682Y0157791D03*
X0388682Y0140075D03*
X0424509Y0140075D03*
X0424509Y0157791D03*
X0448682Y0157791D03*
X0448682Y0140075D03*
X0484509Y0140075D03*
X0484509Y0157791D03*
D21*
X0222095Y0358633D03*
X0217095Y0358633D03*
X0212095Y0358633D03*
X0207095Y0358633D03*
X0207095Y0344233D03*
X0202095Y0344233D03*
X0212095Y0344233D03*
X0217095Y0344233D03*
X0217095Y0323633D03*
X0212095Y0323633D03*
X0207095Y0323633D03*
X0202095Y0323633D03*
X0207095Y0379233D03*
X0212095Y0379233D03*
X0217095Y0379233D03*
X0222095Y0379233D03*
D22*
X0358855Y0369052D03*
X0362595Y0369052D03*
X0366335Y0369052D03*
X0366335Y0358815D03*
X0358855Y0358815D03*
X0479855Y0386815D03*
X0483595Y0386815D03*
X0487335Y0386815D03*
X0487335Y0397052D03*
X0479855Y0397052D03*
D23*
X0378595Y0394461D03*
X0378595Y0385406D03*
X0367595Y0384406D03*
X0367595Y0393461D03*
D24*
X0340595Y0382839D03*
X0340595Y0371028D03*
X0458595Y0384028D03*
X0458595Y0395839D03*
D25*
X0394926Y0389933D03*
X0386658Y0386193D03*
X0386658Y0393673D03*
D26*
X0507753Y0413634D03*
X0507753Y0416783D03*
X0507753Y0419933D03*
X0507753Y0423083D03*
X0507753Y0426232D03*
D27*
X0507753Y0437650D03*
X0529406Y0437650D03*
X0529406Y0402217D03*
X0507753Y0402217D03*
D28*
X0517595Y0411272D03*
X0517595Y0428594D03*
D29*
X0409645Y0471083D03*
X0192145Y0408083D03*
D30*
X0146045Y0439583D03*
X0455745Y0439583D03*
D31*
X0441995Y0408083D03*
D32*
X0419784Y0377122D03*
X0361595Y0439583D03*
X0231595Y0439583D03*
X0178839Y0377122D03*
X0178839Y0242870D03*
X0419784Y0242870D03*
D33*
X0432595Y0268933D03*
X0436595Y0268933D03*
X0409595Y0288933D03*
X0405595Y0288933D03*
X0405595Y0298933D03*
X0409595Y0298933D03*
X0409595Y0308933D03*
X0405595Y0308933D03*
X0405595Y0318933D03*
X0409595Y0318933D03*
X0409595Y0327933D03*
X0405595Y0327933D03*
X0405595Y0349933D03*
X0409595Y0349933D03*
X0441595Y0356933D03*
X0445595Y0356933D03*
X0469595Y0410933D03*
X0473595Y0410933D03*
X0378095Y0378933D03*
X0374095Y0378933D03*
X0351595Y0392933D03*
X0347595Y0392933D03*
X0326595Y0348933D03*
X0322595Y0348933D03*
X0344595Y0343933D03*
X0348595Y0343933D03*
X0347595Y0335933D03*
X0343595Y0335933D03*
X0342395Y0326933D03*
X0346395Y0326933D03*
X0347595Y0317933D03*
X0343595Y0317933D03*
X0361595Y0308933D03*
X0365595Y0308933D03*
X0365595Y0300933D03*
X0361595Y0300933D03*
X0369595Y0293933D03*
X0373595Y0293933D03*
X0365595Y0286933D03*
X0361595Y0286933D03*
X0369595Y0279933D03*
X0373595Y0279933D03*
X0365595Y0272933D03*
X0361595Y0272933D03*
X0369595Y0265933D03*
X0373595Y0265933D03*
X0365595Y0258933D03*
X0361595Y0258933D03*
X0369595Y0251933D03*
X0373595Y0251933D03*
X0282595Y0225933D03*
X0278595Y0225933D03*
X0234595Y0265933D03*
X0230595Y0265933D03*
X0226595Y0272933D03*
X0222595Y0272933D03*
X0230595Y0279933D03*
X0234595Y0279933D03*
X0226595Y0286933D03*
X0222595Y0286933D03*
X0230595Y0293933D03*
X0234595Y0293933D03*
X0226595Y0300933D03*
X0222595Y0300933D03*
X0230595Y0307933D03*
X0234595Y0307933D03*
X0226595Y0314933D03*
X0222595Y0314933D03*
X0230595Y0321933D03*
X0234595Y0321933D03*
X0253595Y0328933D03*
X0257595Y0328933D03*
X0263595Y0336933D03*
X0267595Y0336933D03*
X0267595Y0344933D03*
X0263595Y0344933D03*
X0263595Y0352933D03*
X0267595Y0352933D03*
X0239795Y0360933D03*
X0236595Y0360933D03*
X0233395Y0360933D03*
X0178595Y0350933D03*
X0174595Y0350933D03*
X0173595Y0329933D03*
X0177595Y0329933D03*
X0186595Y0268933D03*
X0190595Y0268933D03*
X0222595Y0258933D03*
X0226595Y0258933D03*
D34*
X0253595Y0251933D03*
X0253595Y0247933D03*
X0260595Y0243933D03*
X0260595Y0239933D03*
X0267595Y0247933D03*
X0267595Y0251933D03*
X0274595Y0243933D03*
X0274595Y0239933D03*
X0281595Y0247933D03*
X0281595Y0251933D03*
X0288595Y0243933D03*
X0288595Y0239933D03*
X0295595Y0247933D03*
X0295595Y0251933D03*
X0302595Y0243933D03*
X0302595Y0239933D03*
X0309595Y0247933D03*
X0309595Y0251933D03*
X0316595Y0243933D03*
X0316595Y0239933D03*
X0323595Y0247933D03*
X0323595Y0251933D03*
X0330595Y0243933D03*
X0330595Y0239933D03*
X0337595Y0247933D03*
X0337595Y0251933D03*
X0344595Y0243933D03*
X0344595Y0239933D03*
X0243595Y0304933D03*
X0243595Y0308933D03*
X0274595Y0350933D03*
X0274595Y0354933D03*
X0305595Y0379933D03*
X0305595Y0383933D03*
X0313595Y0383933D03*
X0313595Y0379933D03*
X0320595Y0375933D03*
X0320595Y0371933D03*
X0323595Y0363933D03*
X0323595Y0359933D03*
X0282595Y0384933D03*
X0282595Y0388933D03*
X0407595Y0342133D03*
X0407595Y0338933D03*
X0407595Y0335733D03*
X0459595Y0404933D03*
X0459595Y0408933D03*
D35*
X0376595Y0213933D03*
X0366595Y0213933D03*
X0356595Y0213933D03*
X0346595Y0213933D03*
X0336595Y0213933D03*
X0336595Y0203933D03*
X0346595Y0203933D03*
X0356595Y0203933D03*
X0366595Y0203933D03*
X0376595Y0203933D03*
X0151595Y0273933D03*
X0141595Y0273933D03*
X0141595Y0283933D03*
X0141595Y0293933D03*
X0151595Y0293933D03*
X0151595Y0283933D03*
D36*
X0107501Y0250921D03*
X0095690Y0250921D03*
X0095690Y0236945D03*
X0107501Y0236945D03*
D37*
X0260690Y0177933D03*
X0272501Y0177933D03*
X0497690Y0241933D03*
X0509501Y0241933D03*
D38*
X0430296Y0278736D03*
X0417304Y0268736D03*
X0417304Y0288736D03*
X0430296Y0298736D03*
X0417304Y0308736D03*
X0430296Y0318736D03*
X0417304Y0328736D03*
X0430296Y0338736D03*
X0417304Y0348736D03*
X0430296Y0358736D03*
D39*
X0367934Y0163933D03*
X0335257Y0163933D03*
D40*
X0336241Y0155075D03*
X0360453Y0179287D03*
D41*
X0531595Y0098933D03*
X0531595Y0478933D03*
X0066595Y0478933D03*
X0066595Y0098933D03*
D42*
X0481083Y0410933D03*
X0492107Y0410933D03*
X0102107Y0468933D03*
X0091083Y0468933D03*
D43*
X0094509Y0437673D03*
X0094509Y0433933D03*
X0094509Y0430193D03*
X0108682Y0430193D03*
X0108682Y0433933D03*
X0108682Y0437673D03*
D44*
X0290871Y0359933D03*
X0300320Y0359933D03*
D45*
X0491083Y0460980D03*
X0491083Y0462949D03*
X0491083Y0464917D03*
X0491083Y0466886D03*
X0502107Y0466886D03*
X0502107Y0464917D03*
X0502107Y0462949D03*
X0502107Y0460980D03*
X0502107Y0460980D03*
D46*
X0496595Y0463933D03*
D47*
X0081595Y0353933D03*
D48*
X0081595Y0363933D03*
X0081595Y0373933D03*
X0081595Y0383933D03*
D49*
X0085257Y0308933D03*
X0117934Y0308933D03*
D50*
X0143595Y0320602D03*
X0139855Y0329264D03*
X0147335Y0329264D03*
D51*
X0446029Y0219690D02*
X0446029Y0215487D01*
X0448131Y0215487D01*
X0448832Y0216187D01*
X0448832Y0217589D01*
X0448131Y0218289D01*
X0446029Y0218289D01*
X0450633Y0218289D02*
X0453436Y0218289D01*
X0453436Y0217589D01*
X0450633Y0214786D01*
X0450633Y0214086D01*
X0453436Y0214086D01*
X0455237Y0215487D02*
X0458040Y0218289D01*
X0455237Y0218289D01*
X0455237Y0215487D02*
X0458040Y0215487D01*
D52*
X0459440Y0211639D02*
X0444440Y0211639D01*
X0441940Y0219139D02*
X0451940Y0199514D01*
X0462065Y0219014D01*
X0464440Y0221639D02*
X0439440Y0221639D01*
X0439440Y0196639D01*
X0464440Y0196639D01*
X0464440Y0221639D01*
D53*
X0464942Y0287406D03*
X0472816Y0287406D03*
X0480690Y0287406D03*
X0488564Y0287406D03*
X0496438Y0287406D03*
X0504312Y0287406D03*
X0457068Y0287406D03*
X0449194Y0287406D03*
X0449194Y0346461D03*
X0457068Y0346461D03*
X0464942Y0346461D03*
X0472816Y0346461D03*
X0480690Y0346461D03*
X0488564Y0346461D03*
X0496438Y0346461D03*
X0504312Y0346461D03*
D54*
X0509795Y0223733D02*
X0514695Y0223733D01*
X0514595Y0223933D01*
X0514795Y0223833D01*
X0514795Y0211733D01*
X0509795Y0210133D01*
X0509795Y0223733D01*
X0509795Y0223531D02*
X0514795Y0223531D01*
X0514795Y0223033D02*
X0509795Y0223033D01*
X0509795Y0222534D02*
X0514795Y0222534D01*
X0514795Y0222036D02*
X0509795Y0222036D01*
X0509795Y0221537D02*
X0514795Y0221537D01*
X0514795Y0221039D02*
X0509795Y0221039D01*
X0509795Y0220540D02*
X0514795Y0220540D01*
X0514795Y0220042D02*
X0509795Y0220042D01*
X0509795Y0219543D02*
X0514795Y0219543D01*
X0514795Y0219045D02*
X0509795Y0219045D01*
X0509795Y0218546D02*
X0514795Y0218546D01*
X0514795Y0218048D02*
X0509795Y0218048D01*
X0509795Y0217549D02*
X0514795Y0217549D01*
X0514795Y0217050D02*
X0509795Y0217050D01*
X0509795Y0216552D02*
X0514795Y0216552D01*
X0514795Y0216053D02*
X0509795Y0216053D01*
X0509795Y0215555D02*
X0514795Y0215555D01*
X0514795Y0215056D02*
X0509795Y0215056D01*
X0509795Y0214558D02*
X0514795Y0214558D01*
X0514795Y0214059D02*
X0509795Y0214059D01*
X0509795Y0213561D02*
X0514795Y0213561D01*
X0514795Y0213062D02*
X0509795Y0213062D01*
X0509795Y0212564D02*
X0514795Y0212564D01*
X0514795Y0212065D02*
X0509795Y0212065D01*
X0509795Y0211567D02*
X0514276Y0211567D01*
X0512718Y0211068D02*
X0509795Y0211068D01*
X0509795Y0210570D02*
X0511160Y0210570D01*
X0514269Y0205086D02*
X0514795Y0205086D01*
X0514795Y0205333D02*
X0509895Y0203033D01*
X0509895Y0196533D01*
X0514795Y0199333D01*
X0514795Y0205333D01*
X0514795Y0204588D02*
X0513207Y0204588D01*
X0512145Y0204089D02*
X0514795Y0204089D01*
X0514795Y0203591D02*
X0511083Y0203591D01*
X0510021Y0203092D02*
X0514795Y0203092D01*
X0514795Y0202594D02*
X0509895Y0202594D01*
X0509895Y0202095D02*
X0514795Y0202095D01*
X0514795Y0201597D02*
X0509895Y0201597D01*
X0509895Y0201098D02*
X0514795Y0201098D01*
X0514795Y0200600D02*
X0509895Y0200600D01*
X0509895Y0200101D02*
X0514795Y0200101D01*
X0514795Y0199603D02*
X0509895Y0199603D01*
X0509895Y0199104D02*
X0514394Y0199104D01*
X0513522Y0198606D02*
X0509895Y0198606D01*
X0509895Y0198107D02*
X0512650Y0198107D01*
X0511777Y0197609D02*
X0509895Y0197609D01*
X0509895Y0197110D02*
X0510905Y0197110D01*
X0510032Y0196612D02*
X0509895Y0196612D01*
X0504495Y0196612D02*
X0499995Y0196612D01*
X0499995Y0196333D02*
X0499895Y0196233D01*
X0484295Y0205033D01*
X0484295Y0200233D01*
X0500395Y0189633D01*
X0499995Y0196333D01*
X0499995Y0196113D02*
X0504495Y0196113D01*
X0504495Y0195614D02*
X0499995Y0195614D01*
X0500038Y0195614D02*
X0491310Y0195614D01*
X0492067Y0195116D02*
X0500068Y0195116D01*
X0499995Y0195116D02*
X0504495Y0195116D01*
X0504495Y0194617D02*
X0499995Y0194617D01*
X0500098Y0194617D02*
X0492824Y0194617D01*
X0493582Y0194119D02*
X0500127Y0194119D01*
X0499995Y0194119D02*
X0504495Y0194119D01*
X0504495Y0193620D02*
X0499995Y0193620D01*
X0500157Y0193620D02*
X0494339Y0193620D01*
X0495096Y0193122D02*
X0500187Y0193122D01*
X0499995Y0193122D02*
X0504495Y0193122D01*
X0504495Y0192623D02*
X0499995Y0192623D01*
X0500217Y0192623D02*
X0495853Y0192623D01*
X0496610Y0192125D02*
X0500246Y0192125D01*
X0499995Y0192125D02*
X0504495Y0192125D01*
X0504495Y0191626D02*
X0499995Y0191626D01*
X0500276Y0191626D02*
X0497368Y0191626D01*
X0498125Y0191128D02*
X0500306Y0191128D01*
X0499995Y0191128D02*
X0504495Y0191128D01*
X0504495Y0190629D02*
X0499995Y0190629D01*
X0500336Y0190629D02*
X0498882Y0190629D01*
X0499639Y0190131D02*
X0500365Y0190131D01*
X0499995Y0190131D02*
X0504495Y0190131D01*
X0504495Y0189632D02*
X0500277Y0189632D01*
X0499995Y0189833D02*
X0504495Y0186633D01*
X0504495Y0186933D01*
X0504495Y0222833D01*
X0484395Y0222833D01*
X0484395Y0218733D01*
X0499995Y0218733D01*
X0499995Y0189833D01*
X0500978Y0189134D02*
X0504495Y0189134D01*
X0504495Y0188635D02*
X0501679Y0188635D01*
X0502380Y0188137D02*
X0504495Y0188137D01*
X0504495Y0187638D02*
X0503082Y0187638D01*
X0503783Y0187140D02*
X0504495Y0187140D01*
X0504484Y0186641D02*
X0504495Y0186641D01*
X0500008Y0196113D02*
X0490553Y0196113D01*
X0489796Y0196612D02*
X0499224Y0196612D01*
X0499995Y0197110D02*
X0504495Y0197110D01*
X0504495Y0197609D02*
X0499995Y0197609D01*
X0499995Y0198107D02*
X0504495Y0198107D01*
X0504495Y0198606D02*
X0499995Y0198606D01*
X0499995Y0199104D02*
X0504495Y0199104D01*
X0504495Y0199603D02*
X0499995Y0199603D01*
X0499995Y0200101D02*
X0504495Y0200101D01*
X0504495Y0200600D02*
X0499995Y0200600D01*
X0499995Y0201098D02*
X0504495Y0201098D01*
X0504495Y0201597D02*
X0499995Y0201597D01*
X0499995Y0202095D02*
X0504495Y0202095D01*
X0504495Y0202594D02*
X0499995Y0202594D01*
X0499995Y0203092D02*
X0504495Y0203092D01*
X0504495Y0203591D02*
X0499995Y0203591D01*
X0499751Y0203591D02*
X0500312Y0203591D01*
X0500395Y0203333D02*
X0500295Y0203233D01*
X0500595Y0209533D01*
X0493995Y0211933D01*
X0493895Y0205933D01*
X0500395Y0203333D01*
X0500336Y0204089D02*
X0498505Y0204089D01*
X0497259Y0204588D02*
X0500360Y0204588D01*
X0499995Y0204588D02*
X0504495Y0204588D01*
X0504495Y0205086D02*
X0499995Y0205086D01*
X0500383Y0205086D02*
X0496012Y0205086D01*
X0494766Y0205585D02*
X0500407Y0205585D01*
X0499995Y0205585D02*
X0504495Y0205585D01*
X0504495Y0206083D02*
X0499995Y0206083D01*
X0500431Y0206083D02*
X0493898Y0206083D01*
X0493906Y0206582D02*
X0500455Y0206582D01*
X0499995Y0206582D02*
X0504495Y0206582D01*
X0504495Y0207080D02*
X0499995Y0207080D01*
X0500478Y0207080D02*
X0493914Y0207080D01*
X0493923Y0207579D02*
X0500502Y0207579D01*
X0500526Y0208077D02*
X0493931Y0208077D01*
X0493939Y0208576D02*
X0500550Y0208576D01*
X0500573Y0209074D02*
X0493947Y0209074D01*
X0493956Y0209573D02*
X0500486Y0209573D01*
X0499995Y0209573D02*
X0504495Y0209573D01*
X0504495Y0210071D02*
X0499995Y0210071D01*
X0499995Y0210570D02*
X0504495Y0210570D01*
X0504495Y0211068D02*
X0499995Y0211068D01*
X0499995Y0211567D02*
X0504495Y0211567D01*
X0504495Y0212065D02*
X0499995Y0212065D01*
X0499995Y0212564D02*
X0504495Y0212564D01*
X0504495Y0213062D02*
X0499995Y0213062D01*
X0499995Y0213561D02*
X0504495Y0213561D01*
X0504495Y0214059D02*
X0499995Y0214059D01*
X0499995Y0214558D02*
X0504495Y0214558D01*
X0504495Y0215056D02*
X0499995Y0215056D01*
X0499995Y0215555D02*
X0504495Y0215555D01*
X0504495Y0216053D02*
X0499995Y0216053D01*
X0499995Y0216552D02*
X0504495Y0216552D01*
X0504495Y0217050D02*
X0499995Y0217050D01*
X0499995Y0217549D02*
X0504495Y0217549D01*
X0504495Y0218048D02*
X0499995Y0218048D01*
X0500449Y0218048D02*
X0494398Y0218048D01*
X0494595Y0218048D02*
X0490095Y0218048D01*
X0490564Y0218048D02*
X0488664Y0218048D01*
X0490095Y0218546D02*
X0494595Y0218546D01*
X0494595Y0218633D02*
X0490095Y0218633D01*
X0490095Y0201833D01*
X0494695Y0199233D01*
X0494595Y0199433D01*
X0494595Y0218633D01*
X0494280Y0218546D02*
X0500390Y0218546D01*
X0499995Y0218546D02*
X0504495Y0218546D01*
X0504495Y0219045D02*
X0484395Y0219045D01*
X0484395Y0218633D02*
X0486195Y0218733D01*
X0486295Y0218733D01*
X0486295Y0203533D01*
X0484395Y0205133D01*
X0484395Y0218633D01*
X0484395Y0218546D02*
X0486295Y0218546D01*
X0486197Y0218546D02*
X0490514Y0218546D01*
X0490464Y0219045D02*
X0485967Y0219045D01*
X0485737Y0219543D02*
X0490414Y0219543D01*
X0490395Y0219733D02*
X0485695Y0219633D01*
X0486295Y0218333D01*
X0486295Y0218433D01*
X0490595Y0217733D01*
X0490395Y0219733D01*
X0490095Y0217549D02*
X0494595Y0217549D01*
X0494495Y0217633D02*
X0493295Y0218333D01*
X0493795Y0218133D01*
X0493595Y0218333D01*
X0493695Y0218133D01*
X0493895Y0217933D01*
X0494495Y0217633D01*
X0494495Y0217833D01*
X0500595Y0216833D01*
X0500295Y0219333D01*
X0494095Y0219333D01*
X0494495Y0217633D01*
X0494595Y0217050D02*
X0490095Y0217050D01*
X0490095Y0216552D02*
X0494595Y0216552D01*
X0494595Y0216053D02*
X0490095Y0216053D01*
X0490095Y0215555D02*
X0494595Y0215555D01*
X0494595Y0215056D02*
X0490095Y0215056D01*
X0490095Y0214558D02*
X0494595Y0214558D01*
X0494595Y0214059D02*
X0490095Y0214059D01*
X0490095Y0213561D02*
X0494595Y0213561D01*
X0494595Y0213062D02*
X0490095Y0213062D01*
X0490095Y0212564D02*
X0494595Y0212564D01*
X0494595Y0212065D02*
X0490095Y0212065D01*
X0490095Y0211567D02*
X0494595Y0211567D01*
X0495002Y0211567D02*
X0493989Y0211567D01*
X0493981Y0211068D02*
X0496373Y0211068D01*
X0497744Y0210570D02*
X0493972Y0210570D01*
X0493964Y0210071D02*
X0499115Y0210071D01*
X0499995Y0209074D02*
X0504495Y0209074D01*
X0504495Y0208576D02*
X0499995Y0208576D01*
X0499995Y0208077D02*
X0504495Y0208077D01*
X0504495Y0207579D02*
X0499995Y0207579D01*
X0499995Y0204089D02*
X0504495Y0204089D01*
X0498341Y0197110D02*
X0489039Y0197110D01*
X0488281Y0197609D02*
X0497457Y0197609D01*
X0496573Y0198107D02*
X0487524Y0198107D01*
X0486767Y0198606D02*
X0495689Y0198606D01*
X0494806Y0199104D02*
X0486010Y0199104D01*
X0485253Y0199603D02*
X0493922Y0199603D01*
X0494041Y0199603D02*
X0494595Y0199603D01*
X0494595Y0200101D02*
X0493159Y0200101D01*
X0493038Y0200101D02*
X0484496Y0200101D01*
X0484295Y0200600D02*
X0492154Y0200600D01*
X0492277Y0200600D02*
X0494595Y0200600D01*
X0494595Y0201098D02*
X0491395Y0201098D01*
X0491271Y0201098D02*
X0484295Y0201098D01*
X0484295Y0201597D02*
X0490387Y0201597D01*
X0490513Y0201597D02*
X0494595Y0201597D01*
X0494595Y0202095D02*
X0490095Y0202095D01*
X0490095Y0202594D02*
X0494595Y0202594D01*
X0494595Y0203092D02*
X0490095Y0203092D01*
X0490095Y0203591D02*
X0494595Y0203591D01*
X0494595Y0204089D02*
X0490095Y0204089D01*
X0490095Y0204588D02*
X0494595Y0204588D01*
X0494595Y0205086D02*
X0490095Y0205086D01*
X0490095Y0205585D02*
X0494595Y0205585D01*
X0494595Y0206083D02*
X0490095Y0206083D01*
X0490095Y0206582D02*
X0494595Y0206582D01*
X0494595Y0207080D02*
X0490095Y0207080D01*
X0490095Y0207579D02*
X0494595Y0207579D01*
X0494595Y0208077D02*
X0490095Y0208077D01*
X0490095Y0208576D02*
X0494595Y0208576D01*
X0494595Y0209074D02*
X0490095Y0209074D01*
X0490095Y0209573D02*
X0494595Y0209573D01*
X0494595Y0210071D02*
X0490095Y0210071D01*
X0490095Y0210570D02*
X0494595Y0210570D01*
X0494595Y0211068D02*
X0490095Y0211068D01*
X0490718Y0211068D02*
X0485797Y0211068D01*
X0486295Y0211068D02*
X0484395Y0211068D01*
X0484395Y0210570D02*
X0486295Y0210570D01*
X0485861Y0210570D02*
X0490727Y0210570D01*
X0490737Y0210071D02*
X0485924Y0210071D01*
X0486295Y0210071D02*
X0484395Y0210071D01*
X0484395Y0209573D02*
X0486295Y0209573D01*
X0485988Y0209573D02*
X0490746Y0209573D01*
X0490756Y0209074D02*
X0486052Y0209074D01*
X0485995Y0209033D02*
X0486095Y0208733D01*
X0485495Y0213433D01*
X0490695Y0212233D01*
X0490795Y0207033D01*
X0485995Y0209033D01*
X0486295Y0209074D02*
X0484395Y0209074D01*
X0484395Y0208576D02*
X0486295Y0208576D01*
X0486295Y0208077D02*
X0484395Y0208077D01*
X0484395Y0207579D02*
X0486295Y0207579D01*
X0486295Y0207080D02*
X0484395Y0207080D01*
X0484395Y0206582D02*
X0486295Y0206582D01*
X0486295Y0206083D02*
X0484395Y0206083D01*
X0484395Y0205585D02*
X0486295Y0205585D01*
X0486295Y0205086D02*
X0484451Y0205086D01*
X0484295Y0204588D02*
X0485085Y0204588D01*
X0485043Y0204588D02*
X0486295Y0204588D01*
X0486295Y0204089D02*
X0485635Y0204089D01*
X0485968Y0204089D02*
X0484295Y0204089D01*
X0484295Y0203591D02*
X0486852Y0203591D01*
X0486295Y0203591D02*
X0486227Y0203591D01*
X0487736Y0203092D02*
X0484295Y0203092D01*
X0484295Y0202594D02*
X0488620Y0202594D01*
X0489503Y0202095D02*
X0484295Y0202095D01*
X0487093Y0208576D02*
X0490765Y0208576D01*
X0490775Y0208077D02*
X0488289Y0208077D01*
X0489485Y0207579D02*
X0490785Y0207579D01*
X0490794Y0207080D02*
X0490682Y0207080D01*
X0490708Y0211567D02*
X0485733Y0211567D01*
X0485670Y0212065D02*
X0490698Y0212065D01*
X0489262Y0212564D02*
X0485606Y0212564D01*
X0485542Y0213062D02*
X0487101Y0213062D01*
X0486295Y0213062D02*
X0484395Y0213062D01*
X0484395Y0212564D02*
X0486295Y0212564D01*
X0486295Y0212065D02*
X0484395Y0212065D01*
X0484395Y0211567D02*
X0486295Y0211567D01*
X0486295Y0213561D02*
X0484395Y0213561D01*
X0484395Y0214059D02*
X0486295Y0214059D01*
X0486295Y0214558D02*
X0484395Y0214558D01*
X0484395Y0215056D02*
X0486295Y0215056D01*
X0486295Y0215555D02*
X0484395Y0215555D01*
X0484395Y0216053D02*
X0486295Y0216053D01*
X0486295Y0216552D02*
X0484395Y0216552D01*
X0484395Y0217050D02*
X0486295Y0217050D01*
X0486295Y0217549D02*
X0484395Y0217549D01*
X0484395Y0218048D02*
X0486295Y0218048D01*
X0484395Y0219543D02*
X0504495Y0219543D01*
X0504495Y0220042D02*
X0484395Y0220042D01*
X0484395Y0220540D02*
X0504495Y0220540D01*
X0504495Y0221039D02*
X0484395Y0221039D01*
X0484395Y0221537D02*
X0504495Y0221537D01*
X0504495Y0222036D02*
X0484395Y0222036D01*
X0484395Y0222534D02*
X0504495Y0222534D01*
X0500330Y0219045D02*
X0494163Y0219045D01*
X0493785Y0218048D02*
X0493781Y0218048D01*
X0496228Y0217549D02*
X0500509Y0217549D01*
X0500569Y0217050D02*
X0499269Y0217050D01*
D55*
X0276036Y0121674D02*
X0275997Y0121760D01*
X0275848Y0122106D01*
X0275688Y0122439D01*
X0275517Y0122760D01*
X0275346Y0123081D01*
X0275164Y0123390D01*
X0274972Y0123686D01*
X0274780Y0123983D01*
X0274576Y0124267D01*
X0274363Y0124539D01*
X0274149Y0124811D01*
X0273924Y0125070D01*
X0273453Y0125565D01*
X0273209Y0125795D01*
X0272958Y0126008D01*
X0272706Y0126221D01*
X0272447Y0126417D01*
X0272180Y0126596D01*
X0271913Y0126774D01*
X0271638Y0126936D01*
X0271356Y0127080D01*
X0271073Y0127224D01*
X0270782Y0127351D01*
X0270484Y0127461D01*
X0270351Y0127516D01*
X0270211Y0127570D01*
X0270066Y0127622D01*
X0269921Y0127674D01*
X0269769Y0127725D01*
X0269455Y0127823D01*
X0269292Y0127870D01*
X0268955Y0127963D01*
X0268780Y0128007D01*
X0268599Y0128051D01*
X0268419Y0128094D01*
X0268231Y0128132D01*
X0268037Y0128164D01*
X0267842Y0128196D01*
X0267641Y0128223D01*
X0267433Y0128245D01*
X0267225Y0128266D01*
X0267010Y0128283D01*
X0266566Y0128304D01*
X0266338Y0128310D01*
X0253961Y0128310D01*
X0253892Y0128300D01*
X0253833Y0128280D01*
X0253775Y0128261D01*
X0253725Y0128231D01*
X0253686Y0128192D01*
X0253647Y0128153D01*
X0253617Y0128103D01*
X0253598Y0128045D01*
X0253578Y0127986D01*
X0253568Y0127917D01*
X0253568Y0122577D01*
X0253578Y0122508D01*
X0253598Y0122449D01*
X0253617Y0122390D01*
X0253647Y0122341D01*
X0253686Y0122302D01*
X0253725Y0122263D01*
X0253775Y0122233D01*
X0253833Y0122214D01*
X0253892Y0122194D01*
X0253961Y0122184D01*
X0266243Y0122184D01*
X0266518Y0122161D01*
X0266778Y0122120D01*
X0267022Y0122062D01*
X0267267Y0122004D01*
X0267496Y0121929D01*
X0267924Y0121744D01*
X0268123Y0121635D01*
X0268490Y0121382D01*
X0268658Y0121238D01*
X0268811Y0121077D01*
X0268964Y0120916D01*
X0269101Y0120741D01*
X0269222Y0120551D01*
X0269343Y0120362D01*
X0269447Y0120158D01*
X0269536Y0119940D01*
X0269624Y0119722D01*
X0269696Y0119490D01*
X0269752Y0119244D01*
X0269808Y0118997D01*
X0269848Y0118737D01*
X0269872Y0118462D01*
X0269872Y0106133D01*
X0269853Y0105743D01*
X0269778Y0105003D01*
X0269722Y0104652D01*
X0269573Y0103989D01*
X0269480Y0103676D01*
X0269368Y0103382D01*
X0269256Y0103089D01*
X0269125Y0102815D01*
X0268976Y0102559D01*
X0268827Y0102304D01*
X0268658Y0102073D01*
X0268281Y0101659D01*
X0268073Y0101476D01*
X0267845Y0101317D01*
X0267618Y0101158D01*
X0267370Y0101023D01*
X0267103Y0100912D01*
X0266836Y0100801D01*
X0266550Y0100714D01*
X0266243Y0100651D01*
X0253961Y0100651D01*
X0253892Y0100641D01*
X0253833Y0100622D01*
X0253775Y0100602D01*
X0253725Y0100572D01*
X0253686Y0100533D01*
X0253647Y0100494D01*
X0253617Y0100445D01*
X0253598Y0100386D01*
X0253578Y0100327D01*
X0253568Y0100258D01*
X0253568Y0094918D01*
X0253578Y0094850D01*
X0253598Y0094791D01*
X0253617Y0094732D01*
X0253647Y0094683D01*
X0253686Y0094643D01*
X0253725Y0094604D01*
X0253775Y0094575D01*
X0253833Y0094555D01*
X0253892Y0094535D01*
X0253961Y0094526D01*
X0266911Y0094526D01*
X0267290Y0094545D01*
X0267663Y0094584D01*
X0268036Y0094624D01*
X0268403Y0094683D01*
X0268764Y0094761D01*
X0269125Y0094840D01*
X0269481Y0094938D01*
X0270180Y0095173D01*
X0270523Y0095311D01*
X0270861Y0095468D01*
X0271199Y0095625D01*
X0271525Y0095798D01*
X0271839Y0095986D01*
X0272153Y0096175D01*
X0272455Y0096379D01*
X0272746Y0096599D01*
X0273036Y0096819D01*
X0273315Y0097054D01*
X0273582Y0097306D01*
X0273849Y0097557D01*
X0274104Y0097824D01*
X0274348Y0098107D01*
X0274434Y0098209D01*
X0274520Y0098313D01*
X0274605Y0098420D01*
X0274691Y0098527D01*
X0274776Y0098637D01*
X0274860Y0098749D01*
X0274945Y0098861D01*
X0275029Y0098975D01*
X0275112Y0099092D01*
X0275195Y0099209D01*
X0275278Y0099328D01*
X0275361Y0099450D01*
X0275443Y0099571D01*
X0275521Y0099699D01*
X0275595Y0099834D01*
X0275669Y0099968D01*
X0275738Y0100109D01*
X0275803Y0100256D01*
X0275867Y0100404D01*
X0275928Y0100557D01*
X0276040Y0100877D01*
X0276091Y0101044D01*
X0276138Y0101216D01*
X0276232Y0101515D01*
X0276315Y0101818D01*
X0276386Y0102126D01*
X0276456Y0102435D01*
X0276515Y0102748D01*
X0276609Y0103384D01*
X0276645Y0103707D01*
X0276692Y0104363D01*
X0276704Y0104695D01*
X0276704Y0118438D01*
X0276699Y0118642D01*
X0276689Y0118837D01*
X0276679Y0119033D01*
X0276664Y0119220D01*
X0276645Y0119398D01*
X0276625Y0119577D01*
X0276601Y0119747D01*
X0276571Y0119909D01*
X0276542Y0120071D01*
X0276507Y0120225D01*
X0276468Y0120370D01*
X0276429Y0120516D01*
X0276390Y0120653D01*
X0276350Y0120784D01*
X0276311Y0120915D01*
X0276272Y0121038D01*
X0276193Y0121269D01*
X0276154Y0121378D01*
X0276115Y0121479D01*
X0276075Y0121580D01*
X0276036Y0121674D01*
X0276112Y0121487D02*
X0268338Y0121487D01*
X0268795Y0121094D02*
X0276253Y0121094D01*
X0276375Y0120702D02*
X0269126Y0120702D01*
X0269369Y0120310D02*
X0276484Y0120310D01*
X0276570Y0119918D02*
X0269545Y0119918D01*
X0269685Y0119526D02*
X0276631Y0119526D01*
X0276671Y0119133D02*
X0269777Y0119133D01*
X0269847Y0118741D02*
X0276694Y0118741D01*
X0276704Y0118349D02*
X0269872Y0118349D01*
X0269872Y0117957D02*
X0276704Y0117957D01*
X0276704Y0117565D02*
X0269872Y0117565D01*
X0269872Y0117172D02*
X0276704Y0117172D01*
X0276704Y0116780D02*
X0269872Y0116780D01*
X0269872Y0116388D02*
X0276704Y0116388D01*
X0276704Y0115996D02*
X0269872Y0115996D01*
X0269872Y0115603D02*
X0276704Y0115603D01*
X0276704Y0115211D02*
X0269872Y0115211D01*
X0269872Y0114819D02*
X0276704Y0114819D01*
X0276704Y0114427D02*
X0269872Y0114427D01*
X0269872Y0114035D02*
X0276704Y0114035D01*
X0276704Y0113642D02*
X0269872Y0113642D01*
X0269872Y0113250D02*
X0276704Y0113250D01*
X0276704Y0112858D02*
X0269872Y0112858D01*
X0269872Y0112466D02*
X0276704Y0112466D01*
X0276704Y0112074D02*
X0269872Y0112074D01*
X0269872Y0111681D02*
X0276704Y0111681D01*
X0276704Y0111289D02*
X0269872Y0111289D01*
X0269872Y0110897D02*
X0276704Y0110897D01*
X0276704Y0110505D02*
X0269872Y0110505D01*
X0269872Y0110113D02*
X0276704Y0110113D01*
X0276704Y0109720D02*
X0269872Y0109720D01*
X0269872Y0109328D02*
X0276704Y0109328D01*
X0276704Y0108936D02*
X0269872Y0108936D01*
X0269872Y0108544D02*
X0276704Y0108544D01*
X0276704Y0108151D02*
X0269872Y0108151D01*
X0269872Y0107759D02*
X0276704Y0107759D01*
X0276704Y0107367D02*
X0269872Y0107367D01*
X0269872Y0106975D02*
X0276704Y0106975D01*
X0276704Y0106583D02*
X0269872Y0106583D01*
X0269872Y0106190D02*
X0276704Y0106190D01*
X0276704Y0105798D02*
X0269856Y0105798D01*
X0269819Y0105406D02*
X0276704Y0105406D01*
X0276704Y0105014D02*
X0269779Y0105014D01*
X0269715Y0104622D02*
X0276701Y0104622D01*
X0276682Y0104229D02*
X0269627Y0104229D01*
X0269528Y0103837D02*
X0276654Y0103837D01*
X0276616Y0103445D02*
X0269392Y0103445D01*
X0269239Y0103053D02*
X0276560Y0103053D01*
X0276499Y0102660D02*
X0269035Y0102660D01*
X0268801Y0102268D02*
X0276418Y0102268D01*
X0276328Y0101876D02*
X0268479Y0101876D01*
X0268083Y0101484D02*
X0276223Y0101484D01*
X0276104Y0101092D02*
X0267497Y0101092D01*
X0266479Y0100699D02*
X0275977Y0100699D01*
X0275825Y0100307D02*
X0253575Y0100307D01*
X0253568Y0099915D02*
X0275639Y0099915D01*
X0275410Y0099523D02*
X0253568Y0099523D01*
X0253568Y0099131D02*
X0275140Y0099131D01*
X0274852Y0098738D02*
X0253568Y0098738D01*
X0253568Y0098346D02*
X0274546Y0098346D01*
X0274216Y0097954D02*
X0253568Y0097954D01*
X0253568Y0097562D02*
X0273854Y0097562D01*
X0273438Y0097170D02*
X0253568Y0097170D01*
X0253568Y0096777D02*
X0272982Y0096777D01*
X0272463Y0096385D02*
X0253568Y0096385D01*
X0253568Y0095993D02*
X0271850Y0095993D01*
X0271146Y0095601D02*
X0253568Y0095601D01*
X0253568Y0095208D02*
X0270267Y0095208D01*
X0269018Y0094816D02*
X0253589Y0094816D01*
X0248014Y0098092D02*
X0248120Y0098271D01*
X0248220Y0098460D01*
X0248315Y0098660D01*
X0248409Y0098861D01*
X0248497Y0099072D01*
X0248580Y0099293D01*
X0248662Y0099515D01*
X0248739Y0099748D01*
X0248809Y0099992D01*
X0248880Y0100235D01*
X0248950Y0100486D01*
X0249019Y0100745D01*
X0249087Y0101004D01*
X0249155Y0101272D01*
X0249222Y0101546D01*
X0249289Y0101821D01*
X0249354Y0102104D01*
X0249484Y0102685D01*
X0249548Y0102983D01*
X0249610Y0103290D01*
X0249650Y0103502D01*
X0249685Y0103729D01*
X0249748Y0104216D01*
X0249775Y0104475D01*
X0249799Y0104750D01*
X0249823Y0105025D01*
X0249842Y0105316D01*
X0249858Y0105622D01*
X0249874Y0105928D01*
X0249885Y0106250D01*
X0249893Y0106588D01*
X0249901Y0106926D01*
X0249908Y0107279D01*
X0249914Y0107648D01*
X0249920Y0108017D01*
X0249925Y0108402D01*
X0249929Y0108803D01*
X0249932Y0109203D01*
X0249935Y0109619D01*
X0249937Y0110051D01*
X0249939Y0110483D01*
X0249940Y0110931D01*
X0249940Y0112140D01*
X0249939Y0112588D01*
X0249937Y0113020D01*
X0249935Y0113452D01*
X0249932Y0113868D01*
X0249929Y0114268D01*
X0249925Y0114669D01*
X0249920Y0115054D01*
X0249914Y0115423D01*
X0249908Y0115792D01*
X0249901Y0116145D01*
X0249893Y0116483D01*
X0249885Y0116821D01*
X0249874Y0117143D01*
X0249858Y0117449D01*
X0249842Y0117755D01*
X0249823Y0118046D01*
X0249799Y0118321D01*
X0249775Y0118595D01*
X0249748Y0118854D01*
X0249685Y0119341D01*
X0249650Y0119569D01*
X0249610Y0119781D01*
X0249548Y0120087D01*
X0249484Y0120386D01*
X0249354Y0120967D01*
X0249289Y0121250D01*
X0249222Y0121525D01*
X0249155Y0121799D01*
X0249087Y0122066D01*
X0249019Y0122326D01*
X0248950Y0122585D01*
X0248880Y0122836D01*
X0248809Y0123079D01*
X0248739Y0123323D01*
X0248662Y0123556D01*
X0248580Y0123777D01*
X0248497Y0123999D01*
X0248409Y0124210D01*
X0248315Y0124411D01*
X0248220Y0124611D01*
X0248120Y0124800D01*
X0248014Y0124979D01*
X0247908Y0125158D01*
X0247796Y0125326D01*
X0247679Y0125483D01*
X0247522Y0125687D01*
X0247355Y0125884D01*
X0247178Y0126076D01*
X0247001Y0126267D01*
X0246815Y0126452D01*
X0246618Y0126631D01*
X0246422Y0126810D01*
X0246216Y0126982D01*
X0246000Y0127148D01*
X0245784Y0127314D01*
X0245558Y0127473D01*
X0245323Y0127626D01*
X0245087Y0127780D01*
X0244848Y0127921D01*
X0244604Y0128052D01*
X0244361Y0128183D01*
X0244113Y0128302D01*
X0243862Y0128410D01*
X0243611Y0128518D01*
X0243355Y0128614D01*
X0243096Y0128700D01*
X0242837Y0128785D01*
X0242574Y0128859D01*
X0242307Y0128922D01*
X0242119Y0128961D01*
X0241915Y0128997D01*
X0241698Y0129028D01*
X0241480Y0129060D01*
X0241247Y0129087D01*
X0241000Y0129111D01*
X0240752Y0129134D01*
X0240490Y0129154D01*
X0240213Y0129170D01*
X0239936Y0129185D01*
X0239645Y0129197D01*
X0239339Y0129205D01*
X0239032Y0129213D01*
X0238711Y0129220D01*
X0238376Y0129226D01*
X0238040Y0129231D01*
X0237689Y0129236D01*
X0237324Y0129240D01*
X0236959Y0129244D01*
X0236579Y0129247D01*
X0236185Y0129249D01*
X0235790Y0129251D01*
X0235381Y0129252D01*
X0234957Y0129252D01*
X0234957Y0122750D01*
X0234365Y0122746D01*
X0234365Y0129251D01*
X0234957Y0129252D01*
X0234957Y0122750D01*
X0235200Y0122750D01*
X0235441Y0122748D01*
X0235678Y0122745D01*
X0235916Y0122742D01*
X0236150Y0122738D01*
X0236382Y0122732D01*
X0236614Y0122726D01*
X0236842Y0122719D01*
X0237068Y0122710D01*
X0237294Y0122701D01*
X0237517Y0122691D01*
X0237737Y0122679D01*
X0237956Y0122667D01*
X0238169Y0122652D01*
X0238373Y0122633D01*
X0238577Y0122615D01*
X0238773Y0122593D01*
X0238962Y0122567D01*
X0239150Y0122541D01*
X0239331Y0122513D01*
X0239504Y0122480D01*
X0239676Y0122448D01*
X0239841Y0122412D01*
X0239998Y0122373D01*
X0240281Y0122302D01*
X0240543Y0122214D01*
X0240785Y0122109D01*
X0241026Y0122004D01*
X0241247Y0121882D01*
X0241447Y0121743D01*
X0241647Y0121603D01*
X0241827Y0121447D01*
X0241986Y0121273D01*
X0242145Y0121099D01*
X0242284Y0120908D01*
X0242401Y0120700D01*
X0242519Y0120492D01*
X0242622Y0120258D01*
X0242711Y0119998D01*
X0242799Y0119737D01*
X0242873Y0119451D01*
X0242931Y0119139D01*
X0242990Y0118827D01*
X0243034Y0118489D01*
X0243064Y0118125D01*
X0243093Y0117760D01*
X0243108Y0117370D01*
X0243108Y0105701D01*
X0243093Y0105310D01*
X0243064Y0104946D01*
X0243034Y0104582D01*
X0242990Y0104244D01*
X0242931Y0103932D01*
X0242873Y0103619D01*
X0242799Y0103333D01*
X0242711Y0103073D01*
X0242622Y0102813D01*
X0242519Y0102579D01*
X0242401Y0102371D01*
X0242284Y0102163D01*
X0242145Y0101972D01*
X0241827Y0101624D01*
X0241647Y0101468D01*
X0241447Y0101328D01*
X0241247Y0101189D01*
X0241026Y0101067D01*
X0240785Y0100962D01*
X0240543Y0100857D01*
X0240281Y0100769D01*
X0239998Y0100698D01*
X0239841Y0100659D01*
X0239676Y0100623D01*
X0239504Y0100591D01*
X0239331Y0100558D01*
X0239150Y0100529D01*
X0238962Y0100504D01*
X0238773Y0100478D01*
X0238577Y0100456D01*
X0238373Y0100438D01*
X0238169Y0100419D01*
X0237956Y0100404D01*
X0237737Y0100392D01*
X0237517Y0100380D01*
X0237294Y0100370D01*
X0237068Y0100361D01*
X0236842Y0100352D01*
X0236614Y0100345D01*
X0236382Y0100339D01*
X0236150Y0100333D01*
X0235916Y0100328D01*
X0235678Y0100326D01*
X0235441Y0100323D01*
X0235200Y0100321D01*
X0234713Y0100321D01*
X0234473Y0100323D01*
X0234235Y0100326D01*
X0233998Y0100328D01*
X0233763Y0100333D01*
X0233531Y0100339D01*
X0233300Y0100345D01*
X0233071Y0100352D01*
X0232845Y0100361D01*
X0232619Y0100370D01*
X0232396Y0100380D01*
X0232177Y0100392D01*
X0231957Y0100404D01*
X0231745Y0100419D01*
X0231540Y0100438D01*
X0231336Y0100456D01*
X0231140Y0100478D01*
X0230951Y0100504D01*
X0230763Y0100529D01*
X0230582Y0100558D01*
X0230410Y0100591D01*
X0230237Y0100623D01*
X0230072Y0100659D01*
X0229915Y0100698D01*
X0229632Y0100769D01*
X0229370Y0100857D01*
X0229129Y0100962D01*
X0228887Y0101067D01*
X0228666Y0101189D01*
X0228466Y0101328D01*
X0228266Y0101468D01*
X0228086Y0101624D01*
X0227768Y0101972D01*
X0227630Y0102163D01*
X0227512Y0102371D01*
X0227394Y0102579D01*
X0227291Y0102813D01*
X0227203Y0103073D01*
X0227114Y0103333D01*
X0227041Y0103619D01*
X0226982Y0103932D01*
X0226923Y0104244D01*
X0226879Y0104582D01*
X0226849Y0104946D01*
X0226820Y0105310D01*
X0226805Y0105701D01*
X0226805Y0117370D01*
X0226820Y0117760D01*
X0226879Y0118489D01*
X0226923Y0118827D01*
X0226982Y0119139D01*
X0227041Y0119451D01*
X0227114Y0119737D01*
X0227203Y0119998D01*
X0227291Y0120258D01*
X0227394Y0120492D01*
X0227512Y0120700D01*
X0227630Y0120908D01*
X0227768Y0121099D01*
X0227927Y0121273D01*
X0228086Y0121447D01*
X0228266Y0121603D01*
X0228666Y0121882D01*
X0228887Y0122004D01*
X0229129Y0122109D01*
X0229370Y0122214D01*
X0229632Y0122302D01*
X0229915Y0122373D01*
X0230072Y0122412D01*
X0230237Y0122448D01*
X0230410Y0122480D01*
X0230582Y0122513D01*
X0230763Y0122541D01*
X0230951Y0122567D01*
X0231140Y0122593D01*
X0231336Y0122615D01*
X0231540Y0122633D01*
X0231745Y0122652D01*
X0231957Y0122667D01*
X0232177Y0122679D01*
X0232396Y0122691D01*
X0232619Y0122701D01*
X0232845Y0122710D01*
X0233071Y0122719D01*
X0233300Y0122726D01*
X0233531Y0122732D01*
X0233763Y0122738D01*
X0233998Y0122742D01*
X0234235Y0122745D01*
X0234278Y0122746D01*
X0234322Y0122746D01*
X0234365Y0122746D01*
X0234365Y0129251D01*
X0234152Y0129250D01*
X0233933Y0129250D01*
X0233729Y0129249D01*
X0233334Y0129247D01*
X0232954Y0129244D01*
X0232589Y0129240D01*
X0232224Y0129236D01*
X0231873Y0129231D01*
X0231538Y0129226D01*
X0231202Y0129220D01*
X0230881Y0129213D01*
X0230575Y0129205D01*
X0230268Y0129197D01*
X0229977Y0129185D01*
X0229700Y0129170D01*
X0229423Y0129154D01*
X0229161Y0129134D01*
X0228914Y0129111D01*
X0228666Y0129087D01*
X0228434Y0129060D01*
X0228216Y0129028D01*
X0227998Y0128997D01*
X0227795Y0128961D01*
X0227606Y0128922D01*
X0227339Y0128859D01*
X0227076Y0128785D01*
X0226817Y0128700D01*
X0226558Y0128614D01*
X0226302Y0128518D01*
X0226051Y0128410D01*
X0225800Y0128302D01*
X0225552Y0128183D01*
X0225309Y0128052D01*
X0225066Y0127921D01*
X0224826Y0127780D01*
X0224590Y0127626D01*
X0224355Y0127473D01*
X0224129Y0127314D01*
X0223913Y0127148D01*
X0223697Y0126982D01*
X0223491Y0126810D01*
X0223295Y0126631D01*
X0223098Y0126452D01*
X0222912Y0126267D01*
X0222735Y0126076D01*
X0222559Y0125884D01*
X0222392Y0125687D01*
X0222235Y0125483D01*
X0222117Y0125326D01*
X0222005Y0125158D01*
X0221899Y0124979D01*
X0221793Y0124800D01*
X0221693Y0124611D01*
X0221598Y0124411D01*
X0221504Y0124210D01*
X0221416Y0123999D01*
X0221333Y0123777D01*
X0221251Y0123556D01*
X0221174Y0123323D01*
X0221104Y0123079D01*
X0221033Y0122836D01*
X0220963Y0122585D01*
X0220895Y0122326D01*
X0220826Y0122066D01*
X0220758Y0121799D01*
X0220691Y0121525D01*
X0220625Y0121250D01*
X0220559Y0120967D01*
X0220494Y0120676D01*
X0220429Y0120386D01*
X0220366Y0120087D01*
X0220303Y0119781D01*
X0220263Y0119569D01*
X0220228Y0119341D01*
X0220197Y0119098D01*
X0220165Y0118854D01*
X0220138Y0118595D01*
X0220114Y0118321D01*
X0220091Y0118046D01*
X0220071Y0117755D01*
X0220055Y0117449D01*
X0220040Y0117143D01*
X0220028Y0116821D01*
X0220012Y0116145D01*
X0220005Y0115792D01*
X0219999Y0115423D01*
X0219994Y0115054D01*
X0219989Y0114669D01*
X0219985Y0114268D01*
X0219981Y0113868D01*
X0219978Y0113452D01*
X0219974Y0112588D01*
X0219973Y0112140D01*
X0219973Y0110931D01*
X0219974Y0110483D01*
X0219978Y0109619D01*
X0219981Y0109203D01*
X0219985Y0108803D01*
X0219989Y0108402D01*
X0219994Y0108017D01*
X0219999Y0107648D01*
X0220005Y0107279D01*
X0220012Y0106926D01*
X0220028Y0106250D01*
X0220040Y0105928D01*
X0220055Y0105622D01*
X0220071Y0105316D01*
X0220091Y0105025D01*
X0220114Y0104750D01*
X0220138Y0104475D01*
X0220165Y0104216D01*
X0220197Y0103973D01*
X0220228Y0103729D01*
X0220263Y0103502D01*
X0220303Y0103290D01*
X0220366Y0102983D01*
X0220429Y0102685D01*
X0220494Y0102394D01*
X0220559Y0102104D01*
X0220625Y0101821D01*
X0220691Y0101546D01*
X0220758Y0101272D01*
X0220826Y0101004D01*
X0220895Y0100745D01*
X0220963Y0100486D01*
X0221033Y0100235D01*
X0221104Y0099992D01*
X0221174Y0099748D01*
X0221251Y0099515D01*
X0221333Y0099293D01*
X0221416Y0099072D01*
X0221504Y0098861D01*
X0221598Y0098660D01*
X0221693Y0098460D01*
X0221793Y0098271D01*
X0221899Y0098092D01*
X0222005Y0097913D01*
X0222117Y0097745D01*
X0222235Y0097588D01*
X0222392Y0097384D01*
X0222559Y0097186D01*
X0222735Y0096995D01*
X0222912Y0096803D01*
X0223098Y0096618D01*
X0223295Y0096440D01*
X0223491Y0096261D01*
X0223697Y0096089D01*
X0223913Y0095923D01*
X0224129Y0095757D01*
X0224355Y0095597D01*
X0224590Y0095444D01*
X0224826Y0095291D01*
X0225066Y0095149D01*
X0225309Y0095019D01*
X0225552Y0094888D01*
X0225800Y0094769D01*
X0226051Y0094661D01*
X0226302Y0094553D01*
X0226558Y0094456D01*
X0226817Y0094371D01*
X0227076Y0094286D01*
X0227339Y0094211D01*
X0227606Y0094149D01*
X0227795Y0094109D01*
X0227998Y0094074D01*
X0228216Y0094043D01*
X0228434Y0094011D01*
X0228666Y0093984D01*
X0228914Y0093960D01*
X0229161Y0093937D01*
X0229423Y0093917D01*
X0229700Y0093901D01*
X0229977Y0093886D01*
X0230268Y0093874D01*
X0230575Y0093866D01*
X0230881Y0093858D01*
X0231202Y0093851D01*
X0231538Y0093845D01*
X0231873Y0093840D01*
X0232224Y0093835D01*
X0232589Y0093831D01*
X0232954Y0093827D01*
X0233334Y0093824D01*
X0233729Y0093822D01*
X0234123Y0093820D01*
X0234533Y0093819D01*
X0235381Y0093819D01*
X0235790Y0093820D01*
X0236185Y0093822D01*
X0236579Y0093824D01*
X0236959Y0093827D01*
X0237324Y0093831D01*
X0237689Y0093835D01*
X0238040Y0093840D01*
X0238376Y0093845D01*
X0238711Y0093851D01*
X0239032Y0093858D01*
X0239645Y0093874D01*
X0239936Y0093886D01*
X0240213Y0093901D01*
X0240490Y0093917D01*
X0240752Y0093937D01*
X0241000Y0093960D01*
X0241247Y0093984D01*
X0241480Y0094011D01*
X0241698Y0094043D01*
X0241915Y0094074D01*
X0242119Y0094109D01*
X0242307Y0094149D01*
X0242574Y0094211D01*
X0242837Y0094286D01*
X0243096Y0094371D01*
X0243355Y0094456D01*
X0243611Y0094553D01*
X0243862Y0094661D01*
X0244113Y0094769D01*
X0244361Y0094888D01*
X0244604Y0095019D01*
X0244848Y0095149D01*
X0245087Y0095291D01*
X0245323Y0095444D01*
X0245558Y0095597D01*
X0245784Y0095757D01*
X0246000Y0095923D01*
X0246216Y0096089D01*
X0246422Y0096261D01*
X0246618Y0096440D01*
X0246815Y0096618D01*
X0247001Y0096803D01*
X0247178Y0096995D01*
X0247355Y0097186D01*
X0247522Y0097384D01*
X0247679Y0097588D01*
X0247796Y0097745D01*
X0247908Y0097913D01*
X0248014Y0098092D01*
X0247932Y0097954D02*
X0221981Y0097954D01*
X0221753Y0098346D02*
X0248160Y0098346D01*
X0248351Y0098738D02*
X0221562Y0098738D01*
X0221394Y0099131D02*
X0248519Y0099131D01*
X0248665Y0099523D02*
X0221249Y0099523D01*
X0221126Y0099915D02*
X0248787Y0099915D01*
X0248900Y0100307D02*
X0221013Y0100307D01*
X0220907Y0100699D02*
X0229909Y0100699D01*
X0228842Y0101092D02*
X0220804Y0101092D01*
X0220707Y0101484D02*
X0228247Y0101484D01*
X0227856Y0101876D02*
X0220612Y0101876D01*
X0220522Y0102268D02*
X0227570Y0102268D01*
X0227358Y0102660D02*
X0220435Y0102660D01*
X0220351Y0103053D02*
X0227210Y0103053D01*
X0227086Y0103445D02*
X0220274Y0103445D01*
X0220214Y0103837D02*
X0227000Y0103837D01*
X0226926Y0104229D02*
X0220164Y0104229D01*
X0220125Y0104622D02*
X0226875Y0104622D01*
X0226844Y0105014D02*
X0220092Y0105014D01*
X0220066Y0105406D02*
X0226816Y0105406D01*
X0226805Y0105798D02*
X0220046Y0105798D01*
X0220030Y0106190D02*
X0226805Y0106190D01*
X0226805Y0106583D02*
X0220020Y0106583D01*
X0220011Y0106975D02*
X0226805Y0106975D01*
X0226805Y0107367D02*
X0220004Y0107367D01*
X0219998Y0107759D02*
X0226805Y0107759D01*
X0226805Y0108151D02*
X0219992Y0108151D01*
X0219987Y0108544D02*
X0226805Y0108544D01*
X0226805Y0108936D02*
X0219983Y0108936D01*
X0219980Y0109328D02*
X0226805Y0109328D01*
X0226805Y0109720D02*
X0219977Y0109720D01*
X0219976Y0110113D02*
X0226805Y0110113D01*
X0226805Y0110505D02*
X0219974Y0110505D01*
X0219973Y0110897D02*
X0226805Y0110897D01*
X0226805Y0111289D02*
X0219973Y0111289D01*
X0219973Y0111681D02*
X0226805Y0111681D01*
X0226805Y0112074D02*
X0219973Y0112074D01*
X0219974Y0112466D02*
X0226805Y0112466D01*
X0226805Y0112858D02*
X0219975Y0112858D01*
X0219977Y0113250D02*
X0226805Y0113250D01*
X0226805Y0113642D02*
X0219979Y0113642D01*
X0219982Y0114035D02*
X0226805Y0114035D01*
X0226805Y0114427D02*
X0219986Y0114427D01*
X0219991Y0114819D02*
X0226805Y0114819D01*
X0226805Y0115211D02*
X0219996Y0115211D01*
X0220002Y0115603D02*
X0226805Y0115603D01*
X0226805Y0115996D02*
X0220009Y0115996D01*
X0220018Y0116388D02*
X0226805Y0116388D01*
X0226805Y0116780D02*
X0220027Y0116780D01*
X0220041Y0117172D02*
X0226805Y0117172D01*
X0226812Y0117565D02*
X0220061Y0117565D01*
X0220085Y0117957D02*
X0226836Y0117957D01*
X0226867Y0118349D02*
X0220117Y0118349D01*
X0220153Y0118741D02*
X0226912Y0118741D01*
X0226981Y0119133D02*
X0220201Y0119133D01*
X0220257Y0119526D02*
X0227060Y0119526D01*
X0227176Y0119918D02*
X0220331Y0119918D01*
X0220413Y0120310D02*
X0227314Y0120310D01*
X0227513Y0120702D02*
X0220500Y0120702D01*
X0220589Y0121094D02*
X0227765Y0121094D01*
X0228132Y0121487D02*
X0220682Y0121487D01*
X0220778Y0121879D02*
X0228662Y0121879D01*
X0229540Y0122271D02*
X0220880Y0122271D01*
X0220985Y0122663D02*
X0231903Y0122663D01*
X0234365Y0123056D02*
X0221097Y0123056D01*
X0221215Y0123448D02*
X0234365Y0123448D01*
X0234957Y0123448D01*
X0248698Y0123448D01*
X0248816Y0123056D02*
X0234957Y0123056D01*
X0234365Y0123056D01*
X0234365Y0123840D02*
X0234957Y0123840D01*
X0248556Y0123840D01*
X0248399Y0124232D02*
X0234957Y0124232D01*
X0234365Y0124232D01*
X0221514Y0124232D01*
X0221357Y0123840D02*
X0234365Y0123840D01*
X0234365Y0124624D02*
X0234957Y0124624D01*
X0248213Y0124624D01*
X0247992Y0125017D02*
X0234957Y0125017D01*
X0234365Y0125017D01*
X0221921Y0125017D01*
X0221700Y0124624D02*
X0234365Y0124624D01*
X0234365Y0125409D02*
X0234957Y0125409D01*
X0247734Y0125409D01*
X0247425Y0125801D02*
X0234957Y0125801D01*
X0234365Y0125801D01*
X0222488Y0125801D01*
X0222179Y0125409D02*
X0234365Y0125409D01*
X0234365Y0126193D02*
X0234957Y0126193D01*
X0247070Y0126193D01*
X0246668Y0126585D02*
X0234957Y0126585D01*
X0234365Y0126585D01*
X0223245Y0126585D01*
X0222844Y0126193D02*
X0234365Y0126193D01*
X0234365Y0126978D02*
X0234957Y0126978D01*
X0246221Y0126978D01*
X0245705Y0127370D02*
X0234957Y0127370D01*
X0234365Y0127370D01*
X0224208Y0127370D01*
X0223692Y0126978D02*
X0234365Y0126978D01*
X0234365Y0127762D02*
X0234957Y0127762D01*
X0245114Y0127762D01*
X0244413Y0128154D02*
X0234957Y0128154D01*
X0234365Y0128154D01*
X0225500Y0128154D01*
X0224799Y0127762D02*
X0234365Y0127762D01*
X0234365Y0128546D02*
X0234957Y0128546D01*
X0243535Y0128546D01*
X0242228Y0128939D02*
X0234957Y0128939D01*
X0234365Y0128939D01*
X0227686Y0128939D01*
X0226378Y0128546D02*
X0234365Y0128546D01*
X0238010Y0122663D02*
X0248928Y0122663D01*
X0249033Y0122271D02*
X0240373Y0122271D01*
X0241251Y0121879D02*
X0249135Y0121879D01*
X0249231Y0121487D02*
X0241781Y0121487D01*
X0242148Y0121094D02*
X0249325Y0121094D01*
X0249413Y0120702D02*
X0242400Y0120702D01*
X0242599Y0120310D02*
X0249500Y0120310D01*
X0249582Y0119918D02*
X0242738Y0119918D01*
X0242853Y0119526D02*
X0249656Y0119526D01*
X0249712Y0119133D02*
X0242933Y0119133D01*
X0243001Y0118741D02*
X0249760Y0118741D01*
X0249797Y0118349D02*
X0243046Y0118349D01*
X0243077Y0117957D02*
X0249829Y0117957D01*
X0249852Y0117565D02*
X0243101Y0117565D01*
X0243108Y0117172D02*
X0249872Y0117172D01*
X0249886Y0116780D02*
X0243108Y0116780D01*
X0243108Y0116388D02*
X0249895Y0116388D01*
X0249904Y0115996D02*
X0243108Y0115996D01*
X0243108Y0115603D02*
X0249911Y0115603D01*
X0249917Y0115211D02*
X0243108Y0115211D01*
X0243108Y0114819D02*
X0249923Y0114819D01*
X0249927Y0114427D02*
X0243108Y0114427D01*
X0243108Y0114035D02*
X0249931Y0114035D01*
X0249934Y0113642D02*
X0243108Y0113642D01*
X0243108Y0113250D02*
X0249936Y0113250D01*
X0249938Y0112858D02*
X0243108Y0112858D01*
X0243108Y0112466D02*
X0249940Y0112466D01*
X0249940Y0112074D02*
X0243108Y0112074D01*
X0243108Y0111681D02*
X0249940Y0111681D01*
X0249940Y0111289D02*
X0243108Y0111289D01*
X0243108Y0110897D02*
X0249940Y0110897D01*
X0249939Y0110505D02*
X0243108Y0110505D01*
X0243108Y0110113D02*
X0249938Y0110113D01*
X0249936Y0109720D02*
X0243108Y0109720D01*
X0243108Y0109328D02*
X0249933Y0109328D01*
X0249930Y0108936D02*
X0243108Y0108936D01*
X0243108Y0108544D02*
X0249926Y0108544D01*
X0249921Y0108151D02*
X0243108Y0108151D01*
X0243108Y0107759D02*
X0249916Y0107759D01*
X0249909Y0107367D02*
X0243108Y0107367D01*
X0243108Y0106975D02*
X0249902Y0106975D01*
X0249893Y0106583D02*
X0243108Y0106583D01*
X0243108Y0106190D02*
X0249883Y0106190D01*
X0249867Y0105798D02*
X0243108Y0105798D01*
X0243097Y0105406D02*
X0249847Y0105406D01*
X0249822Y0105014D02*
X0243069Y0105014D01*
X0243038Y0104622D02*
X0249788Y0104622D01*
X0249749Y0104229D02*
X0242988Y0104229D01*
X0242914Y0103837D02*
X0249699Y0103837D01*
X0249639Y0103445D02*
X0242828Y0103445D01*
X0242704Y0103053D02*
X0249562Y0103053D01*
X0249478Y0102660D02*
X0242555Y0102660D01*
X0242343Y0102268D02*
X0249391Y0102268D01*
X0249301Y0101876D02*
X0242058Y0101876D01*
X0241666Y0101484D02*
X0249207Y0101484D01*
X0249109Y0101092D02*
X0241071Y0101092D01*
X0240004Y0100699D02*
X0249006Y0100699D01*
X0247658Y0097562D02*
X0222255Y0097562D01*
X0222574Y0097170D02*
X0247339Y0097170D01*
X0246975Y0096777D02*
X0222938Y0096777D01*
X0223355Y0096385D02*
X0246558Y0096385D01*
X0246091Y0095993D02*
X0223822Y0095993D01*
X0224350Y0095601D02*
X0245563Y0095601D01*
X0244947Y0095208D02*
X0224966Y0095208D01*
X0225702Y0094816D02*
X0244211Y0094816D01*
X0243257Y0094424D02*
X0226656Y0094424D01*
X0228290Y0094032D02*
X0241623Y0094032D01*
X0216165Y0098746D02*
X0216206Y0098987D01*
X0216248Y0099229D01*
X0216282Y0099481D01*
X0216337Y0100007D01*
X0216358Y0100281D01*
X0216371Y0100566D01*
X0216385Y0100850D01*
X0216392Y0101146D01*
X0216392Y0127917D01*
X0216382Y0127986D01*
X0216363Y0128045D01*
X0216343Y0128103D01*
X0216313Y0128153D01*
X0216274Y0128192D01*
X0216235Y0128231D01*
X0216186Y0128261D01*
X0216127Y0128280D01*
X0216068Y0128300D01*
X0215999Y0128310D01*
X0209952Y0128310D01*
X0209884Y0128300D01*
X0209825Y0128280D01*
X0209766Y0128261D01*
X0209717Y0128231D01*
X0209677Y0128192D01*
X0209638Y0128153D01*
X0209609Y0128103D01*
X0209589Y0128045D01*
X0209569Y0127986D01*
X0209560Y0127917D01*
X0209560Y0101334D01*
X0209553Y0101272D01*
X0209525Y0101166D01*
X0209505Y0101122D01*
X0209450Y0101052D01*
X0209415Y0101025D01*
X0209374Y0101007D01*
X0209333Y0100990D01*
X0209285Y0100981D01*
X0209183Y0100981D01*
X0209139Y0100990D01*
X0209097Y0101007D01*
X0209056Y0101025D01*
X0209018Y0101052D01*
X0208983Y0101087D01*
X0208947Y0101122D01*
X0208915Y0101166D01*
X0208885Y0101219D01*
X0208856Y0101272D01*
X0208829Y0101334D01*
X0208806Y0101405D01*
X0207215Y0107259D01*
X0204035Y0118968D01*
X0202445Y0124823D01*
X0202413Y0124933D01*
X0202377Y0125042D01*
X0202336Y0125150D01*
X0202295Y0125258D01*
X0202248Y0125365D01*
X0202197Y0125471D01*
X0202146Y0125577D01*
X0202090Y0125682D01*
X0201969Y0125890D01*
X0201903Y0125993D01*
X0201832Y0126095D01*
X0201762Y0126197D01*
X0201688Y0126297D01*
X0201611Y0126394D01*
X0201535Y0126491D01*
X0201455Y0126586D01*
X0201373Y0126678D01*
X0201290Y0126770D01*
X0201205Y0126860D01*
X0201117Y0126948D01*
X0201028Y0127035D01*
X0200937Y0127120D01*
X0200843Y0127202D01*
X0200749Y0127285D01*
X0200653Y0127363D01*
X0200556Y0127438D01*
X0200458Y0127513D01*
X0200360Y0127583D01*
X0200260Y0127650D01*
X0200160Y0127717D01*
X0200058Y0127780D01*
X0199852Y0127897D01*
X0199747Y0127952D01*
X0199641Y0128003D01*
X0199535Y0128054D01*
X0199431Y0128099D01*
X0199328Y0128137D01*
X0199225Y0128176D01*
X0199123Y0128208D01*
X0199023Y0128233D01*
X0198923Y0128259D01*
X0198824Y0128278D01*
X0198630Y0128303D01*
X0198534Y0128310D01*
X0193940Y0128310D01*
X0193777Y0128299D01*
X0193617Y0128279D01*
X0193457Y0128258D01*
X0193300Y0128227D01*
X0193145Y0128186D01*
X0192990Y0128145D01*
X0192837Y0128093D01*
X0192687Y0128031D01*
X0192537Y0127969D01*
X0192389Y0127897D01*
X0192244Y0127815D01*
X0192098Y0127732D01*
X0191958Y0127644D01*
X0191823Y0127548D01*
X0191687Y0127453D01*
X0191557Y0127352D01*
X0191431Y0127244D01*
X0191305Y0127136D01*
X0191184Y0127021D01*
X0191069Y0126900D01*
X0190953Y0126780D01*
X0190842Y0126653D01*
X0190736Y0126519D01*
X0190630Y0126386D01*
X0190529Y0126249D01*
X0190434Y0126110D01*
X0190339Y0125970D01*
X0190249Y0125828D01*
X0190165Y0125683D01*
X0190080Y0125537D01*
X0190001Y0125389D01*
X0189854Y0125087D01*
X0189786Y0124933D01*
X0189723Y0124776D01*
X0189660Y0124619D01*
X0189605Y0124462D01*
X0189558Y0124305D01*
X0189511Y0124148D01*
X0189471Y0123990D01*
X0189440Y0123833D01*
X0189409Y0123676D01*
X0189385Y0123519D01*
X0189369Y0123362D01*
X0189354Y0123205D01*
X0189346Y0123048D01*
X0189346Y0094918D01*
X0189356Y0094850D01*
X0189395Y0094732D01*
X0189424Y0094683D01*
X0189503Y0094604D01*
X0189552Y0094575D01*
X0189611Y0094555D01*
X0189670Y0094535D01*
X0189739Y0094526D01*
X0195785Y0094526D01*
X0195854Y0094535D01*
X0195913Y0094555D01*
X0195972Y0094575D01*
X0196021Y0094604D01*
X0196060Y0094643D01*
X0196100Y0094683D01*
X0196129Y0094732D01*
X0196149Y0094791D01*
X0196168Y0094850D01*
X0196178Y0094918D01*
X0196178Y0121415D01*
X0196185Y0121483D01*
X0196199Y0121542D01*
X0196212Y0121601D01*
X0196233Y0121650D01*
X0196261Y0121689D01*
X0196288Y0121729D01*
X0196322Y0121758D01*
X0196364Y0121778D01*
X0196405Y0121797D01*
X0196453Y0121807D01*
X0196563Y0121807D01*
X0196614Y0121797D01*
X0196661Y0121778D01*
X0196708Y0121758D01*
X0196751Y0121729D01*
X0196791Y0121689D01*
X0196830Y0121650D01*
X0196865Y0121601D01*
X0196928Y0121483D01*
X0196955Y0121415D01*
X0196979Y0121336D01*
X0198557Y0115517D01*
X0201714Y0103879D01*
X0203293Y0098059D01*
X0203371Y0097785D01*
X0203468Y0097524D01*
X0203583Y0097279D01*
X0203698Y0097034D01*
X0203831Y0096803D01*
X0203982Y0096587D01*
X0204133Y0096371D01*
X0204303Y0096170D01*
X0204490Y0095983D01*
X0204678Y0095797D01*
X0204883Y0095625D01*
X0205107Y0095468D01*
X0205331Y0095311D01*
X0205589Y0095173D01*
X0205880Y0095056D01*
X0206172Y0094938D01*
X0206497Y0094840D01*
X0206856Y0094761D01*
X0207216Y0094683D01*
X0207609Y0094624D01*
X0208036Y0094584D01*
X0208463Y0094545D01*
X0208924Y0094526D01*
X0209756Y0094526D01*
X0210080Y0094534D01*
X0210698Y0094567D01*
X0210993Y0094592D01*
X0211274Y0094626D01*
X0211554Y0094659D01*
X0211821Y0094701D01*
X0212326Y0094801D01*
X0212564Y0094859D01*
X0212787Y0094926D01*
X0213011Y0094993D01*
X0213224Y0095068D01*
X0213425Y0095153D01*
X0213626Y0095237D01*
X0213816Y0095331D01*
X0213995Y0095433D01*
X0214173Y0095535D01*
X0214341Y0095646D01*
X0214497Y0095765D01*
X0214653Y0095885D01*
X0214798Y0096014D01*
X0214931Y0096151D01*
X0215065Y0096289D01*
X0215188Y0096436D01*
X0215416Y0096752D01*
X0215520Y0096921D01*
X0215709Y0097278D01*
X0215793Y0097467D01*
X0215942Y0097866D01*
X0216007Y0098075D01*
X0216062Y0098295D01*
X0216117Y0098515D01*
X0216165Y0098746D01*
X0216164Y0098738D02*
X0203109Y0098738D01*
X0203215Y0098346D02*
X0216075Y0098346D01*
X0215970Y0097954D02*
X0203323Y0097954D01*
X0203454Y0097562D02*
X0215829Y0097562D01*
X0215651Y0097170D02*
X0203634Y0097170D01*
X0203849Y0096777D02*
X0215432Y0096777D01*
X0215145Y0096385D02*
X0204123Y0096385D01*
X0204480Y0095993D02*
X0214774Y0095993D01*
X0214273Y0095601D02*
X0204918Y0095601D01*
X0205523Y0095208D02*
X0213557Y0095208D01*
X0212388Y0094816D02*
X0206604Y0094816D01*
X0203002Y0099131D02*
X0216231Y0099131D01*
X0216286Y0099523D02*
X0202896Y0099523D01*
X0202790Y0099915D02*
X0216327Y0099915D01*
X0216359Y0100307D02*
X0202683Y0100307D01*
X0202577Y0100699D02*
X0216378Y0100699D01*
X0216391Y0101092D02*
X0209481Y0101092D01*
X0209560Y0101484D02*
X0216392Y0101484D01*
X0216392Y0101876D02*
X0209560Y0101876D01*
X0209560Y0102268D02*
X0216392Y0102268D01*
X0216392Y0102660D02*
X0209560Y0102660D01*
X0209560Y0103053D02*
X0216392Y0103053D01*
X0216392Y0103445D02*
X0209560Y0103445D01*
X0209560Y0103837D02*
X0216392Y0103837D01*
X0216392Y0104229D02*
X0209560Y0104229D01*
X0209560Y0104622D02*
X0216392Y0104622D01*
X0216392Y0105014D02*
X0209560Y0105014D01*
X0209560Y0105406D02*
X0216392Y0105406D01*
X0216392Y0105798D02*
X0209560Y0105798D01*
X0209560Y0106190D02*
X0216392Y0106190D01*
X0216392Y0106583D02*
X0209560Y0106583D01*
X0209560Y0106975D02*
X0216392Y0106975D01*
X0216392Y0107367D02*
X0209560Y0107367D01*
X0209560Y0107759D02*
X0216392Y0107759D01*
X0216392Y0108151D02*
X0209560Y0108151D01*
X0209560Y0108544D02*
X0216392Y0108544D01*
X0216392Y0108936D02*
X0209560Y0108936D01*
X0209560Y0109328D02*
X0216392Y0109328D01*
X0216392Y0109720D02*
X0209560Y0109720D01*
X0209560Y0110113D02*
X0216392Y0110113D01*
X0216392Y0110505D02*
X0209560Y0110505D01*
X0209560Y0110897D02*
X0216392Y0110897D01*
X0216392Y0111289D02*
X0209560Y0111289D01*
X0209560Y0111681D02*
X0216392Y0111681D01*
X0216392Y0112074D02*
X0209560Y0112074D01*
X0209560Y0112466D02*
X0216392Y0112466D01*
X0216392Y0112858D02*
X0209560Y0112858D01*
X0209560Y0113250D02*
X0216392Y0113250D01*
X0216392Y0113642D02*
X0209560Y0113642D01*
X0209560Y0114035D02*
X0216392Y0114035D01*
X0216392Y0114427D02*
X0209560Y0114427D01*
X0209560Y0114819D02*
X0216392Y0114819D01*
X0216392Y0115211D02*
X0209560Y0115211D01*
X0209560Y0115603D02*
X0216392Y0115603D01*
X0216392Y0115996D02*
X0209560Y0115996D01*
X0209560Y0116388D02*
X0216392Y0116388D01*
X0216392Y0116780D02*
X0209560Y0116780D01*
X0209560Y0117172D02*
X0216392Y0117172D01*
X0216392Y0117565D02*
X0209560Y0117565D01*
X0209560Y0117957D02*
X0216392Y0117957D01*
X0216392Y0118349D02*
X0209560Y0118349D01*
X0209560Y0118741D02*
X0216392Y0118741D01*
X0216392Y0119133D02*
X0209560Y0119133D01*
X0209560Y0119526D02*
X0216392Y0119526D01*
X0216392Y0119918D02*
X0209560Y0119918D01*
X0209560Y0120310D02*
X0216392Y0120310D01*
X0216392Y0120702D02*
X0209560Y0120702D01*
X0209560Y0121094D02*
X0216392Y0121094D01*
X0216392Y0121487D02*
X0209560Y0121487D01*
X0209560Y0121879D02*
X0216392Y0121879D01*
X0216392Y0122271D02*
X0209560Y0122271D01*
X0209560Y0122663D02*
X0216392Y0122663D01*
X0216392Y0123056D02*
X0209560Y0123056D01*
X0209560Y0123448D02*
X0216392Y0123448D01*
X0216392Y0123840D02*
X0209560Y0123840D01*
X0209560Y0124232D02*
X0216392Y0124232D01*
X0216392Y0124624D02*
X0209560Y0124624D01*
X0209560Y0125017D02*
X0216392Y0125017D01*
X0216392Y0125409D02*
X0209560Y0125409D01*
X0209560Y0125801D02*
X0216392Y0125801D01*
X0216392Y0126193D02*
X0209560Y0126193D01*
X0209560Y0126585D02*
X0216392Y0126585D01*
X0216392Y0126978D02*
X0209560Y0126978D01*
X0209560Y0127370D02*
X0216392Y0127370D01*
X0216392Y0127762D02*
X0209560Y0127762D01*
X0209640Y0128154D02*
X0216312Y0128154D01*
X0202605Y0124232D02*
X0189536Y0124232D01*
X0189441Y0123840D02*
X0202712Y0123840D01*
X0202818Y0123448D02*
X0189378Y0123448D01*
X0189346Y0123056D02*
X0202925Y0123056D01*
X0203031Y0122663D02*
X0189346Y0122663D01*
X0189346Y0122271D02*
X0203138Y0122271D01*
X0203244Y0121879D02*
X0189346Y0121879D01*
X0189346Y0121487D02*
X0196186Y0121487D01*
X0196178Y0121094D02*
X0189346Y0121094D01*
X0189346Y0120702D02*
X0196178Y0120702D01*
X0196178Y0120310D02*
X0189346Y0120310D01*
X0189346Y0119918D02*
X0196178Y0119918D01*
X0196178Y0119526D02*
X0189346Y0119526D01*
X0189346Y0119133D02*
X0196178Y0119133D01*
X0196178Y0118741D02*
X0189346Y0118741D01*
X0189346Y0118349D02*
X0196178Y0118349D01*
X0196178Y0117957D02*
X0189346Y0117957D01*
X0189346Y0117565D02*
X0196178Y0117565D01*
X0196178Y0117172D02*
X0189346Y0117172D01*
X0189346Y0116780D02*
X0196178Y0116780D01*
X0196178Y0116388D02*
X0189346Y0116388D01*
X0189346Y0115996D02*
X0196178Y0115996D01*
X0196178Y0115603D02*
X0189346Y0115603D01*
X0189346Y0115211D02*
X0196178Y0115211D01*
X0196178Y0114819D02*
X0189346Y0114819D01*
X0189346Y0114427D02*
X0196178Y0114427D01*
X0196178Y0114035D02*
X0189346Y0114035D01*
X0189346Y0113642D02*
X0196178Y0113642D01*
X0196178Y0113250D02*
X0189346Y0113250D01*
X0189346Y0112858D02*
X0196178Y0112858D01*
X0196178Y0112466D02*
X0189346Y0112466D01*
X0189346Y0112074D02*
X0196178Y0112074D01*
X0196178Y0111681D02*
X0189346Y0111681D01*
X0189346Y0111289D02*
X0196178Y0111289D01*
X0196178Y0110897D02*
X0189346Y0110897D01*
X0189346Y0110505D02*
X0196178Y0110505D01*
X0196178Y0110113D02*
X0189346Y0110113D01*
X0189346Y0109720D02*
X0196178Y0109720D01*
X0196178Y0109328D02*
X0189346Y0109328D01*
X0189346Y0108936D02*
X0196178Y0108936D01*
X0196178Y0108544D02*
X0189346Y0108544D01*
X0189346Y0108151D02*
X0196178Y0108151D01*
X0196178Y0107759D02*
X0189346Y0107759D01*
X0189346Y0107367D02*
X0196178Y0107367D01*
X0196178Y0106975D02*
X0189346Y0106975D01*
X0189346Y0106583D02*
X0196178Y0106583D01*
X0196178Y0106190D02*
X0189346Y0106190D01*
X0189346Y0105798D02*
X0196178Y0105798D01*
X0196178Y0105406D02*
X0189346Y0105406D01*
X0189346Y0105014D02*
X0196178Y0105014D01*
X0196178Y0104622D02*
X0189346Y0104622D01*
X0189346Y0104229D02*
X0196178Y0104229D01*
X0196178Y0103837D02*
X0189346Y0103837D01*
X0189346Y0103445D02*
X0196178Y0103445D01*
X0196178Y0103053D02*
X0189346Y0103053D01*
X0189346Y0102660D02*
X0196178Y0102660D01*
X0196178Y0102268D02*
X0189346Y0102268D01*
X0189346Y0101876D02*
X0196178Y0101876D01*
X0196178Y0101484D02*
X0189346Y0101484D01*
X0189346Y0101092D02*
X0196178Y0101092D01*
X0196178Y0100699D02*
X0189346Y0100699D01*
X0189346Y0100307D02*
X0196178Y0100307D01*
X0196178Y0099915D02*
X0189346Y0099915D01*
X0189346Y0099523D02*
X0196178Y0099523D01*
X0196178Y0099131D02*
X0189346Y0099131D01*
X0189346Y0098738D02*
X0196178Y0098738D01*
X0196178Y0098346D02*
X0189346Y0098346D01*
X0189346Y0097954D02*
X0196178Y0097954D01*
X0196178Y0097562D02*
X0189346Y0097562D01*
X0189346Y0097170D02*
X0196178Y0097170D01*
X0196178Y0096777D02*
X0189346Y0096777D01*
X0189346Y0096385D02*
X0196178Y0096385D01*
X0196178Y0095993D02*
X0189346Y0095993D01*
X0189346Y0095601D02*
X0196178Y0095601D01*
X0196178Y0095208D02*
X0189346Y0095208D01*
X0189367Y0094816D02*
X0196157Y0094816D01*
X0202258Y0101876D02*
X0208678Y0101876D01*
X0208784Y0101484D02*
X0202364Y0101484D01*
X0202470Y0101092D02*
X0208978Y0101092D01*
X0208571Y0102268D02*
X0202151Y0102268D01*
X0202045Y0102660D02*
X0208465Y0102660D01*
X0208358Y0103053D02*
X0201938Y0103053D01*
X0201832Y0103445D02*
X0208252Y0103445D01*
X0208145Y0103837D02*
X0201726Y0103837D01*
X0201619Y0104229D02*
X0208039Y0104229D01*
X0207932Y0104622D02*
X0201513Y0104622D01*
X0201407Y0105014D02*
X0207825Y0105014D01*
X0207719Y0105406D02*
X0201300Y0105406D01*
X0201194Y0105798D02*
X0207612Y0105798D01*
X0207506Y0106190D02*
X0201087Y0106190D01*
X0200981Y0106583D02*
X0207399Y0106583D01*
X0207293Y0106975D02*
X0200875Y0106975D01*
X0200768Y0107367D02*
X0207186Y0107367D01*
X0207080Y0107759D02*
X0200662Y0107759D01*
X0200555Y0108151D02*
X0206973Y0108151D01*
X0206867Y0108544D02*
X0200449Y0108544D01*
X0200343Y0108936D02*
X0206760Y0108936D01*
X0206654Y0109328D02*
X0200236Y0109328D01*
X0200130Y0109720D02*
X0206547Y0109720D01*
X0206440Y0110113D02*
X0200023Y0110113D01*
X0199917Y0110505D02*
X0206334Y0110505D01*
X0206227Y0110897D02*
X0199811Y0110897D01*
X0199704Y0111289D02*
X0206121Y0111289D01*
X0206014Y0111681D02*
X0199598Y0111681D01*
X0199492Y0112074D02*
X0205908Y0112074D01*
X0205801Y0112466D02*
X0199385Y0112466D01*
X0199279Y0112858D02*
X0205695Y0112858D01*
X0205588Y0113250D02*
X0199172Y0113250D01*
X0199066Y0113642D02*
X0205482Y0113642D01*
X0205375Y0114035D02*
X0198960Y0114035D01*
X0198853Y0114427D02*
X0205269Y0114427D01*
X0205162Y0114819D02*
X0198747Y0114819D01*
X0198640Y0115211D02*
X0205056Y0115211D01*
X0204949Y0115603D02*
X0198534Y0115603D01*
X0198428Y0115996D02*
X0204842Y0115996D01*
X0204736Y0116388D02*
X0198321Y0116388D01*
X0198215Y0116780D02*
X0204629Y0116780D01*
X0204523Y0117172D02*
X0198108Y0117172D01*
X0198002Y0117565D02*
X0204416Y0117565D01*
X0204310Y0117957D02*
X0197896Y0117957D01*
X0197789Y0118349D02*
X0204203Y0118349D01*
X0204097Y0118741D02*
X0197683Y0118741D01*
X0197577Y0119133D02*
X0203990Y0119133D01*
X0203884Y0119526D02*
X0197470Y0119526D01*
X0197364Y0119918D02*
X0203777Y0119918D01*
X0203671Y0120310D02*
X0197257Y0120310D01*
X0197151Y0120702D02*
X0203564Y0120702D01*
X0203457Y0121094D02*
X0197045Y0121094D01*
X0196926Y0121487D02*
X0203351Y0121487D01*
X0202499Y0124624D02*
X0189662Y0124624D01*
X0189823Y0125017D02*
X0202385Y0125017D01*
X0202227Y0125409D02*
X0190011Y0125409D01*
X0190233Y0125801D02*
X0202021Y0125801D01*
X0201764Y0126193D02*
X0190491Y0126193D01*
X0190789Y0126585D02*
X0201456Y0126585D01*
X0201086Y0126978D02*
X0191143Y0126978D01*
X0191580Y0127370D02*
X0200644Y0127370D01*
X0200086Y0127762D02*
X0192151Y0127762D01*
X0193026Y0128154D02*
X0199282Y0128154D01*
X0253568Y0127762D02*
X0269650Y0127762D01*
X0270733Y0127370D02*
X0253568Y0127370D01*
X0253568Y0126978D02*
X0271556Y0126978D01*
X0272196Y0126585D02*
X0253568Y0126585D01*
X0253568Y0126193D02*
X0272739Y0126193D01*
X0273202Y0125801D02*
X0253568Y0125801D01*
X0253568Y0125409D02*
X0273601Y0125409D01*
X0273970Y0125017D02*
X0253568Y0125017D01*
X0253568Y0124624D02*
X0274295Y0124624D01*
X0274601Y0124232D02*
X0253568Y0124232D01*
X0253568Y0123840D02*
X0274872Y0123840D01*
X0275127Y0123448D02*
X0253568Y0123448D01*
X0253568Y0123056D02*
X0275360Y0123056D01*
X0275568Y0122663D02*
X0253568Y0122663D01*
X0253717Y0122271D02*
X0275768Y0122271D01*
X0275946Y0121879D02*
X0267612Y0121879D01*
X0268095Y0128154D02*
X0253649Y0128154D01*
X0135743Y0354752D02*
X0130862Y0353157D01*
X0126150Y0351075D01*
X0121237Y0353396D01*
X0116075Y0355051D01*
X0110758Y0356110D01*
X0111110Y0359877D01*
X0111831Y0363461D01*
X0112984Y0366813D01*
X0118492Y0365207D01*
X0117954Y0363687D01*
X0117523Y0362107D01*
X0117186Y0360475D01*
X0120262Y0359627D01*
X0123280Y0358581D01*
X0126218Y0357328D01*
X0128863Y0358399D01*
X0131561Y0359332D01*
X0134302Y0360123D01*
X0132986Y0366431D01*
X0130399Y0371986D01*
X0125748Y0376476D01*
X0124720Y0375509D01*
X0123790Y0374488D01*
X0122950Y0373418D01*
X0117099Y0375124D01*
X0119335Y0378421D01*
X0122203Y0381363D01*
X0125799Y0383877D01*
X0135336Y0377007D01*
X0139519Y0367267D01*
X0140764Y0355850D01*
X0135743Y0354752D01*
X0136206Y0354853D02*
X0116693Y0354853D01*
X0117916Y0354461D02*
X0134852Y0354461D01*
X0133652Y0354068D02*
X0119140Y0354068D01*
X0120363Y0353676D02*
X0132452Y0353676D01*
X0131251Y0353284D02*
X0121474Y0353284D01*
X0122304Y0352892D02*
X0130262Y0352892D01*
X0129374Y0352500D02*
X0123134Y0352500D01*
X0123965Y0352107D02*
X0128486Y0352107D01*
X0127599Y0351715D02*
X0124795Y0351715D01*
X0125625Y0351323D02*
X0126711Y0351323D01*
X0126886Y0357598D02*
X0140573Y0357598D01*
X0140616Y0357206D02*
X0110861Y0357206D01*
X0110824Y0356814D02*
X0140659Y0356814D01*
X0140702Y0356422D02*
X0110787Y0356422D01*
X0111161Y0356030D02*
X0140744Y0356030D01*
X0139792Y0355637D02*
X0113131Y0355637D01*
X0115101Y0355245D02*
X0137999Y0355245D01*
X0140531Y0357991D02*
X0127854Y0357991D01*
X0128823Y0358383D02*
X0140488Y0358383D01*
X0140445Y0358775D02*
X0129950Y0358775D01*
X0131085Y0359167D02*
X0140402Y0359167D01*
X0140360Y0359559D02*
X0132350Y0359559D01*
X0133709Y0359952D02*
X0140317Y0359952D01*
X0140274Y0360344D02*
X0134255Y0360344D01*
X0134174Y0360736D02*
X0140231Y0360736D01*
X0140189Y0361128D02*
X0134092Y0361128D01*
X0134010Y0361520D02*
X0140146Y0361520D01*
X0140103Y0361913D02*
X0133928Y0361913D01*
X0133846Y0362305D02*
X0140060Y0362305D01*
X0140017Y0362697D02*
X0133765Y0362697D01*
X0133683Y0363089D02*
X0139975Y0363089D01*
X0139932Y0363482D02*
X0133601Y0363482D01*
X0133519Y0363874D02*
X0139889Y0363874D01*
X0139846Y0364266D02*
X0133437Y0364266D01*
X0133356Y0364658D02*
X0139804Y0364658D01*
X0139761Y0365050D02*
X0133274Y0365050D01*
X0133192Y0365443D02*
X0139718Y0365443D01*
X0139675Y0365835D02*
X0133110Y0365835D01*
X0133028Y0366227D02*
X0139633Y0366227D01*
X0139590Y0366619D02*
X0132898Y0366619D01*
X0132716Y0367011D02*
X0139547Y0367011D01*
X0139460Y0367404D02*
X0132533Y0367404D01*
X0132350Y0367796D02*
X0139292Y0367796D01*
X0139123Y0368188D02*
X0132168Y0368188D01*
X0131985Y0368580D02*
X0138955Y0368580D01*
X0138787Y0368973D02*
X0131802Y0368973D01*
X0131620Y0369365D02*
X0138618Y0369365D01*
X0138450Y0369757D02*
X0131437Y0369757D01*
X0131255Y0370149D02*
X0138281Y0370149D01*
X0138113Y0370541D02*
X0131072Y0370541D01*
X0130889Y0370934D02*
X0137944Y0370934D01*
X0137776Y0371326D02*
X0130707Y0371326D01*
X0130524Y0371718D02*
X0137608Y0371718D01*
X0137439Y0372110D02*
X0130270Y0372110D01*
X0129864Y0372502D02*
X0137271Y0372502D01*
X0137102Y0372895D02*
X0129458Y0372895D01*
X0129052Y0373287D02*
X0136934Y0373287D01*
X0136765Y0373679D02*
X0128645Y0373679D01*
X0128239Y0374071D02*
X0136597Y0374071D01*
X0136428Y0374463D02*
X0127833Y0374463D01*
X0127427Y0374856D02*
X0136260Y0374856D01*
X0136092Y0375248D02*
X0127020Y0375248D01*
X0126614Y0375640D02*
X0135923Y0375640D01*
X0135755Y0376032D02*
X0126208Y0376032D01*
X0125802Y0376425D02*
X0135586Y0376425D01*
X0135418Y0376817D02*
X0118247Y0376817D01*
X0118513Y0377209D02*
X0135056Y0377209D01*
X0134511Y0377601D02*
X0118779Y0377601D01*
X0119045Y0377993D02*
X0133967Y0377993D01*
X0133422Y0378386D02*
X0119311Y0378386D01*
X0119683Y0378778D02*
X0132878Y0378778D01*
X0132333Y0379170D02*
X0120065Y0379170D01*
X0120447Y0379562D02*
X0131789Y0379562D01*
X0131244Y0379954D02*
X0120830Y0379954D01*
X0121212Y0380347D02*
X0130700Y0380347D01*
X0130155Y0380739D02*
X0121594Y0380739D01*
X0121977Y0381131D02*
X0129611Y0381131D01*
X0129066Y0381523D02*
X0122432Y0381523D01*
X0122993Y0381916D02*
X0128522Y0381916D01*
X0127977Y0382308D02*
X0123554Y0382308D01*
X0124115Y0382700D02*
X0127433Y0382700D01*
X0126889Y0383092D02*
X0124676Y0383092D01*
X0125237Y0383484D02*
X0126344Y0383484D01*
X0125800Y0383877D02*
X0125798Y0383877D01*
X0125694Y0376425D02*
X0117981Y0376425D01*
X0117715Y0376032D02*
X0125277Y0376032D01*
X0124860Y0375640D02*
X0117449Y0375640D01*
X0117183Y0375248D02*
X0124482Y0375248D01*
X0124125Y0374856D02*
X0118019Y0374856D01*
X0119364Y0374463D02*
X0123770Y0374463D01*
X0123463Y0374071D02*
X0120709Y0374071D01*
X0122055Y0373679D02*
X0123155Y0373679D01*
X0118436Y0365050D02*
X0112378Y0365050D01*
X0112243Y0364658D02*
X0118297Y0364658D01*
X0118159Y0364266D02*
X0112108Y0364266D01*
X0111973Y0363874D02*
X0118020Y0363874D01*
X0117898Y0363482D02*
X0111838Y0363482D01*
X0111756Y0363089D02*
X0117791Y0363089D01*
X0117684Y0362697D02*
X0111677Y0362697D01*
X0111599Y0362305D02*
X0117577Y0362305D01*
X0117482Y0361913D02*
X0111520Y0361913D01*
X0111441Y0361520D02*
X0117402Y0361520D01*
X0117321Y0361128D02*
X0111362Y0361128D01*
X0111283Y0360736D02*
X0117240Y0360736D01*
X0117663Y0360344D02*
X0111204Y0360344D01*
X0111125Y0359952D02*
X0119086Y0359952D01*
X0120458Y0359559D02*
X0111081Y0359559D01*
X0111044Y0359167D02*
X0121589Y0359167D01*
X0122721Y0358775D02*
X0111007Y0358775D01*
X0110971Y0358383D02*
X0123745Y0358383D01*
X0124664Y0357991D02*
X0110934Y0357991D01*
X0110897Y0357598D02*
X0125584Y0357598D01*
X0117685Y0365443D02*
X0112512Y0365443D01*
X0112647Y0365835D02*
X0116340Y0365835D01*
X0114995Y0366227D02*
X0112782Y0366227D01*
X0112917Y0366619D02*
X0113649Y0366619D01*
M02*
