G75*
%MOIN*%
%OFA0B0*%
%FSLAX25Y25*%
%IPPOS*%
%LPD*%
%AMOC8*
5,1,8,0,0,1.08239X$1,22.5*
%
%ADD10C,0.00000*%
%ADD11OC8,0.07400*%
%ADD12R,0.07400X0.07400*%
%ADD13C,0.07400*%
%ADD14C,0.00800*%
%ADD15C,0.02000*%
%ADD16C,0.01600*%
%ADD17C,0.02700*%
%ADD18C,0.01000*%
%ADD19C,0.01200*%
D10*
X0066595Y0088933D02*
X0531595Y0088933D01*
X0531837Y0088936D01*
X0532078Y0088945D01*
X0532319Y0088959D01*
X0532560Y0088980D01*
X0532800Y0089006D01*
X0533040Y0089038D01*
X0533279Y0089076D01*
X0533516Y0089119D01*
X0533753Y0089169D01*
X0533988Y0089224D01*
X0534222Y0089284D01*
X0534454Y0089351D01*
X0534685Y0089422D01*
X0534914Y0089500D01*
X0535141Y0089583D01*
X0535366Y0089671D01*
X0535589Y0089765D01*
X0535809Y0089864D01*
X0536027Y0089969D01*
X0536242Y0090078D01*
X0536455Y0090193D01*
X0536665Y0090313D01*
X0536871Y0090438D01*
X0537075Y0090568D01*
X0537276Y0090703D01*
X0537473Y0090843D01*
X0537667Y0090987D01*
X0537857Y0091136D01*
X0538043Y0091290D01*
X0538226Y0091448D01*
X0538405Y0091610D01*
X0538580Y0091777D01*
X0538751Y0091948D01*
X0538918Y0092123D01*
X0539080Y0092302D01*
X0539238Y0092485D01*
X0539392Y0092671D01*
X0539541Y0092861D01*
X0539685Y0093055D01*
X0539825Y0093252D01*
X0539960Y0093453D01*
X0540090Y0093657D01*
X0540215Y0093863D01*
X0540335Y0094073D01*
X0540450Y0094286D01*
X0540559Y0094501D01*
X0540664Y0094719D01*
X0540763Y0094939D01*
X0540857Y0095162D01*
X0540945Y0095387D01*
X0541028Y0095614D01*
X0541106Y0095843D01*
X0541177Y0096074D01*
X0541244Y0096306D01*
X0541304Y0096540D01*
X0541359Y0096775D01*
X0541409Y0097012D01*
X0541452Y0097249D01*
X0541490Y0097488D01*
X0541522Y0097728D01*
X0541548Y0097968D01*
X0541569Y0098209D01*
X0541583Y0098450D01*
X0541592Y0098691D01*
X0541595Y0098933D01*
X0541595Y0478933D01*
X0541592Y0479175D01*
X0541583Y0479416D01*
X0541569Y0479657D01*
X0541548Y0479898D01*
X0541522Y0480138D01*
X0541490Y0480378D01*
X0541452Y0480617D01*
X0541409Y0480854D01*
X0541359Y0481091D01*
X0541304Y0481326D01*
X0541244Y0481560D01*
X0541177Y0481792D01*
X0541106Y0482023D01*
X0541028Y0482252D01*
X0540945Y0482479D01*
X0540857Y0482704D01*
X0540763Y0482927D01*
X0540664Y0483147D01*
X0540559Y0483365D01*
X0540450Y0483580D01*
X0540335Y0483793D01*
X0540215Y0484003D01*
X0540090Y0484209D01*
X0539960Y0484413D01*
X0539825Y0484614D01*
X0539685Y0484811D01*
X0539541Y0485005D01*
X0539392Y0485195D01*
X0539238Y0485381D01*
X0539080Y0485564D01*
X0538918Y0485743D01*
X0538751Y0485918D01*
X0538580Y0486089D01*
X0538405Y0486256D01*
X0538226Y0486418D01*
X0538043Y0486576D01*
X0537857Y0486730D01*
X0537667Y0486879D01*
X0537473Y0487023D01*
X0537276Y0487163D01*
X0537075Y0487298D01*
X0536871Y0487428D01*
X0536665Y0487553D01*
X0536455Y0487673D01*
X0536242Y0487788D01*
X0536027Y0487897D01*
X0535809Y0488002D01*
X0535589Y0488101D01*
X0535366Y0488195D01*
X0535141Y0488283D01*
X0534914Y0488366D01*
X0534685Y0488444D01*
X0534454Y0488515D01*
X0534222Y0488582D01*
X0533988Y0488642D01*
X0533753Y0488697D01*
X0533516Y0488747D01*
X0533279Y0488790D01*
X0533040Y0488828D01*
X0532800Y0488860D01*
X0532560Y0488886D01*
X0532319Y0488907D01*
X0532078Y0488921D01*
X0531837Y0488930D01*
X0531595Y0488933D01*
X0066595Y0488933D01*
X0066353Y0488930D01*
X0066112Y0488921D01*
X0065871Y0488907D01*
X0065630Y0488886D01*
X0065390Y0488860D01*
X0065150Y0488828D01*
X0064911Y0488790D01*
X0064674Y0488747D01*
X0064437Y0488697D01*
X0064202Y0488642D01*
X0063968Y0488582D01*
X0063736Y0488515D01*
X0063505Y0488444D01*
X0063276Y0488366D01*
X0063049Y0488283D01*
X0062824Y0488195D01*
X0062601Y0488101D01*
X0062381Y0488002D01*
X0062163Y0487897D01*
X0061948Y0487788D01*
X0061735Y0487673D01*
X0061525Y0487553D01*
X0061319Y0487428D01*
X0061115Y0487298D01*
X0060914Y0487163D01*
X0060717Y0487023D01*
X0060523Y0486879D01*
X0060333Y0486730D01*
X0060147Y0486576D01*
X0059964Y0486418D01*
X0059785Y0486256D01*
X0059610Y0486089D01*
X0059439Y0485918D01*
X0059272Y0485743D01*
X0059110Y0485564D01*
X0058952Y0485381D01*
X0058798Y0485195D01*
X0058649Y0485005D01*
X0058505Y0484811D01*
X0058365Y0484614D01*
X0058230Y0484413D01*
X0058100Y0484209D01*
X0057975Y0484003D01*
X0057855Y0483793D01*
X0057740Y0483580D01*
X0057631Y0483365D01*
X0057526Y0483147D01*
X0057427Y0482927D01*
X0057333Y0482704D01*
X0057245Y0482479D01*
X0057162Y0482252D01*
X0057084Y0482023D01*
X0057013Y0481792D01*
X0056946Y0481560D01*
X0056886Y0481326D01*
X0056831Y0481091D01*
X0056781Y0480854D01*
X0056738Y0480617D01*
X0056700Y0480378D01*
X0056668Y0480138D01*
X0056642Y0479898D01*
X0056621Y0479657D01*
X0056607Y0479416D01*
X0056598Y0479175D01*
X0056595Y0478933D01*
X0056595Y0098933D01*
X0056598Y0098691D01*
X0056607Y0098450D01*
X0056621Y0098209D01*
X0056642Y0097968D01*
X0056668Y0097728D01*
X0056700Y0097488D01*
X0056738Y0097249D01*
X0056781Y0097012D01*
X0056831Y0096775D01*
X0056886Y0096540D01*
X0056946Y0096306D01*
X0057013Y0096074D01*
X0057084Y0095843D01*
X0057162Y0095614D01*
X0057245Y0095387D01*
X0057333Y0095162D01*
X0057427Y0094939D01*
X0057526Y0094719D01*
X0057631Y0094501D01*
X0057740Y0094286D01*
X0057855Y0094073D01*
X0057975Y0093863D01*
X0058100Y0093657D01*
X0058230Y0093453D01*
X0058365Y0093252D01*
X0058505Y0093055D01*
X0058649Y0092861D01*
X0058798Y0092671D01*
X0058952Y0092485D01*
X0059110Y0092302D01*
X0059272Y0092123D01*
X0059439Y0091948D01*
X0059610Y0091777D01*
X0059785Y0091610D01*
X0059964Y0091448D01*
X0060147Y0091290D01*
X0060333Y0091136D01*
X0060523Y0090987D01*
X0060717Y0090843D01*
X0060914Y0090703D01*
X0061115Y0090568D01*
X0061319Y0090438D01*
X0061525Y0090313D01*
X0061735Y0090193D01*
X0061948Y0090078D01*
X0062163Y0089969D01*
X0062381Y0089864D01*
X0062601Y0089765D01*
X0062824Y0089671D01*
X0063049Y0089583D01*
X0063276Y0089500D01*
X0063505Y0089422D01*
X0063736Y0089351D01*
X0063968Y0089284D01*
X0064202Y0089224D01*
X0064437Y0089169D01*
X0064674Y0089119D01*
X0064911Y0089076D01*
X0065150Y0089038D01*
X0065390Y0089006D01*
X0065630Y0088980D01*
X0065871Y0088959D01*
X0066112Y0088945D01*
X0066353Y0088936D01*
X0066595Y0088933D01*
X0076595Y0121433D02*
X0076599Y0121740D01*
X0076610Y0122046D01*
X0076629Y0122353D01*
X0076655Y0122658D01*
X0076689Y0122963D01*
X0076730Y0123267D01*
X0076779Y0123570D01*
X0076835Y0123872D01*
X0076899Y0124172D01*
X0076970Y0124470D01*
X0077048Y0124767D01*
X0077133Y0125062D01*
X0077226Y0125354D01*
X0077326Y0125644D01*
X0077433Y0125932D01*
X0077547Y0126217D01*
X0077667Y0126499D01*
X0077795Y0126777D01*
X0077930Y0127053D01*
X0078071Y0127325D01*
X0078219Y0127594D01*
X0078373Y0127859D01*
X0078534Y0128120D01*
X0078702Y0128378D01*
X0078875Y0128631D01*
X0079055Y0128879D01*
X0079241Y0129123D01*
X0079432Y0129363D01*
X0079630Y0129598D01*
X0079833Y0129827D01*
X0080042Y0130052D01*
X0080256Y0130272D01*
X0080476Y0130486D01*
X0080701Y0130695D01*
X0080930Y0130898D01*
X0081165Y0131096D01*
X0081405Y0131287D01*
X0081649Y0131473D01*
X0081897Y0131653D01*
X0082150Y0131826D01*
X0082408Y0131994D01*
X0082669Y0132155D01*
X0082934Y0132309D01*
X0083203Y0132457D01*
X0083475Y0132598D01*
X0083751Y0132733D01*
X0084029Y0132861D01*
X0084311Y0132981D01*
X0084596Y0133095D01*
X0084884Y0133202D01*
X0085174Y0133302D01*
X0085466Y0133395D01*
X0085761Y0133480D01*
X0086058Y0133558D01*
X0086356Y0133629D01*
X0086656Y0133693D01*
X0086958Y0133749D01*
X0087261Y0133798D01*
X0087565Y0133839D01*
X0087870Y0133873D01*
X0088175Y0133899D01*
X0088482Y0133918D01*
X0088788Y0133929D01*
X0089095Y0133933D01*
X0089402Y0133929D01*
X0089708Y0133918D01*
X0090015Y0133899D01*
X0090320Y0133873D01*
X0090625Y0133839D01*
X0090929Y0133798D01*
X0091232Y0133749D01*
X0091534Y0133693D01*
X0091834Y0133629D01*
X0092132Y0133558D01*
X0092429Y0133480D01*
X0092724Y0133395D01*
X0093016Y0133302D01*
X0093306Y0133202D01*
X0093594Y0133095D01*
X0093879Y0132981D01*
X0094161Y0132861D01*
X0094439Y0132733D01*
X0094715Y0132598D01*
X0094987Y0132457D01*
X0095256Y0132309D01*
X0095521Y0132155D01*
X0095782Y0131994D01*
X0096040Y0131826D01*
X0096293Y0131653D01*
X0096541Y0131473D01*
X0096785Y0131287D01*
X0097025Y0131096D01*
X0097260Y0130898D01*
X0097489Y0130695D01*
X0097714Y0130486D01*
X0097934Y0130272D01*
X0098148Y0130052D01*
X0098357Y0129827D01*
X0098560Y0129598D01*
X0098758Y0129363D01*
X0098949Y0129123D01*
X0099135Y0128879D01*
X0099315Y0128631D01*
X0099488Y0128378D01*
X0099656Y0128120D01*
X0099817Y0127859D01*
X0099971Y0127594D01*
X0100119Y0127325D01*
X0100260Y0127053D01*
X0100395Y0126777D01*
X0100523Y0126499D01*
X0100643Y0126217D01*
X0100757Y0125932D01*
X0100864Y0125644D01*
X0100964Y0125354D01*
X0101057Y0125062D01*
X0101142Y0124767D01*
X0101220Y0124470D01*
X0101291Y0124172D01*
X0101355Y0123872D01*
X0101411Y0123570D01*
X0101460Y0123267D01*
X0101501Y0122963D01*
X0101535Y0122658D01*
X0101561Y0122353D01*
X0101580Y0122046D01*
X0101591Y0121740D01*
X0101595Y0121433D01*
X0101591Y0121126D01*
X0101580Y0120820D01*
X0101561Y0120513D01*
X0101535Y0120208D01*
X0101501Y0119903D01*
X0101460Y0119599D01*
X0101411Y0119296D01*
X0101355Y0118994D01*
X0101291Y0118694D01*
X0101220Y0118396D01*
X0101142Y0118099D01*
X0101057Y0117804D01*
X0100964Y0117512D01*
X0100864Y0117222D01*
X0100757Y0116934D01*
X0100643Y0116649D01*
X0100523Y0116367D01*
X0100395Y0116089D01*
X0100260Y0115813D01*
X0100119Y0115541D01*
X0099971Y0115272D01*
X0099817Y0115007D01*
X0099656Y0114746D01*
X0099488Y0114488D01*
X0099315Y0114235D01*
X0099135Y0113987D01*
X0098949Y0113743D01*
X0098758Y0113503D01*
X0098560Y0113268D01*
X0098357Y0113039D01*
X0098148Y0112814D01*
X0097934Y0112594D01*
X0097714Y0112380D01*
X0097489Y0112171D01*
X0097260Y0111968D01*
X0097025Y0111770D01*
X0096785Y0111579D01*
X0096541Y0111393D01*
X0096293Y0111213D01*
X0096040Y0111040D01*
X0095782Y0110872D01*
X0095521Y0110711D01*
X0095256Y0110557D01*
X0094987Y0110409D01*
X0094715Y0110268D01*
X0094439Y0110133D01*
X0094161Y0110005D01*
X0093879Y0109885D01*
X0093594Y0109771D01*
X0093306Y0109664D01*
X0093016Y0109564D01*
X0092724Y0109471D01*
X0092429Y0109386D01*
X0092132Y0109308D01*
X0091834Y0109237D01*
X0091534Y0109173D01*
X0091232Y0109117D01*
X0090929Y0109068D01*
X0090625Y0109027D01*
X0090320Y0108993D01*
X0090015Y0108967D01*
X0089708Y0108948D01*
X0089402Y0108937D01*
X0089095Y0108933D01*
X0088788Y0108937D01*
X0088482Y0108948D01*
X0088175Y0108967D01*
X0087870Y0108993D01*
X0087565Y0109027D01*
X0087261Y0109068D01*
X0086958Y0109117D01*
X0086656Y0109173D01*
X0086356Y0109237D01*
X0086058Y0109308D01*
X0085761Y0109386D01*
X0085466Y0109471D01*
X0085174Y0109564D01*
X0084884Y0109664D01*
X0084596Y0109771D01*
X0084311Y0109885D01*
X0084029Y0110005D01*
X0083751Y0110133D01*
X0083475Y0110268D01*
X0083203Y0110409D01*
X0082934Y0110557D01*
X0082669Y0110711D01*
X0082408Y0110872D01*
X0082150Y0111040D01*
X0081897Y0111213D01*
X0081649Y0111393D01*
X0081405Y0111579D01*
X0081165Y0111770D01*
X0080930Y0111968D01*
X0080701Y0112171D01*
X0080476Y0112380D01*
X0080256Y0112594D01*
X0080042Y0112814D01*
X0079833Y0113039D01*
X0079630Y0113268D01*
X0079432Y0113503D01*
X0079241Y0113743D01*
X0079055Y0113987D01*
X0078875Y0114235D01*
X0078702Y0114488D01*
X0078534Y0114746D01*
X0078373Y0115007D01*
X0078219Y0115272D01*
X0078071Y0115541D01*
X0077930Y0115813D01*
X0077795Y0116089D01*
X0077667Y0116367D01*
X0077547Y0116649D01*
X0077433Y0116934D01*
X0077326Y0117222D01*
X0077226Y0117512D01*
X0077133Y0117804D01*
X0077048Y0118099D01*
X0076970Y0118396D01*
X0076899Y0118694D01*
X0076835Y0118994D01*
X0076779Y0119296D01*
X0076730Y0119599D01*
X0076689Y0119903D01*
X0076655Y0120208D01*
X0076629Y0120513D01*
X0076610Y0120820D01*
X0076599Y0121126D01*
X0076595Y0121433D01*
X0172540Y0242870D02*
X0172542Y0243028D01*
X0172548Y0243186D01*
X0172558Y0243344D01*
X0172572Y0243502D01*
X0172590Y0243659D01*
X0172611Y0243816D01*
X0172637Y0243972D01*
X0172667Y0244128D01*
X0172700Y0244283D01*
X0172738Y0244436D01*
X0172779Y0244589D01*
X0172824Y0244741D01*
X0172873Y0244892D01*
X0172926Y0245041D01*
X0172982Y0245189D01*
X0173042Y0245335D01*
X0173106Y0245480D01*
X0173174Y0245623D01*
X0173245Y0245765D01*
X0173319Y0245905D01*
X0173397Y0246042D01*
X0173479Y0246178D01*
X0173563Y0246312D01*
X0173652Y0246443D01*
X0173743Y0246572D01*
X0173838Y0246699D01*
X0173935Y0246824D01*
X0174036Y0246946D01*
X0174140Y0247065D01*
X0174247Y0247182D01*
X0174357Y0247296D01*
X0174470Y0247407D01*
X0174585Y0247516D01*
X0174703Y0247621D01*
X0174824Y0247723D01*
X0174947Y0247823D01*
X0175073Y0247919D01*
X0175201Y0248012D01*
X0175331Y0248102D01*
X0175464Y0248188D01*
X0175599Y0248272D01*
X0175735Y0248351D01*
X0175874Y0248428D01*
X0176015Y0248500D01*
X0176157Y0248570D01*
X0176301Y0248635D01*
X0176447Y0248697D01*
X0176594Y0248755D01*
X0176743Y0248810D01*
X0176893Y0248861D01*
X0177044Y0248908D01*
X0177196Y0248951D01*
X0177349Y0248990D01*
X0177504Y0249026D01*
X0177659Y0249057D01*
X0177815Y0249085D01*
X0177971Y0249109D01*
X0178128Y0249129D01*
X0178286Y0249145D01*
X0178443Y0249157D01*
X0178602Y0249165D01*
X0178760Y0249169D01*
X0178918Y0249169D01*
X0179076Y0249165D01*
X0179235Y0249157D01*
X0179392Y0249145D01*
X0179550Y0249129D01*
X0179707Y0249109D01*
X0179863Y0249085D01*
X0180019Y0249057D01*
X0180174Y0249026D01*
X0180329Y0248990D01*
X0180482Y0248951D01*
X0180634Y0248908D01*
X0180785Y0248861D01*
X0180935Y0248810D01*
X0181084Y0248755D01*
X0181231Y0248697D01*
X0181377Y0248635D01*
X0181521Y0248570D01*
X0181663Y0248500D01*
X0181804Y0248428D01*
X0181943Y0248351D01*
X0182079Y0248272D01*
X0182214Y0248188D01*
X0182347Y0248102D01*
X0182477Y0248012D01*
X0182605Y0247919D01*
X0182731Y0247823D01*
X0182854Y0247723D01*
X0182975Y0247621D01*
X0183093Y0247516D01*
X0183208Y0247407D01*
X0183321Y0247296D01*
X0183431Y0247182D01*
X0183538Y0247065D01*
X0183642Y0246946D01*
X0183743Y0246824D01*
X0183840Y0246699D01*
X0183935Y0246572D01*
X0184026Y0246443D01*
X0184115Y0246312D01*
X0184199Y0246178D01*
X0184281Y0246042D01*
X0184359Y0245905D01*
X0184433Y0245765D01*
X0184504Y0245623D01*
X0184572Y0245480D01*
X0184636Y0245335D01*
X0184696Y0245189D01*
X0184752Y0245041D01*
X0184805Y0244892D01*
X0184854Y0244741D01*
X0184899Y0244589D01*
X0184940Y0244436D01*
X0184978Y0244283D01*
X0185011Y0244128D01*
X0185041Y0243972D01*
X0185067Y0243816D01*
X0185088Y0243659D01*
X0185106Y0243502D01*
X0185120Y0243344D01*
X0185130Y0243186D01*
X0185136Y0243028D01*
X0185138Y0242870D01*
X0185136Y0242712D01*
X0185130Y0242554D01*
X0185120Y0242396D01*
X0185106Y0242238D01*
X0185088Y0242081D01*
X0185067Y0241924D01*
X0185041Y0241768D01*
X0185011Y0241612D01*
X0184978Y0241457D01*
X0184940Y0241304D01*
X0184899Y0241151D01*
X0184854Y0240999D01*
X0184805Y0240848D01*
X0184752Y0240699D01*
X0184696Y0240551D01*
X0184636Y0240405D01*
X0184572Y0240260D01*
X0184504Y0240117D01*
X0184433Y0239975D01*
X0184359Y0239835D01*
X0184281Y0239698D01*
X0184199Y0239562D01*
X0184115Y0239428D01*
X0184026Y0239297D01*
X0183935Y0239168D01*
X0183840Y0239041D01*
X0183743Y0238916D01*
X0183642Y0238794D01*
X0183538Y0238675D01*
X0183431Y0238558D01*
X0183321Y0238444D01*
X0183208Y0238333D01*
X0183093Y0238224D01*
X0182975Y0238119D01*
X0182854Y0238017D01*
X0182731Y0237917D01*
X0182605Y0237821D01*
X0182477Y0237728D01*
X0182347Y0237638D01*
X0182214Y0237552D01*
X0182079Y0237468D01*
X0181943Y0237389D01*
X0181804Y0237312D01*
X0181663Y0237240D01*
X0181521Y0237170D01*
X0181377Y0237105D01*
X0181231Y0237043D01*
X0181084Y0236985D01*
X0180935Y0236930D01*
X0180785Y0236879D01*
X0180634Y0236832D01*
X0180482Y0236789D01*
X0180329Y0236750D01*
X0180174Y0236714D01*
X0180019Y0236683D01*
X0179863Y0236655D01*
X0179707Y0236631D01*
X0179550Y0236611D01*
X0179392Y0236595D01*
X0179235Y0236583D01*
X0179076Y0236575D01*
X0178918Y0236571D01*
X0178760Y0236571D01*
X0178602Y0236575D01*
X0178443Y0236583D01*
X0178286Y0236595D01*
X0178128Y0236611D01*
X0177971Y0236631D01*
X0177815Y0236655D01*
X0177659Y0236683D01*
X0177504Y0236714D01*
X0177349Y0236750D01*
X0177196Y0236789D01*
X0177044Y0236832D01*
X0176893Y0236879D01*
X0176743Y0236930D01*
X0176594Y0236985D01*
X0176447Y0237043D01*
X0176301Y0237105D01*
X0176157Y0237170D01*
X0176015Y0237240D01*
X0175874Y0237312D01*
X0175735Y0237389D01*
X0175599Y0237468D01*
X0175464Y0237552D01*
X0175331Y0237638D01*
X0175201Y0237728D01*
X0175073Y0237821D01*
X0174947Y0237917D01*
X0174824Y0238017D01*
X0174703Y0238119D01*
X0174585Y0238224D01*
X0174470Y0238333D01*
X0174357Y0238444D01*
X0174247Y0238558D01*
X0174140Y0238675D01*
X0174036Y0238794D01*
X0173935Y0238916D01*
X0173838Y0239041D01*
X0173743Y0239168D01*
X0173652Y0239297D01*
X0173563Y0239428D01*
X0173479Y0239562D01*
X0173397Y0239698D01*
X0173319Y0239835D01*
X0173245Y0239975D01*
X0173174Y0240117D01*
X0173106Y0240260D01*
X0173042Y0240405D01*
X0172982Y0240551D01*
X0172926Y0240699D01*
X0172873Y0240848D01*
X0172824Y0240999D01*
X0172779Y0241151D01*
X0172738Y0241304D01*
X0172700Y0241457D01*
X0172667Y0241612D01*
X0172637Y0241768D01*
X0172611Y0241924D01*
X0172590Y0242081D01*
X0172572Y0242238D01*
X0172558Y0242396D01*
X0172548Y0242554D01*
X0172542Y0242712D01*
X0172540Y0242870D01*
X0172540Y0377122D02*
X0172542Y0377280D01*
X0172548Y0377438D01*
X0172558Y0377596D01*
X0172572Y0377754D01*
X0172590Y0377911D01*
X0172611Y0378068D01*
X0172637Y0378224D01*
X0172667Y0378380D01*
X0172700Y0378535D01*
X0172738Y0378688D01*
X0172779Y0378841D01*
X0172824Y0378993D01*
X0172873Y0379144D01*
X0172926Y0379293D01*
X0172982Y0379441D01*
X0173042Y0379587D01*
X0173106Y0379732D01*
X0173174Y0379875D01*
X0173245Y0380017D01*
X0173319Y0380157D01*
X0173397Y0380294D01*
X0173479Y0380430D01*
X0173563Y0380564D01*
X0173652Y0380695D01*
X0173743Y0380824D01*
X0173838Y0380951D01*
X0173935Y0381076D01*
X0174036Y0381198D01*
X0174140Y0381317D01*
X0174247Y0381434D01*
X0174357Y0381548D01*
X0174470Y0381659D01*
X0174585Y0381768D01*
X0174703Y0381873D01*
X0174824Y0381975D01*
X0174947Y0382075D01*
X0175073Y0382171D01*
X0175201Y0382264D01*
X0175331Y0382354D01*
X0175464Y0382440D01*
X0175599Y0382524D01*
X0175735Y0382603D01*
X0175874Y0382680D01*
X0176015Y0382752D01*
X0176157Y0382822D01*
X0176301Y0382887D01*
X0176447Y0382949D01*
X0176594Y0383007D01*
X0176743Y0383062D01*
X0176893Y0383113D01*
X0177044Y0383160D01*
X0177196Y0383203D01*
X0177349Y0383242D01*
X0177504Y0383278D01*
X0177659Y0383309D01*
X0177815Y0383337D01*
X0177971Y0383361D01*
X0178128Y0383381D01*
X0178286Y0383397D01*
X0178443Y0383409D01*
X0178602Y0383417D01*
X0178760Y0383421D01*
X0178918Y0383421D01*
X0179076Y0383417D01*
X0179235Y0383409D01*
X0179392Y0383397D01*
X0179550Y0383381D01*
X0179707Y0383361D01*
X0179863Y0383337D01*
X0180019Y0383309D01*
X0180174Y0383278D01*
X0180329Y0383242D01*
X0180482Y0383203D01*
X0180634Y0383160D01*
X0180785Y0383113D01*
X0180935Y0383062D01*
X0181084Y0383007D01*
X0181231Y0382949D01*
X0181377Y0382887D01*
X0181521Y0382822D01*
X0181663Y0382752D01*
X0181804Y0382680D01*
X0181943Y0382603D01*
X0182079Y0382524D01*
X0182214Y0382440D01*
X0182347Y0382354D01*
X0182477Y0382264D01*
X0182605Y0382171D01*
X0182731Y0382075D01*
X0182854Y0381975D01*
X0182975Y0381873D01*
X0183093Y0381768D01*
X0183208Y0381659D01*
X0183321Y0381548D01*
X0183431Y0381434D01*
X0183538Y0381317D01*
X0183642Y0381198D01*
X0183743Y0381076D01*
X0183840Y0380951D01*
X0183935Y0380824D01*
X0184026Y0380695D01*
X0184115Y0380564D01*
X0184199Y0380430D01*
X0184281Y0380294D01*
X0184359Y0380157D01*
X0184433Y0380017D01*
X0184504Y0379875D01*
X0184572Y0379732D01*
X0184636Y0379587D01*
X0184696Y0379441D01*
X0184752Y0379293D01*
X0184805Y0379144D01*
X0184854Y0378993D01*
X0184899Y0378841D01*
X0184940Y0378688D01*
X0184978Y0378535D01*
X0185011Y0378380D01*
X0185041Y0378224D01*
X0185067Y0378068D01*
X0185088Y0377911D01*
X0185106Y0377754D01*
X0185120Y0377596D01*
X0185130Y0377438D01*
X0185136Y0377280D01*
X0185138Y0377122D01*
X0185136Y0376964D01*
X0185130Y0376806D01*
X0185120Y0376648D01*
X0185106Y0376490D01*
X0185088Y0376333D01*
X0185067Y0376176D01*
X0185041Y0376020D01*
X0185011Y0375864D01*
X0184978Y0375709D01*
X0184940Y0375556D01*
X0184899Y0375403D01*
X0184854Y0375251D01*
X0184805Y0375100D01*
X0184752Y0374951D01*
X0184696Y0374803D01*
X0184636Y0374657D01*
X0184572Y0374512D01*
X0184504Y0374369D01*
X0184433Y0374227D01*
X0184359Y0374087D01*
X0184281Y0373950D01*
X0184199Y0373814D01*
X0184115Y0373680D01*
X0184026Y0373549D01*
X0183935Y0373420D01*
X0183840Y0373293D01*
X0183743Y0373168D01*
X0183642Y0373046D01*
X0183538Y0372927D01*
X0183431Y0372810D01*
X0183321Y0372696D01*
X0183208Y0372585D01*
X0183093Y0372476D01*
X0182975Y0372371D01*
X0182854Y0372269D01*
X0182731Y0372169D01*
X0182605Y0372073D01*
X0182477Y0371980D01*
X0182347Y0371890D01*
X0182214Y0371804D01*
X0182079Y0371720D01*
X0181943Y0371641D01*
X0181804Y0371564D01*
X0181663Y0371492D01*
X0181521Y0371422D01*
X0181377Y0371357D01*
X0181231Y0371295D01*
X0181084Y0371237D01*
X0180935Y0371182D01*
X0180785Y0371131D01*
X0180634Y0371084D01*
X0180482Y0371041D01*
X0180329Y0371002D01*
X0180174Y0370966D01*
X0180019Y0370935D01*
X0179863Y0370907D01*
X0179707Y0370883D01*
X0179550Y0370863D01*
X0179392Y0370847D01*
X0179235Y0370835D01*
X0179076Y0370827D01*
X0178918Y0370823D01*
X0178760Y0370823D01*
X0178602Y0370827D01*
X0178443Y0370835D01*
X0178286Y0370847D01*
X0178128Y0370863D01*
X0177971Y0370883D01*
X0177815Y0370907D01*
X0177659Y0370935D01*
X0177504Y0370966D01*
X0177349Y0371002D01*
X0177196Y0371041D01*
X0177044Y0371084D01*
X0176893Y0371131D01*
X0176743Y0371182D01*
X0176594Y0371237D01*
X0176447Y0371295D01*
X0176301Y0371357D01*
X0176157Y0371422D01*
X0176015Y0371492D01*
X0175874Y0371564D01*
X0175735Y0371641D01*
X0175599Y0371720D01*
X0175464Y0371804D01*
X0175331Y0371890D01*
X0175201Y0371980D01*
X0175073Y0372073D01*
X0174947Y0372169D01*
X0174824Y0372269D01*
X0174703Y0372371D01*
X0174585Y0372476D01*
X0174470Y0372585D01*
X0174357Y0372696D01*
X0174247Y0372810D01*
X0174140Y0372927D01*
X0174036Y0373046D01*
X0173935Y0373168D01*
X0173838Y0373293D01*
X0173743Y0373420D01*
X0173652Y0373549D01*
X0173563Y0373680D01*
X0173479Y0373814D01*
X0173397Y0373950D01*
X0173319Y0374087D01*
X0173245Y0374227D01*
X0173174Y0374369D01*
X0173106Y0374512D01*
X0173042Y0374657D01*
X0172982Y0374803D01*
X0172926Y0374951D01*
X0172873Y0375100D01*
X0172824Y0375251D01*
X0172779Y0375403D01*
X0172738Y0375556D01*
X0172700Y0375709D01*
X0172667Y0375864D01*
X0172637Y0376020D01*
X0172611Y0376176D01*
X0172590Y0376333D01*
X0172572Y0376490D01*
X0172558Y0376648D01*
X0172548Y0376806D01*
X0172542Y0376964D01*
X0172540Y0377122D01*
X0185345Y0408083D02*
X0185347Y0408250D01*
X0185353Y0408417D01*
X0185363Y0408583D01*
X0185378Y0408750D01*
X0185396Y0408915D01*
X0185419Y0409081D01*
X0185445Y0409246D01*
X0185476Y0409410D01*
X0185510Y0409573D01*
X0185549Y0409735D01*
X0185591Y0409897D01*
X0185638Y0410057D01*
X0185688Y0410216D01*
X0185743Y0410374D01*
X0185801Y0410530D01*
X0185863Y0410685D01*
X0185928Y0410839D01*
X0185998Y0410990D01*
X0186071Y0411140D01*
X0186148Y0411288D01*
X0186228Y0411435D01*
X0186312Y0411579D01*
X0186400Y0411721D01*
X0186491Y0411861D01*
X0186585Y0411998D01*
X0186683Y0412134D01*
X0186784Y0412267D01*
X0186889Y0412397D01*
X0186996Y0412525D01*
X0187107Y0412650D01*
X0187220Y0412772D01*
X0187337Y0412891D01*
X0187456Y0413008D01*
X0187578Y0413121D01*
X0187703Y0413232D01*
X0187831Y0413339D01*
X0187961Y0413444D01*
X0188094Y0413545D01*
X0188230Y0413643D01*
X0188367Y0413737D01*
X0188507Y0413828D01*
X0188649Y0413916D01*
X0188793Y0414000D01*
X0188940Y0414080D01*
X0189088Y0414157D01*
X0189238Y0414230D01*
X0189389Y0414300D01*
X0189543Y0414365D01*
X0189698Y0414427D01*
X0189854Y0414485D01*
X0190012Y0414540D01*
X0190171Y0414590D01*
X0190331Y0414637D01*
X0190493Y0414679D01*
X0190655Y0414718D01*
X0190818Y0414752D01*
X0190982Y0414783D01*
X0191147Y0414809D01*
X0191313Y0414832D01*
X0191478Y0414850D01*
X0191645Y0414865D01*
X0191811Y0414875D01*
X0191978Y0414881D01*
X0192145Y0414883D01*
X0192312Y0414881D01*
X0192479Y0414875D01*
X0192645Y0414865D01*
X0192812Y0414850D01*
X0192977Y0414832D01*
X0193143Y0414809D01*
X0193308Y0414783D01*
X0193472Y0414752D01*
X0193635Y0414718D01*
X0193797Y0414679D01*
X0193959Y0414637D01*
X0194119Y0414590D01*
X0194278Y0414540D01*
X0194436Y0414485D01*
X0194592Y0414427D01*
X0194747Y0414365D01*
X0194901Y0414300D01*
X0195052Y0414230D01*
X0195202Y0414157D01*
X0195350Y0414080D01*
X0195497Y0414000D01*
X0195641Y0413916D01*
X0195783Y0413828D01*
X0195923Y0413737D01*
X0196060Y0413643D01*
X0196196Y0413545D01*
X0196329Y0413444D01*
X0196459Y0413339D01*
X0196587Y0413232D01*
X0196712Y0413121D01*
X0196834Y0413008D01*
X0196953Y0412891D01*
X0197070Y0412772D01*
X0197183Y0412650D01*
X0197294Y0412525D01*
X0197401Y0412397D01*
X0197506Y0412267D01*
X0197607Y0412134D01*
X0197705Y0411998D01*
X0197799Y0411861D01*
X0197890Y0411721D01*
X0197978Y0411579D01*
X0198062Y0411435D01*
X0198142Y0411288D01*
X0198219Y0411140D01*
X0198292Y0410990D01*
X0198362Y0410839D01*
X0198427Y0410685D01*
X0198489Y0410530D01*
X0198547Y0410374D01*
X0198602Y0410216D01*
X0198652Y0410057D01*
X0198699Y0409897D01*
X0198741Y0409735D01*
X0198780Y0409573D01*
X0198814Y0409410D01*
X0198845Y0409246D01*
X0198871Y0409081D01*
X0198894Y0408915D01*
X0198912Y0408750D01*
X0198927Y0408583D01*
X0198937Y0408417D01*
X0198943Y0408250D01*
X0198945Y0408083D01*
X0198943Y0407916D01*
X0198937Y0407749D01*
X0198927Y0407583D01*
X0198912Y0407416D01*
X0198894Y0407251D01*
X0198871Y0407085D01*
X0198845Y0406920D01*
X0198814Y0406756D01*
X0198780Y0406593D01*
X0198741Y0406431D01*
X0198699Y0406269D01*
X0198652Y0406109D01*
X0198602Y0405950D01*
X0198547Y0405792D01*
X0198489Y0405636D01*
X0198427Y0405481D01*
X0198362Y0405327D01*
X0198292Y0405176D01*
X0198219Y0405026D01*
X0198142Y0404878D01*
X0198062Y0404731D01*
X0197978Y0404587D01*
X0197890Y0404445D01*
X0197799Y0404305D01*
X0197705Y0404168D01*
X0197607Y0404032D01*
X0197506Y0403899D01*
X0197401Y0403769D01*
X0197294Y0403641D01*
X0197183Y0403516D01*
X0197070Y0403394D01*
X0196953Y0403275D01*
X0196834Y0403158D01*
X0196712Y0403045D01*
X0196587Y0402934D01*
X0196459Y0402827D01*
X0196329Y0402722D01*
X0196196Y0402621D01*
X0196060Y0402523D01*
X0195923Y0402429D01*
X0195783Y0402338D01*
X0195641Y0402250D01*
X0195497Y0402166D01*
X0195350Y0402086D01*
X0195202Y0402009D01*
X0195052Y0401936D01*
X0194901Y0401866D01*
X0194747Y0401801D01*
X0194592Y0401739D01*
X0194436Y0401681D01*
X0194278Y0401626D01*
X0194119Y0401576D01*
X0193959Y0401529D01*
X0193797Y0401487D01*
X0193635Y0401448D01*
X0193472Y0401414D01*
X0193308Y0401383D01*
X0193143Y0401357D01*
X0192977Y0401334D01*
X0192812Y0401316D01*
X0192645Y0401301D01*
X0192479Y0401291D01*
X0192312Y0401285D01*
X0192145Y0401283D01*
X0191978Y0401285D01*
X0191811Y0401291D01*
X0191645Y0401301D01*
X0191478Y0401316D01*
X0191313Y0401334D01*
X0191147Y0401357D01*
X0190982Y0401383D01*
X0190818Y0401414D01*
X0190655Y0401448D01*
X0190493Y0401487D01*
X0190331Y0401529D01*
X0190171Y0401576D01*
X0190012Y0401626D01*
X0189854Y0401681D01*
X0189698Y0401739D01*
X0189543Y0401801D01*
X0189389Y0401866D01*
X0189238Y0401936D01*
X0189088Y0402009D01*
X0188940Y0402086D01*
X0188793Y0402166D01*
X0188649Y0402250D01*
X0188507Y0402338D01*
X0188367Y0402429D01*
X0188230Y0402523D01*
X0188094Y0402621D01*
X0187961Y0402722D01*
X0187831Y0402827D01*
X0187703Y0402934D01*
X0187578Y0403045D01*
X0187456Y0403158D01*
X0187337Y0403275D01*
X0187220Y0403394D01*
X0187107Y0403516D01*
X0186996Y0403641D01*
X0186889Y0403769D01*
X0186784Y0403899D01*
X0186683Y0404032D01*
X0186585Y0404168D01*
X0186491Y0404305D01*
X0186400Y0404445D01*
X0186312Y0404587D01*
X0186228Y0404731D01*
X0186148Y0404878D01*
X0186071Y0405026D01*
X0185998Y0405176D01*
X0185928Y0405327D01*
X0185863Y0405481D01*
X0185801Y0405636D01*
X0185743Y0405792D01*
X0185688Y0405950D01*
X0185638Y0406109D01*
X0185591Y0406269D01*
X0185549Y0406431D01*
X0185510Y0406593D01*
X0185476Y0406756D01*
X0185445Y0406920D01*
X0185419Y0407085D01*
X0185396Y0407251D01*
X0185378Y0407416D01*
X0185363Y0407583D01*
X0185353Y0407749D01*
X0185347Y0407916D01*
X0185345Y0408083D01*
X0225296Y0439583D02*
X0225298Y0439741D01*
X0225304Y0439899D01*
X0225314Y0440057D01*
X0225328Y0440215D01*
X0225346Y0440372D01*
X0225367Y0440529D01*
X0225393Y0440685D01*
X0225423Y0440841D01*
X0225456Y0440996D01*
X0225494Y0441149D01*
X0225535Y0441302D01*
X0225580Y0441454D01*
X0225629Y0441605D01*
X0225682Y0441754D01*
X0225738Y0441902D01*
X0225798Y0442048D01*
X0225862Y0442193D01*
X0225930Y0442336D01*
X0226001Y0442478D01*
X0226075Y0442618D01*
X0226153Y0442755D01*
X0226235Y0442891D01*
X0226319Y0443025D01*
X0226408Y0443156D01*
X0226499Y0443285D01*
X0226594Y0443412D01*
X0226691Y0443537D01*
X0226792Y0443659D01*
X0226896Y0443778D01*
X0227003Y0443895D01*
X0227113Y0444009D01*
X0227226Y0444120D01*
X0227341Y0444229D01*
X0227459Y0444334D01*
X0227580Y0444436D01*
X0227703Y0444536D01*
X0227829Y0444632D01*
X0227957Y0444725D01*
X0228087Y0444815D01*
X0228220Y0444901D01*
X0228355Y0444985D01*
X0228491Y0445064D01*
X0228630Y0445141D01*
X0228771Y0445213D01*
X0228913Y0445283D01*
X0229057Y0445348D01*
X0229203Y0445410D01*
X0229350Y0445468D01*
X0229499Y0445523D01*
X0229649Y0445574D01*
X0229800Y0445621D01*
X0229952Y0445664D01*
X0230105Y0445703D01*
X0230260Y0445739D01*
X0230415Y0445770D01*
X0230571Y0445798D01*
X0230727Y0445822D01*
X0230884Y0445842D01*
X0231042Y0445858D01*
X0231199Y0445870D01*
X0231358Y0445878D01*
X0231516Y0445882D01*
X0231674Y0445882D01*
X0231832Y0445878D01*
X0231991Y0445870D01*
X0232148Y0445858D01*
X0232306Y0445842D01*
X0232463Y0445822D01*
X0232619Y0445798D01*
X0232775Y0445770D01*
X0232930Y0445739D01*
X0233085Y0445703D01*
X0233238Y0445664D01*
X0233390Y0445621D01*
X0233541Y0445574D01*
X0233691Y0445523D01*
X0233840Y0445468D01*
X0233987Y0445410D01*
X0234133Y0445348D01*
X0234277Y0445283D01*
X0234419Y0445213D01*
X0234560Y0445141D01*
X0234699Y0445064D01*
X0234835Y0444985D01*
X0234970Y0444901D01*
X0235103Y0444815D01*
X0235233Y0444725D01*
X0235361Y0444632D01*
X0235487Y0444536D01*
X0235610Y0444436D01*
X0235731Y0444334D01*
X0235849Y0444229D01*
X0235964Y0444120D01*
X0236077Y0444009D01*
X0236187Y0443895D01*
X0236294Y0443778D01*
X0236398Y0443659D01*
X0236499Y0443537D01*
X0236596Y0443412D01*
X0236691Y0443285D01*
X0236782Y0443156D01*
X0236871Y0443025D01*
X0236955Y0442891D01*
X0237037Y0442755D01*
X0237115Y0442618D01*
X0237189Y0442478D01*
X0237260Y0442336D01*
X0237328Y0442193D01*
X0237392Y0442048D01*
X0237452Y0441902D01*
X0237508Y0441754D01*
X0237561Y0441605D01*
X0237610Y0441454D01*
X0237655Y0441302D01*
X0237696Y0441149D01*
X0237734Y0440996D01*
X0237767Y0440841D01*
X0237797Y0440685D01*
X0237823Y0440529D01*
X0237844Y0440372D01*
X0237862Y0440215D01*
X0237876Y0440057D01*
X0237886Y0439899D01*
X0237892Y0439741D01*
X0237894Y0439583D01*
X0237892Y0439425D01*
X0237886Y0439267D01*
X0237876Y0439109D01*
X0237862Y0438951D01*
X0237844Y0438794D01*
X0237823Y0438637D01*
X0237797Y0438481D01*
X0237767Y0438325D01*
X0237734Y0438170D01*
X0237696Y0438017D01*
X0237655Y0437864D01*
X0237610Y0437712D01*
X0237561Y0437561D01*
X0237508Y0437412D01*
X0237452Y0437264D01*
X0237392Y0437118D01*
X0237328Y0436973D01*
X0237260Y0436830D01*
X0237189Y0436688D01*
X0237115Y0436548D01*
X0237037Y0436411D01*
X0236955Y0436275D01*
X0236871Y0436141D01*
X0236782Y0436010D01*
X0236691Y0435881D01*
X0236596Y0435754D01*
X0236499Y0435629D01*
X0236398Y0435507D01*
X0236294Y0435388D01*
X0236187Y0435271D01*
X0236077Y0435157D01*
X0235964Y0435046D01*
X0235849Y0434937D01*
X0235731Y0434832D01*
X0235610Y0434730D01*
X0235487Y0434630D01*
X0235361Y0434534D01*
X0235233Y0434441D01*
X0235103Y0434351D01*
X0234970Y0434265D01*
X0234835Y0434181D01*
X0234699Y0434102D01*
X0234560Y0434025D01*
X0234419Y0433953D01*
X0234277Y0433883D01*
X0234133Y0433818D01*
X0233987Y0433756D01*
X0233840Y0433698D01*
X0233691Y0433643D01*
X0233541Y0433592D01*
X0233390Y0433545D01*
X0233238Y0433502D01*
X0233085Y0433463D01*
X0232930Y0433427D01*
X0232775Y0433396D01*
X0232619Y0433368D01*
X0232463Y0433344D01*
X0232306Y0433324D01*
X0232148Y0433308D01*
X0231991Y0433296D01*
X0231832Y0433288D01*
X0231674Y0433284D01*
X0231516Y0433284D01*
X0231358Y0433288D01*
X0231199Y0433296D01*
X0231042Y0433308D01*
X0230884Y0433324D01*
X0230727Y0433344D01*
X0230571Y0433368D01*
X0230415Y0433396D01*
X0230260Y0433427D01*
X0230105Y0433463D01*
X0229952Y0433502D01*
X0229800Y0433545D01*
X0229649Y0433592D01*
X0229499Y0433643D01*
X0229350Y0433698D01*
X0229203Y0433756D01*
X0229057Y0433818D01*
X0228913Y0433883D01*
X0228771Y0433953D01*
X0228630Y0434025D01*
X0228491Y0434102D01*
X0228355Y0434181D01*
X0228220Y0434265D01*
X0228087Y0434351D01*
X0227957Y0434441D01*
X0227829Y0434534D01*
X0227703Y0434630D01*
X0227580Y0434730D01*
X0227459Y0434832D01*
X0227341Y0434937D01*
X0227226Y0435046D01*
X0227113Y0435157D01*
X0227003Y0435271D01*
X0226896Y0435388D01*
X0226792Y0435507D01*
X0226691Y0435629D01*
X0226594Y0435754D01*
X0226499Y0435881D01*
X0226408Y0436010D01*
X0226319Y0436141D01*
X0226235Y0436275D01*
X0226153Y0436411D01*
X0226075Y0436548D01*
X0226001Y0436688D01*
X0225930Y0436830D01*
X0225862Y0436973D01*
X0225798Y0437118D01*
X0225738Y0437264D01*
X0225682Y0437412D01*
X0225629Y0437561D01*
X0225580Y0437712D01*
X0225535Y0437864D01*
X0225494Y0438017D01*
X0225456Y0438170D01*
X0225423Y0438325D01*
X0225393Y0438481D01*
X0225367Y0438637D01*
X0225346Y0438794D01*
X0225328Y0438951D01*
X0225314Y0439109D01*
X0225304Y0439267D01*
X0225298Y0439425D01*
X0225296Y0439583D01*
X0355296Y0439583D02*
X0355298Y0439741D01*
X0355304Y0439899D01*
X0355314Y0440057D01*
X0355328Y0440215D01*
X0355346Y0440372D01*
X0355367Y0440529D01*
X0355393Y0440685D01*
X0355423Y0440841D01*
X0355456Y0440996D01*
X0355494Y0441149D01*
X0355535Y0441302D01*
X0355580Y0441454D01*
X0355629Y0441605D01*
X0355682Y0441754D01*
X0355738Y0441902D01*
X0355798Y0442048D01*
X0355862Y0442193D01*
X0355930Y0442336D01*
X0356001Y0442478D01*
X0356075Y0442618D01*
X0356153Y0442755D01*
X0356235Y0442891D01*
X0356319Y0443025D01*
X0356408Y0443156D01*
X0356499Y0443285D01*
X0356594Y0443412D01*
X0356691Y0443537D01*
X0356792Y0443659D01*
X0356896Y0443778D01*
X0357003Y0443895D01*
X0357113Y0444009D01*
X0357226Y0444120D01*
X0357341Y0444229D01*
X0357459Y0444334D01*
X0357580Y0444436D01*
X0357703Y0444536D01*
X0357829Y0444632D01*
X0357957Y0444725D01*
X0358087Y0444815D01*
X0358220Y0444901D01*
X0358355Y0444985D01*
X0358491Y0445064D01*
X0358630Y0445141D01*
X0358771Y0445213D01*
X0358913Y0445283D01*
X0359057Y0445348D01*
X0359203Y0445410D01*
X0359350Y0445468D01*
X0359499Y0445523D01*
X0359649Y0445574D01*
X0359800Y0445621D01*
X0359952Y0445664D01*
X0360105Y0445703D01*
X0360260Y0445739D01*
X0360415Y0445770D01*
X0360571Y0445798D01*
X0360727Y0445822D01*
X0360884Y0445842D01*
X0361042Y0445858D01*
X0361199Y0445870D01*
X0361358Y0445878D01*
X0361516Y0445882D01*
X0361674Y0445882D01*
X0361832Y0445878D01*
X0361991Y0445870D01*
X0362148Y0445858D01*
X0362306Y0445842D01*
X0362463Y0445822D01*
X0362619Y0445798D01*
X0362775Y0445770D01*
X0362930Y0445739D01*
X0363085Y0445703D01*
X0363238Y0445664D01*
X0363390Y0445621D01*
X0363541Y0445574D01*
X0363691Y0445523D01*
X0363840Y0445468D01*
X0363987Y0445410D01*
X0364133Y0445348D01*
X0364277Y0445283D01*
X0364419Y0445213D01*
X0364560Y0445141D01*
X0364699Y0445064D01*
X0364835Y0444985D01*
X0364970Y0444901D01*
X0365103Y0444815D01*
X0365233Y0444725D01*
X0365361Y0444632D01*
X0365487Y0444536D01*
X0365610Y0444436D01*
X0365731Y0444334D01*
X0365849Y0444229D01*
X0365964Y0444120D01*
X0366077Y0444009D01*
X0366187Y0443895D01*
X0366294Y0443778D01*
X0366398Y0443659D01*
X0366499Y0443537D01*
X0366596Y0443412D01*
X0366691Y0443285D01*
X0366782Y0443156D01*
X0366871Y0443025D01*
X0366955Y0442891D01*
X0367037Y0442755D01*
X0367115Y0442618D01*
X0367189Y0442478D01*
X0367260Y0442336D01*
X0367328Y0442193D01*
X0367392Y0442048D01*
X0367452Y0441902D01*
X0367508Y0441754D01*
X0367561Y0441605D01*
X0367610Y0441454D01*
X0367655Y0441302D01*
X0367696Y0441149D01*
X0367734Y0440996D01*
X0367767Y0440841D01*
X0367797Y0440685D01*
X0367823Y0440529D01*
X0367844Y0440372D01*
X0367862Y0440215D01*
X0367876Y0440057D01*
X0367886Y0439899D01*
X0367892Y0439741D01*
X0367894Y0439583D01*
X0367892Y0439425D01*
X0367886Y0439267D01*
X0367876Y0439109D01*
X0367862Y0438951D01*
X0367844Y0438794D01*
X0367823Y0438637D01*
X0367797Y0438481D01*
X0367767Y0438325D01*
X0367734Y0438170D01*
X0367696Y0438017D01*
X0367655Y0437864D01*
X0367610Y0437712D01*
X0367561Y0437561D01*
X0367508Y0437412D01*
X0367452Y0437264D01*
X0367392Y0437118D01*
X0367328Y0436973D01*
X0367260Y0436830D01*
X0367189Y0436688D01*
X0367115Y0436548D01*
X0367037Y0436411D01*
X0366955Y0436275D01*
X0366871Y0436141D01*
X0366782Y0436010D01*
X0366691Y0435881D01*
X0366596Y0435754D01*
X0366499Y0435629D01*
X0366398Y0435507D01*
X0366294Y0435388D01*
X0366187Y0435271D01*
X0366077Y0435157D01*
X0365964Y0435046D01*
X0365849Y0434937D01*
X0365731Y0434832D01*
X0365610Y0434730D01*
X0365487Y0434630D01*
X0365361Y0434534D01*
X0365233Y0434441D01*
X0365103Y0434351D01*
X0364970Y0434265D01*
X0364835Y0434181D01*
X0364699Y0434102D01*
X0364560Y0434025D01*
X0364419Y0433953D01*
X0364277Y0433883D01*
X0364133Y0433818D01*
X0363987Y0433756D01*
X0363840Y0433698D01*
X0363691Y0433643D01*
X0363541Y0433592D01*
X0363390Y0433545D01*
X0363238Y0433502D01*
X0363085Y0433463D01*
X0362930Y0433427D01*
X0362775Y0433396D01*
X0362619Y0433368D01*
X0362463Y0433344D01*
X0362306Y0433324D01*
X0362148Y0433308D01*
X0361991Y0433296D01*
X0361832Y0433288D01*
X0361674Y0433284D01*
X0361516Y0433284D01*
X0361358Y0433288D01*
X0361199Y0433296D01*
X0361042Y0433308D01*
X0360884Y0433324D01*
X0360727Y0433344D01*
X0360571Y0433368D01*
X0360415Y0433396D01*
X0360260Y0433427D01*
X0360105Y0433463D01*
X0359952Y0433502D01*
X0359800Y0433545D01*
X0359649Y0433592D01*
X0359499Y0433643D01*
X0359350Y0433698D01*
X0359203Y0433756D01*
X0359057Y0433818D01*
X0358913Y0433883D01*
X0358771Y0433953D01*
X0358630Y0434025D01*
X0358491Y0434102D01*
X0358355Y0434181D01*
X0358220Y0434265D01*
X0358087Y0434351D01*
X0357957Y0434441D01*
X0357829Y0434534D01*
X0357703Y0434630D01*
X0357580Y0434730D01*
X0357459Y0434832D01*
X0357341Y0434937D01*
X0357226Y0435046D01*
X0357113Y0435157D01*
X0357003Y0435271D01*
X0356896Y0435388D01*
X0356792Y0435507D01*
X0356691Y0435629D01*
X0356594Y0435754D01*
X0356499Y0435881D01*
X0356408Y0436010D01*
X0356319Y0436141D01*
X0356235Y0436275D01*
X0356153Y0436411D01*
X0356075Y0436548D01*
X0356001Y0436688D01*
X0355930Y0436830D01*
X0355862Y0436973D01*
X0355798Y0437118D01*
X0355738Y0437264D01*
X0355682Y0437412D01*
X0355629Y0437561D01*
X0355580Y0437712D01*
X0355535Y0437864D01*
X0355494Y0438017D01*
X0355456Y0438170D01*
X0355423Y0438325D01*
X0355393Y0438481D01*
X0355367Y0438637D01*
X0355346Y0438794D01*
X0355328Y0438951D01*
X0355314Y0439109D01*
X0355304Y0439267D01*
X0355298Y0439425D01*
X0355296Y0439583D01*
X0402845Y0471083D02*
X0402847Y0471250D01*
X0402853Y0471417D01*
X0402863Y0471583D01*
X0402878Y0471750D01*
X0402896Y0471915D01*
X0402919Y0472081D01*
X0402945Y0472246D01*
X0402976Y0472410D01*
X0403010Y0472573D01*
X0403049Y0472735D01*
X0403091Y0472897D01*
X0403138Y0473057D01*
X0403188Y0473216D01*
X0403243Y0473374D01*
X0403301Y0473530D01*
X0403363Y0473685D01*
X0403428Y0473839D01*
X0403498Y0473990D01*
X0403571Y0474140D01*
X0403648Y0474288D01*
X0403728Y0474435D01*
X0403812Y0474579D01*
X0403900Y0474721D01*
X0403991Y0474861D01*
X0404085Y0474998D01*
X0404183Y0475134D01*
X0404284Y0475267D01*
X0404389Y0475397D01*
X0404496Y0475525D01*
X0404607Y0475650D01*
X0404720Y0475772D01*
X0404837Y0475891D01*
X0404956Y0476008D01*
X0405078Y0476121D01*
X0405203Y0476232D01*
X0405331Y0476339D01*
X0405461Y0476444D01*
X0405594Y0476545D01*
X0405730Y0476643D01*
X0405867Y0476737D01*
X0406007Y0476828D01*
X0406149Y0476916D01*
X0406293Y0477000D01*
X0406440Y0477080D01*
X0406588Y0477157D01*
X0406738Y0477230D01*
X0406889Y0477300D01*
X0407043Y0477365D01*
X0407198Y0477427D01*
X0407354Y0477485D01*
X0407512Y0477540D01*
X0407671Y0477590D01*
X0407831Y0477637D01*
X0407993Y0477679D01*
X0408155Y0477718D01*
X0408318Y0477752D01*
X0408482Y0477783D01*
X0408647Y0477809D01*
X0408813Y0477832D01*
X0408978Y0477850D01*
X0409145Y0477865D01*
X0409311Y0477875D01*
X0409478Y0477881D01*
X0409645Y0477883D01*
X0409812Y0477881D01*
X0409979Y0477875D01*
X0410145Y0477865D01*
X0410312Y0477850D01*
X0410477Y0477832D01*
X0410643Y0477809D01*
X0410808Y0477783D01*
X0410972Y0477752D01*
X0411135Y0477718D01*
X0411297Y0477679D01*
X0411459Y0477637D01*
X0411619Y0477590D01*
X0411778Y0477540D01*
X0411936Y0477485D01*
X0412092Y0477427D01*
X0412247Y0477365D01*
X0412401Y0477300D01*
X0412552Y0477230D01*
X0412702Y0477157D01*
X0412850Y0477080D01*
X0412997Y0477000D01*
X0413141Y0476916D01*
X0413283Y0476828D01*
X0413423Y0476737D01*
X0413560Y0476643D01*
X0413696Y0476545D01*
X0413829Y0476444D01*
X0413959Y0476339D01*
X0414087Y0476232D01*
X0414212Y0476121D01*
X0414334Y0476008D01*
X0414453Y0475891D01*
X0414570Y0475772D01*
X0414683Y0475650D01*
X0414794Y0475525D01*
X0414901Y0475397D01*
X0415006Y0475267D01*
X0415107Y0475134D01*
X0415205Y0474998D01*
X0415299Y0474861D01*
X0415390Y0474721D01*
X0415478Y0474579D01*
X0415562Y0474435D01*
X0415642Y0474288D01*
X0415719Y0474140D01*
X0415792Y0473990D01*
X0415862Y0473839D01*
X0415927Y0473685D01*
X0415989Y0473530D01*
X0416047Y0473374D01*
X0416102Y0473216D01*
X0416152Y0473057D01*
X0416199Y0472897D01*
X0416241Y0472735D01*
X0416280Y0472573D01*
X0416314Y0472410D01*
X0416345Y0472246D01*
X0416371Y0472081D01*
X0416394Y0471915D01*
X0416412Y0471750D01*
X0416427Y0471583D01*
X0416437Y0471417D01*
X0416443Y0471250D01*
X0416445Y0471083D01*
X0416443Y0470916D01*
X0416437Y0470749D01*
X0416427Y0470583D01*
X0416412Y0470416D01*
X0416394Y0470251D01*
X0416371Y0470085D01*
X0416345Y0469920D01*
X0416314Y0469756D01*
X0416280Y0469593D01*
X0416241Y0469431D01*
X0416199Y0469269D01*
X0416152Y0469109D01*
X0416102Y0468950D01*
X0416047Y0468792D01*
X0415989Y0468636D01*
X0415927Y0468481D01*
X0415862Y0468327D01*
X0415792Y0468176D01*
X0415719Y0468026D01*
X0415642Y0467878D01*
X0415562Y0467731D01*
X0415478Y0467587D01*
X0415390Y0467445D01*
X0415299Y0467305D01*
X0415205Y0467168D01*
X0415107Y0467032D01*
X0415006Y0466899D01*
X0414901Y0466769D01*
X0414794Y0466641D01*
X0414683Y0466516D01*
X0414570Y0466394D01*
X0414453Y0466275D01*
X0414334Y0466158D01*
X0414212Y0466045D01*
X0414087Y0465934D01*
X0413959Y0465827D01*
X0413829Y0465722D01*
X0413696Y0465621D01*
X0413560Y0465523D01*
X0413423Y0465429D01*
X0413283Y0465338D01*
X0413141Y0465250D01*
X0412997Y0465166D01*
X0412850Y0465086D01*
X0412702Y0465009D01*
X0412552Y0464936D01*
X0412401Y0464866D01*
X0412247Y0464801D01*
X0412092Y0464739D01*
X0411936Y0464681D01*
X0411778Y0464626D01*
X0411619Y0464576D01*
X0411459Y0464529D01*
X0411297Y0464487D01*
X0411135Y0464448D01*
X0410972Y0464414D01*
X0410808Y0464383D01*
X0410643Y0464357D01*
X0410477Y0464334D01*
X0410312Y0464316D01*
X0410145Y0464301D01*
X0409979Y0464291D01*
X0409812Y0464285D01*
X0409645Y0464283D01*
X0409478Y0464285D01*
X0409311Y0464291D01*
X0409145Y0464301D01*
X0408978Y0464316D01*
X0408813Y0464334D01*
X0408647Y0464357D01*
X0408482Y0464383D01*
X0408318Y0464414D01*
X0408155Y0464448D01*
X0407993Y0464487D01*
X0407831Y0464529D01*
X0407671Y0464576D01*
X0407512Y0464626D01*
X0407354Y0464681D01*
X0407198Y0464739D01*
X0407043Y0464801D01*
X0406889Y0464866D01*
X0406738Y0464936D01*
X0406588Y0465009D01*
X0406440Y0465086D01*
X0406293Y0465166D01*
X0406149Y0465250D01*
X0406007Y0465338D01*
X0405867Y0465429D01*
X0405730Y0465523D01*
X0405594Y0465621D01*
X0405461Y0465722D01*
X0405331Y0465827D01*
X0405203Y0465934D01*
X0405078Y0466045D01*
X0404956Y0466158D01*
X0404837Y0466275D01*
X0404720Y0466394D01*
X0404607Y0466516D01*
X0404496Y0466641D01*
X0404389Y0466769D01*
X0404284Y0466899D01*
X0404183Y0467032D01*
X0404085Y0467168D01*
X0403991Y0467305D01*
X0403900Y0467445D01*
X0403812Y0467587D01*
X0403728Y0467731D01*
X0403648Y0467878D01*
X0403571Y0468026D01*
X0403498Y0468176D01*
X0403428Y0468327D01*
X0403363Y0468481D01*
X0403301Y0468636D01*
X0403243Y0468792D01*
X0403188Y0468950D01*
X0403138Y0469109D01*
X0403091Y0469269D01*
X0403049Y0469431D01*
X0403010Y0469593D01*
X0402976Y0469756D01*
X0402945Y0469920D01*
X0402919Y0470085D01*
X0402896Y0470251D01*
X0402878Y0470416D01*
X0402863Y0470583D01*
X0402853Y0470749D01*
X0402847Y0470916D01*
X0402845Y0471083D01*
X0437295Y0408083D02*
X0437297Y0408220D01*
X0437303Y0408356D01*
X0437313Y0408493D01*
X0437327Y0408629D01*
X0437345Y0408764D01*
X0437366Y0408899D01*
X0437392Y0409033D01*
X0437422Y0409167D01*
X0437455Y0409299D01*
X0437492Y0409431D01*
X0437534Y0409561D01*
X0437578Y0409690D01*
X0437627Y0409818D01*
X0437679Y0409945D01*
X0437735Y0410069D01*
X0437795Y0410192D01*
X0437858Y0410314D01*
X0437925Y0410433D01*
X0437995Y0410550D01*
X0438068Y0410666D01*
X0438145Y0410779D01*
X0438225Y0410890D01*
X0438308Y0410998D01*
X0438395Y0411104D01*
X0438484Y0411208D01*
X0438576Y0411308D01*
X0438672Y0411406D01*
X0438770Y0411502D01*
X0438870Y0411594D01*
X0438974Y0411683D01*
X0439080Y0411770D01*
X0439188Y0411853D01*
X0439299Y0411933D01*
X0439412Y0412010D01*
X0439528Y0412083D01*
X0439645Y0412153D01*
X0439764Y0412220D01*
X0439886Y0412283D01*
X0440009Y0412343D01*
X0440133Y0412399D01*
X0440260Y0412451D01*
X0440388Y0412500D01*
X0440517Y0412544D01*
X0440647Y0412586D01*
X0440779Y0412623D01*
X0440911Y0412656D01*
X0441045Y0412686D01*
X0441179Y0412712D01*
X0441314Y0412733D01*
X0441449Y0412751D01*
X0441585Y0412765D01*
X0441722Y0412775D01*
X0441858Y0412781D01*
X0441995Y0412783D01*
X0442132Y0412781D01*
X0442268Y0412775D01*
X0442405Y0412765D01*
X0442541Y0412751D01*
X0442676Y0412733D01*
X0442811Y0412712D01*
X0442945Y0412686D01*
X0443079Y0412656D01*
X0443211Y0412623D01*
X0443343Y0412586D01*
X0443473Y0412544D01*
X0443602Y0412500D01*
X0443730Y0412451D01*
X0443857Y0412399D01*
X0443981Y0412343D01*
X0444104Y0412283D01*
X0444226Y0412220D01*
X0444345Y0412153D01*
X0444462Y0412083D01*
X0444578Y0412010D01*
X0444691Y0411933D01*
X0444802Y0411853D01*
X0444910Y0411770D01*
X0445016Y0411683D01*
X0445120Y0411594D01*
X0445220Y0411502D01*
X0445318Y0411406D01*
X0445414Y0411308D01*
X0445506Y0411208D01*
X0445595Y0411104D01*
X0445682Y0410998D01*
X0445765Y0410890D01*
X0445845Y0410779D01*
X0445922Y0410666D01*
X0445995Y0410550D01*
X0446065Y0410433D01*
X0446132Y0410314D01*
X0446195Y0410192D01*
X0446255Y0410069D01*
X0446311Y0409945D01*
X0446363Y0409818D01*
X0446412Y0409690D01*
X0446456Y0409561D01*
X0446498Y0409431D01*
X0446535Y0409299D01*
X0446568Y0409167D01*
X0446598Y0409033D01*
X0446624Y0408899D01*
X0446645Y0408764D01*
X0446663Y0408629D01*
X0446677Y0408493D01*
X0446687Y0408356D01*
X0446693Y0408220D01*
X0446695Y0408083D01*
X0446693Y0407946D01*
X0446687Y0407810D01*
X0446677Y0407673D01*
X0446663Y0407537D01*
X0446645Y0407402D01*
X0446624Y0407267D01*
X0446598Y0407133D01*
X0446568Y0406999D01*
X0446535Y0406867D01*
X0446498Y0406735D01*
X0446456Y0406605D01*
X0446412Y0406476D01*
X0446363Y0406348D01*
X0446311Y0406221D01*
X0446255Y0406097D01*
X0446195Y0405974D01*
X0446132Y0405852D01*
X0446065Y0405733D01*
X0445995Y0405616D01*
X0445922Y0405500D01*
X0445845Y0405387D01*
X0445765Y0405276D01*
X0445682Y0405168D01*
X0445595Y0405062D01*
X0445506Y0404958D01*
X0445414Y0404858D01*
X0445318Y0404760D01*
X0445220Y0404664D01*
X0445120Y0404572D01*
X0445016Y0404483D01*
X0444910Y0404396D01*
X0444802Y0404313D01*
X0444691Y0404233D01*
X0444578Y0404156D01*
X0444462Y0404083D01*
X0444345Y0404013D01*
X0444226Y0403946D01*
X0444104Y0403883D01*
X0443981Y0403823D01*
X0443857Y0403767D01*
X0443730Y0403715D01*
X0443602Y0403666D01*
X0443473Y0403622D01*
X0443343Y0403580D01*
X0443211Y0403543D01*
X0443079Y0403510D01*
X0442945Y0403480D01*
X0442811Y0403454D01*
X0442676Y0403433D01*
X0442541Y0403415D01*
X0442405Y0403401D01*
X0442268Y0403391D01*
X0442132Y0403385D01*
X0441995Y0403383D01*
X0441858Y0403385D01*
X0441722Y0403391D01*
X0441585Y0403401D01*
X0441449Y0403415D01*
X0441314Y0403433D01*
X0441179Y0403454D01*
X0441045Y0403480D01*
X0440911Y0403510D01*
X0440779Y0403543D01*
X0440647Y0403580D01*
X0440517Y0403622D01*
X0440388Y0403666D01*
X0440260Y0403715D01*
X0440133Y0403767D01*
X0440009Y0403823D01*
X0439886Y0403883D01*
X0439764Y0403946D01*
X0439645Y0404013D01*
X0439528Y0404083D01*
X0439412Y0404156D01*
X0439299Y0404233D01*
X0439188Y0404313D01*
X0439080Y0404396D01*
X0438974Y0404483D01*
X0438870Y0404572D01*
X0438770Y0404664D01*
X0438672Y0404760D01*
X0438576Y0404858D01*
X0438484Y0404958D01*
X0438395Y0405062D01*
X0438308Y0405168D01*
X0438225Y0405276D01*
X0438145Y0405387D01*
X0438068Y0405500D01*
X0437995Y0405616D01*
X0437925Y0405733D01*
X0437858Y0405852D01*
X0437795Y0405974D01*
X0437735Y0406097D01*
X0437679Y0406221D01*
X0437627Y0406348D01*
X0437578Y0406476D01*
X0437534Y0406605D01*
X0437492Y0406735D01*
X0437455Y0406867D01*
X0437422Y0406999D01*
X0437392Y0407133D01*
X0437366Y0407267D01*
X0437345Y0407402D01*
X0437327Y0407537D01*
X0437313Y0407673D01*
X0437303Y0407810D01*
X0437297Y0407946D01*
X0437295Y0408083D01*
X0413485Y0377122D02*
X0413487Y0377280D01*
X0413493Y0377438D01*
X0413503Y0377596D01*
X0413517Y0377754D01*
X0413535Y0377911D01*
X0413556Y0378068D01*
X0413582Y0378224D01*
X0413612Y0378380D01*
X0413645Y0378535D01*
X0413683Y0378688D01*
X0413724Y0378841D01*
X0413769Y0378993D01*
X0413818Y0379144D01*
X0413871Y0379293D01*
X0413927Y0379441D01*
X0413987Y0379587D01*
X0414051Y0379732D01*
X0414119Y0379875D01*
X0414190Y0380017D01*
X0414264Y0380157D01*
X0414342Y0380294D01*
X0414424Y0380430D01*
X0414508Y0380564D01*
X0414597Y0380695D01*
X0414688Y0380824D01*
X0414783Y0380951D01*
X0414880Y0381076D01*
X0414981Y0381198D01*
X0415085Y0381317D01*
X0415192Y0381434D01*
X0415302Y0381548D01*
X0415415Y0381659D01*
X0415530Y0381768D01*
X0415648Y0381873D01*
X0415769Y0381975D01*
X0415892Y0382075D01*
X0416018Y0382171D01*
X0416146Y0382264D01*
X0416276Y0382354D01*
X0416409Y0382440D01*
X0416544Y0382524D01*
X0416680Y0382603D01*
X0416819Y0382680D01*
X0416960Y0382752D01*
X0417102Y0382822D01*
X0417246Y0382887D01*
X0417392Y0382949D01*
X0417539Y0383007D01*
X0417688Y0383062D01*
X0417838Y0383113D01*
X0417989Y0383160D01*
X0418141Y0383203D01*
X0418294Y0383242D01*
X0418449Y0383278D01*
X0418604Y0383309D01*
X0418760Y0383337D01*
X0418916Y0383361D01*
X0419073Y0383381D01*
X0419231Y0383397D01*
X0419388Y0383409D01*
X0419547Y0383417D01*
X0419705Y0383421D01*
X0419863Y0383421D01*
X0420021Y0383417D01*
X0420180Y0383409D01*
X0420337Y0383397D01*
X0420495Y0383381D01*
X0420652Y0383361D01*
X0420808Y0383337D01*
X0420964Y0383309D01*
X0421119Y0383278D01*
X0421274Y0383242D01*
X0421427Y0383203D01*
X0421579Y0383160D01*
X0421730Y0383113D01*
X0421880Y0383062D01*
X0422029Y0383007D01*
X0422176Y0382949D01*
X0422322Y0382887D01*
X0422466Y0382822D01*
X0422608Y0382752D01*
X0422749Y0382680D01*
X0422888Y0382603D01*
X0423024Y0382524D01*
X0423159Y0382440D01*
X0423292Y0382354D01*
X0423422Y0382264D01*
X0423550Y0382171D01*
X0423676Y0382075D01*
X0423799Y0381975D01*
X0423920Y0381873D01*
X0424038Y0381768D01*
X0424153Y0381659D01*
X0424266Y0381548D01*
X0424376Y0381434D01*
X0424483Y0381317D01*
X0424587Y0381198D01*
X0424688Y0381076D01*
X0424785Y0380951D01*
X0424880Y0380824D01*
X0424971Y0380695D01*
X0425060Y0380564D01*
X0425144Y0380430D01*
X0425226Y0380294D01*
X0425304Y0380157D01*
X0425378Y0380017D01*
X0425449Y0379875D01*
X0425517Y0379732D01*
X0425581Y0379587D01*
X0425641Y0379441D01*
X0425697Y0379293D01*
X0425750Y0379144D01*
X0425799Y0378993D01*
X0425844Y0378841D01*
X0425885Y0378688D01*
X0425923Y0378535D01*
X0425956Y0378380D01*
X0425986Y0378224D01*
X0426012Y0378068D01*
X0426033Y0377911D01*
X0426051Y0377754D01*
X0426065Y0377596D01*
X0426075Y0377438D01*
X0426081Y0377280D01*
X0426083Y0377122D01*
X0426081Y0376964D01*
X0426075Y0376806D01*
X0426065Y0376648D01*
X0426051Y0376490D01*
X0426033Y0376333D01*
X0426012Y0376176D01*
X0425986Y0376020D01*
X0425956Y0375864D01*
X0425923Y0375709D01*
X0425885Y0375556D01*
X0425844Y0375403D01*
X0425799Y0375251D01*
X0425750Y0375100D01*
X0425697Y0374951D01*
X0425641Y0374803D01*
X0425581Y0374657D01*
X0425517Y0374512D01*
X0425449Y0374369D01*
X0425378Y0374227D01*
X0425304Y0374087D01*
X0425226Y0373950D01*
X0425144Y0373814D01*
X0425060Y0373680D01*
X0424971Y0373549D01*
X0424880Y0373420D01*
X0424785Y0373293D01*
X0424688Y0373168D01*
X0424587Y0373046D01*
X0424483Y0372927D01*
X0424376Y0372810D01*
X0424266Y0372696D01*
X0424153Y0372585D01*
X0424038Y0372476D01*
X0423920Y0372371D01*
X0423799Y0372269D01*
X0423676Y0372169D01*
X0423550Y0372073D01*
X0423422Y0371980D01*
X0423292Y0371890D01*
X0423159Y0371804D01*
X0423024Y0371720D01*
X0422888Y0371641D01*
X0422749Y0371564D01*
X0422608Y0371492D01*
X0422466Y0371422D01*
X0422322Y0371357D01*
X0422176Y0371295D01*
X0422029Y0371237D01*
X0421880Y0371182D01*
X0421730Y0371131D01*
X0421579Y0371084D01*
X0421427Y0371041D01*
X0421274Y0371002D01*
X0421119Y0370966D01*
X0420964Y0370935D01*
X0420808Y0370907D01*
X0420652Y0370883D01*
X0420495Y0370863D01*
X0420337Y0370847D01*
X0420180Y0370835D01*
X0420021Y0370827D01*
X0419863Y0370823D01*
X0419705Y0370823D01*
X0419547Y0370827D01*
X0419388Y0370835D01*
X0419231Y0370847D01*
X0419073Y0370863D01*
X0418916Y0370883D01*
X0418760Y0370907D01*
X0418604Y0370935D01*
X0418449Y0370966D01*
X0418294Y0371002D01*
X0418141Y0371041D01*
X0417989Y0371084D01*
X0417838Y0371131D01*
X0417688Y0371182D01*
X0417539Y0371237D01*
X0417392Y0371295D01*
X0417246Y0371357D01*
X0417102Y0371422D01*
X0416960Y0371492D01*
X0416819Y0371564D01*
X0416680Y0371641D01*
X0416544Y0371720D01*
X0416409Y0371804D01*
X0416276Y0371890D01*
X0416146Y0371980D01*
X0416018Y0372073D01*
X0415892Y0372169D01*
X0415769Y0372269D01*
X0415648Y0372371D01*
X0415530Y0372476D01*
X0415415Y0372585D01*
X0415302Y0372696D01*
X0415192Y0372810D01*
X0415085Y0372927D01*
X0414981Y0373046D01*
X0414880Y0373168D01*
X0414783Y0373293D01*
X0414688Y0373420D01*
X0414597Y0373549D01*
X0414508Y0373680D01*
X0414424Y0373814D01*
X0414342Y0373950D01*
X0414264Y0374087D01*
X0414190Y0374227D01*
X0414119Y0374369D01*
X0414051Y0374512D01*
X0413987Y0374657D01*
X0413927Y0374803D01*
X0413871Y0374951D01*
X0413818Y0375100D01*
X0413769Y0375251D01*
X0413724Y0375403D01*
X0413683Y0375556D01*
X0413645Y0375709D01*
X0413612Y0375864D01*
X0413582Y0376020D01*
X0413556Y0376176D01*
X0413535Y0376333D01*
X0413517Y0376490D01*
X0413503Y0376648D01*
X0413493Y0376806D01*
X0413487Y0376964D01*
X0413485Y0377122D01*
X0515823Y0411272D02*
X0515825Y0411356D01*
X0515831Y0411439D01*
X0515841Y0411522D01*
X0515855Y0411605D01*
X0515872Y0411687D01*
X0515894Y0411768D01*
X0515919Y0411847D01*
X0515948Y0411926D01*
X0515981Y0412003D01*
X0516017Y0412078D01*
X0516057Y0412152D01*
X0516100Y0412224D01*
X0516147Y0412293D01*
X0516197Y0412360D01*
X0516250Y0412425D01*
X0516306Y0412487D01*
X0516364Y0412547D01*
X0516426Y0412604D01*
X0516490Y0412657D01*
X0516557Y0412708D01*
X0516626Y0412755D01*
X0516697Y0412800D01*
X0516770Y0412840D01*
X0516845Y0412877D01*
X0516922Y0412911D01*
X0517000Y0412941D01*
X0517079Y0412967D01*
X0517160Y0412990D01*
X0517242Y0413008D01*
X0517324Y0413023D01*
X0517407Y0413034D01*
X0517490Y0413041D01*
X0517574Y0413044D01*
X0517658Y0413043D01*
X0517741Y0413038D01*
X0517825Y0413029D01*
X0517907Y0413016D01*
X0517989Y0413000D01*
X0518070Y0412979D01*
X0518151Y0412955D01*
X0518229Y0412927D01*
X0518307Y0412895D01*
X0518383Y0412859D01*
X0518457Y0412820D01*
X0518529Y0412778D01*
X0518599Y0412732D01*
X0518667Y0412683D01*
X0518732Y0412631D01*
X0518795Y0412576D01*
X0518855Y0412518D01*
X0518913Y0412457D01*
X0518967Y0412393D01*
X0519019Y0412327D01*
X0519067Y0412259D01*
X0519112Y0412188D01*
X0519153Y0412115D01*
X0519192Y0412041D01*
X0519226Y0411965D01*
X0519257Y0411887D01*
X0519284Y0411808D01*
X0519308Y0411727D01*
X0519327Y0411646D01*
X0519343Y0411564D01*
X0519355Y0411481D01*
X0519363Y0411397D01*
X0519367Y0411314D01*
X0519367Y0411230D01*
X0519363Y0411147D01*
X0519355Y0411063D01*
X0519343Y0410980D01*
X0519327Y0410898D01*
X0519308Y0410817D01*
X0519284Y0410736D01*
X0519257Y0410657D01*
X0519226Y0410579D01*
X0519192Y0410503D01*
X0519153Y0410429D01*
X0519112Y0410356D01*
X0519067Y0410285D01*
X0519019Y0410217D01*
X0518967Y0410151D01*
X0518913Y0410087D01*
X0518855Y0410026D01*
X0518795Y0409968D01*
X0518732Y0409913D01*
X0518667Y0409861D01*
X0518599Y0409812D01*
X0518529Y0409766D01*
X0518457Y0409724D01*
X0518383Y0409685D01*
X0518307Y0409649D01*
X0518229Y0409617D01*
X0518151Y0409589D01*
X0518070Y0409565D01*
X0517989Y0409544D01*
X0517907Y0409528D01*
X0517825Y0409515D01*
X0517741Y0409506D01*
X0517658Y0409501D01*
X0517574Y0409500D01*
X0517490Y0409503D01*
X0517407Y0409510D01*
X0517324Y0409521D01*
X0517242Y0409536D01*
X0517160Y0409554D01*
X0517079Y0409577D01*
X0517000Y0409603D01*
X0516922Y0409633D01*
X0516845Y0409667D01*
X0516770Y0409704D01*
X0516697Y0409744D01*
X0516626Y0409789D01*
X0516557Y0409836D01*
X0516490Y0409887D01*
X0516426Y0409940D01*
X0516364Y0409997D01*
X0516306Y0410057D01*
X0516250Y0410119D01*
X0516197Y0410184D01*
X0516147Y0410251D01*
X0516100Y0410320D01*
X0516057Y0410392D01*
X0516017Y0410466D01*
X0515981Y0410541D01*
X0515948Y0410618D01*
X0515919Y0410697D01*
X0515894Y0410776D01*
X0515872Y0410857D01*
X0515855Y0410939D01*
X0515841Y0411022D01*
X0515831Y0411105D01*
X0515825Y0411188D01*
X0515823Y0411272D01*
X0515823Y0428594D02*
X0515825Y0428678D01*
X0515831Y0428761D01*
X0515841Y0428844D01*
X0515855Y0428927D01*
X0515872Y0429009D01*
X0515894Y0429090D01*
X0515919Y0429169D01*
X0515948Y0429248D01*
X0515981Y0429325D01*
X0516017Y0429400D01*
X0516057Y0429474D01*
X0516100Y0429546D01*
X0516147Y0429615D01*
X0516197Y0429682D01*
X0516250Y0429747D01*
X0516306Y0429809D01*
X0516364Y0429869D01*
X0516426Y0429926D01*
X0516490Y0429979D01*
X0516557Y0430030D01*
X0516626Y0430077D01*
X0516697Y0430122D01*
X0516770Y0430162D01*
X0516845Y0430199D01*
X0516922Y0430233D01*
X0517000Y0430263D01*
X0517079Y0430289D01*
X0517160Y0430312D01*
X0517242Y0430330D01*
X0517324Y0430345D01*
X0517407Y0430356D01*
X0517490Y0430363D01*
X0517574Y0430366D01*
X0517658Y0430365D01*
X0517741Y0430360D01*
X0517825Y0430351D01*
X0517907Y0430338D01*
X0517989Y0430322D01*
X0518070Y0430301D01*
X0518151Y0430277D01*
X0518229Y0430249D01*
X0518307Y0430217D01*
X0518383Y0430181D01*
X0518457Y0430142D01*
X0518529Y0430100D01*
X0518599Y0430054D01*
X0518667Y0430005D01*
X0518732Y0429953D01*
X0518795Y0429898D01*
X0518855Y0429840D01*
X0518913Y0429779D01*
X0518967Y0429715D01*
X0519019Y0429649D01*
X0519067Y0429581D01*
X0519112Y0429510D01*
X0519153Y0429437D01*
X0519192Y0429363D01*
X0519226Y0429287D01*
X0519257Y0429209D01*
X0519284Y0429130D01*
X0519308Y0429049D01*
X0519327Y0428968D01*
X0519343Y0428886D01*
X0519355Y0428803D01*
X0519363Y0428719D01*
X0519367Y0428636D01*
X0519367Y0428552D01*
X0519363Y0428469D01*
X0519355Y0428385D01*
X0519343Y0428302D01*
X0519327Y0428220D01*
X0519308Y0428139D01*
X0519284Y0428058D01*
X0519257Y0427979D01*
X0519226Y0427901D01*
X0519192Y0427825D01*
X0519153Y0427751D01*
X0519112Y0427678D01*
X0519067Y0427607D01*
X0519019Y0427539D01*
X0518967Y0427473D01*
X0518913Y0427409D01*
X0518855Y0427348D01*
X0518795Y0427290D01*
X0518732Y0427235D01*
X0518667Y0427183D01*
X0518599Y0427134D01*
X0518529Y0427088D01*
X0518457Y0427046D01*
X0518383Y0427007D01*
X0518307Y0426971D01*
X0518229Y0426939D01*
X0518151Y0426911D01*
X0518070Y0426887D01*
X0517989Y0426866D01*
X0517907Y0426850D01*
X0517825Y0426837D01*
X0517741Y0426828D01*
X0517658Y0426823D01*
X0517574Y0426822D01*
X0517490Y0426825D01*
X0517407Y0426832D01*
X0517324Y0426843D01*
X0517242Y0426858D01*
X0517160Y0426876D01*
X0517079Y0426899D01*
X0517000Y0426925D01*
X0516922Y0426955D01*
X0516845Y0426989D01*
X0516770Y0427026D01*
X0516697Y0427066D01*
X0516626Y0427111D01*
X0516557Y0427158D01*
X0516490Y0427209D01*
X0516426Y0427262D01*
X0516364Y0427319D01*
X0516306Y0427379D01*
X0516250Y0427441D01*
X0516197Y0427506D01*
X0516147Y0427573D01*
X0516100Y0427642D01*
X0516057Y0427714D01*
X0516017Y0427788D01*
X0515981Y0427863D01*
X0515948Y0427940D01*
X0515919Y0428019D01*
X0515894Y0428098D01*
X0515872Y0428179D01*
X0515855Y0428261D01*
X0515841Y0428344D01*
X0515831Y0428427D01*
X0515825Y0428510D01*
X0515823Y0428594D01*
X0413485Y0242870D02*
X0413487Y0243028D01*
X0413493Y0243186D01*
X0413503Y0243344D01*
X0413517Y0243502D01*
X0413535Y0243659D01*
X0413556Y0243816D01*
X0413582Y0243972D01*
X0413612Y0244128D01*
X0413645Y0244283D01*
X0413683Y0244436D01*
X0413724Y0244589D01*
X0413769Y0244741D01*
X0413818Y0244892D01*
X0413871Y0245041D01*
X0413927Y0245189D01*
X0413987Y0245335D01*
X0414051Y0245480D01*
X0414119Y0245623D01*
X0414190Y0245765D01*
X0414264Y0245905D01*
X0414342Y0246042D01*
X0414424Y0246178D01*
X0414508Y0246312D01*
X0414597Y0246443D01*
X0414688Y0246572D01*
X0414783Y0246699D01*
X0414880Y0246824D01*
X0414981Y0246946D01*
X0415085Y0247065D01*
X0415192Y0247182D01*
X0415302Y0247296D01*
X0415415Y0247407D01*
X0415530Y0247516D01*
X0415648Y0247621D01*
X0415769Y0247723D01*
X0415892Y0247823D01*
X0416018Y0247919D01*
X0416146Y0248012D01*
X0416276Y0248102D01*
X0416409Y0248188D01*
X0416544Y0248272D01*
X0416680Y0248351D01*
X0416819Y0248428D01*
X0416960Y0248500D01*
X0417102Y0248570D01*
X0417246Y0248635D01*
X0417392Y0248697D01*
X0417539Y0248755D01*
X0417688Y0248810D01*
X0417838Y0248861D01*
X0417989Y0248908D01*
X0418141Y0248951D01*
X0418294Y0248990D01*
X0418449Y0249026D01*
X0418604Y0249057D01*
X0418760Y0249085D01*
X0418916Y0249109D01*
X0419073Y0249129D01*
X0419231Y0249145D01*
X0419388Y0249157D01*
X0419547Y0249165D01*
X0419705Y0249169D01*
X0419863Y0249169D01*
X0420021Y0249165D01*
X0420180Y0249157D01*
X0420337Y0249145D01*
X0420495Y0249129D01*
X0420652Y0249109D01*
X0420808Y0249085D01*
X0420964Y0249057D01*
X0421119Y0249026D01*
X0421274Y0248990D01*
X0421427Y0248951D01*
X0421579Y0248908D01*
X0421730Y0248861D01*
X0421880Y0248810D01*
X0422029Y0248755D01*
X0422176Y0248697D01*
X0422322Y0248635D01*
X0422466Y0248570D01*
X0422608Y0248500D01*
X0422749Y0248428D01*
X0422888Y0248351D01*
X0423024Y0248272D01*
X0423159Y0248188D01*
X0423292Y0248102D01*
X0423422Y0248012D01*
X0423550Y0247919D01*
X0423676Y0247823D01*
X0423799Y0247723D01*
X0423920Y0247621D01*
X0424038Y0247516D01*
X0424153Y0247407D01*
X0424266Y0247296D01*
X0424376Y0247182D01*
X0424483Y0247065D01*
X0424587Y0246946D01*
X0424688Y0246824D01*
X0424785Y0246699D01*
X0424880Y0246572D01*
X0424971Y0246443D01*
X0425060Y0246312D01*
X0425144Y0246178D01*
X0425226Y0246042D01*
X0425304Y0245905D01*
X0425378Y0245765D01*
X0425449Y0245623D01*
X0425517Y0245480D01*
X0425581Y0245335D01*
X0425641Y0245189D01*
X0425697Y0245041D01*
X0425750Y0244892D01*
X0425799Y0244741D01*
X0425844Y0244589D01*
X0425885Y0244436D01*
X0425923Y0244283D01*
X0425956Y0244128D01*
X0425986Y0243972D01*
X0426012Y0243816D01*
X0426033Y0243659D01*
X0426051Y0243502D01*
X0426065Y0243344D01*
X0426075Y0243186D01*
X0426081Y0243028D01*
X0426083Y0242870D01*
X0426081Y0242712D01*
X0426075Y0242554D01*
X0426065Y0242396D01*
X0426051Y0242238D01*
X0426033Y0242081D01*
X0426012Y0241924D01*
X0425986Y0241768D01*
X0425956Y0241612D01*
X0425923Y0241457D01*
X0425885Y0241304D01*
X0425844Y0241151D01*
X0425799Y0240999D01*
X0425750Y0240848D01*
X0425697Y0240699D01*
X0425641Y0240551D01*
X0425581Y0240405D01*
X0425517Y0240260D01*
X0425449Y0240117D01*
X0425378Y0239975D01*
X0425304Y0239835D01*
X0425226Y0239698D01*
X0425144Y0239562D01*
X0425060Y0239428D01*
X0424971Y0239297D01*
X0424880Y0239168D01*
X0424785Y0239041D01*
X0424688Y0238916D01*
X0424587Y0238794D01*
X0424483Y0238675D01*
X0424376Y0238558D01*
X0424266Y0238444D01*
X0424153Y0238333D01*
X0424038Y0238224D01*
X0423920Y0238119D01*
X0423799Y0238017D01*
X0423676Y0237917D01*
X0423550Y0237821D01*
X0423422Y0237728D01*
X0423292Y0237638D01*
X0423159Y0237552D01*
X0423024Y0237468D01*
X0422888Y0237389D01*
X0422749Y0237312D01*
X0422608Y0237240D01*
X0422466Y0237170D01*
X0422322Y0237105D01*
X0422176Y0237043D01*
X0422029Y0236985D01*
X0421880Y0236930D01*
X0421730Y0236879D01*
X0421579Y0236832D01*
X0421427Y0236789D01*
X0421274Y0236750D01*
X0421119Y0236714D01*
X0420964Y0236683D01*
X0420808Y0236655D01*
X0420652Y0236631D01*
X0420495Y0236611D01*
X0420337Y0236595D01*
X0420180Y0236583D01*
X0420021Y0236575D01*
X0419863Y0236571D01*
X0419705Y0236571D01*
X0419547Y0236575D01*
X0419388Y0236583D01*
X0419231Y0236595D01*
X0419073Y0236611D01*
X0418916Y0236631D01*
X0418760Y0236655D01*
X0418604Y0236683D01*
X0418449Y0236714D01*
X0418294Y0236750D01*
X0418141Y0236789D01*
X0417989Y0236832D01*
X0417838Y0236879D01*
X0417688Y0236930D01*
X0417539Y0236985D01*
X0417392Y0237043D01*
X0417246Y0237105D01*
X0417102Y0237170D01*
X0416960Y0237240D01*
X0416819Y0237312D01*
X0416680Y0237389D01*
X0416544Y0237468D01*
X0416409Y0237552D01*
X0416276Y0237638D01*
X0416146Y0237728D01*
X0416018Y0237821D01*
X0415892Y0237917D01*
X0415769Y0238017D01*
X0415648Y0238119D01*
X0415530Y0238224D01*
X0415415Y0238333D01*
X0415302Y0238444D01*
X0415192Y0238558D01*
X0415085Y0238675D01*
X0414981Y0238794D01*
X0414880Y0238916D01*
X0414783Y0239041D01*
X0414688Y0239168D01*
X0414597Y0239297D01*
X0414508Y0239428D01*
X0414424Y0239562D01*
X0414342Y0239698D01*
X0414264Y0239835D01*
X0414190Y0239975D01*
X0414119Y0240117D01*
X0414051Y0240260D01*
X0413987Y0240405D01*
X0413927Y0240551D01*
X0413871Y0240699D01*
X0413818Y0240848D01*
X0413769Y0240999D01*
X0413724Y0241151D01*
X0413683Y0241304D01*
X0413645Y0241457D01*
X0413612Y0241612D01*
X0413582Y0241768D01*
X0413556Y0241924D01*
X0413535Y0242081D01*
X0413517Y0242238D01*
X0413503Y0242396D01*
X0413493Y0242554D01*
X0413487Y0242712D01*
X0413485Y0242870D01*
X0358878Y0179287D02*
X0358880Y0179366D01*
X0358886Y0179445D01*
X0358896Y0179524D01*
X0358910Y0179602D01*
X0358927Y0179679D01*
X0358949Y0179755D01*
X0358974Y0179830D01*
X0359004Y0179903D01*
X0359036Y0179975D01*
X0359073Y0180046D01*
X0359113Y0180114D01*
X0359156Y0180180D01*
X0359202Y0180244D01*
X0359252Y0180306D01*
X0359305Y0180365D01*
X0359360Y0180421D01*
X0359419Y0180475D01*
X0359480Y0180525D01*
X0359543Y0180573D01*
X0359609Y0180617D01*
X0359677Y0180658D01*
X0359747Y0180695D01*
X0359818Y0180729D01*
X0359892Y0180759D01*
X0359966Y0180785D01*
X0360042Y0180807D01*
X0360119Y0180826D01*
X0360197Y0180841D01*
X0360275Y0180852D01*
X0360354Y0180859D01*
X0360433Y0180862D01*
X0360512Y0180861D01*
X0360591Y0180856D01*
X0360670Y0180847D01*
X0360748Y0180834D01*
X0360825Y0180817D01*
X0360902Y0180797D01*
X0360977Y0180772D01*
X0361051Y0180744D01*
X0361124Y0180712D01*
X0361194Y0180677D01*
X0361263Y0180638D01*
X0361330Y0180595D01*
X0361395Y0180549D01*
X0361457Y0180501D01*
X0361517Y0180449D01*
X0361574Y0180394D01*
X0361628Y0180336D01*
X0361679Y0180276D01*
X0361727Y0180213D01*
X0361772Y0180148D01*
X0361814Y0180080D01*
X0361852Y0180011D01*
X0361886Y0179940D01*
X0361917Y0179867D01*
X0361945Y0179792D01*
X0361968Y0179717D01*
X0361988Y0179640D01*
X0362004Y0179563D01*
X0362016Y0179484D01*
X0362024Y0179406D01*
X0362028Y0179327D01*
X0362028Y0179247D01*
X0362024Y0179168D01*
X0362016Y0179090D01*
X0362004Y0179011D01*
X0361988Y0178934D01*
X0361968Y0178857D01*
X0361945Y0178782D01*
X0361917Y0178707D01*
X0361886Y0178634D01*
X0361852Y0178563D01*
X0361814Y0178494D01*
X0361772Y0178426D01*
X0361727Y0178361D01*
X0361679Y0178298D01*
X0361628Y0178238D01*
X0361574Y0178180D01*
X0361517Y0178125D01*
X0361457Y0178073D01*
X0361395Y0178025D01*
X0361330Y0177979D01*
X0361263Y0177936D01*
X0361194Y0177897D01*
X0361124Y0177862D01*
X0361051Y0177830D01*
X0360977Y0177802D01*
X0360902Y0177777D01*
X0360825Y0177757D01*
X0360748Y0177740D01*
X0360670Y0177727D01*
X0360591Y0177718D01*
X0360512Y0177713D01*
X0360433Y0177712D01*
X0360354Y0177715D01*
X0360275Y0177722D01*
X0360197Y0177733D01*
X0360119Y0177748D01*
X0360042Y0177767D01*
X0359966Y0177789D01*
X0359892Y0177815D01*
X0359818Y0177845D01*
X0359747Y0177879D01*
X0359677Y0177916D01*
X0359609Y0177957D01*
X0359543Y0178001D01*
X0359480Y0178049D01*
X0359419Y0178099D01*
X0359360Y0178153D01*
X0359305Y0178209D01*
X0359252Y0178268D01*
X0359202Y0178330D01*
X0359156Y0178394D01*
X0359113Y0178460D01*
X0359073Y0178528D01*
X0359036Y0178599D01*
X0359004Y0178671D01*
X0358974Y0178744D01*
X0358949Y0178819D01*
X0358927Y0178895D01*
X0358910Y0178972D01*
X0358896Y0179050D01*
X0358886Y0179129D01*
X0358880Y0179208D01*
X0358878Y0179287D01*
X0334666Y0155075D02*
X0334668Y0155154D01*
X0334674Y0155233D01*
X0334684Y0155312D01*
X0334698Y0155390D01*
X0334715Y0155467D01*
X0334737Y0155543D01*
X0334762Y0155618D01*
X0334792Y0155691D01*
X0334824Y0155763D01*
X0334861Y0155834D01*
X0334901Y0155902D01*
X0334944Y0155968D01*
X0334990Y0156032D01*
X0335040Y0156094D01*
X0335093Y0156153D01*
X0335148Y0156209D01*
X0335207Y0156263D01*
X0335268Y0156313D01*
X0335331Y0156361D01*
X0335397Y0156405D01*
X0335465Y0156446D01*
X0335535Y0156483D01*
X0335606Y0156517D01*
X0335680Y0156547D01*
X0335754Y0156573D01*
X0335830Y0156595D01*
X0335907Y0156614D01*
X0335985Y0156629D01*
X0336063Y0156640D01*
X0336142Y0156647D01*
X0336221Y0156650D01*
X0336300Y0156649D01*
X0336379Y0156644D01*
X0336458Y0156635D01*
X0336536Y0156622D01*
X0336613Y0156605D01*
X0336690Y0156585D01*
X0336765Y0156560D01*
X0336839Y0156532D01*
X0336912Y0156500D01*
X0336982Y0156465D01*
X0337051Y0156426D01*
X0337118Y0156383D01*
X0337183Y0156337D01*
X0337245Y0156289D01*
X0337305Y0156237D01*
X0337362Y0156182D01*
X0337416Y0156124D01*
X0337467Y0156064D01*
X0337515Y0156001D01*
X0337560Y0155936D01*
X0337602Y0155868D01*
X0337640Y0155799D01*
X0337674Y0155728D01*
X0337705Y0155655D01*
X0337733Y0155580D01*
X0337756Y0155505D01*
X0337776Y0155428D01*
X0337792Y0155351D01*
X0337804Y0155272D01*
X0337812Y0155194D01*
X0337816Y0155115D01*
X0337816Y0155035D01*
X0337812Y0154956D01*
X0337804Y0154878D01*
X0337792Y0154799D01*
X0337776Y0154722D01*
X0337756Y0154645D01*
X0337733Y0154570D01*
X0337705Y0154495D01*
X0337674Y0154422D01*
X0337640Y0154351D01*
X0337602Y0154282D01*
X0337560Y0154214D01*
X0337515Y0154149D01*
X0337467Y0154086D01*
X0337416Y0154026D01*
X0337362Y0153968D01*
X0337305Y0153913D01*
X0337245Y0153861D01*
X0337183Y0153813D01*
X0337118Y0153767D01*
X0337051Y0153724D01*
X0336982Y0153685D01*
X0336912Y0153650D01*
X0336839Y0153618D01*
X0336765Y0153590D01*
X0336690Y0153565D01*
X0336613Y0153545D01*
X0336536Y0153528D01*
X0336458Y0153515D01*
X0336379Y0153506D01*
X0336300Y0153501D01*
X0336221Y0153500D01*
X0336142Y0153503D01*
X0336063Y0153510D01*
X0335985Y0153521D01*
X0335907Y0153536D01*
X0335830Y0153555D01*
X0335754Y0153577D01*
X0335680Y0153603D01*
X0335606Y0153633D01*
X0335535Y0153667D01*
X0335465Y0153704D01*
X0335397Y0153745D01*
X0335331Y0153789D01*
X0335268Y0153837D01*
X0335207Y0153887D01*
X0335148Y0153941D01*
X0335093Y0153997D01*
X0335040Y0154056D01*
X0334990Y0154118D01*
X0334944Y0154182D01*
X0334901Y0154248D01*
X0334861Y0154316D01*
X0334824Y0154387D01*
X0334792Y0154459D01*
X0334762Y0154532D01*
X0334737Y0154607D01*
X0334715Y0154683D01*
X0334698Y0154760D01*
X0334684Y0154838D01*
X0334674Y0154917D01*
X0334668Y0154996D01*
X0334666Y0155075D01*
X0496595Y0121433D02*
X0496599Y0121740D01*
X0496610Y0122046D01*
X0496629Y0122353D01*
X0496655Y0122658D01*
X0496689Y0122963D01*
X0496730Y0123267D01*
X0496779Y0123570D01*
X0496835Y0123872D01*
X0496899Y0124172D01*
X0496970Y0124470D01*
X0497048Y0124767D01*
X0497133Y0125062D01*
X0497226Y0125354D01*
X0497326Y0125644D01*
X0497433Y0125932D01*
X0497547Y0126217D01*
X0497667Y0126499D01*
X0497795Y0126777D01*
X0497930Y0127053D01*
X0498071Y0127325D01*
X0498219Y0127594D01*
X0498373Y0127859D01*
X0498534Y0128120D01*
X0498702Y0128378D01*
X0498875Y0128631D01*
X0499055Y0128879D01*
X0499241Y0129123D01*
X0499432Y0129363D01*
X0499630Y0129598D01*
X0499833Y0129827D01*
X0500042Y0130052D01*
X0500256Y0130272D01*
X0500476Y0130486D01*
X0500701Y0130695D01*
X0500930Y0130898D01*
X0501165Y0131096D01*
X0501405Y0131287D01*
X0501649Y0131473D01*
X0501897Y0131653D01*
X0502150Y0131826D01*
X0502408Y0131994D01*
X0502669Y0132155D01*
X0502934Y0132309D01*
X0503203Y0132457D01*
X0503475Y0132598D01*
X0503751Y0132733D01*
X0504029Y0132861D01*
X0504311Y0132981D01*
X0504596Y0133095D01*
X0504884Y0133202D01*
X0505174Y0133302D01*
X0505466Y0133395D01*
X0505761Y0133480D01*
X0506058Y0133558D01*
X0506356Y0133629D01*
X0506656Y0133693D01*
X0506958Y0133749D01*
X0507261Y0133798D01*
X0507565Y0133839D01*
X0507870Y0133873D01*
X0508175Y0133899D01*
X0508482Y0133918D01*
X0508788Y0133929D01*
X0509095Y0133933D01*
X0509402Y0133929D01*
X0509708Y0133918D01*
X0510015Y0133899D01*
X0510320Y0133873D01*
X0510625Y0133839D01*
X0510929Y0133798D01*
X0511232Y0133749D01*
X0511534Y0133693D01*
X0511834Y0133629D01*
X0512132Y0133558D01*
X0512429Y0133480D01*
X0512724Y0133395D01*
X0513016Y0133302D01*
X0513306Y0133202D01*
X0513594Y0133095D01*
X0513879Y0132981D01*
X0514161Y0132861D01*
X0514439Y0132733D01*
X0514715Y0132598D01*
X0514987Y0132457D01*
X0515256Y0132309D01*
X0515521Y0132155D01*
X0515782Y0131994D01*
X0516040Y0131826D01*
X0516293Y0131653D01*
X0516541Y0131473D01*
X0516785Y0131287D01*
X0517025Y0131096D01*
X0517260Y0130898D01*
X0517489Y0130695D01*
X0517714Y0130486D01*
X0517934Y0130272D01*
X0518148Y0130052D01*
X0518357Y0129827D01*
X0518560Y0129598D01*
X0518758Y0129363D01*
X0518949Y0129123D01*
X0519135Y0128879D01*
X0519315Y0128631D01*
X0519488Y0128378D01*
X0519656Y0128120D01*
X0519817Y0127859D01*
X0519971Y0127594D01*
X0520119Y0127325D01*
X0520260Y0127053D01*
X0520395Y0126777D01*
X0520523Y0126499D01*
X0520643Y0126217D01*
X0520757Y0125932D01*
X0520864Y0125644D01*
X0520964Y0125354D01*
X0521057Y0125062D01*
X0521142Y0124767D01*
X0521220Y0124470D01*
X0521291Y0124172D01*
X0521355Y0123872D01*
X0521411Y0123570D01*
X0521460Y0123267D01*
X0521501Y0122963D01*
X0521535Y0122658D01*
X0521561Y0122353D01*
X0521580Y0122046D01*
X0521591Y0121740D01*
X0521595Y0121433D01*
X0521591Y0121126D01*
X0521580Y0120820D01*
X0521561Y0120513D01*
X0521535Y0120208D01*
X0521501Y0119903D01*
X0521460Y0119599D01*
X0521411Y0119296D01*
X0521355Y0118994D01*
X0521291Y0118694D01*
X0521220Y0118396D01*
X0521142Y0118099D01*
X0521057Y0117804D01*
X0520964Y0117512D01*
X0520864Y0117222D01*
X0520757Y0116934D01*
X0520643Y0116649D01*
X0520523Y0116367D01*
X0520395Y0116089D01*
X0520260Y0115813D01*
X0520119Y0115541D01*
X0519971Y0115272D01*
X0519817Y0115007D01*
X0519656Y0114746D01*
X0519488Y0114488D01*
X0519315Y0114235D01*
X0519135Y0113987D01*
X0518949Y0113743D01*
X0518758Y0113503D01*
X0518560Y0113268D01*
X0518357Y0113039D01*
X0518148Y0112814D01*
X0517934Y0112594D01*
X0517714Y0112380D01*
X0517489Y0112171D01*
X0517260Y0111968D01*
X0517025Y0111770D01*
X0516785Y0111579D01*
X0516541Y0111393D01*
X0516293Y0111213D01*
X0516040Y0111040D01*
X0515782Y0110872D01*
X0515521Y0110711D01*
X0515256Y0110557D01*
X0514987Y0110409D01*
X0514715Y0110268D01*
X0514439Y0110133D01*
X0514161Y0110005D01*
X0513879Y0109885D01*
X0513594Y0109771D01*
X0513306Y0109664D01*
X0513016Y0109564D01*
X0512724Y0109471D01*
X0512429Y0109386D01*
X0512132Y0109308D01*
X0511834Y0109237D01*
X0511534Y0109173D01*
X0511232Y0109117D01*
X0510929Y0109068D01*
X0510625Y0109027D01*
X0510320Y0108993D01*
X0510015Y0108967D01*
X0509708Y0108948D01*
X0509402Y0108937D01*
X0509095Y0108933D01*
X0508788Y0108937D01*
X0508482Y0108948D01*
X0508175Y0108967D01*
X0507870Y0108993D01*
X0507565Y0109027D01*
X0507261Y0109068D01*
X0506958Y0109117D01*
X0506656Y0109173D01*
X0506356Y0109237D01*
X0506058Y0109308D01*
X0505761Y0109386D01*
X0505466Y0109471D01*
X0505174Y0109564D01*
X0504884Y0109664D01*
X0504596Y0109771D01*
X0504311Y0109885D01*
X0504029Y0110005D01*
X0503751Y0110133D01*
X0503475Y0110268D01*
X0503203Y0110409D01*
X0502934Y0110557D01*
X0502669Y0110711D01*
X0502408Y0110872D01*
X0502150Y0111040D01*
X0501897Y0111213D01*
X0501649Y0111393D01*
X0501405Y0111579D01*
X0501165Y0111770D01*
X0500930Y0111968D01*
X0500701Y0112171D01*
X0500476Y0112380D01*
X0500256Y0112594D01*
X0500042Y0112814D01*
X0499833Y0113039D01*
X0499630Y0113268D01*
X0499432Y0113503D01*
X0499241Y0113743D01*
X0499055Y0113987D01*
X0498875Y0114235D01*
X0498702Y0114488D01*
X0498534Y0114746D01*
X0498373Y0115007D01*
X0498219Y0115272D01*
X0498071Y0115541D01*
X0497930Y0115813D01*
X0497795Y0116089D01*
X0497667Y0116367D01*
X0497547Y0116649D01*
X0497433Y0116934D01*
X0497326Y0117222D01*
X0497226Y0117512D01*
X0497133Y0117804D01*
X0497048Y0118099D01*
X0496970Y0118396D01*
X0496899Y0118694D01*
X0496835Y0118994D01*
X0496779Y0119296D01*
X0496730Y0119599D01*
X0496689Y0119903D01*
X0496655Y0120208D01*
X0496629Y0120513D01*
X0496610Y0120820D01*
X0496599Y0121126D01*
X0496595Y0121433D01*
D11*
X0376595Y0203933D03*
X0366595Y0203933D03*
X0356595Y0203933D03*
X0346595Y0203933D03*
X0336595Y0203933D03*
X0336595Y0213933D03*
X0346595Y0213933D03*
X0356595Y0213933D03*
X0366595Y0213933D03*
X0376595Y0213933D03*
X0151595Y0273933D03*
X0141595Y0273933D03*
X0141595Y0283933D03*
X0141595Y0293933D03*
X0151595Y0293933D03*
X0151595Y0283933D03*
D12*
X0081595Y0353933D03*
D13*
X0081595Y0363933D03*
X0081595Y0373933D03*
X0081595Y0383933D03*
D14*
X0271595Y0331433D02*
X0274095Y0331433D01*
X0284095Y0321433D01*
X0351595Y0321433D01*
X0351595Y0316433D01*
X0446029Y0219690D02*
X0446029Y0215487D01*
X0448131Y0215487D01*
X0448832Y0216187D01*
X0448832Y0217589D01*
X0448131Y0218289D01*
X0446029Y0218289D01*
X0450633Y0218289D02*
X0453436Y0218289D01*
X0453436Y0217589D01*
X0450633Y0214786D01*
X0450633Y0214086D01*
X0453436Y0214086D01*
X0455237Y0215487D02*
X0458040Y0218289D01*
X0455237Y0218289D01*
X0455237Y0215487D02*
X0458040Y0215487D01*
D15*
X0459440Y0211639D02*
X0444440Y0211639D01*
X0441940Y0219139D02*
X0451940Y0199514D01*
X0462065Y0219014D01*
X0464440Y0221639D02*
X0464440Y0196639D01*
X0439440Y0196639D01*
X0439440Y0221639D01*
X0464440Y0221639D01*
D16*
X0466840Y0221610D02*
X0539295Y0221610D01*
X0539295Y0223208D02*
X0466265Y0223208D01*
X0466474Y0222999D02*
X0465799Y0223674D01*
X0464917Y0224039D01*
X0463962Y0224039D01*
X0438962Y0224039D01*
X0438080Y0223674D01*
X0437405Y0222999D01*
X0437040Y0222117D01*
X0437040Y0196162D01*
X0437405Y0195280D01*
X0438080Y0194605D01*
X0438962Y0194239D01*
X0464917Y0194239D01*
X0465799Y0194605D01*
X0466474Y0195280D01*
X0466840Y0196162D01*
X0466840Y0222117D01*
X0466474Y0222999D01*
X0466840Y0220011D02*
X0539295Y0220011D01*
X0539295Y0218412D02*
X0466840Y0218412D01*
X0466840Y0216814D02*
X0539295Y0216814D01*
X0539295Y0215215D02*
X0466840Y0215215D01*
X0466840Y0213617D02*
X0539295Y0213617D01*
X0539295Y0212018D02*
X0466840Y0212018D01*
X0466840Y0210420D02*
X0539295Y0210420D01*
X0539295Y0208821D02*
X0466840Y0208821D01*
X0466840Y0207223D02*
X0539295Y0207223D01*
X0539295Y0205624D02*
X0466840Y0205624D01*
X0466840Y0204026D02*
X0539295Y0204026D01*
X0539295Y0202427D02*
X0466840Y0202427D01*
X0466840Y0200829D02*
X0539295Y0200829D01*
X0539295Y0199230D02*
X0466840Y0199230D01*
X0466840Y0197632D02*
X0539295Y0197632D01*
X0539295Y0196033D02*
X0466786Y0196033D01*
X0465389Y0194435D02*
X0539295Y0194435D01*
X0539295Y0192836D02*
X0398610Y0192836D01*
X0398795Y0193022D02*
X0398795Y0247244D01*
X0398926Y0247375D01*
X0399345Y0248386D01*
X0399345Y0249480D01*
X0398926Y0250491D01*
X0398153Y0251264D01*
X0397142Y0251683D01*
X0396048Y0251683D01*
X0395037Y0251264D01*
X0394264Y0250491D01*
X0393845Y0249480D01*
X0393845Y0248386D01*
X0394264Y0247375D01*
X0394395Y0247244D01*
X0394395Y0226133D01*
X0345684Y0226133D01*
X0344395Y0224844D01*
X0344395Y0218946D01*
X0341595Y0216146D01*
X0338708Y0219033D01*
X0334483Y0219033D01*
X0331495Y0216046D01*
X0331495Y0215833D01*
X0325495Y0215833D01*
X0325495Y0226444D01*
X0325926Y0226875D01*
X0326345Y0227886D01*
X0326345Y0228980D01*
X0326075Y0229633D01*
X0389706Y0229633D01*
X0390037Y0229302D01*
X0391048Y0228883D01*
X0392142Y0228883D01*
X0393153Y0229302D01*
X0393926Y0230075D01*
X0394345Y0231086D01*
X0394345Y0232180D01*
X0393926Y0233191D01*
X0393153Y0233964D01*
X0392142Y0234383D01*
X0391048Y0234383D01*
X0390037Y0233964D01*
X0389706Y0233633D01*
X0340099Y0233633D01*
X0340245Y0233986D01*
X0340245Y0235080D01*
X0339826Y0236091D01*
X0339395Y0236522D01*
X0339395Y0242144D01*
X0339926Y0242675D01*
X0340345Y0243686D01*
X0340345Y0244780D01*
X0339926Y0245791D01*
X0339153Y0246564D01*
X0338142Y0246983D01*
X0337048Y0246983D01*
X0336037Y0246564D01*
X0335264Y0245791D01*
X0334845Y0244780D01*
X0334845Y0243686D01*
X0335264Y0242675D01*
X0335595Y0242344D01*
X0335595Y0236522D01*
X0335164Y0236091D01*
X0334745Y0235080D01*
X0334745Y0233986D01*
X0334891Y0233633D01*
X0293784Y0233633D01*
X0293453Y0233964D01*
X0292442Y0234383D01*
X0291348Y0234383D01*
X0290641Y0234090D01*
X0290926Y0234375D01*
X0291345Y0235386D01*
X0291345Y0236480D01*
X0290926Y0237491D01*
X0290495Y0237922D01*
X0290495Y0252033D01*
X0349695Y0252033D01*
X0349695Y0245146D01*
X0350808Y0244033D01*
X0386382Y0244033D01*
X0387495Y0245146D01*
X0387495Y0252033D01*
X0407795Y0252033D01*
X0407795Y0230602D01*
X0408264Y0230133D01*
X0431927Y0230133D01*
X0432395Y0230602D01*
X0432395Y0252033D01*
X0460695Y0252033D01*
X0460695Y0247922D01*
X0460264Y0247491D01*
X0459845Y0246480D01*
X0459845Y0245386D01*
X0460264Y0244375D01*
X0461037Y0243602D01*
X0462048Y0243183D01*
X0463142Y0243183D01*
X0464153Y0243602D01*
X0464926Y0244375D01*
X0465345Y0245386D01*
X0465345Y0246480D01*
X0464926Y0247491D01*
X0464495Y0247922D01*
X0464495Y0254720D01*
X0463382Y0255833D01*
X0384808Y0255833D01*
X0383695Y0254720D01*
X0383695Y0247833D01*
X0353495Y0247833D01*
X0353495Y0254720D01*
X0352382Y0255833D01*
X0287808Y0255833D01*
X0286695Y0254720D01*
X0286695Y0237922D01*
X0286264Y0237491D01*
X0286194Y0237323D01*
X0285653Y0237864D01*
X0284642Y0238283D01*
X0283548Y0238283D01*
X0282537Y0237864D01*
X0281764Y0237091D01*
X0281345Y0236080D01*
X0281345Y0234986D01*
X0281764Y0233975D01*
X0282095Y0233644D01*
X0282095Y0185705D01*
X0283267Y0184533D01*
X0407106Y0184533D01*
X0407437Y0184202D01*
X0408448Y0183783D01*
X0409542Y0183783D01*
X0410553Y0184202D01*
X0411326Y0184975D01*
X0411745Y0185986D01*
X0411745Y0187080D01*
X0411326Y0188091D01*
X0410553Y0188864D01*
X0409542Y0189283D01*
X0408448Y0189283D01*
X0407437Y0188864D01*
X0407106Y0188533D01*
X0286095Y0188533D01*
X0286095Y0233644D01*
X0286426Y0233975D01*
X0286496Y0234143D01*
X0287037Y0233602D01*
X0288048Y0233183D01*
X0289142Y0233183D01*
X0289849Y0233476D01*
X0289564Y0233191D01*
X0289145Y0232180D01*
X0289145Y0231086D01*
X0289564Y0230075D01*
X0290337Y0229302D01*
X0291348Y0228883D01*
X0292442Y0228883D01*
X0293453Y0229302D01*
X0293784Y0229633D01*
X0321116Y0229633D01*
X0320845Y0228980D01*
X0320845Y0227886D01*
X0321264Y0226875D01*
X0321695Y0226444D01*
X0321695Y0213146D01*
X0322808Y0212033D01*
X0331495Y0212033D01*
X0331495Y0211821D01*
X0334100Y0209216D01*
X0331095Y0206211D01*
X0331095Y0204133D01*
X0336395Y0204133D01*
X0336395Y0203733D01*
X0331095Y0203733D01*
X0331095Y0201655D01*
X0334317Y0198433D01*
X0336395Y0198433D01*
X0336395Y0203733D01*
X0336795Y0203733D01*
X0336795Y0198433D01*
X0338873Y0198433D01*
X0341878Y0201438D01*
X0344483Y0198833D01*
X0348708Y0198833D01*
X0351595Y0201721D01*
X0354483Y0198833D01*
X0354695Y0198833D01*
X0354695Y0195833D01*
X0293584Y0195833D01*
X0293153Y0196264D01*
X0292142Y0196683D01*
X0291048Y0196683D01*
X0290037Y0196264D01*
X0289264Y0195491D01*
X0288845Y0194480D01*
X0288845Y0193386D01*
X0289264Y0192375D01*
X0290037Y0191602D01*
X0291048Y0191183D01*
X0292142Y0191183D01*
X0293153Y0191602D01*
X0293584Y0192033D01*
X0357382Y0192033D01*
X0358495Y0193146D01*
X0358495Y0198833D01*
X0358708Y0198833D01*
X0361595Y0201721D01*
X0364395Y0198921D01*
X0364395Y0193022D01*
X0365684Y0191733D01*
X0367506Y0191733D01*
X0397506Y0191733D01*
X0398795Y0193022D01*
X0398795Y0194435D02*
X0438490Y0194435D01*
X0437093Y0196033D02*
X0398795Y0196033D01*
X0398795Y0197632D02*
X0437040Y0197632D01*
X0437040Y0199230D02*
X0398795Y0199230D01*
X0398795Y0200829D02*
X0437040Y0200829D01*
X0437040Y0202427D02*
X0398795Y0202427D01*
X0398795Y0204026D02*
X0437040Y0204026D01*
X0437040Y0205624D02*
X0398795Y0205624D01*
X0398795Y0207223D02*
X0437040Y0207223D01*
X0437040Y0208821D02*
X0398795Y0208821D01*
X0398795Y0210420D02*
X0437040Y0210420D01*
X0437040Y0212018D02*
X0398795Y0212018D01*
X0398795Y0213617D02*
X0437040Y0213617D01*
X0437040Y0215215D02*
X0398795Y0215215D01*
X0398795Y0216814D02*
X0437040Y0216814D01*
X0437040Y0218412D02*
X0398795Y0218412D01*
X0398795Y0220011D02*
X0437040Y0220011D01*
X0437040Y0221610D02*
X0398795Y0221610D01*
X0398795Y0223208D02*
X0437614Y0223208D01*
X0432395Y0231201D02*
X0539295Y0231201D01*
X0539295Y0232799D02*
X0432395Y0232799D01*
X0432395Y0234398D02*
X0539295Y0234398D01*
X0539295Y0235996D02*
X0432395Y0235996D01*
X0432395Y0237595D02*
X0539295Y0237595D01*
X0539295Y0238133D02*
X0539295Y0098933D01*
X0539200Y0097729D01*
X0538456Y0095437D01*
X0537040Y0093488D01*
X0535091Y0092072D01*
X0532800Y0091328D01*
X0531595Y0091233D01*
X0066595Y0091233D01*
X0065391Y0091328D01*
X0063099Y0092072D01*
X0061150Y0093488D01*
X0059734Y0095437D01*
X0058990Y0097729D01*
X0058895Y0098933D01*
X0058895Y0478933D01*
X0058990Y0480138D01*
X0059734Y0482429D01*
X0061150Y0484378D01*
X0063099Y0485794D01*
X0065391Y0486538D01*
X0066595Y0486633D01*
X0531595Y0486633D01*
X0532800Y0486538D01*
X0535091Y0485794D01*
X0537040Y0484378D01*
X0538456Y0482429D01*
X0539200Y0480138D01*
X0539295Y0478933D01*
X0539295Y0389733D01*
X0514264Y0389733D01*
X0513795Y0389264D01*
X0513795Y0349229D01*
X0509886Y0349229D01*
X0509417Y0348760D01*
X0509417Y0285106D01*
X0509886Y0284637D01*
X0513795Y0284637D01*
X0513795Y0238602D01*
X0514264Y0238133D01*
X0539295Y0238133D01*
X0539295Y0229602D02*
X0398795Y0229602D01*
X0398795Y0228004D02*
X0539295Y0228004D01*
X0539295Y0226405D02*
X0398795Y0226405D01*
X0398795Y0224807D02*
X0539295Y0224807D01*
X0513795Y0239193D02*
X0432395Y0239193D01*
X0432395Y0240792D02*
X0513795Y0240792D01*
X0513795Y0242390D02*
X0432395Y0242390D01*
X0432395Y0243989D02*
X0460650Y0243989D01*
X0459845Y0245587D02*
X0432395Y0245587D01*
X0432395Y0247186D02*
X0460137Y0247186D01*
X0460695Y0248784D02*
X0432395Y0248784D01*
X0432395Y0250383D02*
X0460695Y0250383D01*
X0460695Y0251981D02*
X0432395Y0251981D01*
X0412495Y0260833D02*
X0412495Y0267720D01*
X0411382Y0268833D01*
X0397584Y0268833D01*
X0397153Y0269264D01*
X0396142Y0269683D01*
X0395048Y0269683D01*
X0394037Y0269264D01*
X0393264Y0268491D01*
X0392845Y0267480D01*
X0392845Y0266386D01*
X0393264Y0265375D01*
X0394037Y0264602D01*
X0395048Y0264183D01*
X0396142Y0264183D01*
X0397153Y0264602D01*
X0397584Y0265033D01*
X0408695Y0265033D01*
X0408695Y0258146D01*
X0409808Y0257033D01*
X0495695Y0257033D01*
X0495695Y0253922D01*
X0495264Y0253491D01*
X0494845Y0252480D01*
X0494845Y0251386D01*
X0495264Y0250375D01*
X0496037Y0249602D01*
X0497048Y0249183D01*
X0498142Y0249183D01*
X0499153Y0249602D01*
X0499926Y0250375D01*
X0500345Y0251386D01*
X0500345Y0252480D01*
X0499926Y0253491D01*
X0499495Y0253922D01*
X0499495Y0259720D01*
X0498382Y0260833D01*
X0412495Y0260833D01*
X0412495Y0261572D02*
X0513795Y0261572D01*
X0513795Y0259974D02*
X0499241Y0259974D01*
X0499495Y0258375D02*
X0513795Y0258375D01*
X0513795Y0256777D02*
X0499495Y0256777D01*
X0499495Y0255178D02*
X0513795Y0255178D01*
X0513795Y0253580D02*
X0499838Y0253580D01*
X0500345Y0251981D02*
X0513795Y0251981D01*
X0513795Y0250383D02*
X0499930Y0250383D01*
X0495261Y0250383D02*
X0464495Y0250383D01*
X0464495Y0251981D02*
X0494845Y0251981D01*
X0495353Y0253580D02*
X0464495Y0253580D01*
X0464037Y0255178D02*
X0495695Y0255178D01*
X0495695Y0256777D02*
X0380595Y0256777D01*
X0380595Y0258375D02*
X0408695Y0258375D01*
X0408695Y0259974D02*
X0380595Y0259974D01*
X0380595Y0261572D02*
X0408695Y0261572D01*
X0408695Y0263171D02*
X0380595Y0263171D01*
X0380595Y0264769D02*
X0393870Y0264769D01*
X0392853Y0266368D02*
X0380595Y0266368D01*
X0380595Y0267966D02*
X0393047Y0267966D01*
X0394763Y0269565D02*
X0380595Y0269565D01*
X0380595Y0271163D02*
X0513795Y0271163D01*
X0513795Y0269565D02*
X0396428Y0269565D01*
X0397320Y0264769D02*
X0408695Y0264769D01*
X0412495Y0264769D02*
X0513795Y0264769D01*
X0513795Y0263171D02*
X0412495Y0263171D01*
X0412495Y0266368D02*
X0513795Y0266368D01*
X0513795Y0267966D02*
X0412249Y0267966D01*
X0403926Y0274375D02*
X0404345Y0275386D01*
X0404345Y0276480D01*
X0403926Y0277491D01*
X0403595Y0277822D01*
X0403595Y0307044D01*
X0403926Y0307375D01*
X0404345Y0308386D01*
X0404345Y0309480D01*
X0403926Y0310491D01*
X0403153Y0311264D01*
X0402142Y0311683D01*
X0401048Y0311683D01*
X0400595Y0311495D01*
X0400595Y0325371D01*
X0401048Y0325183D01*
X0402142Y0325183D01*
X0403153Y0325602D01*
X0403926Y0326375D01*
X0404345Y0327386D01*
X0404345Y0328480D01*
X0403926Y0329491D01*
X0403153Y0330264D01*
X0402142Y0330683D01*
X0401048Y0330683D01*
X0400037Y0330264D01*
X0399706Y0329933D01*
X0397767Y0329933D01*
X0397595Y0329761D01*
X0397595Y0348044D01*
X0397926Y0348375D01*
X0398345Y0349386D01*
X0398345Y0350480D01*
X0397926Y0351491D01*
X0397384Y0352033D01*
X0487606Y0352033D01*
X0488037Y0351602D01*
X0489048Y0351183D01*
X0490142Y0351183D01*
X0491153Y0351602D01*
X0491926Y0352375D01*
X0492345Y0353386D01*
X0492345Y0354480D01*
X0491926Y0355491D01*
X0491153Y0356264D01*
X0490142Y0356683D01*
X0489048Y0356683D01*
X0488037Y0356264D01*
X0487606Y0355833D01*
X0388808Y0355833D01*
X0387695Y0354720D01*
X0387695Y0342454D01*
X0387142Y0342683D01*
X0386048Y0342683D01*
X0385037Y0342264D01*
X0384606Y0341833D01*
X0315495Y0341833D01*
X0315495Y0366346D01*
X0315808Y0366033D01*
X0317695Y0366033D01*
X0317695Y0355146D01*
X0318808Y0354033D01*
X0324606Y0354033D01*
X0324695Y0353944D01*
X0324695Y0351146D01*
X0325808Y0350033D01*
X0327382Y0350033D01*
X0328495Y0351146D01*
X0328495Y0353944D01*
X0328926Y0354375D01*
X0329345Y0355386D01*
X0329345Y0356480D01*
X0328926Y0357491D01*
X0328153Y0358264D01*
X0327142Y0358683D01*
X0326048Y0358683D01*
X0325037Y0358264D01*
X0324606Y0357833D01*
X0321495Y0357833D01*
X0321495Y0366144D01*
X0322037Y0365602D01*
X0323048Y0365183D01*
X0324142Y0365183D01*
X0325153Y0365602D01*
X0325926Y0366375D01*
X0326345Y0367386D01*
X0326345Y0368480D01*
X0325926Y0369491D01*
X0325495Y0369922D01*
X0325495Y0378720D01*
X0324382Y0379833D01*
X0294584Y0379833D01*
X0294153Y0380264D01*
X0293142Y0380683D01*
X0292048Y0380683D01*
X0291037Y0380264D01*
X0290606Y0379833D01*
X0258495Y0379833D01*
X0258495Y0390944D01*
X0258926Y0391375D01*
X0259345Y0392386D01*
X0259345Y0393480D01*
X0258926Y0394491D01*
X0258153Y0395264D01*
X0257142Y0395683D01*
X0256048Y0395683D01*
X0255037Y0395264D01*
X0254606Y0394833D01*
X0230808Y0394833D01*
X0229695Y0393720D01*
X0229695Y0391922D01*
X0229606Y0391833D01*
X0211584Y0391833D01*
X0211153Y0392264D01*
X0210142Y0392683D01*
X0209048Y0392683D01*
X0208037Y0392264D01*
X0207264Y0391491D01*
X0206845Y0390480D01*
X0206845Y0389386D01*
X0207264Y0388375D01*
X0207695Y0387944D01*
X0207695Y0352922D01*
X0207264Y0352491D01*
X0206845Y0351480D01*
X0206845Y0350386D01*
X0207264Y0349375D01*
X0208037Y0348602D01*
X0209048Y0348183D01*
X0210142Y0348183D01*
X0211153Y0348602D01*
X0211926Y0349375D01*
X0212345Y0350386D01*
X0212345Y0351480D01*
X0211926Y0352491D01*
X0211495Y0352922D01*
X0211495Y0387944D01*
X0211584Y0388033D01*
X0229606Y0388033D01*
X0230037Y0387602D01*
X0231048Y0387183D01*
X0232142Y0387183D01*
X0233153Y0387602D01*
X0233926Y0388375D01*
X0234345Y0389386D01*
X0234345Y0390480D01*
X0234116Y0391033D01*
X0254606Y0391033D01*
X0254695Y0390944D01*
X0254695Y0377146D01*
X0255808Y0376033D01*
X0290606Y0376033D01*
X0290806Y0375833D01*
X0253495Y0375833D01*
X0253495Y0382944D01*
X0253926Y0383375D01*
X0254345Y0384386D01*
X0254345Y0385480D01*
X0253926Y0386491D01*
X0253153Y0387264D01*
X0252142Y0387683D01*
X0251048Y0387683D01*
X0250037Y0387264D01*
X0249606Y0386833D01*
X0243584Y0386833D01*
X0243153Y0387264D01*
X0242142Y0387683D01*
X0241048Y0387683D01*
X0240037Y0387264D01*
X0239264Y0386491D01*
X0238845Y0385480D01*
X0238845Y0384386D01*
X0239264Y0383375D01*
X0240037Y0382602D01*
X0241048Y0382183D01*
X0242142Y0382183D01*
X0243153Y0382602D01*
X0243584Y0383033D01*
X0249606Y0383033D01*
X0249695Y0382944D01*
X0249695Y0373146D01*
X0250808Y0372033D01*
X0287806Y0372033D01*
X0287606Y0371833D01*
X0276808Y0371833D01*
X0275695Y0370720D01*
X0275695Y0362922D01*
X0275264Y0362491D01*
X0274845Y0361480D01*
X0274845Y0360386D01*
X0275264Y0359375D01*
X0276037Y0358602D01*
X0277048Y0358183D01*
X0278142Y0358183D01*
X0279153Y0358602D01*
X0279926Y0359375D01*
X0280345Y0360386D01*
X0280345Y0361480D01*
X0279926Y0362491D01*
X0279495Y0362922D01*
X0279495Y0368033D01*
X0287606Y0368033D01*
X0288037Y0367602D01*
X0289048Y0367183D01*
X0290142Y0367183D01*
X0291153Y0367602D01*
X0291926Y0368375D01*
X0292345Y0369386D01*
X0292345Y0370480D01*
X0291926Y0371491D01*
X0291384Y0372033D01*
X0296074Y0372033D01*
X0295845Y0371480D01*
X0295845Y0370386D01*
X0296264Y0369375D01*
X0297037Y0368602D01*
X0298048Y0368183D01*
X0299142Y0368183D01*
X0300153Y0368602D01*
X0300584Y0369033D01*
X0311695Y0369033D01*
X0311695Y0339146D01*
X0312808Y0338033D01*
X0384606Y0338033D01*
X0385037Y0337602D01*
X0386048Y0337183D01*
X0387142Y0337183D01*
X0387695Y0337412D01*
X0387695Y0304922D01*
X0387264Y0304491D01*
X0386845Y0303480D01*
X0386845Y0302386D01*
X0387264Y0301375D01*
X0388037Y0300602D01*
X0389048Y0300183D01*
X0390142Y0300183D01*
X0391153Y0300602D01*
X0391926Y0301375D01*
X0392345Y0302386D01*
X0392345Y0303480D01*
X0391926Y0304491D01*
X0391495Y0304922D01*
X0391495Y0352033D01*
X0393806Y0352033D01*
X0393264Y0351491D01*
X0392845Y0350480D01*
X0392845Y0349386D01*
X0393264Y0348375D01*
X0393595Y0348044D01*
X0393595Y0289933D01*
X0392484Y0289933D01*
X0392153Y0290264D01*
X0391142Y0290683D01*
X0390048Y0290683D01*
X0389037Y0290264D01*
X0388264Y0289491D01*
X0387845Y0288480D01*
X0387845Y0287386D01*
X0388264Y0286375D01*
X0389037Y0285602D01*
X0390048Y0285183D01*
X0391142Y0285183D01*
X0392153Y0285602D01*
X0392484Y0285933D01*
X0396424Y0285933D01*
X0396595Y0286105D01*
X0396595Y0283933D01*
X0391484Y0283933D01*
X0391153Y0284264D01*
X0390142Y0284683D01*
X0389048Y0284683D01*
X0388037Y0284264D01*
X0387264Y0283491D01*
X0386845Y0282480D01*
X0386845Y0281386D01*
X0387264Y0280375D01*
X0388037Y0279602D01*
X0389048Y0279183D01*
X0390142Y0279183D01*
X0391153Y0279602D01*
X0391484Y0279933D01*
X0399424Y0279933D01*
X0399595Y0280105D01*
X0399595Y0277822D01*
X0399264Y0277491D01*
X0398845Y0276480D01*
X0398845Y0275386D01*
X0399264Y0274375D01*
X0400037Y0273602D01*
X0401048Y0273183D01*
X0402142Y0273183D01*
X0403153Y0273602D01*
X0403926Y0274375D01*
X0403912Y0274360D02*
X0513795Y0274360D01*
X0513795Y0272762D02*
X0380595Y0272762D01*
X0380595Y0274044D02*
X0380926Y0274375D01*
X0381345Y0275386D01*
X0381345Y0276480D01*
X0380926Y0277491D01*
X0380153Y0278264D01*
X0379142Y0278683D01*
X0378048Y0278683D01*
X0377037Y0278264D01*
X0376264Y0277491D01*
X0375845Y0276480D01*
X0375845Y0275386D01*
X0376264Y0274375D01*
X0376595Y0274044D01*
X0376595Y0253822D01*
X0376264Y0253491D01*
X0375845Y0252480D01*
X0375845Y0251386D01*
X0376264Y0250375D01*
X0377037Y0249602D01*
X0378048Y0249183D01*
X0379142Y0249183D01*
X0380153Y0249602D01*
X0380926Y0250375D01*
X0381345Y0251386D01*
X0381345Y0252480D01*
X0380926Y0253491D01*
X0380595Y0253822D01*
X0380595Y0274044D01*
X0380912Y0274360D02*
X0399279Y0274360D01*
X0398845Y0275959D02*
X0381345Y0275959D01*
X0380860Y0277557D02*
X0399330Y0277557D01*
X0399595Y0279156D02*
X0154150Y0279156D01*
X0154090Y0279216D02*
X0156695Y0281821D01*
X0156695Y0286046D01*
X0153808Y0288933D01*
X0156695Y0291821D01*
X0156695Y0296046D01*
X0153708Y0299033D01*
X0149483Y0299033D01*
X0146595Y0296146D01*
X0143708Y0299033D01*
X0143495Y0299033D01*
X0143495Y0302033D01*
X0209606Y0302033D01*
X0210037Y0301602D01*
X0211048Y0301183D01*
X0212142Y0301183D01*
X0213153Y0301602D01*
X0213926Y0302375D01*
X0214345Y0303386D01*
X0214345Y0304480D01*
X0213926Y0305491D01*
X0213153Y0306264D01*
X0212142Y0306683D01*
X0211048Y0306683D01*
X0210037Y0306264D01*
X0209606Y0305833D01*
X0140808Y0305833D01*
X0139695Y0304720D01*
X0139695Y0299033D01*
X0139483Y0299033D01*
X0136495Y0296046D01*
X0136495Y0291821D01*
X0139383Y0288933D01*
X0136495Y0286046D01*
X0136495Y0281821D01*
X0139383Y0278933D01*
X0136495Y0276046D01*
X0136495Y0275833D01*
X0133808Y0275833D01*
X0132695Y0274720D01*
X0132695Y0193146D01*
X0133808Y0192033D01*
X0276606Y0192033D01*
X0277037Y0191602D01*
X0278048Y0191183D01*
X0279142Y0191183D01*
X0280153Y0191602D01*
X0280926Y0192375D01*
X0281345Y0193386D01*
X0281345Y0194480D01*
X0280926Y0195491D01*
X0280153Y0196264D01*
X0279142Y0196683D01*
X0278048Y0196683D01*
X0277037Y0196264D01*
X0276606Y0195833D01*
X0136495Y0195833D01*
X0136495Y0217144D01*
X0137037Y0216602D01*
X0138048Y0216183D01*
X0139142Y0216183D01*
X0140153Y0216602D01*
X0140584Y0217033D01*
X0269606Y0217033D01*
X0270037Y0216602D01*
X0271048Y0216183D01*
X0272142Y0216183D01*
X0273153Y0216602D01*
X0273926Y0217375D01*
X0274345Y0218386D01*
X0274345Y0219480D01*
X0273926Y0220491D01*
X0273153Y0221264D01*
X0272142Y0221683D01*
X0271048Y0221683D01*
X0270037Y0221264D01*
X0269606Y0220833D01*
X0140584Y0220833D01*
X0140153Y0221264D01*
X0139142Y0221683D01*
X0138048Y0221683D01*
X0137037Y0221264D01*
X0136495Y0220722D01*
X0136495Y0272033D01*
X0136495Y0272033D01*
X0136495Y0271821D01*
X0139483Y0268833D01*
X0143708Y0268833D01*
X0146312Y0271438D01*
X0149317Y0268433D01*
X0151395Y0268433D01*
X0151395Y0273733D01*
X0151795Y0273733D01*
X0151795Y0268433D01*
X0153873Y0268433D01*
X0157095Y0271655D01*
X0157095Y0273733D01*
X0151795Y0273733D01*
X0151795Y0274133D01*
X0157095Y0274133D01*
X0157095Y0276211D01*
X0154090Y0279216D01*
X0155629Y0280754D02*
X0387107Y0280754D01*
X0386845Y0282353D02*
X0156695Y0282353D01*
X0156695Y0283951D02*
X0387724Y0283951D01*
X0389162Y0285550D02*
X0156695Y0285550D01*
X0155592Y0287148D02*
X0179491Y0287148D01*
X0179264Y0287375D02*
X0180037Y0286602D01*
X0181048Y0286183D01*
X0182142Y0286183D01*
X0183153Y0286602D01*
X0183584Y0287033D01*
X0214606Y0287033D01*
X0215037Y0286602D01*
X0216048Y0286183D01*
X0217142Y0286183D01*
X0218153Y0286602D01*
X0218926Y0287375D01*
X0219345Y0288386D01*
X0219345Y0289480D01*
X0218926Y0290491D01*
X0218153Y0291264D01*
X0217142Y0291683D01*
X0216048Y0291683D01*
X0215037Y0291264D01*
X0214606Y0290833D01*
X0183584Y0290833D01*
X0183153Y0291264D01*
X0182142Y0291683D01*
X0181048Y0291683D01*
X0180037Y0291264D01*
X0179264Y0290491D01*
X0178845Y0289480D01*
X0178845Y0288386D01*
X0179264Y0287375D01*
X0178845Y0288747D02*
X0153994Y0288747D01*
X0155220Y0290345D02*
X0179204Y0290345D01*
X0156695Y0291944D02*
X0244695Y0291944D01*
X0245037Y0291602D02*
X0246048Y0291183D01*
X0247142Y0291183D01*
X0248153Y0291602D01*
X0248584Y0292033D01*
X0264606Y0292033D01*
X0265037Y0291602D01*
X0266048Y0291183D01*
X0267142Y0291183D01*
X0268153Y0291602D01*
X0268926Y0292375D01*
X0269345Y0293386D01*
X0269345Y0294480D01*
X0268926Y0295491D01*
X0268153Y0296264D01*
X0267142Y0296683D01*
X0266345Y0296683D01*
X0266345Y0297480D01*
X0265926Y0298491D01*
X0265153Y0299264D01*
X0264142Y0299683D01*
X0263048Y0299683D01*
X0262037Y0299264D01*
X0261606Y0298833D01*
X0245584Y0298833D01*
X0245153Y0299264D01*
X0244142Y0299683D01*
X0243048Y0299683D01*
X0242037Y0299264D01*
X0241264Y0298491D01*
X0240845Y0297480D01*
X0240845Y0296386D01*
X0241264Y0295375D01*
X0242037Y0294602D01*
X0243048Y0294183D01*
X0243845Y0294183D01*
X0243845Y0293386D01*
X0244264Y0292375D01*
X0245037Y0291602D01*
X0243845Y0293543D02*
X0156695Y0293543D01*
X0156695Y0295141D02*
X0241498Y0295141D01*
X0240845Y0296740D02*
X0156001Y0296740D01*
X0154403Y0298338D02*
X0241201Y0298338D01*
X0233584Y0301033D02*
X0264382Y0301033D01*
X0265495Y0302146D01*
X0265495Y0302244D01*
X0265926Y0302675D01*
X0266345Y0303686D01*
X0266345Y0304780D01*
X0265926Y0305791D01*
X0265153Y0306564D01*
X0264419Y0306868D01*
X0264926Y0307375D01*
X0265345Y0308386D01*
X0265345Y0309267D01*
X0266153Y0309602D01*
X0266926Y0310375D01*
X0267345Y0311386D01*
X0267345Y0312480D01*
X0266926Y0313491D01*
X0266153Y0314264D01*
X0265142Y0314683D01*
X0264048Y0314683D01*
X0263037Y0314264D01*
X0262606Y0313833D01*
X0243199Y0313833D01*
X0242926Y0314491D01*
X0242153Y0315264D01*
X0241142Y0315683D01*
X0240048Y0315683D01*
X0239037Y0315264D01*
X0238264Y0314491D01*
X0237845Y0313480D01*
X0237845Y0312386D01*
X0238264Y0311375D01*
X0238956Y0310683D01*
X0238048Y0310683D01*
X0237037Y0310264D01*
X0236264Y0309491D01*
X0235845Y0308480D01*
X0235845Y0307386D01*
X0236264Y0306375D01*
X0237037Y0305602D01*
X0238048Y0305183D01*
X0239142Y0305183D01*
X0240153Y0305602D01*
X0240584Y0306033D01*
X0261506Y0306033D01*
X0261264Y0305791D01*
X0260867Y0304833D01*
X0233584Y0304833D01*
X0233153Y0305264D01*
X0232142Y0305683D01*
X0231048Y0305683D01*
X0230037Y0305264D01*
X0229264Y0304491D01*
X0228845Y0303480D01*
X0228845Y0302386D01*
X0229264Y0301375D01*
X0230037Y0300602D01*
X0231048Y0300183D01*
X0232142Y0300183D01*
X0233153Y0300602D01*
X0233584Y0301033D01*
X0229198Y0301535D02*
X0212992Y0301535D01*
X0214241Y0303134D02*
X0228845Y0303134D01*
X0229505Y0304732D02*
X0214241Y0304732D01*
X0212993Y0306331D02*
X0236309Y0306331D01*
X0235845Y0307929D02*
X0069495Y0307929D01*
X0069495Y0306331D02*
X0210197Y0306331D01*
X0210198Y0301535D02*
X0143495Y0301535D01*
X0143495Y0299937D02*
X0393595Y0299937D01*
X0393595Y0301535D02*
X0391993Y0301535D01*
X0392345Y0303134D02*
X0393595Y0303134D01*
X0393595Y0304732D02*
X0391685Y0304732D01*
X0391495Y0306331D02*
X0393595Y0306331D01*
X0393595Y0307929D02*
X0391495Y0307929D01*
X0391495Y0309528D02*
X0393595Y0309528D01*
X0393595Y0311126D02*
X0391495Y0311126D01*
X0391495Y0312725D02*
X0393595Y0312725D01*
X0393595Y0314323D02*
X0391495Y0314323D01*
X0391495Y0315922D02*
X0393595Y0315922D01*
X0393595Y0317520D02*
X0391495Y0317520D01*
X0391495Y0319119D02*
X0393595Y0319119D01*
X0393595Y0320717D02*
X0391495Y0320717D01*
X0391495Y0322316D02*
X0393595Y0322316D01*
X0393595Y0323914D02*
X0391495Y0323914D01*
X0391495Y0325513D02*
X0393595Y0325513D01*
X0393595Y0327111D02*
X0391495Y0327111D01*
X0391495Y0328710D02*
X0393595Y0328710D01*
X0393595Y0330308D02*
X0391495Y0330308D01*
X0391495Y0331907D02*
X0393595Y0331907D01*
X0393595Y0333505D02*
X0391495Y0333505D01*
X0391495Y0335104D02*
X0393595Y0335104D01*
X0393595Y0336702D02*
X0391495Y0336702D01*
X0391495Y0338301D02*
X0393595Y0338301D01*
X0393595Y0339899D02*
X0391495Y0339899D01*
X0391495Y0341498D02*
X0393595Y0341498D01*
X0393595Y0343096D02*
X0391495Y0343096D01*
X0391495Y0344695D02*
X0393595Y0344695D01*
X0393595Y0346293D02*
X0391495Y0346293D01*
X0391495Y0347892D02*
X0393595Y0347892D01*
X0392845Y0349490D02*
X0391495Y0349490D01*
X0391495Y0351089D02*
X0393097Y0351089D01*
X0398093Y0351089D02*
X0513795Y0351089D01*
X0513795Y0352687D02*
X0492056Y0352687D01*
X0492345Y0354286D02*
X0513795Y0354286D01*
X0513795Y0355884D02*
X0491533Y0355884D01*
X0487657Y0355884D02*
X0329345Y0355884D01*
X0328930Y0357483D02*
X0382219Y0357483D01*
X0382264Y0357375D02*
X0383037Y0356602D01*
X0384048Y0356183D01*
X0385142Y0356183D01*
X0386153Y0356602D01*
X0386584Y0357033D01*
X0506382Y0357033D01*
X0507495Y0358146D01*
X0507495Y0379294D01*
X0507926Y0379725D01*
X0508345Y0380736D01*
X0508345Y0381830D01*
X0507926Y0382841D01*
X0507153Y0383614D01*
X0506142Y0384033D01*
X0505048Y0384033D01*
X0504037Y0383614D01*
X0503264Y0382841D01*
X0502845Y0381830D01*
X0502845Y0380736D01*
X0503264Y0379725D01*
X0503695Y0379294D01*
X0503695Y0360833D01*
X0386584Y0360833D01*
X0386153Y0361264D01*
X0385142Y0361683D01*
X0384048Y0361683D01*
X0383037Y0361264D01*
X0382264Y0360491D01*
X0381845Y0359480D01*
X0381845Y0358386D01*
X0382264Y0357375D01*
X0381845Y0359081D02*
X0321495Y0359081D01*
X0321495Y0360680D02*
X0382453Y0360680D01*
X0387695Y0354286D02*
X0328837Y0354286D01*
X0328495Y0352687D02*
X0387695Y0352687D01*
X0387695Y0351089D02*
X0328438Y0351089D01*
X0324752Y0351089D02*
X0315495Y0351089D01*
X0315495Y0352687D02*
X0324695Y0352687D01*
X0318555Y0354286D02*
X0315495Y0354286D01*
X0315495Y0355884D02*
X0317695Y0355884D01*
X0317695Y0357483D02*
X0315495Y0357483D01*
X0315495Y0359081D02*
X0317695Y0359081D01*
X0317695Y0360680D02*
X0315495Y0360680D01*
X0315495Y0362279D02*
X0317695Y0362279D01*
X0317695Y0363877D02*
X0315495Y0363877D01*
X0315495Y0365476D02*
X0317695Y0365476D01*
X0321495Y0365476D02*
X0322342Y0365476D01*
X0321495Y0363877D02*
X0402695Y0363877D01*
X0402695Y0363146D02*
X0403808Y0362033D01*
X0434606Y0362033D01*
X0435037Y0361602D01*
X0436048Y0361183D01*
X0437142Y0361183D01*
X0438153Y0361602D01*
X0438926Y0362375D01*
X0439345Y0363386D01*
X0439345Y0364480D01*
X0438926Y0365491D01*
X0438153Y0366264D01*
X0437142Y0366683D01*
X0436048Y0366683D01*
X0435037Y0366264D01*
X0434606Y0365833D01*
X0406495Y0365833D01*
X0406495Y0412146D01*
X0406495Y0413720D01*
X0405382Y0414833D01*
X0393584Y0414833D01*
X0393153Y0415264D01*
X0392142Y0415683D01*
X0391048Y0415683D01*
X0390037Y0415264D01*
X0389264Y0414491D01*
X0388845Y0413480D01*
X0388845Y0412386D01*
X0389264Y0411375D01*
X0390037Y0410602D01*
X0391048Y0410183D01*
X0392142Y0410183D01*
X0393153Y0410602D01*
X0393584Y0411033D01*
X0402695Y0411033D01*
X0402695Y0363146D01*
X0403563Y0362279D02*
X0321495Y0362279D01*
X0324848Y0365476D02*
X0402695Y0365476D01*
X0402695Y0367074D02*
X0326216Y0367074D01*
X0326265Y0368673D02*
X0402695Y0368673D01*
X0402695Y0370271D02*
X0325495Y0370271D01*
X0325495Y0371870D02*
X0402695Y0371870D01*
X0402695Y0373468D02*
X0398965Y0373468D01*
X0398926Y0373375D02*
X0399345Y0374386D01*
X0399345Y0375480D01*
X0398926Y0376491D01*
X0398153Y0377264D01*
X0397142Y0377683D01*
X0396048Y0377683D01*
X0395037Y0377264D01*
X0394906Y0377133D01*
X0358795Y0377133D01*
X0358795Y0397244D01*
X0358926Y0397375D01*
X0359345Y0398386D01*
X0359345Y0399480D01*
X0358926Y0400491D01*
X0358795Y0400622D01*
X0358795Y0409844D01*
X0357506Y0411133D01*
X0344684Y0411133D01*
X0344926Y0411375D01*
X0345345Y0412386D01*
X0345345Y0413480D01*
X0344926Y0414491D01*
X0344153Y0415264D01*
X0343142Y0415683D01*
X0342048Y0415683D01*
X0341037Y0415264D01*
X0340606Y0414833D01*
X0315584Y0414833D01*
X0315153Y0415264D01*
X0314142Y0415683D01*
X0313048Y0415683D01*
X0312037Y0415264D01*
X0311264Y0414491D01*
X0310845Y0413480D01*
X0310845Y0412386D01*
X0311264Y0411375D01*
X0311506Y0411133D01*
X0286284Y0411133D01*
X0286153Y0411264D01*
X0285142Y0411683D01*
X0284048Y0411683D01*
X0283037Y0411264D01*
X0282264Y0410491D01*
X0281845Y0409480D01*
X0281845Y0408386D01*
X0282264Y0407375D01*
X0283037Y0406602D01*
X0284048Y0406183D01*
X0285142Y0406183D01*
X0286153Y0406602D01*
X0286284Y0406733D01*
X0354395Y0406733D01*
X0354395Y0400622D01*
X0354264Y0400491D01*
X0353845Y0399480D01*
X0353845Y0398386D01*
X0354264Y0397375D01*
X0354395Y0397244D01*
X0354395Y0374022D01*
X0355684Y0372733D01*
X0394906Y0372733D01*
X0395037Y0372602D01*
X0396048Y0372183D01*
X0397142Y0372183D01*
X0398153Y0372602D01*
X0398926Y0373375D01*
X0399345Y0375067D02*
X0402695Y0375067D01*
X0402695Y0376665D02*
X0398752Y0376665D01*
X0396595Y0374933D02*
X0356595Y0374933D01*
X0356595Y0398933D01*
X0356595Y0408933D01*
X0284595Y0408933D01*
X0282602Y0407037D02*
X0220495Y0407037D01*
X0220495Y0408635D02*
X0281845Y0408635D01*
X0282157Y0410234D02*
X0220495Y0410234D01*
X0220495Y0411832D02*
X0311074Y0411832D01*
X0310845Y0413431D02*
X0220495Y0413431D01*
X0220495Y0415029D02*
X0311802Y0415029D01*
X0315388Y0415029D02*
X0340802Y0415029D01*
X0344388Y0415029D02*
X0374395Y0415029D01*
X0374395Y0413431D02*
X0345345Y0413431D01*
X0345116Y0411832D02*
X0374395Y0411832D01*
X0374395Y0410234D02*
X0358406Y0410234D01*
X0358795Y0408635D02*
X0374395Y0408635D01*
X0374395Y0407037D02*
X0358795Y0407037D01*
X0358795Y0405438D02*
X0365242Y0405438D01*
X0365264Y0405491D02*
X0364845Y0404480D01*
X0364845Y0403386D01*
X0365264Y0402375D01*
X0366037Y0401602D01*
X0367048Y0401183D01*
X0368142Y0401183D01*
X0369153Y0401602D01*
X0369284Y0401733D01*
X0377506Y0401733D01*
X0378795Y0403022D01*
X0378795Y0467244D01*
X0378926Y0467375D01*
X0379345Y0468386D01*
X0379345Y0469480D01*
X0378926Y0470491D01*
X0378153Y0471264D01*
X0377142Y0471683D01*
X0376048Y0471683D01*
X0375037Y0471264D01*
X0374264Y0470491D01*
X0373845Y0469480D01*
X0373845Y0468386D01*
X0374264Y0467375D01*
X0374395Y0467244D01*
X0374395Y0406133D01*
X0369284Y0406133D01*
X0369153Y0406264D01*
X0368142Y0406683D01*
X0367048Y0406683D01*
X0366037Y0406264D01*
X0365264Y0405491D01*
X0364845Y0403840D02*
X0358795Y0403840D01*
X0358795Y0402241D02*
X0365398Y0402241D01*
X0367595Y0403933D02*
X0376595Y0403933D01*
X0376595Y0468933D01*
X0374096Y0467780D02*
X0058895Y0467780D01*
X0058895Y0466182D02*
X0374395Y0466182D01*
X0374395Y0464583D02*
X0058895Y0464583D01*
X0058895Y0462985D02*
X0374395Y0462985D01*
X0374395Y0461386D02*
X0058895Y0461386D01*
X0058895Y0459788D02*
X0374395Y0459788D01*
X0374395Y0458189D02*
X0058895Y0458189D01*
X0058895Y0456591D02*
X0374395Y0456591D01*
X0374395Y0454992D02*
X0058895Y0454992D01*
X0058895Y0453394D02*
X0374395Y0453394D01*
X0374395Y0451795D02*
X0058895Y0451795D01*
X0058895Y0450197D02*
X0374395Y0450197D01*
X0374395Y0448598D02*
X0058895Y0448598D01*
X0058895Y0447000D02*
X0227029Y0447000D01*
X0226724Y0446873D02*
X0224305Y0444454D01*
X0222996Y0441294D01*
X0222996Y0437873D01*
X0224305Y0434712D01*
X0226724Y0432293D01*
X0229885Y0430984D01*
X0233306Y0430984D01*
X0236466Y0432293D01*
X0238885Y0434712D01*
X0240194Y0437873D01*
X0240194Y0441294D01*
X0238885Y0444454D01*
X0236466Y0446873D01*
X0233306Y0448182D01*
X0229885Y0448182D01*
X0226724Y0446873D01*
X0225252Y0445401D02*
X0058895Y0445401D01*
X0058895Y0443803D02*
X0224035Y0443803D01*
X0223373Y0442204D02*
X0058895Y0442204D01*
X0058895Y0440606D02*
X0222996Y0440606D01*
X0222996Y0439007D02*
X0058895Y0439007D01*
X0058895Y0437409D02*
X0223188Y0437409D01*
X0223850Y0435810D02*
X0058895Y0435810D01*
X0058895Y0434212D02*
X0224806Y0434212D01*
X0226404Y0432613D02*
X0058895Y0432613D01*
X0058895Y0431014D02*
X0229811Y0431014D01*
X0233380Y0431014D02*
X0359811Y0431014D01*
X0359885Y0430984D02*
X0363306Y0430984D01*
X0366466Y0432293D01*
X0368885Y0434712D01*
X0370194Y0437873D01*
X0370194Y0441294D01*
X0368885Y0444454D01*
X0366466Y0446873D01*
X0363306Y0448182D01*
X0359885Y0448182D01*
X0356724Y0446873D01*
X0354305Y0444454D01*
X0352996Y0441294D01*
X0352996Y0437873D01*
X0354305Y0434712D01*
X0356724Y0432293D01*
X0359885Y0430984D01*
X0363380Y0431014D02*
X0374395Y0431014D01*
X0374395Y0429416D02*
X0058895Y0429416D01*
X0058895Y0427817D02*
X0374395Y0427817D01*
X0374395Y0426219D02*
X0058895Y0426219D01*
X0058895Y0424620D02*
X0169695Y0424620D01*
X0169695Y0424720D02*
X0169695Y0402833D01*
X0066808Y0402833D01*
X0065695Y0401720D01*
X0065695Y0177146D01*
X0066808Y0176033D01*
X0250606Y0176033D01*
X0251037Y0175602D01*
X0252048Y0175183D01*
X0253142Y0175183D01*
X0254153Y0175602D01*
X0254926Y0176375D01*
X0255345Y0177386D01*
X0255345Y0178480D01*
X0254926Y0179491D01*
X0254153Y0180264D01*
X0253142Y0180683D01*
X0252048Y0180683D01*
X0251037Y0180264D01*
X0250606Y0179833D01*
X0069495Y0179833D01*
X0069495Y0399033D01*
X0172382Y0399033D01*
X0173495Y0400146D01*
X0173495Y0422033D01*
X0216695Y0422033D01*
X0216695Y0400146D01*
X0217808Y0399033D01*
X0303695Y0399033D01*
X0303695Y0391922D01*
X0303264Y0391491D01*
X0302845Y0390480D01*
X0302845Y0389386D01*
X0303264Y0388375D01*
X0304037Y0387602D01*
X0305048Y0387183D01*
X0306142Y0387183D01*
X0307153Y0387602D01*
X0307926Y0388375D01*
X0308345Y0389386D01*
X0308345Y0390480D01*
X0307926Y0391491D01*
X0307495Y0391922D01*
X0307495Y0401720D01*
X0306382Y0402833D01*
X0220495Y0402833D01*
X0220495Y0424720D01*
X0219382Y0425833D01*
X0170808Y0425833D01*
X0169695Y0424720D01*
X0169695Y0423022D02*
X0058895Y0423022D01*
X0058895Y0421423D02*
X0169695Y0421423D01*
X0169695Y0419825D02*
X0058895Y0419825D01*
X0058895Y0418226D02*
X0169695Y0418226D01*
X0169695Y0416628D02*
X0058895Y0416628D01*
X0058895Y0415029D02*
X0169695Y0415029D01*
X0169695Y0413431D02*
X0058895Y0413431D01*
X0058895Y0411832D02*
X0169695Y0411832D01*
X0169695Y0410234D02*
X0058895Y0410234D01*
X0058895Y0408635D02*
X0169695Y0408635D01*
X0169695Y0407037D02*
X0058895Y0407037D01*
X0058895Y0405438D02*
X0169695Y0405438D01*
X0169695Y0403840D02*
X0058895Y0403840D01*
X0058895Y0402241D02*
X0066216Y0402241D01*
X0065695Y0400643D02*
X0058895Y0400643D01*
X0058895Y0399044D02*
X0065695Y0399044D01*
X0065695Y0397446D02*
X0058895Y0397446D01*
X0058895Y0395847D02*
X0065695Y0395847D01*
X0065695Y0394249D02*
X0058895Y0394249D01*
X0058895Y0392650D02*
X0065695Y0392650D01*
X0065695Y0391052D02*
X0058895Y0391052D01*
X0058895Y0389453D02*
X0065695Y0389453D01*
X0065695Y0387855D02*
X0058895Y0387855D01*
X0058895Y0386256D02*
X0065695Y0386256D01*
X0065695Y0384658D02*
X0058895Y0384658D01*
X0058895Y0383059D02*
X0065695Y0383059D01*
X0065695Y0381461D02*
X0058895Y0381461D01*
X0058895Y0379862D02*
X0065695Y0379862D01*
X0065695Y0378264D02*
X0058895Y0378264D01*
X0058895Y0376665D02*
X0065695Y0376665D01*
X0065695Y0375067D02*
X0058895Y0375067D01*
X0058895Y0373468D02*
X0065695Y0373468D01*
X0065695Y0371870D02*
X0058895Y0371870D01*
X0058895Y0370271D02*
X0065695Y0370271D01*
X0065695Y0368673D02*
X0058895Y0368673D01*
X0058895Y0367074D02*
X0065695Y0367074D01*
X0065695Y0365476D02*
X0058895Y0365476D01*
X0058895Y0363877D02*
X0065695Y0363877D01*
X0065695Y0362279D02*
X0058895Y0362279D01*
X0058895Y0360680D02*
X0065695Y0360680D01*
X0065695Y0359081D02*
X0058895Y0359081D01*
X0058895Y0357483D02*
X0065695Y0357483D01*
X0065695Y0355884D02*
X0058895Y0355884D01*
X0058895Y0354286D02*
X0065695Y0354286D01*
X0065695Y0352687D02*
X0058895Y0352687D01*
X0058895Y0351089D02*
X0065695Y0351089D01*
X0065695Y0349490D02*
X0058895Y0349490D01*
X0058895Y0347892D02*
X0065695Y0347892D01*
X0065695Y0346293D02*
X0058895Y0346293D01*
X0058895Y0344695D02*
X0065695Y0344695D01*
X0065695Y0343096D02*
X0058895Y0343096D01*
X0058895Y0341498D02*
X0065695Y0341498D01*
X0065695Y0339899D02*
X0058895Y0339899D01*
X0058895Y0338301D02*
X0065695Y0338301D01*
X0065695Y0336702D02*
X0058895Y0336702D01*
X0058895Y0335104D02*
X0065695Y0335104D01*
X0065695Y0333505D02*
X0058895Y0333505D01*
X0058895Y0331907D02*
X0065695Y0331907D01*
X0065695Y0330308D02*
X0058895Y0330308D01*
X0058895Y0328710D02*
X0065695Y0328710D01*
X0065695Y0327111D02*
X0058895Y0327111D01*
X0058895Y0325513D02*
X0065695Y0325513D01*
X0065695Y0323914D02*
X0058895Y0323914D01*
X0058895Y0322316D02*
X0065695Y0322316D01*
X0065695Y0320717D02*
X0058895Y0320717D01*
X0058895Y0319119D02*
X0065695Y0319119D01*
X0065695Y0317520D02*
X0058895Y0317520D01*
X0058895Y0315922D02*
X0065695Y0315922D01*
X0065695Y0314323D02*
X0058895Y0314323D01*
X0058895Y0312725D02*
X0065695Y0312725D01*
X0065695Y0311126D02*
X0058895Y0311126D01*
X0058895Y0309528D02*
X0065695Y0309528D01*
X0065695Y0307929D02*
X0058895Y0307929D01*
X0058895Y0306331D02*
X0065695Y0306331D01*
X0065695Y0304732D02*
X0058895Y0304732D01*
X0058895Y0303134D02*
X0065695Y0303134D01*
X0065695Y0301535D02*
X0058895Y0301535D01*
X0058895Y0299937D02*
X0065695Y0299937D01*
X0065695Y0298338D02*
X0058895Y0298338D01*
X0058895Y0296740D02*
X0065695Y0296740D01*
X0065695Y0295141D02*
X0058895Y0295141D01*
X0058895Y0293543D02*
X0065695Y0293543D01*
X0065695Y0291944D02*
X0058895Y0291944D01*
X0058895Y0290345D02*
X0065695Y0290345D01*
X0065695Y0288747D02*
X0058895Y0288747D01*
X0058895Y0287148D02*
X0065695Y0287148D01*
X0065695Y0285550D02*
X0058895Y0285550D01*
X0058895Y0283951D02*
X0065695Y0283951D01*
X0065695Y0282353D02*
X0058895Y0282353D01*
X0058895Y0280754D02*
X0065695Y0280754D01*
X0065695Y0279156D02*
X0058895Y0279156D01*
X0058895Y0277557D02*
X0065695Y0277557D01*
X0065695Y0275959D02*
X0058895Y0275959D01*
X0058895Y0274360D02*
X0065695Y0274360D01*
X0065695Y0272762D02*
X0058895Y0272762D01*
X0058895Y0271163D02*
X0065695Y0271163D01*
X0065695Y0269565D02*
X0058895Y0269565D01*
X0058895Y0267966D02*
X0065695Y0267966D01*
X0065695Y0266368D02*
X0058895Y0266368D01*
X0058895Y0264769D02*
X0065695Y0264769D01*
X0065695Y0263171D02*
X0058895Y0263171D01*
X0058895Y0261572D02*
X0065695Y0261572D01*
X0065695Y0259974D02*
X0058895Y0259974D01*
X0058895Y0258375D02*
X0065695Y0258375D01*
X0065695Y0256777D02*
X0058895Y0256777D01*
X0058895Y0255178D02*
X0065695Y0255178D01*
X0065695Y0253580D02*
X0058895Y0253580D01*
X0058895Y0251981D02*
X0065695Y0251981D01*
X0065695Y0250383D02*
X0058895Y0250383D01*
X0058895Y0248784D02*
X0065695Y0248784D01*
X0065695Y0247186D02*
X0058895Y0247186D01*
X0058895Y0245587D02*
X0065695Y0245587D01*
X0065695Y0243989D02*
X0058895Y0243989D01*
X0058895Y0242390D02*
X0065695Y0242390D01*
X0065695Y0240792D02*
X0058895Y0240792D01*
X0058895Y0239193D02*
X0065695Y0239193D01*
X0065695Y0237595D02*
X0058895Y0237595D01*
X0058895Y0235996D02*
X0065695Y0235996D01*
X0065695Y0234398D02*
X0058895Y0234398D01*
X0058895Y0232799D02*
X0065695Y0232799D01*
X0065695Y0231201D02*
X0058895Y0231201D01*
X0058895Y0229602D02*
X0065695Y0229602D01*
X0065695Y0228004D02*
X0058895Y0228004D01*
X0058895Y0226405D02*
X0065695Y0226405D01*
X0065695Y0224807D02*
X0058895Y0224807D01*
X0058895Y0223208D02*
X0065695Y0223208D01*
X0065695Y0221610D02*
X0058895Y0221610D01*
X0058895Y0220011D02*
X0065695Y0220011D01*
X0065695Y0218412D02*
X0058895Y0218412D01*
X0058895Y0216814D02*
X0065695Y0216814D01*
X0065695Y0215215D02*
X0058895Y0215215D01*
X0058895Y0213617D02*
X0065695Y0213617D01*
X0065695Y0212018D02*
X0058895Y0212018D01*
X0058895Y0210420D02*
X0065695Y0210420D01*
X0065695Y0208821D02*
X0058895Y0208821D01*
X0058895Y0207223D02*
X0065695Y0207223D01*
X0065695Y0205624D02*
X0058895Y0205624D01*
X0058895Y0204026D02*
X0065695Y0204026D01*
X0065695Y0202427D02*
X0058895Y0202427D01*
X0058895Y0200829D02*
X0065695Y0200829D01*
X0065695Y0199230D02*
X0058895Y0199230D01*
X0058895Y0197632D02*
X0065695Y0197632D01*
X0065695Y0196033D02*
X0058895Y0196033D01*
X0058895Y0194435D02*
X0065695Y0194435D01*
X0065695Y0192836D02*
X0058895Y0192836D01*
X0058895Y0191238D02*
X0065695Y0191238D01*
X0065695Y0189639D02*
X0058895Y0189639D01*
X0058895Y0188041D02*
X0065695Y0188041D01*
X0065695Y0186442D02*
X0058895Y0186442D01*
X0058895Y0184844D02*
X0065695Y0184844D01*
X0065695Y0183245D02*
X0058895Y0183245D01*
X0058895Y0181647D02*
X0065695Y0181647D01*
X0065695Y0180048D02*
X0058895Y0180048D01*
X0058895Y0178450D02*
X0065695Y0178450D01*
X0065990Y0176851D02*
X0058895Y0176851D01*
X0058895Y0175253D02*
X0251880Y0175253D01*
X0253310Y0175253D02*
X0539295Y0175253D01*
X0539295Y0176851D02*
X0363497Y0176851D01*
X0363738Y0177092D02*
X0364328Y0178517D01*
X0364328Y0180058D01*
X0363738Y0181482D01*
X0362648Y0182572D01*
X0361224Y0183162D01*
X0359683Y0183162D01*
X0358259Y0182572D01*
X0357169Y0181482D01*
X0356579Y0180058D01*
X0356579Y0178517D01*
X0357169Y0177092D01*
X0358259Y0176002D01*
X0359683Y0175413D01*
X0361224Y0175413D01*
X0362648Y0176002D01*
X0363738Y0177092D01*
X0364300Y0178450D02*
X0539295Y0178450D01*
X0539295Y0180048D02*
X0364328Y0180048D01*
X0363574Y0181647D02*
X0539295Y0181647D01*
X0539295Y0183245D02*
X0069495Y0183245D01*
X0069495Y0181647D02*
X0357333Y0181647D01*
X0356579Y0180048D02*
X0254369Y0180048D01*
X0255345Y0178450D02*
X0356606Y0178450D01*
X0357410Y0176851D02*
X0255124Y0176851D01*
X0250821Y0180048D02*
X0069495Y0180048D01*
X0069495Y0184844D02*
X0282956Y0184844D01*
X0282095Y0186442D02*
X0069495Y0186442D01*
X0069495Y0188041D02*
X0282095Y0188041D01*
X0282095Y0189639D02*
X0069495Y0189639D01*
X0069495Y0191238D02*
X0277916Y0191238D01*
X0279274Y0191238D02*
X0282095Y0191238D01*
X0282095Y0192836D02*
X0281117Y0192836D01*
X0281345Y0194435D02*
X0282095Y0194435D01*
X0282095Y0196033D02*
X0280384Y0196033D01*
X0282095Y0197632D02*
X0136495Y0197632D01*
X0136495Y0199230D02*
X0282095Y0199230D01*
X0282095Y0200829D02*
X0136495Y0200829D01*
X0136495Y0202427D02*
X0282095Y0202427D01*
X0282095Y0204026D02*
X0136495Y0204026D01*
X0136495Y0205624D02*
X0282095Y0205624D01*
X0282095Y0207223D02*
X0136495Y0207223D01*
X0136495Y0208821D02*
X0282095Y0208821D01*
X0282095Y0210420D02*
X0136495Y0210420D01*
X0136495Y0212018D02*
X0282095Y0212018D01*
X0282095Y0213617D02*
X0136495Y0213617D01*
X0136495Y0215215D02*
X0282095Y0215215D01*
X0282095Y0216814D02*
X0273365Y0216814D01*
X0274345Y0218412D02*
X0282095Y0218412D01*
X0282095Y0220011D02*
X0274125Y0220011D01*
X0272320Y0221610D02*
X0282095Y0221610D01*
X0282095Y0223208D02*
X0275302Y0223208D01*
X0275242Y0223183D02*
X0276253Y0223602D01*
X0277026Y0224375D01*
X0277445Y0225386D01*
X0277445Y0226480D01*
X0277026Y0227491D01*
X0276253Y0228264D01*
X0275242Y0228683D01*
X0274148Y0228683D01*
X0273137Y0228264D01*
X0273006Y0228133D01*
X0258284Y0228133D01*
X0258153Y0228264D01*
X0257142Y0228683D01*
X0256048Y0228683D01*
X0255037Y0228264D01*
X0254906Y0228133D01*
X0242338Y0228133D01*
X0242338Y0252787D01*
X0242470Y0252919D01*
X0242888Y0253929D01*
X0242888Y0255023D01*
X0242470Y0256034D01*
X0241696Y0256808D01*
X0240685Y0257226D01*
X0239591Y0257226D01*
X0238581Y0256808D01*
X0238449Y0256676D01*
X0198795Y0256676D01*
X0198795Y0267244D01*
X0198926Y0267375D01*
X0199345Y0268386D01*
X0199345Y0269480D01*
X0198926Y0270491D01*
X0198153Y0271264D01*
X0197142Y0271683D01*
X0196048Y0271683D01*
X0195037Y0271264D01*
X0194264Y0270491D01*
X0193845Y0269480D01*
X0193845Y0268386D01*
X0194264Y0267375D01*
X0194395Y0267244D01*
X0194395Y0253565D01*
X0195684Y0252276D01*
X0237938Y0252276D01*
X0237938Y0225022D01*
X0239227Y0223733D01*
X0254906Y0223733D01*
X0255037Y0223602D01*
X0256048Y0223183D01*
X0257142Y0223183D01*
X0258153Y0223602D01*
X0258284Y0223733D01*
X0273006Y0223733D01*
X0273137Y0223602D01*
X0274148Y0223183D01*
X0275242Y0223183D01*
X0274088Y0223208D02*
X0257202Y0223208D01*
X0255988Y0223208D02*
X0136495Y0223208D01*
X0136495Y0221610D02*
X0137871Y0221610D01*
X0139320Y0221610D02*
X0270871Y0221610D01*
X0269825Y0216814D02*
X0140365Y0216814D01*
X0136825Y0216814D02*
X0136495Y0216814D01*
X0132695Y0216814D02*
X0069495Y0216814D01*
X0069495Y0218412D02*
X0132695Y0218412D01*
X0132695Y0220011D02*
X0069495Y0220011D01*
X0069495Y0221610D02*
X0132695Y0221610D01*
X0132695Y0223208D02*
X0069495Y0223208D01*
X0069495Y0224807D02*
X0132695Y0224807D01*
X0132695Y0226405D02*
X0069495Y0226405D01*
X0069495Y0228004D02*
X0132695Y0228004D01*
X0132695Y0229602D02*
X0069495Y0229602D01*
X0069495Y0231201D02*
X0132695Y0231201D01*
X0132695Y0232799D02*
X0069495Y0232799D01*
X0069495Y0234398D02*
X0132695Y0234398D01*
X0132695Y0235996D02*
X0069495Y0235996D01*
X0069495Y0237595D02*
X0132695Y0237595D01*
X0132695Y0239193D02*
X0069495Y0239193D01*
X0069495Y0240792D02*
X0132695Y0240792D01*
X0132695Y0242390D02*
X0069495Y0242390D01*
X0069495Y0243989D02*
X0132695Y0243989D01*
X0132695Y0245587D02*
X0069495Y0245587D01*
X0069495Y0247186D02*
X0132695Y0247186D01*
X0132695Y0248784D02*
X0069495Y0248784D01*
X0069495Y0250383D02*
X0132695Y0250383D01*
X0132695Y0251981D02*
X0069495Y0251981D01*
X0069495Y0253580D02*
X0132695Y0253580D01*
X0132695Y0255178D02*
X0069495Y0255178D01*
X0069495Y0256777D02*
X0132695Y0256777D01*
X0132695Y0258375D02*
X0069495Y0258375D01*
X0069495Y0259974D02*
X0132695Y0259974D01*
X0132695Y0261572D02*
X0069495Y0261572D01*
X0069495Y0263171D02*
X0132695Y0263171D01*
X0132695Y0264769D02*
X0069495Y0264769D01*
X0069495Y0266368D02*
X0132695Y0266368D01*
X0132695Y0267966D02*
X0069495Y0267966D01*
X0069495Y0269565D02*
X0132695Y0269565D01*
X0132695Y0271163D02*
X0069495Y0271163D01*
X0069495Y0272762D02*
X0132695Y0272762D01*
X0132695Y0274360D02*
X0069495Y0274360D01*
X0069495Y0275959D02*
X0136495Y0275959D01*
X0138007Y0277557D02*
X0069495Y0277557D01*
X0069495Y0279156D02*
X0139160Y0279156D01*
X0137561Y0280754D02*
X0069495Y0280754D01*
X0069495Y0282353D02*
X0136495Y0282353D01*
X0136495Y0283951D02*
X0069495Y0283951D01*
X0069495Y0285550D02*
X0136495Y0285550D01*
X0137598Y0287148D02*
X0069495Y0287148D01*
X0069495Y0288747D02*
X0139197Y0288747D01*
X0137970Y0290345D02*
X0069495Y0290345D01*
X0069495Y0291944D02*
X0136495Y0291944D01*
X0136495Y0293543D02*
X0069495Y0293543D01*
X0069495Y0295141D02*
X0136495Y0295141D01*
X0137189Y0296740D02*
X0069495Y0296740D01*
X0069495Y0298338D02*
X0138788Y0298338D01*
X0139695Y0299937D02*
X0069495Y0299937D01*
X0069495Y0301535D02*
X0139695Y0301535D01*
X0139695Y0303134D02*
X0069495Y0303134D01*
X0069495Y0304732D02*
X0139707Y0304732D01*
X0144403Y0298338D02*
X0148788Y0298338D01*
X0147189Y0296740D02*
X0146001Y0296740D01*
X0155749Y0277557D02*
X0376330Y0277557D01*
X0375845Y0275959D02*
X0157095Y0275959D01*
X0157095Y0274360D02*
X0376279Y0274360D01*
X0376595Y0272762D02*
X0157095Y0272762D01*
X0156604Y0271163D02*
X0194936Y0271163D01*
X0193880Y0269565D02*
X0155005Y0269565D01*
X0151795Y0269565D02*
X0151395Y0269565D01*
X0151395Y0271163D02*
X0151795Y0271163D01*
X0151795Y0272762D02*
X0151395Y0272762D01*
X0148185Y0269565D02*
X0144439Y0269565D01*
X0146038Y0271163D02*
X0146587Y0271163D01*
X0138751Y0269565D02*
X0136495Y0269565D01*
X0136495Y0271163D02*
X0137152Y0271163D01*
X0136495Y0267966D02*
X0194019Y0267966D01*
X0194395Y0266368D02*
X0136495Y0266368D01*
X0136495Y0264769D02*
X0194395Y0264769D01*
X0194395Y0263171D02*
X0136495Y0263171D01*
X0136495Y0261572D02*
X0194395Y0261572D01*
X0194395Y0259974D02*
X0136495Y0259974D01*
X0136495Y0258375D02*
X0194395Y0258375D01*
X0194395Y0256777D02*
X0136495Y0256777D01*
X0136495Y0255178D02*
X0194395Y0255178D01*
X0194395Y0253580D02*
X0191080Y0253580D01*
X0190927Y0253733D02*
X0167264Y0253733D01*
X0166795Y0253264D01*
X0166795Y0230602D01*
X0167264Y0230133D01*
X0190927Y0230133D01*
X0191395Y0230602D01*
X0191395Y0253264D01*
X0190927Y0253733D01*
X0191395Y0251981D02*
X0237938Y0251981D01*
X0237938Y0250383D02*
X0191395Y0250383D01*
X0191395Y0248784D02*
X0237938Y0248784D01*
X0237938Y0247186D02*
X0191395Y0247186D01*
X0191395Y0245587D02*
X0237938Y0245587D01*
X0237938Y0243989D02*
X0191395Y0243989D01*
X0191395Y0242390D02*
X0237938Y0242390D01*
X0237938Y0240792D02*
X0191395Y0240792D01*
X0191395Y0239193D02*
X0237938Y0239193D01*
X0237938Y0237595D02*
X0191395Y0237595D01*
X0191395Y0235996D02*
X0237938Y0235996D01*
X0237938Y0234398D02*
X0191395Y0234398D01*
X0191395Y0232799D02*
X0237938Y0232799D01*
X0237938Y0231201D02*
X0191395Y0231201D01*
X0196595Y0254476D02*
X0196595Y0268933D01*
X0199171Y0267966D02*
X0214673Y0267966D01*
X0214695Y0267944D02*
X0214695Y0262922D01*
X0214264Y0262491D01*
X0213845Y0261480D01*
X0213845Y0260386D01*
X0214264Y0259375D01*
X0215037Y0258602D01*
X0216048Y0258183D01*
X0217142Y0258183D01*
X0218153Y0258602D01*
X0218926Y0259375D01*
X0219345Y0260386D01*
X0219345Y0261480D01*
X0218926Y0262491D01*
X0218495Y0262922D01*
X0218495Y0267944D01*
X0218926Y0268375D01*
X0219345Y0269386D01*
X0219345Y0270480D01*
X0218926Y0271491D01*
X0218153Y0272264D01*
X0217142Y0272683D01*
X0216048Y0272683D01*
X0215037Y0272264D01*
X0214264Y0271491D01*
X0213845Y0270480D01*
X0213845Y0269386D01*
X0214264Y0268375D01*
X0214695Y0267944D01*
X0214695Y0266368D02*
X0198795Y0266368D01*
X0198795Y0264769D02*
X0214695Y0264769D01*
X0214695Y0263171D02*
X0198795Y0263171D01*
X0198795Y0261572D02*
X0213883Y0261572D01*
X0214016Y0259974D02*
X0198795Y0259974D01*
X0198795Y0258375D02*
X0215584Y0258375D01*
X0217606Y0258375D02*
X0376595Y0258375D01*
X0376595Y0256777D02*
X0241727Y0256777D01*
X0242824Y0255178D02*
X0287153Y0255178D01*
X0286695Y0253580D02*
X0242744Y0253580D01*
X0242338Y0251981D02*
X0286695Y0251981D01*
X0286695Y0250383D02*
X0242338Y0250383D01*
X0242338Y0248784D02*
X0286695Y0248784D01*
X0286695Y0247186D02*
X0242338Y0247186D01*
X0242338Y0245587D02*
X0286695Y0245587D01*
X0286695Y0243989D02*
X0242338Y0243989D01*
X0242338Y0242390D02*
X0286695Y0242390D01*
X0286695Y0240792D02*
X0242338Y0240792D01*
X0242338Y0239193D02*
X0286695Y0239193D01*
X0286368Y0237595D02*
X0285923Y0237595D01*
X0282268Y0237595D02*
X0242338Y0237595D01*
X0242338Y0235996D02*
X0281345Y0235996D01*
X0281589Y0234398D02*
X0242338Y0234398D01*
X0242338Y0232799D02*
X0282095Y0232799D01*
X0282095Y0231201D02*
X0242338Y0231201D01*
X0242338Y0229602D02*
X0282095Y0229602D01*
X0282095Y0228004D02*
X0276514Y0228004D01*
X0277445Y0226405D02*
X0282095Y0226405D01*
X0282095Y0224807D02*
X0277205Y0224807D01*
X0274695Y0225933D02*
X0256595Y0225933D01*
X0240138Y0225933D01*
X0240138Y0254476D01*
X0196595Y0254476D01*
X0198795Y0256777D02*
X0238550Y0256777D01*
X0219174Y0259974D02*
X0376595Y0259974D01*
X0376595Y0261572D02*
X0219307Y0261572D01*
X0218495Y0263171D02*
X0376595Y0263171D01*
X0376595Y0264769D02*
X0339320Y0264769D01*
X0339153Y0264602D02*
X0339926Y0265375D01*
X0340345Y0266386D01*
X0340345Y0267480D01*
X0339926Y0268491D01*
X0339153Y0269264D01*
X0338142Y0269683D01*
X0337048Y0269683D01*
X0336037Y0269264D01*
X0335606Y0268833D01*
X0317757Y0268833D01*
X0317326Y0269264D01*
X0316315Y0269683D01*
X0315221Y0269683D01*
X0314211Y0269264D01*
X0313437Y0268491D01*
X0313018Y0267480D01*
X0313018Y0266386D01*
X0313437Y0265375D01*
X0314211Y0264602D01*
X0315221Y0264183D01*
X0316315Y0264183D01*
X0317326Y0264602D01*
X0317757Y0265033D01*
X0335606Y0265033D01*
X0336037Y0264602D01*
X0337048Y0264183D01*
X0338142Y0264183D01*
X0339153Y0264602D01*
X0340338Y0266368D02*
X0376595Y0266368D01*
X0376595Y0267966D02*
X0340144Y0267966D01*
X0338428Y0269565D02*
X0376595Y0269565D01*
X0376595Y0271163D02*
X0219062Y0271163D01*
X0219345Y0269565D02*
X0314936Y0269565D01*
X0316601Y0269565D02*
X0336763Y0269565D01*
X0335870Y0264769D02*
X0317494Y0264769D01*
X0314043Y0264769D02*
X0218495Y0264769D01*
X0218495Y0266368D02*
X0313026Y0266368D01*
X0313220Y0267966D02*
X0218517Y0267966D01*
X0213845Y0269565D02*
X0199310Y0269565D01*
X0198254Y0271163D02*
X0214128Y0271163D01*
X0218700Y0287148D02*
X0387944Y0287148D01*
X0387956Y0288747D02*
X0219345Y0288747D01*
X0218987Y0290345D02*
X0389233Y0290345D01*
X0391957Y0290345D02*
X0393595Y0290345D01*
X0393595Y0291944D02*
X0268495Y0291944D01*
X0269345Y0293543D02*
X0393595Y0293543D01*
X0393595Y0295141D02*
X0269071Y0295141D01*
X0266345Y0296740D02*
X0393595Y0296740D01*
X0393595Y0298338D02*
X0265990Y0298338D01*
X0264884Y0301535D02*
X0387198Y0301535D01*
X0386845Y0303134D02*
X0266116Y0303134D01*
X0266345Y0304732D02*
X0387505Y0304732D01*
X0387695Y0306331D02*
X0265387Y0306331D01*
X0265156Y0307929D02*
X0387695Y0307929D01*
X0387695Y0309528D02*
X0265974Y0309528D01*
X0267237Y0311126D02*
X0387695Y0311126D01*
X0387695Y0312725D02*
X0267244Y0312725D01*
X0266011Y0314323D02*
X0349816Y0314323D01*
X0350037Y0314102D02*
X0351048Y0313683D01*
X0352142Y0313683D01*
X0353153Y0314102D01*
X0353926Y0314875D01*
X0354345Y0315886D01*
X0354345Y0316980D01*
X0353926Y0317991D01*
X0353395Y0318522D01*
X0353395Y0322179D01*
X0352341Y0323233D01*
X0284841Y0323233D01*
X0274841Y0333233D01*
X0273684Y0333233D01*
X0273153Y0333764D01*
X0272142Y0334183D01*
X0271048Y0334183D01*
X0270037Y0333764D01*
X0269264Y0332991D01*
X0268845Y0331980D01*
X0268845Y0330886D01*
X0269264Y0329875D01*
X0270037Y0329102D01*
X0271048Y0328683D01*
X0272142Y0328683D01*
X0273153Y0329102D01*
X0273517Y0329466D01*
X0282295Y0320687D01*
X0283350Y0319633D01*
X0349795Y0319633D01*
X0349795Y0318522D01*
X0349264Y0317991D01*
X0348845Y0316980D01*
X0348845Y0315886D01*
X0349264Y0314875D01*
X0350037Y0314102D01*
X0348845Y0315922D02*
X0069495Y0315922D01*
X0069495Y0317520D02*
X0349069Y0317520D01*
X0349795Y0319119D02*
X0069495Y0319119D01*
X0069495Y0320717D02*
X0174122Y0320717D01*
X0174264Y0320375D02*
X0175037Y0319602D01*
X0176048Y0319183D01*
X0177142Y0319183D01*
X0178153Y0319602D01*
X0178284Y0319733D01*
X0222906Y0319733D01*
X0223037Y0319602D01*
X0224048Y0319183D01*
X0225142Y0319183D01*
X0226153Y0319602D01*
X0226926Y0320375D01*
X0227345Y0321386D01*
X0227345Y0322480D01*
X0226926Y0323491D01*
X0226153Y0324264D01*
X0225142Y0324683D01*
X0224048Y0324683D01*
X0223037Y0324264D01*
X0222906Y0324133D01*
X0178284Y0324133D01*
X0178153Y0324264D01*
X0177142Y0324683D01*
X0176048Y0324683D01*
X0175037Y0324264D01*
X0174264Y0323491D01*
X0173845Y0322480D01*
X0173845Y0321386D01*
X0174264Y0320375D01*
X0173845Y0322316D02*
X0069495Y0322316D01*
X0069495Y0323914D02*
X0174687Y0323914D01*
X0176595Y0321933D02*
X0224595Y0321933D01*
X0226503Y0323914D02*
X0237687Y0323914D01*
X0238037Y0324264D02*
X0237264Y0323491D01*
X0236845Y0322480D01*
X0236845Y0321386D01*
X0237264Y0320375D01*
X0238037Y0319602D01*
X0239048Y0319183D01*
X0240142Y0319183D01*
X0241153Y0319602D01*
X0241584Y0320033D01*
X0245606Y0320033D01*
X0246037Y0319602D01*
X0247048Y0319183D01*
X0248142Y0319183D01*
X0249153Y0319602D01*
X0249926Y0320375D01*
X0250345Y0321386D01*
X0250345Y0322480D01*
X0249926Y0323491D01*
X0249153Y0324264D01*
X0248142Y0324683D01*
X0247048Y0324683D01*
X0246037Y0324264D01*
X0245606Y0323833D01*
X0241584Y0323833D01*
X0241153Y0324264D01*
X0240142Y0324683D01*
X0239048Y0324683D01*
X0238037Y0324264D01*
X0236845Y0322316D02*
X0227345Y0322316D01*
X0227068Y0320717D02*
X0237122Y0320717D01*
X0241503Y0323914D02*
X0245687Y0323914D01*
X0249503Y0323914D02*
X0279068Y0323914D01*
X0277470Y0325513D02*
X0069495Y0325513D01*
X0069495Y0327111D02*
X0275871Y0327111D01*
X0274273Y0328710D02*
X0272207Y0328710D01*
X0270984Y0328710D02*
X0069495Y0328710D01*
X0069495Y0330308D02*
X0269084Y0330308D01*
X0268845Y0331907D02*
X0069495Y0331907D01*
X0069495Y0333505D02*
X0269778Y0333505D01*
X0273412Y0333505D02*
X0387695Y0333505D01*
X0387695Y0331907D02*
X0276167Y0331907D01*
X0277766Y0330308D02*
X0387695Y0330308D01*
X0387695Y0328710D02*
X0279364Y0328710D01*
X0280963Y0327111D02*
X0387695Y0327111D01*
X0387695Y0325513D02*
X0282561Y0325513D01*
X0284160Y0323914D02*
X0387695Y0323914D01*
X0387695Y0322316D02*
X0353258Y0322316D01*
X0353395Y0320717D02*
X0387695Y0320717D01*
X0387695Y0319119D02*
X0353395Y0319119D01*
X0354121Y0317520D02*
X0387695Y0317520D01*
X0387695Y0315922D02*
X0354345Y0315922D01*
X0353374Y0314323D02*
X0387695Y0314323D01*
X0400595Y0314323D02*
X0509417Y0314323D01*
X0509417Y0312725D02*
X0400595Y0312725D01*
X0403291Y0311126D02*
X0509417Y0311126D01*
X0509417Y0309528D02*
X0404325Y0309528D01*
X0404156Y0307929D02*
X0509417Y0307929D01*
X0509417Y0306331D02*
X0403595Y0306331D01*
X0403595Y0304732D02*
X0509417Y0304732D01*
X0509417Y0303134D02*
X0403595Y0303134D01*
X0403595Y0301535D02*
X0509417Y0301535D01*
X0509417Y0299937D02*
X0403595Y0299937D01*
X0403595Y0298338D02*
X0509417Y0298338D01*
X0509417Y0296740D02*
X0403595Y0296740D01*
X0403595Y0295141D02*
X0509417Y0295141D01*
X0509417Y0293543D02*
X0403595Y0293543D01*
X0403595Y0291944D02*
X0509417Y0291944D01*
X0509417Y0290345D02*
X0403595Y0290345D01*
X0403595Y0288747D02*
X0509417Y0288747D01*
X0509417Y0287148D02*
X0403595Y0287148D01*
X0403595Y0285550D02*
X0509417Y0285550D01*
X0513795Y0283951D02*
X0403595Y0283951D01*
X0403595Y0282353D02*
X0513795Y0282353D01*
X0513795Y0280754D02*
X0403595Y0280754D01*
X0403595Y0279156D02*
X0513795Y0279156D01*
X0513795Y0277557D02*
X0403860Y0277557D01*
X0404345Y0275959D02*
X0513795Y0275959D01*
X0513795Y0248784D02*
X0464495Y0248784D01*
X0465053Y0247186D02*
X0513795Y0247186D01*
X0513795Y0245587D02*
X0465345Y0245587D01*
X0464540Y0243989D02*
X0513795Y0243989D01*
X0539295Y0191238D02*
X0292274Y0191238D01*
X0290916Y0191238D02*
X0286095Y0191238D01*
X0286095Y0192836D02*
X0289073Y0192836D01*
X0288845Y0194435D02*
X0286095Y0194435D01*
X0286095Y0196033D02*
X0289806Y0196033D01*
X0293384Y0196033D02*
X0354695Y0196033D01*
X0354695Y0197632D02*
X0286095Y0197632D01*
X0286095Y0199230D02*
X0333520Y0199230D01*
X0331921Y0200829D02*
X0286095Y0200829D01*
X0286095Y0202427D02*
X0331095Y0202427D01*
X0331095Y0205624D02*
X0286095Y0205624D01*
X0286095Y0204026D02*
X0336395Y0204026D01*
X0336395Y0202427D02*
X0336795Y0202427D01*
X0336795Y0200829D02*
X0336395Y0200829D01*
X0336395Y0199230D02*
X0336795Y0199230D01*
X0339671Y0199230D02*
X0344085Y0199230D01*
X0342487Y0200829D02*
X0341269Y0200829D01*
X0349105Y0199230D02*
X0354085Y0199230D01*
X0352487Y0200829D02*
X0350703Y0200829D01*
X0358495Y0197632D02*
X0364395Y0197632D01*
X0364395Y0196033D02*
X0358495Y0196033D01*
X0358495Y0194435D02*
X0364395Y0194435D01*
X0364581Y0192836D02*
X0358185Y0192836D01*
X0359105Y0199230D02*
X0364085Y0199230D01*
X0362487Y0200829D02*
X0360703Y0200829D01*
X0366595Y0203933D02*
X0366595Y0193933D01*
X0396595Y0193933D01*
X0396595Y0223933D01*
X0396595Y0248933D01*
X0393845Y0248784D02*
X0387495Y0248784D01*
X0387495Y0247186D02*
X0394395Y0247186D01*
X0394395Y0245587D02*
X0387495Y0245587D01*
X0386142Y0243683D02*
X0385048Y0243683D01*
X0384037Y0243264D01*
X0383706Y0242933D01*
X0379484Y0242933D01*
X0379153Y0243264D01*
X0378142Y0243683D01*
X0377048Y0243683D01*
X0376037Y0243264D01*
X0375264Y0242491D01*
X0374845Y0241480D01*
X0374845Y0240386D01*
X0375264Y0239375D01*
X0376037Y0238602D01*
X0377048Y0238183D01*
X0378142Y0238183D01*
X0379153Y0238602D01*
X0379484Y0238933D01*
X0383706Y0238933D01*
X0384037Y0238602D01*
X0385048Y0238183D01*
X0386142Y0238183D01*
X0387153Y0238602D01*
X0387926Y0239375D01*
X0388345Y0240386D01*
X0388345Y0241480D01*
X0387926Y0242491D01*
X0387153Y0243264D01*
X0386142Y0243683D01*
X0387968Y0242390D02*
X0394395Y0242390D01*
X0394395Y0240792D02*
X0388345Y0240792D01*
X0387744Y0239193D02*
X0394395Y0239193D01*
X0394395Y0237595D02*
X0339395Y0237595D01*
X0339395Y0239193D02*
X0375446Y0239193D01*
X0374845Y0240792D02*
X0339395Y0240792D01*
X0339641Y0242390D02*
X0375222Y0242390D01*
X0383695Y0248784D02*
X0353495Y0248784D01*
X0353495Y0250383D02*
X0376261Y0250383D01*
X0375845Y0251981D02*
X0353495Y0251981D01*
X0353495Y0253580D02*
X0376353Y0253580D01*
X0376595Y0255178D02*
X0353037Y0255178D01*
X0349695Y0251981D02*
X0290495Y0251981D01*
X0290495Y0250383D02*
X0349695Y0250383D01*
X0349695Y0248784D02*
X0290495Y0248784D01*
X0290495Y0247186D02*
X0349695Y0247186D01*
X0349695Y0245587D02*
X0340011Y0245587D01*
X0340345Y0243989D02*
X0394395Y0243989D01*
X0398795Y0243989D02*
X0407795Y0243989D01*
X0407795Y0245587D02*
X0398795Y0245587D01*
X0398795Y0247186D02*
X0407795Y0247186D01*
X0407795Y0248784D02*
X0399345Y0248784D01*
X0398971Y0250383D02*
X0407795Y0250383D01*
X0407795Y0251981D02*
X0387495Y0251981D01*
X0387495Y0250383D02*
X0394219Y0250383D01*
X0398795Y0242390D02*
X0407795Y0242390D01*
X0407795Y0240792D02*
X0398795Y0240792D01*
X0398795Y0239193D02*
X0407795Y0239193D01*
X0407795Y0237595D02*
X0398795Y0237595D01*
X0398795Y0235996D02*
X0407795Y0235996D01*
X0407795Y0234398D02*
X0398795Y0234398D01*
X0398795Y0232799D02*
X0407795Y0232799D01*
X0407795Y0231201D02*
X0398795Y0231201D01*
X0394395Y0231201D02*
X0394345Y0231201D01*
X0394395Y0232799D02*
X0394089Y0232799D01*
X0394395Y0234398D02*
X0340245Y0234398D01*
X0339866Y0235996D02*
X0394395Y0235996D01*
X0394395Y0229602D02*
X0393453Y0229602D01*
X0394395Y0228004D02*
X0326345Y0228004D01*
X0326087Y0229602D02*
X0389737Y0229602D01*
X0394395Y0226405D02*
X0325495Y0226405D01*
X0325495Y0224807D02*
X0344395Y0224807D01*
X0344395Y0223208D02*
X0325495Y0223208D01*
X0325495Y0221610D02*
X0344395Y0221610D01*
X0344395Y0220011D02*
X0325495Y0220011D01*
X0325495Y0218412D02*
X0333862Y0218412D01*
X0332264Y0216814D02*
X0325495Y0216814D01*
X0321695Y0216814D02*
X0286095Y0216814D01*
X0286095Y0218412D02*
X0321695Y0218412D01*
X0321695Y0220011D02*
X0286095Y0220011D01*
X0286095Y0221610D02*
X0321695Y0221610D01*
X0321695Y0223208D02*
X0286095Y0223208D01*
X0286095Y0224807D02*
X0321695Y0224807D01*
X0321695Y0226405D02*
X0286095Y0226405D01*
X0286095Y0228004D02*
X0320845Y0228004D01*
X0321103Y0229602D02*
X0293753Y0229602D01*
X0290037Y0229602D02*
X0286095Y0229602D01*
X0286095Y0231201D02*
X0289145Y0231201D01*
X0289402Y0232799D02*
X0286095Y0232799D01*
X0290936Y0234398D02*
X0334745Y0234398D01*
X0335125Y0235996D02*
X0291345Y0235996D01*
X0290823Y0237595D02*
X0335595Y0237595D01*
X0335595Y0239193D02*
X0290495Y0239193D01*
X0290495Y0240792D02*
X0335595Y0240792D01*
X0335549Y0242390D02*
X0290495Y0242390D01*
X0290495Y0243989D02*
X0334845Y0243989D01*
X0335179Y0245587D02*
X0290495Y0245587D01*
X0286095Y0215215D02*
X0321695Y0215215D01*
X0321695Y0213617D02*
X0286095Y0213617D01*
X0286095Y0212018D02*
X0331495Y0212018D01*
X0332896Y0210420D02*
X0286095Y0210420D01*
X0286095Y0208821D02*
X0333705Y0208821D01*
X0332107Y0207223D02*
X0286095Y0207223D01*
X0276806Y0196033D02*
X0136495Y0196033D01*
X0132695Y0196033D02*
X0069495Y0196033D01*
X0069495Y0194435D02*
X0132695Y0194435D01*
X0133005Y0192836D02*
X0069495Y0192836D01*
X0069495Y0197632D02*
X0132695Y0197632D01*
X0132695Y0199230D02*
X0069495Y0199230D01*
X0069495Y0200829D02*
X0132695Y0200829D01*
X0132695Y0202427D02*
X0069495Y0202427D01*
X0069495Y0204026D02*
X0132695Y0204026D01*
X0132695Y0205624D02*
X0069495Y0205624D01*
X0069495Y0207223D02*
X0132695Y0207223D01*
X0132695Y0208821D02*
X0069495Y0208821D01*
X0069495Y0210420D02*
X0132695Y0210420D01*
X0132695Y0212018D02*
X0069495Y0212018D01*
X0069495Y0213617D02*
X0132695Y0213617D01*
X0132695Y0215215D02*
X0069495Y0215215D01*
X0058895Y0173654D02*
X0539295Y0173654D01*
X0539295Y0172056D02*
X0058895Y0172056D01*
X0058895Y0170457D02*
X0084250Y0170457D01*
X0084264Y0170491D02*
X0083845Y0169480D01*
X0083845Y0168386D01*
X0084264Y0167375D01*
X0085037Y0166602D01*
X0086048Y0166183D01*
X0087142Y0166183D01*
X0088153Y0166602D01*
X0088584Y0167033D01*
X0389606Y0167033D01*
X0390037Y0166602D01*
X0391048Y0166183D01*
X0392142Y0166183D01*
X0393153Y0166602D01*
X0393926Y0167375D01*
X0394345Y0168386D01*
X0394345Y0169480D01*
X0393926Y0170491D01*
X0393153Y0171264D01*
X0392142Y0171683D01*
X0391048Y0171683D01*
X0390037Y0171264D01*
X0389606Y0170833D01*
X0088584Y0170833D01*
X0088153Y0171264D01*
X0087142Y0171683D01*
X0086048Y0171683D01*
X0085037Y0171264D01*
X0084264Y0170491D01*
X0083845Y0168859D02*
X0058895Y0168859D01*
X0058895Y0167260D02*
X0084379Y0167260D01*
X0058895Y0165662D02*
X0539295Y0165662D01*
X0539295Y0167260D02*
X0393811Y0167260D01*
X0394345Y0168859D02*
X0539295Y0168859D01*
X0539295Y0170457D02*
X0393940Y0170457D01*
X0411195Y0184844D02*
X0539295Y0184844D01*
X0539295Y0186442D02*
X0411745Y0186442D01*
X0411347Y0188041D02*
X0539295Y0188041D01*
X0539295Y0189639D02*
X0286095Y0189639D01*
X0332956Y0157270D02*
X0332366Y0155846D01*
X0332366Y0154304D01*
X0332956Y0152880D01*
X0334046Y0151790D01*
X0335470Y0151200D01*
X0337012Y0151200D01*
X0338436Y0151790D01*
X0339526Y0152880D01*
X0340116Y0154304D01*
X0340116Y0155846D01*
X0339526Y0157270D01*
X0338436Y0158360D01*
X0337012Y0158950D01*
X0335470Y0158950D01*
X0334046Y0158360D01*
X0332956Y0157270D01*
X0333355Y0157669D02*
X0058895Y0157669D01*
X0058895Y0156071D02*
X0332459Y0156071D01*
X0332366Y0154472D02*
X0058895Y0154472D01*
X0058895Y0152874D02*
X0332962Y0152874D01*
X0335289Y0151275D02*
X0321777Y0151275D01*
X0321802Y0151264D02*
X0320792Y0151683D01*
X0319698Y0151683D01*
X0318687Y0151264D01*
X0318256Y0150833D01*
X0178584Y0150833D01*
X0178153Y0151264D01*
X0177142Y0151683D01*
X0176048Y0151683D01*
X0175037Y0151264D01*
X0174264Y0150491D01*
X0173845Y0149480D01*
X0173845Y0148386D01*
X0174264Y0147375D01*
X0175037Y0146602D01*
X0176048Y0146183D01*
X0177142Y0146183D01*
X0178153Y0146602D01*
X0178584Y0147033D01*
X0318256Y0147033D01*
X0318687Y0146602D01*
X0319698Y0146183D01*
X0320792Y0146183D01*
X0321802Y0146602D01*
X0322576Y0147375D01*
X0322995Y0148386D01*
X0322995Y0149480D01*
X0322576Y0150491D01*
X0321802Y0151264D01*
X0322913Y0149677D02*
X0539295Y0149677D01*
X0539295Y0151275D02*
X0337193Y0151275D01*
X0339519Y0152874D02*
X0539295Y0152874D01*
X0539295Y0154472D02*
X0340116Y0154472D01*
X0340022Y0156071D02*
X0539295Y0156071D01*
X0539295Y0157669D02*
X0339126Y0157669D01*
X0322867Y0148078D02*
X0539295Y0148078D01*
X0539295Y0146479D02*
X0321507Y0146479D01*
X0318982Y0146479D02*
X0177858Y0146479D01*
X0175333Y0146479D02*
X0058895Y0146479D01*
X0058895Y0144881D02*
X0539295Y0144881D01*
X0539295Y0143282D02*
X0058895Y0143282D01*
X0058895Y0141684D02*
X0539295Y0141684D01*
X0539295Y0140085D02*
X0058895Y0140085D01*
X0058895Y0138487D02*
X0539295Y0138487D01*
X0539295Y0136888D02*
X0058895Y0136888D01*
X0058895Y0135290D02*
X0083627Y0135290D01*
X0083383Y0135224D02*
X0080008Y0133276D01*
X0077252Y0130520D01*
X0075304Y0127146D01*
X0074295Y0123382D01*
X0074295Y0119485D01*
X0075304Y0115720D01*
X0077252Y0112346D01*
X0080008Y0109590D01*
X0083383Y0107642D01*
X0087147Y0106633D01*
X0091044Y0106633D01*
X0094808Y0107642D01*
X0098183Y0109590D01*
X0100938Y0112346D01*
X0102887Y0115720D01*
X0103895Y0119485D01*
X0103895Y0123382D01*
X0102887Y0127146D01*
X0100938Y0130520D01*
X0098183Y0133276D01*
X0094808Y0135224D01*
X0091044Y0136233D01*
X0087147Y0136233D01*
X0083383Y0135224D01*
X0080727Y0133691D02*
X0058895Y0133691D01*
X0058895Y0132093D02*
X0078825Y0132093D01*
X0077237Y0130494D02*
X0058895Y0130494D01*
X0058895Y0128896D02*
X0076314Y0128896D01*
X0075391Y0127297D02*
X0058895Y0127297D01*
X0058895Y0125699D02*
X0074916Y0125699D01*
X0074488Y0124100D02*
X0058895Y0124100D01*
X0058895Y0122502D02*
X0074295Y0122502D01*
X0074295Y0120903D02*
X0058895Y0120903D01*
X0058895Y0119305D02*
X0074343Y0119305D01*
X0074772Y0117706D02*
X0058895Y0117706D01*
X0058895Y0116108D02*
X0075200Y0116108D01*
X0076003Y0114509D02*
X0058895Y0114509D01*
X0058895Y0112911D02*
X0076926Y0112911D01*
X0078286Y0111312D02*
X0058895Y0111312D01*
X0058895Y0109714D02*
X0079884Y0109714D01*
X0082562Y0108115D02*
X0058895Y0108115D01*
X0058895Y0106517D02*
X0539295Y0106517D01*
X0539295Y0108115D02*
X0515628Y0108115D01*
X0514808Y0107642D02*
X0511044Y0106633D01*
X0507147Y0106633D01*
X0503383Y0107642D01*
X0500008Y0109590D01*
X0497252Y0112346D01*
X0495304Y0115720D01*
X0494295Y0119485D01*
X0494295Y0123382D01*
X0495304Y0127146D01*
X0497252Y0130520D01*
X0500008Y0133276D01*
X0503383Y0135224D01*
X0507147Y0136233D01*
X0511044Y0136233D01*
X0514808Y0135224D01*
X0518183Y0133276D01*
X0520938Y0130520D01*
X0522887Y0127146D01*
X0523895Y0123382D01*
X0523895Y0119485D01*
X0522887Y0115720D01*
X0520938Y0112346D01*
X0518183Y0109590D01*
X0514808Y0107642D01*
X0518306Y0109714D02*
X0539295Y0109714D01*
X0539295Y0111312D02*
X0519905Y0111312D01*
X0521264Y0112911D02*
X0539295Y0112911D01*
X0539295Y0114509D02*
X0522187Y0114509D01*
X0522990Y0116108D02*
X0539295Y0116108D01*
X0539295Y0117706D02*
X0523419Y0117706D01*
X0523847Y0119305D02*
X0539295Y0119305D01*
X0539295Y0120903D02*
X0523895Y0120903D01*
X0523895Y0122502D02*
X0539295Y0122502D01*
X0539295Y0124100D02*
X0523703Y0124100D01*
X0523274Y0125699D02*
X0539295Y0125699D01*
X0539295Y0127297D02*
X0522799Y0127297D01*
X0521876Y0128896D02*
X0539295Y0128896D01*
X0539295Y0130494D02*
X0520953Y0130494D01*
X0519366Y0132093D02*
X0539295Y0132093D01*
X0539295Y0133691D02*
X0517463Y0133691D01*
X0514564Y0135290D02*
X0539295Y0135290D01*
X0539295Y0159268D02*
X0058895Y0159268D01*
X0058895Y0160866D02*
X0539295Y0160866D01*
X0539295Y0162465D02*
X0058895Y0162465D01*
X0058895Y0164063D02*
X0539295Y0164063D01*
X0503627Y0135290D02*
X0094564Y0135290D01*
X0097463Y0133691D02*
X0500727Y0133691D01*
X0498825Y0132093D02*
X0099366Y0132093D01*
X0100953Y0130494D02*
X0497237Y0130494D01*
X0496314Y0128896D02*
X0101876Y0128896D01*
X0102799Y0127297D02*
X0495391Y0127297D01*
X0494916Y0125699D02*
X0103274Y0125699D01*
X0103703Y0124100D02*
X0494488Y0124100D01*
X0494295Y0122502D02*
X0103895Y0122502D01*
X0103895Y0120903D02*
X0494295Y0120903D01*
X0494343Y0119305D02*
X0103847Y0119305D01*
X0103419Y0117706D02*
X0494772Y0117706D01*
X0495200Y0116108D02*
X0102990Y0116108D01*
X0102187Y0114509D02*
X0496003Y0114509D01*
X0496926Y0112911D02*
X0101264Y0112911D01*
X0099905Y0111312D02*
X0498286Y0111312D01*
X0499884Y0109714D02*
X0098306Y0109714D01*
X0095628Y0108115D02*
X0502562Y0108115D01*
X0535170Y0092130D02*
X0063020Y0092130D01*
X0060976Y0093729D02*
X0537214Y0093729D01*
X0538376Y0095327D02*
X0059814Y0095327D01*
X0059251Y0096926D02*
X0538939Y0096926D01*
X0539263Y0098524D02*
X0058927Y0098524D01*
X0058895Y0100123D02*
X0539295Y0100123D01*
X0539295Y0101721D02*
X0058895Y0101721D01*
X0058895Y0103320D02*
X0539295Y0103320D01*
X0539295Y0104918D02*
X0058895Y0104918D01*
X0058895Y0148078D02*
X0173973Y0148078D01*
X0173927Y0149677D02*
X0058895Y0149677D01*
X0058895Y0151275D02*
X0175063Y0151275D01*
X0178127Y0151275D02*
X0318713Y0151275D01*
X0368795Y0196133D02*
X0368795Y0198921D01*
X0371312Y0201438D01*
X0374317Y0198433D01*
X0376395Y0198433D01*
X0376395Y0203733D01*
X0376795Y0203733D01*
X0376795Y0198433D01*
X0378873Y0198433D01*
X0382095Y0201655D01*
X0382095Y0203733D01*
X0376795Y0203733D01*
X0376795Y0204133D01*
X0382095Y0204133D01*
X0382095Y0206211D01*
X0379090Y0209216D01*
X0381695Y0211821D01*
X0381695Y0216046D01*
X0378708Y0219033D01*
X0374483Y0219033D01*
X0371595Y0216146D01*
X0368708Y0219033D01*
X0364483Y0219033D01*
X0361595Y0216146D01*
X0358708Y0219033D01*
X0354483Y0219033D01*
X0351595Y0216146D01*
X0348795Y0218946D01*
X0348795Y0221733D01*
X0394395Y0221733D01*
X0394395Y0196133D01*
X0368795Y0196133D01*
X0368795Y0197632D02*
X0394395Y0197632D01*
X0394395Y0199230D02*
X0379671Y0199230D01*
X0381269Y0200829D02*
X0394395Y0200829D01*
X0394395Y0202427D02*
X0382095Y0202427D01*
X0382095Y0205624D02*
X0394395Y0205624D01*
X0394395Y0204026D02*
X0376795Y0204026D01*
X0376795Y0202427D02*
X0376395Y0202427D01*
X0376395Y0200829D02*
X0376795Y0200829D01*
X0376795Y0199230D02*
X0376395Y0199230D01*
X0373520Y0199230D02*
X0369105Y0199230D01*
X0370703Y0200829D02*
X0371921Y0200829D01*
X0379485Y0208821D02*
X0394395Y0208821D01*
X0394395Y0207223D02*
X0381083Y0207223D01*
X0380294Y0210420D02*
X0394395Y0210420D01*
X0394395Y0212018D02*
X0381695Y0212018D01*
X0381695Y0213617D02*
X0394395Y0213617D01*
X0394395Y0215215D02*
X0381695Y0215215D01*
X0380927Y0216814D02*
X0394395Y0216814D01*
X0394395Y0218412D02*
X0379328Y0218412D01*
X0373862Y0218412D02*
X0369328Y0218412D01*
X0370927Y0216814D02*
X0372264Y0216814D01*
X0363862Y0218412D02*
X0359328Y0218412D01*
X0360927Y0216814D02*
X0362264Y0216814D01*
X0353862Y0218412D02*
X0349328Y0218412D01*
X0348795Y0220011D02*
X0394395Y0220011D01*
X0394395Y0221610D02*
X0348795Y0221610D01*
X0346595Y0223933D02*
X0396595Y0223933D01*
X0383695Y0250383D02*
X0380930Y0250383D01*
X0381345Y0251981D02*
X0383695Y0251981D01*
X0383695Y0253580D02*
X0380838Y0253580D01*
X0380595Y0255178D02*
X0384153Y0255178D01*
X0391466Y0283951D02*
X0396595Y0283951D01*
X0396595Y0285550D02*
X0392028Y0285550D01*
X0400595Y0315922D02*
X0509417Y0315922D01*
X0509417Y0317520D02*
X0400595Y0317520D01*
X0400595Y0319119D02*
X0509417Y0319119D01*
X0509417Y0320717D02*
X0400595Y0320717D01*
X0400595Y0322316D02*
X0509417Y0322316D01*
X0509417Y0323914D02*
X0400595Y0323914D01*
X0402938Y0325513D02*
X0509417Y0325513D01*
X0509417Y0327111D02*
X0404231Y0327111D01*
X0404250Y0328710D02*
X0509417Y0328710D01*
X0509417Y0330308D02*
X0403047Y0330308D01*
X0400143Y0330308D02*
X0397595Y0330308D01*
X0397595Y0331907D02*
X0434732Y0331907D01*
X0435037Y0331602D02*
X0436048Y0331183D01*
X0437142Y0331183D01*
X0438153Y0331602D01*
X0438584Y0332033D01*
X0444606Y0332033D01*
X0445037Y0331602D01*
X0446048Y0331183D01*
X0447142Y0331183D01*
X0448153Y0331602D01*
X0448926Y0332375D01*
X0449345Y0333386D01*
X0449345Y0334480D01*
X0448926Y0335491D01*
X0448207Y0336210D01*
X0449153Y0336602D01*
X0449926Y0337375D01*
X0450345Y0338386D01*
X0450345Y0339480D01*
X0449926Y0340491D01*
X0449153Y0341264D01*
X0448142Y0341683D01*
X0447048Y0341683D01*
X0446037Y0341264D01*
X0445606Y0340833D01*
X0402584Y0340833D01*
X0402153Y0341264D01*
X0401142Y0341683D01*
X0400048Y0341683D01*
X0399037Y0341264D01*
X0398264Y0340491D01*
X0397845Y0339480D01*
X0397845Y0338386D01*
X0398264Y0337375D01*
X0399037Y0336602D01*
X0400048Y0336183D01*
X0401142Y0336183D01*
X0402153Y0336602D01*
X0402584Y0337033D01*
X0445606Y0337033D01*
X0445983Y0336656D01*
X0445037Y0336264D01*
X0444606Y0335833D01*
X0438584Y0335833D01*
X0438153Y0336264D01*
X0437142Y0336683D01*
X0436048Y0336683D01*
X0435037Y0336264D01*
X0434264Y0335491D01*
X0433845Y0334480D01*
X0433845Y0333386D01*
X0434264Y0332375D01*
X0435037Y0331602D01*
X0433845Y0333505D02*
X0397595Y0333505D01*
X0397595Y0335104D02*
X0434104Y0335104D01*
X0438458Y0331907D02*
X0444732Y0331907D01*
X0448458Y0331907D02*
X0509417Y0331907D01*
X0509417Y0333505D02*
X0449345Y0333505D01*
X0449087Y0335104D02*
X0509417Y0335104D01*
X0509417Y0336702D02*
X0449253Y0336702D01*
X0450310Y0338301D02*
X0509417Y0338301D01*
X0509417Y0339899D02*
X0450171Y0339899D01*
X0448589Y0341498D02*
X0509417Y0341498D01*
X0509417Y0343096D02*
X0397595Y0343096D01*
X0397595Y0341498D02*
X0399601Y0341498D01*
X0401589Y0341498D02*
X0446601Y0341498D01*
X0445937Y0336702D02*
X0402253Y0336702D01*
X0398937Y0336702D02*
X0397595Y0336702D01*
X0397595Y0338301D02*
X0397880Y0338301D01*
X0398019Y0339899D02*
X0397595Y0339899D01*
X0397595Y0344695D02*
X0509417Y0344695D01*
X0509417Y0346293D02*
X0397595Y0346293D01*
X0397595Y0347892D02*
X0509417Y0347892D01*
X0513795Y0349490D02*
X0398345Y0349490D01*
X0387695Y0349490D02*
X0315495Y0349490D01*
X0315495Y0347892D02*
X0387695Y0347892D01*
X0387695Y0346293D02*
X0315495Y0346293D01*
X0315495Y0344695D02*
X0387695Y0344695D01*
X0387695Y0343096D02*
X0315495Y0343096D01*
X0311695Y0343096D02*
X0069495Y0343096D01*
X0069495Y0341498D02*
X0311695Y0341498D01*
X0311695Y0339899D02*
X0069495Y0339899D01*
X0069495Y0338301D02*
X0312540Y0338301D01*
X0311695Y0344695D02*
X0069495Y0344695D01*
X0069495Y0346293D02*
X0311695Y0346293D01*
X0311695Y0347892D02*
X0069495Y0347892D01*
X0069495Y0349490D02*
X0076658Y0349490D01*
X0076495Y0349653D02*
X0077315Y0348833D01*
X0085875Y0348833D01*
X0086695Y0349653D01*
X0086695Y0358213D01*
X0085875Y0359033D01*
X0083092Y0359033D01*
X0084484Y0359609D01*
X0085919Y0361044D01*
X0086695Y0362919D01*
X0086695Y0364948D01*
X0085919Y0366822D01*
X0084484Y0368257D01*
X0082851Y0368933D01*
X0084484Y0369609D01*
X0085919Y0371044D01*
X0086695Y0372919D01*
X0086695Y0374948D01*
X0085919Y0376822D01*
X0084484Y0378257D01*
X0083358Y0378723D01*
X0083706Y0378836D01*
X0084478Y0379229D01*
X0085178Y0379738D01*
X0085790Y0380350D01*
X0086299Y0381050D01*
X0086692Y0381822D01*
X0086960Y0382645D01*
X0087095Y0383500D01*
X0087095Y0383733D01*
X0081795Y0383733D01*
X0081795Y0384133D01*
X0081395Y0384133D01*
X0081395Y0383733D01*
X0076095Y0383733D01*
X0076095Y0383500D01*
X0076231Y0382645D01*
X0076498Y0381822D01*
X0076891Y0381050D01*
X0077400Y0380350D01*
X0078012Y0379738D01*
X0078713Y0379229D01*
X0079484Y0378836D01*
X0079832Y0378723D01*
X0078706Y0378257D01*
X0077272Y0376822D01*
X0076495Y0374948D01*
X0076495Y0372919D01*
X0077272Y0371044D01*
X0078706Y0369609D01*
X0080339Y0368933D01*
X0078706Y0368257D01*
X0077272Y0366822D01*
X0076495Y0364948D01*
X0076495Y0362919D01*
X0077272Y0361044D01*
X0078706Y0359609D01*
X0080098Y0359033D01*
X0077315Y0359033D01*
X0076495Y0358213D01*
X0076495Y0349653D01*
X0076495Y0351089D02*
X0069495Y0351089D01*
X0069495Y0352687D02*
X0076495Y0352687D01*
X0076495Y0354286D02*
X0069495Y0354286D01*
X0069495Y0355884D02*
X0076495Y0355884D01*
X0076495Y0357483D02*
X0069495Y0357483D01*
X0069495Y0359081D02*
X0079981Y0359081D01*
X0077636Y0360680D02*
X0069495Y0360680D01*
X0069495Y0362279D02*
X0076760Y0362279D01*
X0076495Y0363877D02*
X0069495Y0363877D01*
X0069495Y0365476D02*
X0076714Y0365476D01*
X0077524Y0367074D02*
X0069495Y0367074D01*
X0069495Y0368673D02*
X0079710Y0368673D01*
X0078045Y0370271D02*
X0069495Y0370271D01*
X0069495Y0371870D02*
X0076930Y0371870D01*
X0076495Y0373468D02*
X0069495Y0373468D01*
X0069495Y0375067D02*
X0076544Y0375067D01*
X0077207Y0376665D02*
X0069495Y0376665D01*
X0069495Y0378264D02*
X0078723Y0378264D01*
X0077888Y0379862D02*
X0069495Y0379862D01*
X0069495Y0381461D02*
X0076682Y0381461D01*
X0076165Y0383059D02*
X0069495Y0383059D01*
X0069495Y0384658D02*
X0076141Y0384658D01*
X0076095Y0384366D02*
X0076095Y0384133D01*
X0081395Y0384133D01*
X0081395Y0389433D01*
X0081162Y0389433D01*
X0080307Y0389298D01*
X0079484Y0389030D01*
X0078713Y0388637D01*
X0078012Y0388128D01*
X0077400Y0387516D01*
X0076891Y0386816D01*
X0076498Y0386044D01*
X0076231Y0385221D01*
X0076095Y0384366D01*
X0076606Y0386256D02*
X0069495Y0386256D01*
X0069495Y0387855D02*
X0077739Y0387855D01*
X0081395Y0387855D02*
X0081795Y0387855D01*
X0081795Y0389433D02*
X0082028Y0389433D01*
X0082883Y0389298D01*
X0083706Y0389030D01*
X0084478Y0388637D01*
X0085178Y0388128D01*
X0085790Y0387516D01*
X0086299Y0386816D01*
X0086692Y0386044D01*
X0086960Y0385221D01*
X0087095Y0384366D01*
X0087095Y0384133D01*
X0081795Y0384133D01*
X0081795Y0389433D01*
X0081795Y0386256D02*
X0081395Y0386256D01*
X0081395Y0384658D02*
X0081795Y0384658D01*
X0085452Y0387855D02*
X0166795Y0387855D01*
X0166795Y0389264D02*
X0166795Y0366602D01*
X0167264Y0366133D01*
X0190927Y0366133D01*
X0191395Y0366602D01*
X0191395Y0389264D01*
X0190927Y0389733D01*
X0167264Y0389733D01*
X0166795Y0389264D01*
X0166984Y0389453D02*
X0069495Y0389453D01*
X0069495Y0391052D02*
X0207082Y0391052D01*
X0206845Y0389453D02*
X0191206Y0389453D01*
X0191395Y0387855D02*
X0207695Y0387855D01*
X0207695Y0386256D02*
X0191395Y0386256D01*
X0191395Y0384658D02*
X0207695Y0384658D01*
X0207695Y0383059D02*
X0191395Y0383059D01*
X0191395Y0381461D02*
X0207695Y0381461D01*
X0207695Y0379862D02*
X0191395Y0379862D01*
X0191395Y0378264D02*
X0207695Y0378264D01*
X0207695Y0376665D02*
X0191395Y0376665D01*
X0191395Y0375067D02*
X0207695Y0375067D01*
X0207695Y0373468D02*
X0191395Y0373468D01*
X0191395Y0371870D02*
X0207695Y0371870D01*
X0207695Y0370271D02*
X0191395Y0370271D01*
X0191395Y0368673D02*
X0207695Y0368673D01*
X0207695Y0367074D02*
X0191395Y0367074D01*
X0207695Y0365476D02*
X0086476Y0365476D01*
X0086695Y0363877D02*
X0207695Y0363877D01*
X0207695Y0362279D02*
X0086430Y0362279D01*
X0085555Y0360680D02*
X0207695Y0360680D01*
X0207695Y0359081D02*
X0083209Y0359081D01*
X0086695Y0357483D02*
X0207695Y0357483D01*
X0207695Y0355884D02*
X0086695Y0355884D01*
X0086695Y0354286D02*
X0207695Y0354286D01*
X0207460Y0352687D02*
X0086695Y0352687D01*
X0086695Y0351089D02*
X0206845Y0351089D01*
X0207216Y0349490D02*
X0086532Y0349490D01*
X0085667Y0367074D02*
X0166795Y0367074D01*
X0166795Y0368673D02*
X0083480Y0368673D01*
X0085146Y0370271D02*
X0166795Y0370271D01*
X0166795Y0371870D02*
X0086261Y0371870D01*
X0086695Y0373468D02*
X0166795Y0373468D01*
X0166795Y0375067D02*
X0086646Y0375067D01*
X0085984Y0376665D02*
X0166795Y0376665D01*
X0166795Y0378264D02*
X0084467Y0378264D01*
X0085302Y0379862D02*
X0166795Y0379862D01*
X0166795Y0381461D02*
X0086508Y0381461D01*
X0087025Y0383059D02*
X0166795Y0383059D01*
X0166795Y0384658D02*
X0087049Y0384658D01*
X0086584Y0386256D02*
X0166795Y0386256D01*
X0172393Y0399044D02*
X0180795Y0399044D01*
X0180795Y0398602D02*
X0181264Y0398133D01*
X0202927Y0398133D01*
X0203395Y0398602D01*
X0203395Y0417264D01*
X0202927Y0417733D01*
X0181264Y0417733D01*
X0180795Y0417264D01*
X0180795Y0398602D01*
X0180795Y0400643D02*
X0173495Y0400643D01*
X0173495Y0402241D02*
X0180795Y0402241D01*
X0180795Y0403840D02*
X0173495Y0403840D01*
X0173495Y0405438D02*
X0180795Y0405438D01*
X0180795Y0407037D02*
X0173495Y0407037D01*
X0173495Y0408635D02*
X0180795Y0408635D01*
X0180795Y0410234D02*
X0173495Y0410234D01*
X0173495Y0411832D02*
X0180795Y0411832D01*
X0180795Y0413431D02*
X0173495Y0413431D01*
X0173495Y0415029D02*
X0180795Y0415029D01*
X0180795Y0416628D02*
X0173495Y0416628D01*
X0173495Y0418226D02*
X0216695Y0418226D01*
X0216695Y0416628D02*
X0203395Y0416628D01*
X0203395Y0415029D02*
X0216695Y0415029D01*
X0216695Y0413431D02*
X0203395Y0413431D01*
X0203395Y0411832D02*
X0216695Y0411832D01*
X0216695Y0410234D02*
X0203395Y0410234D01*
X0203395Y0408635D02*
X0216695Y0408635D01*
X0216695Y0407037D02*
X0203395Y0407037D01*
X0203395Y0405438D02*
X0216695Y0405438D01*
X0216695Y0403840D02*
X0203395Y0403840D01*
X0203395Y0402241D02*
X0216695Y0402241D01*
X0216695Y0400643D02*
X0203395Y0400643D01*
X0203395Y0399044D02*
X0217797Y0399044D01*
X0220495Y0403840D02*
X0354395Y0403840D01*
X0354395Y0405438D02*
X0220495Y0405438D01*
X0220495Y0416628D02*
X0374395Y0416628D01*
X0374395Y0418226D02*
X0220495Y0418226D01*
X0220495Y0419825D02*
X0374395Y0419825D01*
X0374395Y0421423D02*
X0220495Y0421423D01*
X0220495Y0423022D02*
X0374395Y0423022D01*
X0374395Y0424620D02*
X0220495Y0424620D01*
X0216695Y0421423D02*
X0173495Y0421423D01*
X0173495Y0419825D02*
X0216695Y0419825D01*
X0236786Y0432613D02*
X0356404Y0432613D01*
X0354806Y0434212D02*
X0238385Y0434212D01*
X0239340Y0435810D02*
X0353850Y0435810D01*
X0353188Y0437409D02*
X0240002Y0437409D01*
X0240194Y0439007D02*
X0352996Y0439007D01*
X0352996Y0440606D02*
X0240194Y0440606D01*
X0239817Y0442204D02*
X0353373Y0442204D01*
X0354035Y0443803D02*
X0239155Y0443803D01*
X0237938Y0445401D02*
X0355252Y0445401D01*
X0357029Y0447000D02*
X0236161Y0447000D01*
X0230224Y0394249D02*
X0069495Y0394249D01*
X0069495Y0395847D02*
X0303695Y0395847D01*
X0303695Y0394249D02*
X0259027Y0394249D01*
X0259345Y0392650D02*
X0303695Y0392650D01*
X0303082Y0391052D02*
X0258603Y0391052D01*
X0258495Y0389453D02*
X0302845Y0389453D01*
X0303784Y0387855D02*
X0258495Y0387855D01*
X0258495Y0386256D02*
X0354395Y0386256D01*
X0354395Y0384658D02*
X0258495Y0384658D01*
X0258495Y0383059D02*
X0354395Y0383059D01*
X0354395Y0381461D02*
X0258495Y0381461D01*
X0258495Y0379862D02*
X0290635Y0379862D01*
X0294555Y0379862D02*
X0354395Y0379862D01*
X0354395Y0378264D02*
X0325495Y0378264D01*
X0325495Y0376665D02*
X0354395Y0376665D01*
X0354395Y0375067D02*
X0325495Y0375067D01*
X0325495Y0373468D02*
X0354949Y0373468D01*
X0358795Y0378264D02*
X0402695Y0378264D01*
X0402695Y0379862D02*
X0358795Y0379862D01*
X0358795Y0381461D02*
X0402695Y0381461D01*
X0402695Y0383059D02*
X0358795Y0383059D01*
X0358795Y0384658D02*
X0402695Y0384658D01*
X0402695Y0386256D02*
X0358795Y0386256D01*
X0358795Y0387855D02*
X0402695Y0387855D01*
X0402695Y0389453D02*
X0358795Y0389453D01*
X0358795Y0391052D02*
X0402695Y0391052D01*
X0402695Y0392650D02*
X0358795Y0392650D01*
X0358795Y0394249D02*
X0402695Y0394249D01*
X0402695Y0395847D02*
X0358795Y0395847D01*
X0358956Y0397446D02*
X0402695Y0397446D01*
X0402695Y0399044D02*
X0359345Y0399044D01*
X0358795Y0400643D02*
X0402695Y0400643D01*
X0402695Y0402241D02*
X0378015Y0402241D01*
X0378795Y0403840D02*
X0402695Y0403840D01*
X0402695Y0405438D02*
X0378795Y0405438D01*
X0378795Y0407037D02*
X0402695Y0407037D01*
X0402695Y0408635D02*
X0378795Y0408635D01*
X0378795Y0410234D02*
X0390926Y0410234D01*
X0392265Y0410234D02*
X0402695Y0410234D01*
X0406495Y0410234D02*
X0435309Y0410234D01*
X0434995Y0409475D02*
X0434995Y0406691D01*
X0436061Y0404118D01*
X0438030Y0402149D01*
X0440603Y0401083D01*
X0443388Y0401083D01*
X0445960Y0402149D01*
X0447929Y0404118D01*
X0448995Y0406691D01*
X0448995Y0409475D01*
X0447929Y0412048D01*
X0445960Y0414017D01*
X0443388Y0415083D01*
X0440603Y0415083D01*
X0438030Y0414017D01*
X0436061Y0412048D01*
X0434995Y0409475D01*
X0434995Y0408635D02*
X0406495Y0408635D01*
X0406495Y0407037D02*
X0434995Y0407037D01*
X0435514Y0405438D02*
X0406495Y0405438D01*
X0406495Y0403840D02*
X0436339Y0403840D01*
X0437937Y0402241D02*
X0406495Y0402241D01*
X0406495Y0400643D02*
X0449153Y0400643D01*
X0449264Y0400375D02*
X0449395Y0400244D01*
X0449395Y0391622D01*
X0449264Y0391491D01*
X0448845Y0390480D01*
X0448845Y0389386D01*
X0449264Y0388375D01*
X0450037Y0387602D01*
X0451048Y0387183D01*
X0452142Y0387183D01*
X0453153Y0387602D01*
X0453926Y0388375D01*
X0454345Y0389386D01*
X0454345Y0390480D01*
X0453926Y0391491D01*
X0453795Y0391622D01*
X0453795Y0400244D01*
X0453926Y0400375D01*
X0454345Y0401386D01*
X0454345Y0402480D01*
X0453926Y0403491D01*
X0453153Y0404264D01*
X0452142Y0404683D01*
X0451048Y0404683D01*
X0450037Y0404264D01*
X0449264Y0403491D01*
X0448845Y0402480D01*
X0448845Y0401386D01*
X0449264Y0400375D01*
X0449395Y0399044D02*
X0406495Y0399044D01*
X0406495Y0397446D02*
X0449395Y0397446D01*
X0449395Y0395847D02*
X0406495Y0395847D01*
X0406495Y0394249D02*
X0449395Y0394249D01*
X0449395Y0392650D02*
X0406495Y0392650D01*
X0406495Y0391052D02*
X0449082Y0391052D01*
X0448845Y0389453D02*
X0432206Y0389453D01*
X0432395Y0389264D02*
X0431927Y0389733D01*
X0408264Y0389733D01*
X0407795Y0389264D01*
X0407795Y0366602D01*
X0408264Y0366133D01*
X0431927Y0366133D01*
X0432395Y0366602D01*
X0432395Y0389264D01*
X0432395Y0387855D02*
X0449784Y0387855D01*
X0451595Y0389933D02*
X0451595Y0401933D01*
X0449613Y0403840D02*
X0447651Y0403840D01*
X0448476Y0405438D02*
X0539295Y0405438D01*
X0539295Y0403840D02*
X0453577Y0403840D01*
X0454345Y0402241D02*
X0539295Y0402241D01*
X0539295Y0400643D02*
X0454037Y0400643D01*
X0453795Y0399044D02*
X0539295Y0399044D01*
X0539295Y0397446D02*
X0453795Y0397446D01*
X0453795Y0395847D02*
X0539295Y0395847D01*
X0539295Y0394249D02*
X0453795Y0394249D01*
X0453795Y0392650D02*
X0539295Y0392650D01*
X0539295Y0391052D02*
X0454108Y0391052D01*
X0454345Y0389453D02*
X0513984Y0389453D01*
X0513795Y0387855D02*
X0453406Y0387855D01*
X0448845Y0402241D02*
X0446053Y0402241D01*
X0448995Y0407037D02*
X0539295Y0407037D01*
X0539295Y0408635D02*
X0520717Y0408635D01*
X0521047Y0408965D02*
X0521667Y0410462D01*
X0521667Y0412082D01*
X0521047Y0413578D01*
X0519902Y0414723D01*
X0518405Y0415343D01*
X0516785Y0415343D01*
X0515289Y0414723D01*
X0514143Y0413578D01*
X0513523Y0412082D01*
X0513523Y0410462D01*
X0514143Y0408965D01*
X0515289Y0407820D01*
X0516785Y0407200D01*
X0518405Y0407200D01*
X0519902Y0407820D01*
X0521047Y0408965D01*
X0521572Y0410234D02*
X0539295Y0410234D01*
X0539295Y0411832D02*
X0521667Y0411832D01*
X0521108Y0413431D02*
X0539295Y0413431D01*
X0539295Y0415029D02*
X0519163Y0415029D01*
X0516027Y0415029D02*
X0461795Y0415029D01*
X0461795Y0414622D02*
X0461795Y0421244D01*
X0461926Y0421375D01*
X0462345Y0422386D01*
X0462345Y0423480D01*
X0461926Y0424491D01*
X0461153Y0425264D01*
X0460142Y0425683D01*
X0459048Y0425683D01*
X0458037Y0425264D01*
X0457264Y0424491D01*
X0456845Y0423480D01*
X0456845Y0422386D01*
X0457264Y0421375D01*
X0457395Y0421244D01*
X0457395Y0414622D01*
X0457264Y0414491D01*
X0456845Y0413480D01*
X0456845Y0412386D01*
X0457264Y0411375D01*
X0458037Y0410602D01*
X0459048Y0410183D01*
X0460142Y0410183D01*
X0461153Y0410602D01*
X0461926Y0411375D01*
X0462345Y0412386D01*
X0462345Y0413480D01*
X0461926Y0414491D01*
X0461795Y0414622D01*
X0462345Y0413431D02*
X0514082Y0413431D01*
X0513523Y0411832D02*
X0462116Y0411832D01*
X0460265Y0410234D02*
X0513618Y0410234D01*
X0514473Y0408635D02*
X0448995Y0408635D01*
X0448681Y0410234D02*
X0458926Y0410234D01*
X0457074Y0411832D02*
X0448019Y0411832D01*
X0446547Y0413431D02*
X0456845Y0413431D01*
X0457395Y0415029D02*
X0443517Y0415029D01*
X0440473Y0415029D02*
X0393388Y0415029D01*
X0389802Y0415029D02*
X0378795Y0415029D01*
X0378795Y0413431D02*
X0388845Y0413431D01*
X0389074Y0411832D02*
X0378795Y0411832D01*
X0378795Y0416628D02*
X0457395Y0416628D01*
X0457395Y0418226D02*
X0378795Y0418226D01*
X0378795Y0419825D02*
X0457395Y0419825D01*
X0457244Y0421423D02*
X0378795Y0421423D01*
X0378795Y0423022D02*
X0456845Y0423022D01*
X0457393Y0424620D02*
X0378795Y0424620D01*
X0378795Y0426219D02*
X0514212Y0426219D01*
X0514143Y0426288D02*
X0515289Y0425143D01*
X0516785Y0424523D01*
X0518405Y0424523D01*
X0519902Y0425143D01*
X0521047Y0426288D01*
X0521667Y0427785D01*
X0521667Y0429404D01*
X0521047Y0430901D01*
X0519902Y0432046D01*
X0518405Y0432666D01*
X0516785Y0432666D01*
X0515289Y0432046D01*
X0514143Y0430901D01*
X0513523Y0429404D01*
X0513523Y0427785D01*
X0514143Y0426288D01*
X0513523Y0427817D02*
X0378795Y0427817D01*
X0378795Y0429416D02*
X0513528Y0429416D01*
X0514257Y0431014D02*
X0378795Y0431014D01*
X0378795Y0432613D02*
X0516657Y0432613D01*
X0518533Y0432613D02*
X0539295Y0432613D01*
X0539295Y0434212D02*
X0378795Y0434212D01*
X0378795Y0435810D02*
X0539295Y0435810D01*
X0539295Y0437409D02*
X0378795Y0437409D01*
X0378795Y0439007D02*
X0539295Y0439007D01*
X0539295Y0440606D02*
X0378795Y0440606D01*
X0378795Y0442204D02*
X0539295Y0442204D01*
X0539295Y0443803D02*
X0378795Y0443803D01*
X0378795Y0445401D02*
X0539295Y0445401D01*
X0539295Y0447000D02*
X0378795Y0447000D01*
X0378795Y0448598D02*
X0539295Y0448598D01*
X0539295Y0450197D02*
X0378795Y0450197D01*
X0378795Y0451795D02*
X0539295Y0451795D01*
X0539295Y0453394D02*
X0378795Y0453394D01*
X0378795Y0454992D02*
X0539295Y0454992D01*
X0539295Y0456591D02*
X0378795Y0456591D01*
X0378795Y0458189D02*
X0539295Y0458189D01*
X0539295Y0459788D02*
X0378795Y0459788D01*
X0378795Y0461386D02*
X0398295Y0461386D01*
X0398295Y0461102D02*
X0398764Y0460633D01*
X0420427Y0460633D01*
X0420895Y0461102D01*
X0420895Y0479764D01*
X0420427Y0480233D01*
X0398764Y0480233D01*
X0398295Y0479764D01*
X0398295Y0461102D01*
X0398295Y0462985D02*
X0378795Y0462985D01*
X0378795Y0464583D02*
X0398295Y0464583D01*
X0398295Y0466182D02*
X0378795Y0466182D01*
X0379094Y0467780D02*
X0398295Y0467780D01*
X0398295Y0469379D02*
X0379345Y0469379D01*
X0378440Y0470977D02*
X0398295Y0470977D01*
X0398295Y0472576D02*
X0058895Y0472576D01*
X0058895Y0474174D02*
X0398295Y0474174D01*
X0398295Y0475773D02*
X0058895Y0475773D01*
X0058895Y0477371D02*
X0398295Y0477371D01*
X0398295Y0478970D02*
X0058898Y0478970D01*
X0059130Y0480568D02*
X0539060Y0480568D01*
X0539292Y0478970D02*
X0420895Y0478970D01*
X0420895Y0477371D02*
X0539295Y0477371D01*
X0539295Y0475773D02*
X0420895Y0475773D01*
X0420895Y0474174D02*
X0539295Y0474174D01*
X0539295Y0472576D02*
X0420895Y0472576D01*
X0420895Y0470977D02*
X0539295Y0470977D01*
X0539295Y0469379D02*
X0420895Y0469379D01*
X0420895Y0467780D02*
X0539295Y0467780D01*
X0539295Y0466182D02*
X0420895Y0466182D01*
X0420895Y0464583D02*
X0539295Y0464583D01*
X0539295Y0462985D02*
X0420895Y0462985D01*
X0420895Y0461386D02*
X0539295Y0461386D01*
X0538541Y0482167D02*
X0059649Y0482167D01*
X0060705Y0483765D02*
X0537485Y0483765D01*
X0535683Y0485364D02*
X0062508Y0485364D01*
X0058895Y0470977D02*
X0374750Y0470977D01*
X0373845Y0469379D02*
X0058895Y0469379D01*
X0069495Y0397446D02*
X0303695Y0397446D01*
X0307495Y0397446D02*
X0311695Y0397446D01*
X0311695Y0398944D02*
X0311695Y0391922D01*
X0311264Y0391491D01*
X0310845Y0390480D01*
X0310845Y0389386D01*
X0311264Y0388375D01*
X0312037Y0387602D01*
X0313048Y0387183D01*
X0314142Y0387183D01*
X0315153Y0387602D01*
X0315926Y0388375D01*
X0316345Y0389386D01*
X0316345Y0390480D01*
X0315926Y0391491D01*
X0315495Y0391922D01*
X0315495Y0398944D01*
X0315926Y0399375D01*
X0316345Y0400386D01*
X0316345Y0401480D01*
X0315926Y0402491D01*
X0315153Y0403264D01*
X0314142Y0403683D01*
X0313048Y0403683D01*
X0312037Y0403264D01*
X0311264Y0402491D01*
X0310845Y0401480D01*
X0310845Y0400386D01*
X0311264Y0399375D01*
X0311695Y0398944D01*
X0311595Y0399044D02*
X0307495Y0399044D01*
X0307495Y0400643D02*
X0310845Y0400643D01*
X0311160Y0402241D02*
X0306974Y0402241D01*
X0307495Y0395847D02*
X0311695Y0395847D01*
X0311695Y0394249D02*
X0307495Y0394249D01*
X0307495Y0392650D02*
X0311695Y0392650D01*
X0311082Y0391052D02*
X0308108Y0391052D01*
X0308345Y0389453D02*
X0310845Y0389453D01*
X0311784Y0387855D02*
X0307406Y0387855D01*
X0315406Y0387855D02*
X0354395Y0387855D01*
X0354395Y0389453D02*
X0316345Y0389453D01*
X0316108Y0391052D02*
X0354395Y0391052D01*
X0354395Y0392650D02*
X0315495Y0392650D01*
X0315495Y0394249D02*
X0354395Y0394249D01*
X0354395Y0395847D02*
X0315495Y0395847D01*
X0315495Y0397446D02*
X0354235Y0397446D01*
X0353845Y0399044D02*
X0315595Y0399044D01*
X0316345Y0400643D02*
X0354395Y0400643D01*
X0354395Y0402241D02*
X0316030Y0402241D01*
X0311695Y0368673D02*
X0300224Y0368673D01*
X0296967Y0368673D02*
X0292050Y0368673D01*
X0292345Y0370271D02*
X0295893Y0370271D01*
X0296006Y0371870D02*
X0291548Y0371870D01*
X0287643Y0371870D02*
X0211495Y0371870D01*
X0211495Y0373468D02*
X0249695Y0373468D01*
X0249695Y0375067D02*
X0211495Y0375067D01*
X0211495Y0376665D02*
X0249695Y0376665D01*
X0249695Y0378264D02*
X0211495Y0378264D01*
X0211495Y0379862D02*
X0249695Y0379862D01*
X0249695Y0381461D02*
X0211495Y0381461D01*
X0211495Y0383059D02*
X0239580Y0383059D01*
X0238845Y0384658D02*
X0211495Y0384658D01*
X0211495Y0386256D02*
X0239167Y0386256D01*
X0234345Y0389453D02*
X0254695Y0389453D01*
X0254695Y0387855D02*
X0233406Y0387855D01*
X0229784Y0387855D02*
X0211495Y0387855D01*
X0210221Y0392650D02*
X0229695Y0392650D01*
X0208969Y0392650D02*
X0069495Y0392650D01*
X0069495Y0336702D02*
X0387695Y0336702D01*
X0387695Y0335104D02*
X0069495Y0335104D01*
X0069495Y0314323D02*
X0238194Y0314323D01*
X0237845Y0312725D02*
X0069495Y0312725D01*
X0069495Y0311126D02*
X0238513Y0311126D01*
X0236301Y0309528D02*
X0069495Y0309528D01*
X0136495Y0253580D02*
X0167110Y0253580D01*
X0166795Y0251981D02*
X0136495Y0251981D01*
X0136495Y0250383D02*
X0166795Y0250383D01*
X0166795Y0248784D02*
X0136495Y0248784D01*
X0136495Y0247186D02*
X0166795Y0247186D01*
X0166795Y0245587D02*
X0136495Y0245587D01*
X0136495Y0243989D02*
X0166795Y0243989D01*
X0166795Y0242390D02*
X0136495Y0242390D01*
X0136495Y0240792D02*
X0166795Y0240792D01*
X0166795Y0239193D02*
X0136495Y0239193D01*
X0136495Y0237595D02*
X0166795Y0237595D01*
X0166795Y0235996D02*
X0136495Y0235996D01*
X0136495Y0234398D02*
X0166795Y0234398D01*
X0166795Y0232799D02*
X0136495Y0232799D01*
X0136495Y0231201D02*
X0166795Y0231201D01*
X0136495Y0229602D02*
X0237938Y0229602D01*
X0237938Y0228004D02*
X0136495Y0228004D01*
X0136495Y0226405D02*
X0237938Y0226405D01*
X0238154Y0224807D02*
X0136495Y0224807D01*
X0248495Y0291944D02*
X0264695Y0291944D01*
X0263179Y0314323D02*
X0242996Y0314323D01*
X0250068Y0320717D02*
X0282265Y0320717D01*
X0280667Y0322316D02*
X0250345Y0322316D01*
X0256048Y0357183D02*
X0255037Y0357602D01*
X0254264Y0358375D01*
X0253845Y0359386D01*
X0253845Y0360480D01*
X0254264Y0361491D01*
X0255037Y0362264D01*
X0256048Y0362683D01*
X0257142Y0362683D01*
X0258153Y0362264D01*
X0258584Y0361833D01*
X0267606Y0361833D01*
X0268037Y0362264D01*
X0269048Y0362683D01*
X0270142Y0362683D01*
X0271153Y0362264D01*
X0271926Y0361491D01*
X0272345Y0360480D01*
X0272345Y0359386D01*
X0271926Y0358375D01*
X0271153Y0357602D01*
X0270142Y0357183D01*
X0269048Y0357183D01*
X0268037Y0357602D01*
X0267606Y0358033D01*
X0258584Y0358033D01*
X0258153Y0357602D01*
X0257142Y0357183D01*
X0256048Y0357183D01*
X0255324Y0357483D02*
X0211495Y0357483D01*
X0211495Y0359081D02*
X0253971Y0359081D01*
X0253928Y0360680D02*
X0211495Y0360680D01*
X0211495Y0362279D02*
X0255071Y0362279D01*
X0258119Y0362279D02*
X0268071Y0362279D01*
X0271119Y0362279D02*
X0275176Y0362279D01*
X0274845Y0360680D02*
X0272262Y0360680D01*
X0272219Y0359081D02*
X0275558Y0359081D01*
X0279633Y0359081D02*
X0311695Y0359081D01*
X0311695Y0357483D02*
X0270866Y0357483D01*
X0268324Y0357483D02*
X0257866Y0357483D01*
X0275695Y0363877D02*
X0211495Y0363877D01*
X0211495Y0365476D02*
X0275695Y0365476D01*
X0275695Y0367074D02*
X0211495Y0367074D01*
X0211495Y0368673D02*
X0275695Y0368673D01*
X0275695Y0370271D02*
X0211495Y0370271D01*
X0211495Y0355884D02*
X0311695Y0355884D01*
X0311695Y0354286D02*
X0211495Y0354286D01*
X0211730Y0352687D02*
X0311695Y0352687D01*
X0311695Y0351089D02*
X0212345Y0351089D01*
X0211974Y0349490D02*
X0311695Y0349490D01*
X0311695Y0360680D02*
X0280345Y0360680D01*
X0280014Y0362279D02*
X0311695Y0362279D01*
X0311695Y0363877D02*
X0279495Y0363877D01*
X0279495Y0365476D02*
X0311695Y0365476D01*
X0311695Y0367074D02*
X0279495Y0367074D01*
X0255176Y0376665D02*
X0253495Y0376665D01*
X0253495Y0378264D02*
X0254695Y0378264D01*
X0254695Y0379862D02*
X0253495Y0379862D01*
X0253495Y0381461D02*
X0254695Y0381461D01*
X0254695Y0383059D02*
X0253610Y0383059D01*
X0254345Y0384658D02*
X0254695Y0384658D01*
X0254695Y0386256D02*
X0254024Y0386256D01*
X0366786Y0432613D02*
X0374395Y0432613D01*
X0374395Y0434212D02*
X0368385Y0434212D01*
X0369340Y0435810D02*
X0374395Y0435810D01*
X0374395Y0437409D02*
X0370002Y0437409D01*
X0370194Y0439007D02*
X0374395Y0439007D01*
X0374395Y0440606D02*
X0370194Y0440606D01*
X0369817Y0442204D02*
X0374395Y0442204D01*
X0374395Y0443803D02*
X0369155Y0443803D01*
X0367938Y0445401D02*
X0374395Y0445401D01*
X0374395Y0447000D02*
X0366161Y0447000D01*
X0406495Y0413431D02*
X0437443Y0413431D01*
X0435971Y0411832D02*
X0406495Y0411832D01*
X0406495Y0389453D02*
X0407984Y0389453D01*
X0407795Y0387855D02*
X0406495Y0387855D01*
X0406495Y0386256D02*
X0407795Y0386256D01*
X0407795Y0384658D02*
X0406495Y0384658D01*
X0406495Y0383059D02*
X0407795Y0383059D01*
X0407795Y0381461D02*
X0406495Y0381461D01*
X0406495Y0379862D02*
X0407795Y0379862D01*
X0407795Y0378264D02*
X0406495Y0378264D01*
X0406495Y0376665D02*
X0407795Y0376665D01*
X0407795Y0375067D02*
X0406495Y0375067D01*
X0406495Y0373468D02*
X0407795Y0373468D01*
X0407795Y0371870D02*
X0406495Y0371870D01*
X0406495Y0370271D02*
X0407795Y0370271D01*
X0407795Y0368673D02*
X0406495Y0368673D01*
X0406495Y0367074D02*
X0407795Y0367074D01*
X0432395Y0367074D02*
X0503695Y0367074D01*
X0503695Y0365476D02*
X0438933Y0365476D01*
X0439345Y0363877D02*
X0503695Y0363877D01*
X0503695Y0362279D02*
X0438830Y0362279D01*
X0432395Y0368673D02*
X0503695Y0368673D01*
X0503695Y0370271D02*
X0432395Y0370271D01*
X0432395Y0371870D02*
X0503695Y0371870D01*
X0503695Y0373468D02*
X0432395Y0373468D01*
X0432395Y0375067D02*
X0503695Y0375067D01*
X0503695Y0376665D02*
X0432395Y0376665D01*
X0432395Y0378264D02*
X0503695Y0378264D01*
X0503207Y0379862D02*
X0432395Y0379862D01*
X0432395Y0381461D02*
X0502845Y0381461D01*
X0503482Y0383059D02*
X0432395Y0383059D01*
X0432395Y0384658D02*
X0513795Y0384658D01*
X0513795Y0386256D02*
X0432395Y0386256D01*
X0459595Y0412933D02*
X0459595Y0422933D01*
X0462345Y0423022D02*
X0539295Y0423022D01*
X0539295Y0424620D02*
X0518641Y0424620D01*
X0516550Y0424620D02*
X0461797Y0424620D01*
X0461946Y0421423D02*
X0539295Y0421423D01*
X0539295Y0419825D02*
X0461795Y0419825D01*
X0461795Y0418226D02*
X0539295Y0418226D01*
X0539295Y0416628D02*
X0461795Y0416628D01*
X0507708Y0383059D02*
X0513795Y0383059D01*
X0513795Y0381461D02*
X0508345Y0381461D01*
X0507983Y0379862D02*
X0513795Y0379862D01*
X0513795Y0378264D02*
X0507495Y0378264D01*
X0507495Y0376665D02*
X0513795Y0376665D01*
X0513795Y0375067D02*
X0507495Y0375067D01*
X0507495Y0373468D02*
X0513795Y0373468D01*
X0513795Y0371870D02*
X0507495Y0371870D01*
X0507495Y0370271D02*
X0513795Y0370271D01*
X0513795Y0368673D02*
X0507495Y0368673D01*
X0507495Y0367074D02*
X0513795Y0367074D01*
X0513795Y0365476D02*
X0507495Y0365476D01*
X0507495Y0363877D02*
X0513795Y0363877D01*
X0513795Y0362279D02*
X0507495Y0362279D01*
X0507495Y0360680D02*
X0513795Y0360680D01*
X0513795Y0359081D02*
X0507495Y0359081D01*
X0506832Y0357483D02*
X0513795Y0357483D01*
X0520978Y0426219D02*
X0539295Y0426219D01*
X0539295Y0427817D02*
X0521667Y0427817D01*
X0521662Y0429416D02*
X0539295Y0429416D01*
X0539295Y0431014D02*
X0520933Y0431014D01*
X0346595Y0223933D02*
X0346595Y0213933D01*
X0342264Y0216814D02*
X0340927Y0216814D01*
X0339328Y0218412D02*
X0343862Y0218412D01*
X0350927Y0216814D02*
X0352264Y0216814D01*
D17*
X0351595Y0219433D03*
X0361595Y0219433D03*
X0372595Y0219433D03*
X0391595Y0231633D03*
X0385595Y0240933D03*
X0377595Y0240933D03*
X0378595Y0251933D03*
X0396595Y0248933D03*
X0395595Y0266933D03*
X0401595Y0275933D03*
X0411095Y0278933D03*
X0428595Y0287933D03*
X0448595Y0280433D03*
X0461095Y0279933D03*
X0449595Y0294933D03*
X0429595Y0307933D03*
X0415595Y0313433D03*
X0401595Y0308933D03*
X0389595Y0302933D03*
X0381595Y0303733D03*
X0381595Y0297733D03*
X0378595Y0289933D03*
X0381595Y0283733D03*
X0389595Y0281933D03*
X0390595Y0287933D03*
X0378595Y0275933D03*
X0357595Y0282933D03*
X0356595Y0276933D03*
X0354595Y0268933D03*
X0351595Y0261933D03*
X0355595Y0255933D03*
X0346595Y0248933D03*
X0337595Y0244233D03*
X0337495Y0234533D03*
X0323595Y0228433D03*
X0341595Y0219433D03*
X0321595Y0203433D03*
X0341595Y0198433D03*
X0351595Y0198433D03*
X0361595Y0198433D03*
X0371595Y0198433D03*
X0391595Y0168933D03*
X0408995Y0186533D03*
X0415595Y0157933D03*
X0474595Y0157933D03*
X0526595Y0103933D03*
X0507595Y0234933D03*
X0507595Y0248933D03*
X0497595Y0251933D03*
X0488595Y0254433D03*
X0488595Y0238933D03*
X0462595Y0245933D03*
X0496595Y0268433D03*
X0468595Y0314433D03*
X0468595Y0334433D03*
X0447595Y0338933D03*
X0446595Y0333933D03*
X0436595Y0333933D03*
X0426595Y0330433D03*
X0423595Y0344433D03*
X0436595Y0363933D03*
X0446095Y0366933D03*
X0447095Y0385933D03*
X0451595Y0389933D03*
X0457095Y0389933D03*
X0469095Y0385933D03*
X0482095Y0378933D03*
X0497095Y0384933D03*
X0505595Y0381283D03*
X0507595Y0390933D03*
X0497595Y0403933D03*
X0492095Y0428933D03*
X0487595Y0453933D03*
X0504595Y0456933D03*
X0504595Y0469933D03*
X0527595Y0473933D03*
X0532595Y0458933D03*
X0529595Y0427933D03*
X0529595Y0410933D03*
X0473095Y0366933D03*
X0489595Y0353933D03*
X0500595Y0320433D03*
X0443095Y0392933D03*
X0451595Y0401933D03*
X0459595Y0412933D03*
X0459595Y0422933D03*
X0424095Y0406933D03*
X0391595Y0412933D03*
X0367595Y0403933D03*
X0356595Y0398933D03*
X0342595Y0412933D03*
X0324095Y0402933D03*
X0313595Y0400933D03*
X0313595Y0389933D03*
X0305595Y0389933D03*
X0302095Y0391933D03*
X0286095Y0394933D03*
X0276095Y0392933D03*
X0276095Y0407933D03*
X0284595Y0408933D03*
X0256595Y0392933D03*
X0251595Y0384933D03*
X0260095Y0383933D03*
X0259095Y0370933D03*
X0266095Y0362933D03*
X0269595Y0359933D03*
X0274095Y0364933D03*
X0277595Y0360933D03*
X0286095Y0352433D03*
X0300095Y0348433D03*
X0295095Y0366433D03*
X0298595Y0370933D03*
X0289595Y0369933D03*
X0292595Y0377933D03*
X0323595Y0367933D03*
X0326595Y0355933D03*
X0336095Y0343933D03*
X0328395Y0336933D03*
X0322095Y0326933D03*
X0315095Y0326933D03*
X0315595Y0317933D03*
X0324595Y0317933D03*
X0322595Y0308933D03*
X0326095Y0301933D03*
X0318595Y0301933D03*
X0314595Y0308933D03*
X0301595Y0303933D03*
X0287095Y0311933D03*
X0284095Y0317933D03*
X0277095Y0317933D03*
X0284095Y0327933D03*
X0292095Y0326933D03*
X0291095Y0317933D03*
X0271595Y0331433D03*
X0263595Y0327933D03*
X0260595Y0317933D03*
X0253595Y0317933D03*
X0247595Y0321933D03*
X0239595Y0321933D03*
X0239595Y0329933D03*
X0238595Y0342933D03*
X0222595Y0348933D03*
X0209595Y0350933D03*
X0199095Y0364933D03*
X0178595Y0362933D03*
X0156595Y0369933D03*
X0188595Y0392933D03*
X0209595Y0389933D03*
X0231595Y0389933D03*
X0237095Y0381933D03*
X0241595Y0384933D03*
X0244595Y0359933D03*
X0256595Y0359933D03*
X0259095Y0340933D03*
X0264595Y0311933D03*
X0262595Y0308933D03*
X0263595Y0304233D03*
X0263595Y0296933D03*
X0266595Y0293933D03*
X0277095Y0292933D03*
X0277095Y0279933D03*
X0273095Y0274933D03*
X0273095Y0268933D03*
X0271095Y0256933D03*
X0264095Y0258933D03*
X0256595Y0258933D03*
X0240138Y0254476D03*
X0236595Y0250933D03*
X0216595Y0260933D03*
X0216595Y0269933D03*
X0206595Y0272933D03*
X0196595Y0268933D03*
X0181595Y0288933D03*
X0161595Y0299933D03*
X0156595Y0288933D03*
X0156595Y0278933D03*
X0136595Y0278933D03*
X0136595Y0288933D03*
X0137595Y0257933D03*
X0120595Y0257933D03*
X0101595Y0257933D03*
X0091595Y0257933D03*
X0090595Y0231933D03*
X0112595Y0231933D03*
X0138595Y0223933D03*
X0138595Y0218933D03*
X0138595Y0213933D03*
X0150595Y0207933D03*
X0177595Y0202933D03*
X0180595Y0181933D03*
X0202595Y0157933D03*
X0176595Y0148933D03*
X0150595Y0152933D03*
X0120595Y0181933D03*
X0117595Y0197933D03*
X0097595Y0192933D03*
X0077595Y0192933D03*
X0086595Y0168933D03*
X0071595Y0103933D03*
X0177595Y0227933D03*
X0231595Y0208433D03*
X0251595Y0203433D03*
X0255095Y0186933D03*
X0252595Y0177933D03*
X0250595Y0157933D03*
X0272595Y0157933D03*
X0278595Y0193933D03*
X0291595Y0193933D03*
X0287595Y0207433D03*
X0276595Y0208433D03*
X0271595Y0218933D03*
X0274695Y0225933D03*
X0278095Y0234933D03*
X0284095Y0235533D03*
X0288595Y0235933D03*
X0291895Y0231633D03*
X0314095Y0259933D03*
X0315768Y0266933D03*
X0326095Y0259933D03*
X0334095Y0259933D03*
X0337595Y0266933D03*
X0331595Y0273933D03*
X0325095Y0279933D03*
X0319095Y0279933D03*
X0351595Y0304433D03*
X0351595Y0316433D03*
X0386595Y0339933D03*
X0395595Y0349933D03*
X0400595Y0338933D03*
X0401595Y0327933D03*
X0384595Y0358933D03*
X0396595Y0374933D03*
X0364095Y0377933D03*
X0353095Y0359933D03*
X0313595Y0412933D03*
X0318095Y0429933D03*
X0344095Y0435933D03*
X0376595Y0468933D03*
X0422095Y0436933D03*
X0462595Y0464933D03*
X0463595Y0477933D03*
X0246095Y0475933D03*
X0248095Y0439933D03*
X0212095Y0416933D03*
X0168595Y0439933D03*
X0145595Y0419933D03*
X0124595Y0439933D03*
X0145595Y0459933D03*
X0096595Y0409933D03*
X0084595Y0417933D03*
X0081595Y0390933D03*
X0074595Y0383933D03*
X0089595Y0383933D03*
X0073595Y0319933D03*
X0061595Y0319933D03*
X0071595Y0308933D03*
X0161595Y0314933D03*
X0176595Y0321933D03*
X0181595Y0309933D03*
X0194595Y0324933D03*
X0216595Y0316933D03*
X0224595Y0321933D03*
X0240595Y0312933D03*
X0238595Y0307933D03*
X0231595Y0302933D03*
X0243595Y0296933D03*
X0246595Y0293933D03*
X0251595Y0284933D03*
X0216595Y0288933D03*
X0211595Y0303933D03*
X0256595Y0225933D03*
X0310595Y0157933D03*
X0320245Y0148933D03*
X0351595Y0163933D03*
X0234595Y0110933D03*
X0070595Y0473933D03*
D18*
X0067595Y0400933D02*
X0067595Y0177933D01*
X0252595Y0177933D01*
X0278595Y0193933D02*
X0134595Y0193933D01*
X0134595Y0273933D01*
X0141595Y0273933D01*
X0141595Y0293933D02*
X0141595Y0303933D01*
X0211595Y0303933D01*
X0216595Y0288933D02*
X0181595Y0288933D01*
X0216595Y0269933D02*
X0216595Y0260933D01*
X0246595Y0293933D02*
X0266595Y0293933D01*
X0263595Y0296933D02*
X0243595Y0296933D01*
X0238595Y0307933D02*
X0262595Y0307933D01*
X0262595Y0308933D01*
X0264595Y0311933D02*
X0240595Y0311933D01*
X0240595Y0312933D01*
X0239595Y0321933D02*
X0247595Y0321933D01*
X0263595Y0304233D02*
X0263595Y0302933D01*
X0231595Y0302933D01*
X0209595Y0350933D02*
X0209595Y0389933D01*
X0231595Y0389933D01*
X0231595Y0392933D01*
X0256595Y0392933D01*
X0256595Y0377933D01*
X0292595Y0377933D01*
X0323595Y0377933D01*
X0323595Y0367933D01*
X0319595Y0367933D02*
X0316595Y0367933D01*
X0316595Y0373933D01*
X0251595Y0373933D01*
X0251595Y0384933D01*
X0241595Y0384933D01*
X0218595Y0400933D02*
X0218595Y0423933D01*
X0171595Y0423933D01*
X0171595Y0400933D01*
X0067595Y0400933D01*
X0218595Y0400933D02*
X0305595Y0400933D01*
X0305595Y0389933D01*
X0313595Y0389933D02*
X0313595Y0400933D01*
X0313595Y0412933D02*
X0342595Y0412933D01*
X0391595Y0412933D02*
X0404595Y0412933D01*
X0404595Y0363933D01*
X0436595Y0363933D01*
X0447595Y0338933D02*
X0400595Y0338933D01*
X0386595Y0339933D02*
X0313595Y0339933D01*
X0313595Y0370933D01*
X0298595Y0370933D01*
X0289595Y0369933D02*
X0277595Y0369933D01*
X0277595Y0360933D01*
X0269595Y0359933D02*
X0256595Y0359933D01*
X0319595Y0355933D02*
X0319595Y0367933D01*
X0319595Y0355933D02*
X0326595Y0355933D01*
X0326595Y0351933D01*
X0384595Y0358933D02*
X0505595Y0358933D01*
X0505595Y0381283D01*
X0489595Y0353933D02*
X0389595Y0353933D01*
X0389595Y0302933D01*
X0395595Y0266933D02*
X0410595Y0266933D01*
X0410595Y0258933D01*
X0497595Y0258933D01*
X0497595Y0251933D01*
X0462595Y0253933D02*
X0462595Y0245933D01*
X0462595Y0253933D02*
X0385595Y0253933D01*
X0385595Y0245933D01*
X0351595Y0245933D01*
X0351595Y0253933D01*
X0288595Y0253933D01*
X0288595Y0235933D01*
X0271595Y0218933D02*
X0138595Y0218933D01*
X0086595Y0168933D02*
X0391595Y0168933D01*
X0356595Y0193933D02*
X0291595Y0193933D01*
X0323595Y0213933D02*
X0336595Y0213933D01*
X0323595Y0213933D02*
X0323595Y0228433D01*
X0337495Y0234533D02*
X0337495Y0244233D01*
X0337595Y0244233D01*
X0337595Y0266933D02*
X0315768Y0266933D01*
X0356595Y0203933D02*
X0356595Y0193933D01*
X0320245Y0148933D02*
X0176595Y0148933D01*
X0436595Y0333933D02*
X0446595Y0333933D01*
D19*
X0401595Y0327933D02*
X0398595Y0327933D01*
X0398595Y0281933D01*
X0389595Y0281933D01*
X0390595Y0287933D02*
X0395595Y0287933D01*
X0395595Y0349933D01*
X0401595Y0308933D02*
X0401595Y0275933D01*
X0378595Y0275933D02*
X0378595Y0251933D01*
X0377595Y0240933D02*
X0385595Y0240933D01*
X0391595Y0231633D02*
X0291895Y0231633D01*
X0284095Y0235533D02*
X0284095Y0186533D01*
X0408995Y0186533D01*
M02*
