G75*
%MOIN*%
%OFA0B0*%
%FSLAX25Y25*%
%IPPOS*%
%LPD*%
%AMOC8*
5,1,8,0,0,1.08239X$1,22.5*
%
%ADD10C,0.00000*%
D10*
X0066595Y0088933D02*
X0531595Y0088933D01*
X0531837Y0088936D01*
X0532078Y0088945D01*
X0532319Y0088959D01*
X0532560Y0088980D01*
X0532800Y0089006D01*
X0533040Y0089038D01*
X0533279Y0089076D01*
X0533516Y0089119D01*
X0533753Y0089169D01*
X0533988Y0089224D01*
X0534222Y0089284D01*
X0534454Y0089351D01*
X0534685Y0089422D01*
X0534914Y0089500D01*
X0535141Y0089583D01*
X0535366Y0089671D01*
X0535589Y0089765D01*
X0535809Y0089864D01*
X0536027Y0089969D01*
X0536242Y0090078D01*
X0536455Y0090193D01*
X0536665Y0090313D01*
X0536871Y0090438D01*
X0537075Y0090568D01*
X0537276Y0090703D01*
X0537473Y0090843D01*
X0537667Y0090987D01*
X0537857Y0091136D01*
X0538043Y0091290D01*
X0538226Y0091448D01*
X0538405Y0091610D01*
X0538580Y0091777D01*
X0538751Y0091948D01*
X0538918Y0092123D01*
X0539080Y0092302D01*
X0539238Y0092485D01*
X0539392Y0092671D01*
X0539541Y0092861D01*
X0539685Y0093055D01*
X0539825Y0093252D01*
X0539960Y0093453D01*
X0540090Y0093657D01*
X0540215Y0093863D01*
X0540335Y0094073D01*
X0540450Y0094286D01*
X0540559Y0094501D01*
X0540664Y0094719D01*
X0540763Y0094939D01*
X0540857Y0095162D01*
X0540945Y0095387D01*
X0541028Y0095614D01*
X0541106Y0095843D01*
X0541177Y0096074D01*
X0541244Y0096306D01*
X0541304Y0096540D01*
X0541359Y0096775D01*
X0541409Y0097012D01*
X0541452Y0097249D01*
X0541490Y0097488D01*
X0541522Y0097728D01*
X0541548Y0097968D01*
X0541569Y0098209D01*
X0541583Y0098450D01*
X0541592Y0098691D01*
X0541595Y0098933D01*
X0541595Y0478933D01*
X0541592Y0479175D01*
X0541583Y0479416D01*
X0541569Y0479657D01*
X0541548Y0479898D01*
X0541522Y0480138D01*
X0541490Y0480378D01*
X0541452Y0480617D01*
X0541409Y0480854D01*
X0541359Y0481091D01*
X0541304Y0481326D01*
X0541244Y0481560D01*
X0541177Y0481792D01*
X0541106Y0482023D01*
X0541028Y0482252D01*
X0540945Y0482479D01*
X0540857Y0482704D01*
X0540763Y0482927D01*
X0540664Y0483147D01*
X0540559Y0483365D01*
X0540450Y0483580D01*
X0540335Y0483793D01*
X0540215Y0484003D01*
X0540090Y0484209D01*
X0539960Y0484413D01*
X0539825Y0484614D01*
X0539685Y0484811D01*
X0539541Y0485005D01*
X0539392Y0485195D01*
X0539238Y0485381D01*
X0539080Y0485564D01*
X0538918Y0485743D01*
X0538751Y0485918D01*
X0538580Y0486089D01*
X0538405Y0486256D01*
X0538226Y0486418D01*
X0538043Y0486576D01*
X0537857Y0486730D01*
X0537667Y0486879D01*
X0537473Y0487023D01*
X0537276Y0487163D01*
X0537075Y0487298D01*
X0536871Y0487428D01*
X0536665Y0487553D01*
X0536455Y0487673D01*
X0536242Y0487788D01*
X0536027Y0487897D01*
X0535809Y0488002D01*
X0535589Y0488101D01*
X0535366Y0488195D01*
X0535141Y0488283D01*
X0534914Y0488366D01*
X0534685Y0488444D01*
X0534454Y0488515D01*
X0534222Y0488582D01*
X0533988Y0488642D01*
X0533753Y0488697D01*
X0533516Y0488747D01*
X0533279Y0488790D01*
X0533040Y0488828D01*
X0532800Y0488860D01*
X0532560Y0488886D01*
X0532319Y0488907D01*
X0532078Y0488921D01*
X0531837Y0488930D01*
X0531595Y0488933D01*
X0066595Y0488933D01*
X0066353Y0488930D01*
X0066112Y0488921D01*
X0065871Y0488907D01*
X0065630Y0488886D01*
X0065390Y0488860D01*
X0065150Y0488828D01*
X0064911Y0488790D01*
X0064674Y0488747D01*
X0064437Y0488697D01*
X0064202Y0488642D01*
X0063968Y0488582D01*
X0063736Y0488515D01*
X0063505Y0488444D01*
X0063276Y0488366D01*
X0063049Y0488283D01*
X0062824Y0488195D01*
X0062601Y0488101D01*
X0062381Y0488002D01*
X0062163Y0487897D01*
X0061948Y0487788D01*
X0061735Y0487673D01*
X0061525Y0487553D01*
X0061319Y0487428D01*
X0061115Y0487298D01*
X0060914Y0487163D01*
X0060717Y0487023D01*
X0060523Y0486879D01*
X0060333Y0486730D01*
X0060147Y0486576D01*
X0059964Y0486418D01*
X0059785Y0486256D01*
X0059610Y0486089D01*
X0059439Y0485918D01*
X0059272Y0485743D01*
X0059110Y0485564D01*
X0058952Y0485381D01*
X0058798Y0485195D01*
X0058649Y0485005D01*
X0058505Y0484811D01*
X0058365Y0484614D01*
X0058230Y0484413D01*
X0058100Y0484209D01*
X0057975Y0484003D01*
X0057855Y0483793D01*
X0057740Y0483580D01*
X0057631Y0483365D01*
X0057526Y0483147D01*
X0057427Y0482927D01*
X0057333Y0482704D01*
X0057245Y0482479D01*
X0057162Y0482252D01*
X0057084Y0482023D01*
X0057013Y0481792D01*
X0056946Y0481560D01*
X0056886Y0481326D01*
X0056831Y0481091D01*
X0056781Y0480854D01*
X0056738Y0480617D01*
X0056700Y0480378D01*
X0056668Y0480138D01*
X0056642Y0479898D01*
X0056621Y0479657D01*
X0056607Y0479416D01*
X0056598Y0479175D01*
X0056595Y0478933D01*
X0056595Y0098933D01*
X0056598Y0098691D01*
X0056607Y0098450D01*
X0056621Y0098209D01*
X0056642Y0097968D01*
X0056668Y0097728D01*
X0056700Y0097488D01*
X0056738Y0097249D01*
X0056781Y0097012D01*
X0056831Y0096775D01*
X0056886Y0096540D01*
X0056946Y0096306D01*
X0057013Y0096074D01*
X0057084Y0095843D01*
X0057162Y0095614D01*
X0057245Y0095387D01*
X0057333Y0095162D01*
X0057427Y0094939D01*
X0057526Y0094719D01*
X0057631Y0094501D01*
X0057740Y0094286D01*
X0057855Y0094073D01*
X0057975Y0093863D01*
X0058100Y0093657D01*
X0058230Y0093453D01*
X0058365Y0093252D01*
X0058505Y0093055D01*
X0058649Y0092861D01*
X0058798Y0092671D01*
X0058952Y0092485D01*
X0059110Y0092302D01*
X0059272Y0092123D01*
X0059439Y0091948D01*
X0059610Y0091777D01*
X0059785Y0091610D01*
X0059964Y0091448D01*
X0060147Y0091290D01*
X0060333Y0091136D01*
X0060523Y0090987D01*
X0060717Y0090843D01*
X0060914Y0090703D01*
X0061115Y0090568D01*
X0061319Y0090438D01*
X0061525Y0090313D01*
X0061735Y0090193D01*
X0061948Y0090078D01*
X0062163Y0089969D01*
X0062381Y0089864D01*
X0062601Y0089765D01*
X0062824Y0089671D01*
X0063049Y0089583D01*
X0063276Y0089500D01*
X0063505Y0089422D01*
X0063736Y0089351D01*
X0063968Y0089284D01*
X0064202Y0089224D01*
X0064437Y0089169D01*
X0064674Y0089119D01*
X0064911Y0089076D01*
X0065150Y0089038D01*
X0065390Y0089006D01*
X0065630Y0088980D01*
X0065871Y0088959D01*
X0066112Y0088945D01*
X0066353Y0088936D01*
X0066595Y0088933D01*
X0076595Y0121433D02*
X0076599Y0121740D01*
X0076610Y0122046D01*
X0076629Y0122353D01*
X0076655Y0122658D01*
X0076689Y0122963D01*
X0076730Y0123267D01*
X0076779Y0123570D01*
X0076835Y0123872D01*
X0076899Y0124172D01*
X0076970Y0124470D01*
X0077048Y0124767D01*
X0077133Y0125062D01*
X0077226Y0125354D01*
X0077326Y0125644D01*
X0077433Y0125932D01*
X0077547Y0126217D01*
X0077667Y0126499D01*
X0077795Y0126777D01*
X0077930Y0127053D01*
X0078071Y0127325D01*
X0078219Y0127594D01*
X0078373Y0127859D01*
X0078534Y0128120D01*
X0078702Y0128378D01*
X0078875Y0128631D01*
X0079055Y0128879D01*
X0079241Y0129123D01*
X0079432Y0129363D01*
X0079630Y0129598D01*
X0079833Y0129827D01*
X0080042Y0130052D01*
X0080256Y0130272D01*
X0080476Y0130486D01*
X0080701Y0130695D01*
X0080930Y0130898D01*
X0081165Y0131096D01*
X0081405Y0131287D01*
X0081649Y0131473D01*
X0081897Y0131653D01*
X0082150Y0131826D01*
X0082408Y0131994D01*
X0082669Y0132155D01*
X0082934Y0132309D01*
X0083203Y0132457D01*
X0083475Y0132598D01*
X0083751Y0132733D01*
X0084029Y0132861D01*
X0084311Y0132981D01*
X0084596Y0133095D01*
X0084884Y0133202D01*
X0085174Y0133302D01*
X0085466Y0133395D01*
X0085761Y0133480D01*
X0086058Y0133558D01*
X0086356Y0133629D01*
X0086656Y0133693D01*
X0086958Y0133749D01*
X0087261Y0133798D01*
X0087565Y0133839D01*
X0087870Y0133873D01*
X0088175Y0133899D01*
X0088482Y0133918D01*
X0088788Y0133929D01*
X0089095Y0133933D01*
X0089402Y0133929D01*
X0089708Y0133918D01*
X0090015Y0133899D01*
X0090320Y0133873D01*
X0090625Y0133839D01*
X0090929Y0133798D01*
X0091232Y0133749D01*
X0091534Y0133693D01*
X0091834Y0133629D01*
X0092132Y0133558D01*
X0092429Y0133480D01*
X0092724Y0133395D01*
X0093016Y0133302D01*
X0093306Y0133202D01*
X0093594Y0133095D01*
X0093879Y0132981D01*
X0094161Y0132861D01*
X0094439Y0132733D01*
X0094715Y0132598D01*
X0094987Y0132457D01*
X0095256Y0132309D01*
X0095521Y0132155D01*
X0095782Y0131994D01*
X0096040Y0131826D01*
X0096293Y0131653D01*
X0096541Y0131473D01*
X0096785Y0131287D01*
X0097025Y0131096D01*
X0097260Y0130898D01*
X0097489Y0130695D01*
X0097714Y0130486D01*
X0097934Y0130272D01*
X0098148Y0130052D01*
X0098357Y0129827D01*
X0098560Y0129598D01*
X0098758Y0129363D01*
X0098949Y0129123D01*
X0099135Y0128879D01*
X0099315Y0128631D01*
X0099488Y0128378D01*
X0099656Y0128120D01*
X0099817Y0127859D01*
X0099971Y0127594D01*
X0100119Y0127325D01*
X0100260Y0127053D01*
X0100395Y0126777D01*
X0100523Y0126499D01*
X0100643Y0126217D01*
X0100757Y0125932D01*
X0100864Y0125644D01*
X0100964Y0125354D01*
X0101057Y0125062D01*
X0101142Y0124767D01*
X0101220Y0124470D01*
X0101291Y0124172D01*
X0101355Y0123872D01*
X0101411Y0123570D01*
X0101460Y0123267D01*
X0101501Y0122963D01*
X0101535Y0122658D01*
X0101561Y0122353D01*
X0101580Y0122046D01*
X0101591Y0121740D01*
X0101595Y0121433D01*
X0101591Y0121126D01*
X0101580Y0120820D01*
X0101561Y0120513D01*
X0101535Y0120208D01*
X0101501Y0119903D01*
X0101460Y0119599D01*
X0101411Y0119296D01*
X0101355Y0118994D01*
X0101291Y0118694D01*
X0101220Y0118396D01*
X0101142Y0118099D01*
X0101057Y0117804D01*
X0100964Y0117512D01*
X0100864Y0117222D01*
X0100757Y0116934D01*
X0100643Y0116649D01*
X0100523Y0116367D01*
X0100395Y0116089D01*
X0100260Y0115813D01*
X0100119Y0115541D01*
X0099971Y0115272D01*
X0099817Y0115007D01*
X0099656Y0114746D01*
X0099488Y0114488D01*
X0099315Y0114235D01*
X0099135Y0113987D01*
X0098949Y0113743D01*
X0098758Y0113503D01*
X0098560Y0113268D01*
X0098357Y0113039D01*
X0098148Y0112814D01*
X0097934Y0112594D01*
X0097714Y0112380D01*
X0097489Y0112171D01*
X0097260Y0111968D01*
X0097025Y0111770D01*
X0096785Y0111579D01*
X0096541Y0111393D01*
X0096293Y0111213D01*
X0096040Y0111040D01*
X0095782Y0110872D01*
X0095521Y0110711D01*
X0095256Y0110557D01*
X0094987Y0110409D01*
X0094715Y0110268D01*
X0094439Y0110133D01*
X0094161Y0110005D01*
X0093879Y0109885D01*
X0093594Y0109771D01*
X0093306Y0109664D01*
X0093016Y0109564D01*
X0092724Y0109471D01*
X0092429Y0109386D01*
X0092132Y0109308D01*
X0091834Y0109237D01*
X0091534Y0109173D01*
X0091232Y0109117D01*
X0090929Y0109068D01*
X0090625Y0109027D01*
X0090320Y0108993D01*
X0090015Y0108967D01*
X0089708Y0108948D01*
X0089402Y0108937D01*
X0089095Y0108933D01*
X0088788Y0108937D01*
X0088482Y0108948D01*
X0088175Y0108967D01*
X0087870Y0108993D01*
X0087565Y0109027D01*
X0087261Y0109068D01*
X0086958Y0109117D01*
X0086656Y0109173D01*
X0086356Y0109237D01*
X0086058Y0109308D01*
X0085761Y0109386D01*
X0085466Y0109471D01*
X0085174Y0109564D01*
X0084884Y0109664D01*
X0084596Y0109771D01*
X0084311Y0109885D01*
X0084029Y0110005D01*
X0083751Y0110133D01*
X0083475Y0110268D01*
X0083203Y0110409D01*
X0082934Y0110557D01*
X0082669Y0110711D01*
X0082408Y0110872D01*
X0082150Y0111040D01*
X0081897Y0111213D01*
X0081649Y0111393D01*
X0081405Y0111579D01*
X0081165Y0111770D01*
X0080930Y0111968D01*
X0080701Y0112171D01*
X0080476Y0112380D01*
X0080256Y0112594D01*
X0080042Y0112814D01*
X0079833Y0113039D01*
X0079630Y0113268D01*
X0079432Y0113503D01*
X0079241Y0113743D01*
X0079055Y0113987D01*
X0078875Y0114235D01*
X0078702Y0114488D01*
X0078534Y0114746D01*
X0078373Y0115007D01*
X0078219Y0115272D01*
X0078071Y0115541D01*
X0077930Y0115813D01*
X0077795Y0116089D01*
X0077667Y0116367D01*
X0077547Y0116649D01*
X0077433Y0116934D01*
X0077326Y0117222D01*
X0077226Y0117512D01*
X0077133Y0117804D01*
X0077048Y0118099D01*
X0076970Y0118396D01*
X0076899Y0118694D01*
X0076835Y0118994D01*
X0076779Y0119296D01*
X0076730Y0119599D01*
X0076689Y0119903D01*
X0076655Y0120208D01*
X0076629Y0120513D01*
X0076610Y0120820D01*
X0076599Y0121126D01*
X0076595Y0121433D01*
X0172540Y0242870D02*
X0172542Y0243028D01*
X0172548Y0243186D01*
X0172558Y0243344D01*
X0172572Y0243502D01*
X0172590Y0243659D01*
X0172611Y0243816D01*
X0172637Y0243972D01*
X0172667Y0244128D01*
X0172700Y0244283D01*
X0172738Y0244436D01*
X0172779Y0244589D01*
X0172824Y0244741D01*
X0172873Y0244892D01*
X0172926Y0245041D01*
X0172982Y0245189D01*
X0173042Y0245335D01*
X0173106Y0245480D01*
X0173174Y0245623D01*
X0173245Y0245765D01*
X0173319Y0245905D01*
X0173397Y0246042D01*
X0173479Y0246178D01*
X0173563Y0246312D01*
X0173652Y0246443D01*
X0173743Y0246572D01*
X0173838Y0246699D01*
X0173935Y0246824D01*
X0174036Y0246946D01*
X0174140Y0247065D01*
X0174247Y0247182D01*
X0174357Y0247296D01*
X0174470Y0247407D01*
X0174585Y0247516D01*
X0174703Y0247621D01*
X0174824Y0247723D01*
X0174947Y0247823D01*
X0175073Y0247919D01*
X0175201Y0248012D01*
X0175331Y0248102D01*
X0175464Y0248188D01*
X0175599Y0248272D01*
X0175735Y0248351D01*
X0175874Y0248428D01*
X0176015Y0248500D01*
X0176157Y0248570D01*
X0176301Y0248635D01*
X0176447Y0248697D01*
X0176594Y0248755D01*
X0176743Y0248810D01*
X0176893Y0248861D01*
X0177044Y0248908D01*
X0177196Y0248951D01*
X0177349Y0248990D01*
X0177504Y0249026D01*
X0177659Y0249057D01*
X0177815Y0249085D01*
X0177971Y0249109D01*
X0178128Y0249129D01*
X0178286Y0249145D01*
X0178443Y0249157D01*
X0178602Y0249165D01*
X0178760Y0249169D01*
X0178918Y0249169D01*
X0179076Y0249165D01*
X0179235Y0249157D01*
X0179392Y0249145D01*
X0179550Y0249129D01*
X0179707Y0249109D01*
X0179863Y0249085D01*
X0180019Y0249057D01*
X0180174Y0249026D01*
X0180329Y0248990D01*
X0180482Y0248951D01*
X0180634Y0248908D01*
X0180785Y0248861D01*
X0180935Y0248810D01*
X0181084Y0248755D01*
X0181231Y0248697D01*
X0181377Y0248635D01*
X0181521Y0248570D01*
X0181663Y0248500D01*
X0181804Y0248428D01*
X0181943Y0248351D01*
X0182079Y0248272D01*
X0182214Y0248188D01*
X0182347Y0248102D01*
X0182477Y0248012D01*
X0182605Y0247919D01*
X0182731Y0247823D01*
X0182854Y0247723D01*
X0182975Y0247621D01*
X0183093Y0247516D01*
X0183208Y0247407D01*
X0183321Y0247296D01*
X0183431Y0247182D01*
X0183538Y0247065D01*
X0183642Y0246946D01*
X0183743Y0246824D01*
X0183840Y0246699D01*
X0183935Y0246572D01*
X0184026Y0246443D01*
X0184115Y0246312D01*
X0184199Y0246178D01*
X0184281Y0246042D01*
X0184359Y0245905D01*
X0184433Y0245765D01*
X0184504Y0245623D01*
X0184572Y0245480D01*
X0184636Y0245335D01*
X0184696Y0245189D01*
X0184752Y0245041D01*
X0184805Y0244892D01*
X0184854Y0244741D01*
X0184899Y0244589D01*
X0184940Y0244436D01*
X0184978Y0244283D01*
X0185011Y0244128D01*
X0185041Y0243972D01*
X0185067Y0243816D01*
X0185088Y0243659D01*
X0185106Y0243502D01*
X0185120Y0243344D01*
X0185130Y0243186D01*
X0185136Y0243028D01*
X0185138Y0242870D01*
X0185136Y0242712D01*
X0185130Y0242554D01*
X0185120Y0242396D01*
X0185106Y0242238D01*
X0185088Y0242081D01*
X0185067Y0241924D01*
X0185041Y0241768D01*
X0185011Y0241612D01*
X0184978Y0241457D01*
X0184940Y0241304D01*
X0184899Y0241151D01*
X0184854Y0240999D01*
X0184805Y0240848D01*
X0184752Y0240699D01*
X0184696Y0240551D01*
X0184636Y0240405D01*
X0184572Y0240260D01*
X0184504Y0240117D01*
X0184433Y0239975D01*
X0184359Y0239835D01*
X0184281Y0239698D01*
X0184199Y0239562D01*
X0184115Y0239428D01*
X0184026Y0239297D01*
X0183935Y0239168D01*
X0183840Y0239041D01*
X0183743Y0238916D01*
X0183642Y0238794D01*
X0183538Y0238675D01*
X0183431Y0238558D01*
X0183321Y0238444D01*
X0183208Y0238333D01*
X0183093Y0238224D01*
X0182975Y0238119D01*
X0182854Y0238017D01*
X0182731Y0237917D01*
X0182605Y0237821D01*
X0182477Y0237728D01*
X0182347Y0237638D01*
X0182214Y0237552D01*
X0182079Y0237468D01*
X0181943Y0237389D01*
X0181804Y0237312D01*
X0181663Y0237240D01*
X0181521Y0237170D01*
X0181377Y0237105D01*
X0181231Y0237043D01*
X0181084Y0236985D01*
X0180935Y0236930D01*
X0180785Y0236879D01*
X0180634Y0236832D01*
X0180482Y0236789D01*
X0180329Y0236750D01*
X0180174Y0236714D01*
X0180019Y0236683D01*
X0179863Y0236655D01*
X0179707Y0236631D01*
X0179550Y0236611D01*
X0179392Y0236595D01*
X0179235Y0236583D01*
X0179076Y0236575D01*
X0178918Y0236571D01*
X0178760Y0236571D01*
X0178602Y0236575D01*
X0178443Y0236583D01*
X0178286Y0236595D01*
X0178128Y0236611D01*
X0177971Y0236631D01*
X0177815Y0236655D01*
X0177659Y0236683D01*
X0177504Y0236714D01*
X0177349Y0236750D01*
X0177196Y0236789D01*
X0177044Y0236832D01*
X0176893Y0236879D01*
X0176743Y0236930D01*
X0176594Y0236985D01*
X0176447Y0237043D01*
X0176301Y0237105D01*
X0176157Y0237170D01*
X0176015Y0237240D01*
X0175874Y0237312D01*
X0175735Y0237389D01*
X0175599Y0237468D01*
X0175464Y0237552D01*
X0175331Y0237638D01*
X0175201Y0237728D01*
X0175073Y0237821D01*
X0174947Y0237917D01*
X0174824Y0238017D01*
X0174703Y0238119D01*
X0174585Y0238224D01*
X0174470Y0238333D01*
X0174357Y0238444D01*
X0174247Y0238558D01*
X0174140Y0238675D01*
X0174036Y0238794D01*
X0173935Y0238916D01*
X0173838Y0239041D01*
X0173743Y0239168D01*
X0173652Y0239297D01*
X0173563Y0239428D01*
X0173479Y0239562D01*
X0173397Y0239698D01*
X0173319Y0239835D01*
X0173245Y0239975D01*
X0173174Y0240117D01*
X0173106Y0240260D01*
X0173042Y0240405D01*
X0172982Y0240551D01*
X0172926Y0240699D01*
X0172873Y0240848D01*
X0172824Y0240999D01*
X0172779Y0241151D01*
X0172738Y0241304D01*
X0172700Y0241457D01*
X0172667Y0241612D01*
X0172637Y0241768D01*
X0172611Y0241924D01*
X0172590Y0242081D01*
X0172572Y0242238D01*
X0172558Y0242396D01*
X0172548Y0242554D01*
X0172542Y0242712D01*
X0172540Y0242870D01*
X0172540Y0377122D02*
X0172542Y0377280D01*
X0172548Y0377438D01*
X0172558Y0377596D01*
X0172572Y0377754D01*
X0172590Y0377911D01*
X0172611Y0378068D01*
X0172637Y0378224D01*
X0172667Y0378380D01*
X0172700Y0378535D01*
X0172738Y0378688D01*
X0172779Y0378841D01*
X0172824Y0378993D01*
X0172873Y0379144D01*
X0172926Y0379293D01*
X0172982Y0379441D01*
X0173042Y0379587D01*
X0173106Y0379732D01*
X0173174Y0379875D01*
X0173245Y0380017D01*
X0173319Y0380157D01*
X0173397Y0380294D01*
X0173479Y0380430D01*
X0173563Y0380564D01*
X0173652Y0380695D01*
X0173743Y0380824D01*
X0173838Y0380951D01*
X0173935Y0381076D01*
X0174036Y0381198D01*
X0174140Y0381317D01*
X0174247Y0381434D01*
X0174357Y0381548D01*
X0174470Y0381659D01*
X0174585Y0381768D01*
X0174703Y0381873D01*
X0174824Y0381975D01*
X0174947Y0382075D01*
X0175073Y0382171D01*
X0175201Y0382264D01*
X0175331Y0382354D01*
X0175464Y0382440D01*
X0175599Y0382524D01*
X0175735Y0382603D01*
X0175874Y0382680D01*
X0176015Y0382752D01*
X0176157Y0382822D01*
X0176301Y0382887D01*
X0176447Y0382949D01*
X0176594Y0383007D01*
X0176743Y0383062D01*
X0176893Y0383113D01*
X0177044Y0383160D01*
X0177196Y0383203D01*
X0177349Y0383242D01*
X0177504Y0383278D01*
X0177659Y0383309D01*
X0177815Y0383337D01*
X0177971Y0383361D01*
X0178128Y0383381D01*
X0178286Y0383397D01*
X0178443Y0383409D01*
X0178602Y0383417D01*
X0178760Y0383421D01*
X0178918Y0383421D01*
X0179076Y0383417D01*
X0179235Y0383409D01*
X0179392Y0383397D01*
X0179550Y0383381D01*
X0179707Y0383361D01*
X0179863Y0383337D01*
X0180019Y0383309D01*
X0180174Y0383278D01*
X0180329Y0383242D01*
X0180482Y0383203D01*
X0180634Y0383160D01*
X0180785Y0383113D01*
X0180935Y0383062D01*
X0181084Y0383007D01*
X0181231Y0382949D01*
X0181377Y0382887D01*
X0181521Y0382822D01*
X0181663Y0382752D01*
X0181804Y0382680D01*
X0181943Y0382603D01*
X0182079Y0382524D01*
X0182214Y0382440D01*
X0182347Y0382354D01*
X0182477Y0382264D01*
X0182605Y0382171D01*
X0182731Y0382075D01*
X0182854Y0381975D01*
X0182975Y0381873D01*
X0183093Y0381768D01*
X0183208Y0381659D01*
X0183321Y0381548D01*
X0183431Y0381434D01*
X0183538Y0381317D01*
X0183642Y0381198D01*
X0183743Y0381076D01*
X0183840Y0380951D01*
X0183935Y0380824D01*
X0184026Y0380695D01*
X0184115Y0380564D01*
X0184199Y0380430D01*
X0184281Y0380294D01*
X0184359Y0380157D01*
X0184433Y0380017D01*
X0184504Y0379875D01*
X0184572Y0379732D01*
X0184636Y0379587D01*
X0184696Y0379441D01*
X0184752Y0379293D01*
X0184805Y0379144D01*
X0184854Y0378993D01*
X0184899Y0378841D01*
X0184940Y0378688D01*
X0184978Y0378535D01*
X0185011Y0378380D01*
X0185041Y0378224D01*
X0185067Y0378068D01*
X0185088Y0377911D01*
X0185106Y0377754D01*
X0185120Y0377596D01*
X0185130Y0377438D01*
X0185136Y0377280D01*
X0185138Y0377122D01*
X0185136Y0376964D01*
X0185130Y0376806D01*
X0185120Y0376648D01*
X0185106Y0376490D01*
X0185088Y0376333D01*
X0185067Y0376176D01*
X0185041Y0376020D01*
X0185011Y0375864D01*
X0184978Y0375709D01*
X0184940Y0375556D01*
X0184899Y0375403D01*
X0184854Y0375251D01*
X0184805Y0375100D01*
X0184752Y0374951D01*
X0184696Y0374803D01*
X0184636Y0374657D01*
X0184572Y0374512D01*
X0184504Y0374369D01*
X0184433Y0374227D01*
X0184359Y0374087D01*
X0184281Y0373950D01*
X0184199Y0373814D01*
X0184115Y0373680D01*
X0184026Y0373549D01*
X0183935Y0373420D01*
X0183840Y0373293D01*
X0183743Y0373168D01*
X0183642Y0373046D01*
X0183538Y0372927D01*
X0183431Y0372810D01*
X0183321Y0372696D01*
X0183208Y0372585D01*
X0183093Y0372476D01*
X0182975Y0372371D01*
X0182854Y0372269D01*
X0182731Y0372169D01*
X0182605Y0372073D01*
X0182477Y0371980D01*
X0182347Y0371890D01*
X0182214Y0371804D01*
X0182079Y0371720D01*
X0181943Y0371641D01*
X0181804Y0371564D01*
X0181663Y0371492D01*
X0181521Y0371422D01*
X0181377Y0371357D01*
X0181231Y0371295D01*
X0181084Y0371237D01*
X0180935Y0371182D01*
X0180785Y0371131D01*
X0180634Y0371084D01*
X0180482Y0371041D01*
X0180329Y0371002D01*
X0180174Y0370966D01*
X0180019Y0370935D01*
X0179863Y0370907D01*
X0179707Y0370883D01*
X0179550Y0370863D01*
X0179392Y0370847D01*
X0179235Y0370835D01*
X0179076Y0370827D01*
X0178918Y0370823D01*
X0178760Y0370823D01*
X0178602Y0370827D01*
X0178443Y0370835D01*
X0178286Y0370847D01*
X0178128Y0370863D01*
X0177971Y0370883D01*
X0177815Y0370907D01*
X0177659Y0370935D01*
X0177504Y0370966D01*
X0177349Y0371002D01*
X0177196Y0371041D01*
X0177044Y0371084D01*
X0176893Y0371131D01*
X0176743Y0371182D01*
X0176594Y0371237D01*
X0176447Y0371295D01*
X0176301Y0371357D01*
X0176157Y0371422D01*
X0176015Y0371492D01*
X0175874Y0371564D01*
X0175735Y0371641D01*
X0175599Y0371720D01*
X0175464Y0371804D01*
X0175331Y0371890D01*
X0175201Y0371980D01*
X0175073Y0372073D01*
X0174947Y0372169D01*
X0174824Y0372269D01*
X0174703Y0372371D01*
X0174585Y0372476D01*
X0174470Y0372585D01*
X0174357Y0372696D01*
X0174247Y0372810D01*
X0174140Y0372927D01*
X0174036Y0373046D01*
X0173935Y0373168D01*
X0173838Y0373293D01*
X0173743Y0373420D01*
X0173652Y0373549D01*
X0173563Y0373680D01*
X0173479Y0373814D01*
X0173397Y0373950D01*
X0173319Y0374087D01*
X0173245Y0374227D01*
X0173174Y0374369D01*
X0173106Y0374512D01*
X0173042Y0374657D01*
X0172982Y0374803D01*
X0172926Y0374951D01*
X0172873Y0375100D01*
X0172824Y0375251D01*
X0172779Y0375403D01*
X0172738Y0375556D01*
X0172700Y0375709D01*
X0172667Y0375864D01*
X0172637Y0376020D01*
X0172611Y0376176D01*
X0172590Y0376333D01*
X0172572Y0376490D01*
X0172558Y0376648D01*
X0172548Y0376806D01*
X0172542Y0376964D01*
X0172540Y0377122D01*
X0185345Y0408083D02*
X0185347Y0408250D01*
X0185353Y0408417D01*
X0185363Y0408583D01*
X0185378Y0408750D01*
X0185396Y0408915D01*
X0185419Y0409081D01*
X0185445Y0409246D01*
X0185476Y0409410D01*
X0185510Y0409573D01*
X0185549Y0409735D01*
X0185591Y0409897D01*
X0185638Y0410057D01*
X0185688Y0410216D01*
X0185743Y0410374D01*
X0185801Y0410530D01*
X0185863Y0410685D01*
X0185928Y0410839D01*
X0185998Y0410990D01*
X0186071Y0411140D01*
X0186148Y0411288D01*
X0186228Y0411435D01*
X0186312Y0411579D01*
X0186400Y0411721D01*
X0186491Y0411861D01*
X0186585Y0411998D01*
X0186683Y0412134D01*
X0186784Y0412267D01*
X0186889Y0412397D01*
X0186996Y0412525D01*
X0187107Y0412650D01*
X0187220Y0412772D01*
X0187337Y0412891D01*
X0187456Y0413008D01*
X0187578Y0413121D01*
X0187703Y0413232D01*
X0187831Y0413339D01*
X0187961Y0413444D01*
X0188094Y0413545D01*
X0188230Y0413643D01*
X0188367Y0413737D01*
X0188507Y0413828D01*
X0188649Y0413916D01*
X0188793Y0414000D01*
X0188940Y0414080D01*
X0189088Y0414157D01*
X0189238Y0414230D01*
X0189389Y0414300D01*
X0189543Y0414365D01*
X0189698Y0414427D01*
X0189854Y0414485D01*
X0190012Y0414540D01*
X0190171Y0414590D01*
X0190331Y0414637D01*
X0190493Y0414679D01*
X0190655Y0414718D01*
X0190818Y0414752D01*
X0190982Y0414783D01*
X0191147Y0414809D01*
X0191313Y0414832D01*
X0191478Y0414850D01*
X0191645Y0414865D01*
X0191811Y0414875D01*
X0191978Y0414881D01*
X0192145Y0414883D01*
X0192312Y0414881D01*
X0192479Y0414875D01*
X0192645Y0414865D01*
X0192812Y0414850D01*
X0192977Y0414832D01*
X0193143Y0414809D01*
X0193308Y0414783D01*
X0193472Y0414752D01*
X0193635Y0414718D01*
X0193797Y0414679D01*
X0193959Y0414637D01*
X0194119Y0414590D01*
X0194278Y0414540D01*
X0194436Y0414485D01*
X0194592Y0414427D01*
X0194747Y0414365D01*
X0194901Y0414300D01*
X0195052Y0414230D01*
X0195202Y0414157D01*
X0195350Y0414080D01*
X0195497Y0414000D01*
X0195641Y0413916D01*
X0195783Y0413828D01*
X0195923Y0413737D01*
X0196060Y0413643D01*
X0196196Y0413545D01*
X0196329Y0413444D01*
X0196459Y0413339D01*
X0196587Y0413232D01*
X0196712Y0413121D01*
X0196834Y0413008D01*
X0196953Y0412891D01*
X0197070Y0412772D01*
X0197183Y0412650D01*
X0197294Y0412525D01*
X0197401Y0412397D01*
X0197506Y0412267D01*
X0197607Y0412134D01*
X0197705Y0411998D01*
X0197799Y0411861D01*
X0197890Y0411721D01*
X0197978Y0411579D01*
X0198062Y0411435D01*
X0198142Y0411288D01*
X0198219Y0411140D01*
X0198292Y0410990D01*
X0198362Y0410839D01*
X0198427Y0410685D01*
X0198489Y0410530D01*
X0198547Y0410374D01*
X0198602Y0410216D01*
X0198652Y0410057D01*
X0198699Y0409897D01*
X0198741Y0409735D01*
X0198780Y0409573D01*
X0198814Y0409410D01*
X0198845Y0409246D01*
X0198871Y0409081D01*
X0198894Y0408915D01*
X0198912Y0408750D01*
X0198927Y0408583D01*
X0198937Y0408417D01*
X0198943Y0408250D01*
X0198945Y0408083D01*
X0198943Y0407916D01*
X0198937Y0407749D01*
X0198927Y0407583D01*
X0198912Y0407416D01*
X0198894Y0407251D01*
X0198871Y0407085D01*
X0198845Y0406920D01*
X0198814Y0406756D01*
X0198780Y0406593D01*
X0198741Y0406431D01*
X0198699Y0406269D01*
X0198652Y0406109D01*
X0198602Y0405950D01*
X0198547Y0405792D01*
X0198489Y0405636D01*
X0198427Y0405481D01*
X0198362Y0405327D01*
X0198292Y0405176D01*
X0198219Y0405026D01*
X0198142Y0404878D01*
X0198062Y0404731D01*
X0197978Y0404587D01*
X0197890Y0404445D01*
X0197799Y0404305D01*
X0197705Y0404168D01*
X0197607Y0404032D01*
X0197506Y0403899D01*
X0197401Y0403769D01*
X0197294Y0403641D01*
X0197183Y0403516D01*
X0197070Y0403394D01*
X0196953Y0403275D01*
X0196834Y0403158D01*
X0196712Y0403045D01*
X0196587Y0402934D01*
X0196459Y0402827D01*
X0196329Y0402722D01*
X0196196Y0402621D01*
X0196060Y0402523D01*
X0195923Y0402429D01*
X0195783Y0402338D01*
X0195641Y0402250D01*
X0195497Y0402166D01*
X0195350Y0402086D01*
X0195202Y0402009D01*
X0195052Y0401936D01*
X0194901Y0401866D01*
X0194747Y0401801D01*
X0194592Y0401739D01*
X0194436Y0401681D01*
X0194278Y0401626D01*
X0194119Y0401576D01*
X0193959Y0401529D01*
X0193797Y0401487D01*
X0193635Y0401448D01*
X0193472Y0401414D01*
X0193308Y0401383D01*
X0193143Y0401357D01*
X0192977Y0401334D01*
X0192812Y0401316D01*
X0192645Y0401301D01*
X0192479Y0401291D01*
X0192312Y0401285D01*
X0192145Y0401283D01*
X0191978Y0401285D01*
X0191811Y0401291D01*
X0191645Y0401301D01*
X0191478Y0401316D01*
X0191313Y0401334D01*
X0191147Y0401357D01*
X0190982Y0401383D01*
X0190818Y0401414D01*
X0190655Y0401448D01*
X0190493Y0401487D01*
X0190331Y0401529D01*
X0190171Y0401576D01*
X0190012Y0401626D01*
X0189854Y0401681D01*
X0189698Y0401739D01*
X0189543Y0401801D01*
X0189389Y0401866D01*
X0189238Y0401936D01*
X0189088Y0402009D01*
X0188940Y0402086D01*
X0188793Y0402166D01*
X0188649Y0402250D01*
X0188507Y0402338D01*
X0188367Y0402429D01*
X0188230Y0402523D01*
X0188094Y0402621D01*
X0187961Y0402722D01*
X0187831Y0402827D01*
X0187703Y0402934D01*
X0187578Y0403045D01*
X0187456Y0403158D01*
X0187337Y0403275D01*
X0187220Y0403394D01*
X0187107Y0403516D01*
X0186996Y0403641D01*
X0186889Y0403769D01*
X0186784Y0403899D01*
X0186683Y0404032D01*
X0186585Y0404168D01*
X0186491Y0404305D01*
X0186400Y0404445D01*
X0186312Y0404587D01*
X0186228Y0404731D01*
X0186148Y0404878D01*
X0186071Y0405026D01*
X0185998Y0405176D01*
X0185928Y0405327D01*
X0185863Y0405481D01*
X0185801Y0405636D01*
X0185743Y0405792D01*
X0185688Y0405950D01*
X0185638Y0406109D01*
X0185591Y0406269D01*
X0185549Y0406431D01*
X0185510Y0406593D01*
X0185476Y0406756D01*
X0185445Y0406920D01*
X0185419Y0407085D01*
X0185396Y0407251D01*
X0185378Y0407416D01*
X0185363Y0407583D01*
X0185353Y0407749D01*
X0185347Y0407916D01*
X0185345Y0408083D01*
X0225296Y0439583D02*
X0225298Y0439741D01*
X0225304Y0439899D01*
X0225314Y0440057D01*
X0225328Y0440215D01*
X0225346Y0440372D01*
X0225367Y0440529D01*
X0225393Y0440685D01*
X0225423Y0440841D01*
X0225456Y0440996D01*
X0225494Y0441149D01*
X0225535Y0441302D01*
X0225580Y0441454D01*
X0225629Y0441605D01*
X0225682Y0441754D01*
X0225738Y0441902D01*
X0225798Y0442048D01*
X0225862Y0442193D01*
X0225930Y0442336D01*
X0226001Y0442478D01*
X0226075Y0442618D01*
X0226153Y0442755D01*
X0226235Y0442891D01*
X0226319Y0443025D01*
X0226408Y0443156D01*
X0226499Y0443285D01*
X0226594Y0443412D01*
X0226691Y0443537D01*
X0226792Y0443659D01*
X0226896Y0443778D01*
X0227003Y0443895D01*
X0227113Y0444009D01*
X0227226Y0444120D01*
X0227341Y0444229D01*
X0227459Y0444334D01*
X0227580Y0444436D01*
X0227703Y0444536D01*
X0227829Y0444632D01*
X0227957Y0444725D01*
X0228087Y0444815D01*
X0228220Y0444901D01*
X0228355Y0444985D01*
X0228491Y0445064D01*
X0228630Y0445141D01*
X0228771Y0445213D01*
X0228913Y0445283D01*
X0229057Y0445348D01*
X0229203Y0445410D01*
X0229350Y0445468D01*
X0229499Y0445523D01*
X0229649Y0445574D01*
X0229800Y0445621D01*
X0229952Y0445664D01*
X0230105Y0445703D01*
X0230260Y0445739D01*
X0230415Y0445770D01*
X0230571Y0445798D01*
X0230727Y0445822D01*
X0230884Y0445842D01*
X0231042Y0445858D01*
X0231199Y0445870D01*
X0231358Y0445878D01*
X0231516Y0445882D01*
X0231674Y0445882D01*
X0231832Y0445878D01*
X0231991Y0445870D01*
X0232148Y0445858D01*
X0232306Y0445842D01*
X0232463Y0445822D01*
X0232619Y0445798D01*
X0232775Y0445770D01*
X0232930Y0445739D01*
X0233085Y0445703D01*
X0233238Y0445664D01*
X0233390Y0445621D01*
X0233541Y0445574D01*
X0233691Y0445523D01*
X0233840Y0445468D01*
X0233987Y0445410D01*
X0234133Y0445348D01*
X0234277Y0445283D01*
X0234419Y0445213D01*
X0234560Y0445141D01*
X0234699Y0445064D01*
X0234835Y0444985D01*
X0234970Y0444901D01*
X0235103Y0444815D01*
X0235233Y0444725D01*
X0235361Y0444632D01*
X0235487Y0444536D01*
X0235610Y0444436D01*
X0235731Y0444334D01*
X0235849Y0444229D01*
X0235964Y0444120D01*
X0236077Y0444009D01*
X0236187Y0443895D01*
X0236294Y0443778D01*
X0236398Y0443659D01*
X0236499Y0443537D01*
X0236596Y0443412D01*
X0236691Y0443285D01*
X0236782Y0443156D01*
X0236871Y0443025D01*
X0236955Y0442891D01*
X0237037Y0442755D01*
X0237115Y0442618D01*
X0237189Y0442478D01*
X0237260Y0442336D01*
X0237328Y0442193D01*
X0237392Y0442048D01*
X0237452Y0441902D01*
X0237508Y0441754D01*
X0237561Y0441605D01*
X0237610Y0441454D01*
X0237655Y0441302D01*
X0237696Y0441149D01*
X0237734Y0440996D01*
X0237767Y0440841D01*
X0237797Y0440685D01*
X0237823Y0440529D01*
X0237844Y0440372D01*
X0237862Y0440215D01*
X0237876Y0440057D01*
X0237886Y0439899D01*
X0237892Y0439741D01*
X0237894Y0439583D01*
X0237892Y0439425D01*
X0237886Y0439267D01*
X0237876Y0439109D01*
X0237862Y0438951D01*
X0237844Y0438794D01*
X0237823Y0438637D01*
X0237797Y0438481D01*
X0237767Y0438325D01*
X0237734Y0438170D01*
X0237696Y0438017D01*
X0237655Y0437864D01*
X0237610Y0437712D01*
X0237561Y0437561D01*
X0237508Y0437412D01*
X0237452Y0437264D01*
X0237392Y0437118D01*
X0237328Y0436973D01*
X0237260Y0436830D01*
X0237189Y0436688D01*
X0237115Y0436548D01*
X0237037Y0436411D01*
X0236955Y0436275D01*
X0236871Y0436141D01*
X0236782Y0436010D01*
X0236691Y0435881D01*
X0236596Y0435754D01*
X0236499Y0435629D01*
X0236398Y0435507D01*
X0236294Y0435388D01*
X0236187Y0435271D01*
X0236077Y0435157D01*
X0235964Y0435046D01*
X0235849Y0434937D01*
X0235731Y0434832D01*
X0235610Y0434730D01*
X0235487Y0434630D01*
X0235361Y0434534D01*
X0235233Y0434441D01*
X0235103Y0434351D01*
X0234970Y0434265D01*
X0234835Y0434181D01*
X0234699Y0434102D01*
X0234560Y0434025D01*
X0234419Y0433953D01*
X0234277Y0433883D01*
X0234133Y0433818D01*
X0233987Y0433756D01*
X0233840Y0433698D01*
X0233691Y0433643D01*
X0233541Y0433592D01*
X0233390Y0433545D01*
X0233238Y0433502D01*
X0233085Y0433463D01*
X0232930Y0433427D01*
X0232775Y0433396D01*
X0232619Y0433368D01*
X0232463Y0433344D01*
X0232306Y0433324D01*
X0232148Y0433308D01*
X0231991Y0433296D01*
X0231832Y0433288D01*
X0231674Y0433284D01*
X0231516Y0433284D01*
X0231358Y0433288D01*
X0231199Y0433296D01*
X0231042Y0433308D01*
X0230884Y0433324D01*
X0230727Y0433344D01*
X0230571Y0433368D01*
X0230415Y0433396D01*
X0230260Y0433427D01*
X0230105Y0433463D01*
X0229952Y0433502D01*
X0229800Y0433545D01*
X0229649Y0433592D01*
X0229499Y0433643D01*
X0229350Y0433698D01*
X0229203Y0433756D01*
X0229057Y0433818D01*
X0228913Y0433883D01*
X0228771Y0433953D01*
X0228630Y0434025D01*
X0228491Y0434102D01*
X0228355Y0434181D01*
X0228220Y0434265D01*
X0228087Y0434351D01*
X0227957Y0434441D01*
X0227829Y0434534D01*
X0227703Y0434630D01*
X0227580Y0434730D01*
X0227459Y0434832D01*
X0227341Y0434937D01*
X0227226Y0435046D01*
X0227113Y0435157D01*
X0227003Y0435271D01*
X0226896Y0435388D01*
X0226792Y0435507D01*
X0226691Y0435629D01*
X0226594Y0435754D01*
X0226499Y0435881D01*
X0226408Y0436010D01*
X0226319Y0436141D01*
X0226235Y0436275D01*
X0226153Y0436411D01*
X0226075Y0436548D01*
X0226001Y0436688D01*
X0225930Y0436830D01*
X0225862Y0436973D01*
X0225798Y0437118D01*
X0225738Y0437264D01*
X0225682Y0437412D01*
X0225629Y0437561D01*
X0225580Y0437712D01*
X0225535Y0437864D01*
X0225494Y0438017D01*
X0225456Y0438170D01*
X0225423Y0438325D01*
X0225393Y0438481D01*
X0225367Y0438637D01*
X0225346Y0438794D01*
X0225328Y0438951D01*
X0225314Y0439109D01*
X0225304Y0439267D01*
X0225298Y0439425D01*
X0225296Y0439583D01*
X0355296Y0439583D02*
X0355298Y0439741D01*
X0355304Y0439899D01*
X0355314Y0440057D01*
X0355328Y0440215D01*
X0355346Y0440372D01*
X0355367Y0440529D01*
X0355393Y0440685D01*
X0355423Y0440841D01*
X0355456Y0440996D01*
X0355494Y0441149D01*
X0355535Y0441302D01*
X0355580Y0441454D01*
X0355629Y0441605D01*
X0355682Y0441754D01*
X0355738Y0441902D01*
X0355798Y0442048D01*
X0355862Y0442193D01*
X0355930Y0442336D01*
X0356001Y0442478D01*
X0356075Y0442618D01*
X0356153Y0442755D01*
X0356235Y0442891D01*
X0356319Y0443025D01*
X0356408Y0443156D01*
X0356499Y0443285D01*
X0356594Y0443412D01*
X0356691Y0443537D01*
X0356792Y0443659D01*
X0356896Y0443778D01*
X0357003Y0443895D01*
X0357113Y0444009D01*
X0357226Y0444120D01*
X0357341Y0444229D01*
X0357459Y0444334D01*
X0357580Y0444436D01*
X0357703Y0444536D01*
X0357829Y0444632D01*
X0357957Y0444725D01*
X0358087Y0444815D01*
X0358220Y0444901D01*
X0358355Y0444985D01*
X0358491Y0445064D01*
X0358630Y0445141D01*
X0358771Y0445213D01*
X0358913Y0445283D01*
X0359057Y0445348D01*
X0359203Y0445410D01*
X0359350Y0445468D01*
X0359499Y0445523D01*
X0359649Y0445574D01*
X0359800Y0445621D01*
X0359952Y0445664D01*
X0360105Y0445703D01*
X0360260Y0445739D01*
X0360415Y0445770D01*
X0360571Y0445798D01*
X0360727Y0445822D01*
X0360884Y0445842D01*
X0361042Y0445858D01*
X0361199Y0445870D01*
X0361358Y0445878D01*
X0361516Y0445882D01*
X0361674Y0445882D01*
X0361832Y0445878D01*
X0361991Y0445870D01*
X0362148Y0445858D01*
X0362306Y0445842D01*
X0362463Y0445822D01*
X0362619Y0445798D01*
X0362775Y0445770D01*
X0362930Y0445739D01*
X0363085Y0445703D01*
X0363238Y0445664D01*
X0363390Y0445621D01*
X0363541Y0445574D01*
X0363691Y0445523D01*
X0363840Y0445468D01*
X0363987Y0445410D01*
X0364133Y0445348D01*
X0364277Y0445283D01*
X0364419Y0445213D01*
X0364560Y0445141D01*
X0364699Y0445064D01*
X0364835Y0444985D01*
X0364970Y0444901D01*
X0365103Y0444815D01*
X0365233Y0444725D01*
X0365361Y0444632D01*
X0365487Y0444536D01*
X0365610Y0444436D01*
X0365731Y0444334D01*
X0365849Y0444229D01*
X0365964Y0444120D01*
X0366077Y0444009D01*
X0366187Y0443895D01*
X0366294Y0443778D01*
X0366398Y0443659D01*
X0366499Y0443537D01*
X0366596Y0443412D01*
X0366691Y0443285D01*
X0366782Y0443156D01*
X0366871Y0443025D01*
X0366955Y0442891D01*
X0367037Y0442755D01*
X0367115Y0442618D01*
X0367189Y0442478D01*
X0367260Y0442336D01*
X0367328Y0442193D01*
X0367392Y0442048D01*
X0367452Y0441902D01*
X0367508Y0441754D01*
X0367561Y0441605D01*
X0367610Y0441454D01*
X0367655Y0441302D01*
X0367696Y0441149D01*
X0367734Y0440996D01*
X0367767Y0440841D01*
X0367797Y0440685D01*
X0367823Y0440529D01*
X0367844Y0440372D01*
X0367862Y0440215D01*
X0367876Y0440057D01*
X0367886Y0439899D01*
X0367892Y0439741D01*
X0367894Y0439583D01*
X0367892Y0439425D01*
X0367886Y0439267D01*
X0367876Y0439109D01*
X0367862Y0438951D01*
X0367844Y0438794D01*
X0367823Y0438637D01*
X0367797Y0438481D01*
X0367767Y0438325D01*
X0367734Y0438170D01*
X0367696Y0438017D01*
X0367655Y0437864D01*
X0367610Y0437712D01*
X0367561Y0437561D01*
X0367508Y0437412D01*
X0367452Y0437264D01*
X0367392Y0437118D01*
X0367328Y0436973D01*
X0367260Y0436830D01*
X0367189Y0436688D01*
X0367115Y0436548D01*
X0367037Y0436411D01*
X0366955Y0436275D01*
X0366871Y0436141D01*
X0366782Y0436010D01*
X0366691Y0435881D01*
X0366596Y0435754D01*
X0366499Y0435629D01*
X0366398Y0435507D01*
X0366294Y0435388D01*
X0366187Y0435271D01*
X0366077Y0435157D01*
X0365964Y0435046D01*
X0365849Y0434937D01*
X0365731Y0434832D01*
X0365610Y0434730D01*
X0365487Y0434630D01*
X0365361Y0434534D01*
X0365233Y0434441D01*
X0365103Y0434351D01*
X0364970Y0434265D01*
X0364835Y0434181D01*
X0364699Y0434102D01*
X0364560Y0434025D01*
X0364419Y0433953D01*
X0364277Y0433883D01*
X0364133Y0433818D01*
X0363987Y0433756D01*
X0363840Y0433698D01*
X0363691Y0433643D01*
X0363541Y0433592D01*
X0363390Y0433545D01*
X0363238Y0433502D01*
X0363085Y0433463D01*
X0362930Y0433427D01*
X0362775Y0433396D01*
X0362619Y0433368D01*
X0362463Y0433344D01*
X0362306Y0433324D01*
X0362148Y0433308D01*
X0361991Y0433296D01*
X0361832Y0433288D01*
X0361674Y0433284D01*
X0361516Y0433284D01*
X0361358Y0433288D01*
X0361199Y0433296D01*
X0361042Y0433308D01*
X0360884Y0433324D01*
X0360727Y0433344D01*
X0360571Y0433368D01*
X0360415Y0433396D01*
X0360260Y0433427D01*
X0360105Y0433463D01*
X0359952Y0433502D01*
X0359800Y0433545D01*
X0359649Y0433592D01*
X0359499Y0433643D01*
X0359350Y0433698D01*
X0359203Y0433756D01*
X0359057Y0433818D01*
X0358913Y0433883D01*
X0358771Y0433953D01*
X0358630Y0434025D01*
X0358491Y0434102D01*
X0358355Y0434181D01*
X0358220Y0434265D01*
X0358087Y0434351D01*
X0357957Y0434441D01*
X0357829Y0434534D01*
X0357703Y0434630D01*
X0357580Y0434730D01*
X0357459Y0434832D01*
X0357341Y0434937D01*
X0357226Y0435046D01*
X0357113Y0435157D01*
X0357003Y0435271D01*
X0356896Y0435388D01*
X0356792Y0435507D01*
X0356691Y0435629D01*
X0356594Y0435754D01*
X0356499Y0435881D01*
X0356408Y0436010D01*
X0356319Y0436141D01*
X0356235Y0436275D01*
X0356153Y0436411D01*
X0356075Y0436548D01*
X0356001Y0436688D01*
X0355930Y0436830D01*
X0355862Y0436973D01*
X0355798Y0437118D01*
X0355738Y0437264D01*
X0355682Y0437412D01*
X0355629Y0437561D01*
X0355580Y0437712D01*
X0355535Y0437864D01*
X0355494Y0438017D01*
X0355456Y0438170D01*
X0355423Y0438325D01*
X0355393Y0438481D01*
X0355367Y0438637D01*
X0355346Y0438794D01*
X0355328Y0438951D01*
X0355314Y0439109D01*
X0355304Y0439267D01*
X0355298Y0439425D01*
X0355296Y0439583D01*
X0402845Y0471083D02*
X0402847Y0471250D01*
X0402853Y0471417D01*
X0402863Y0471583D01*
X0402878Y0471750D01*
X0402896Y0471915D01*
X0402919Y0472081D01*
X0402945Y0472246D01*
X0402976Y0472410D01*
X0403010Y0472573D01*
X0403049Y0472735D01*
X0403091Y0472897D01*
X0403138Y0473057D01*
X0403188Y0473216D01*
X0403243Y0473374D01*
X0403301Y0473530D01*
X0403363Y0473685D01*
X0403428Y0473839D01*
X0403498Y0473990D01*
X0403571Y0474140D01*
X0403648Y0474288D01*
X0403728Y0474435D01*
X0403812Y0474579D01*
X0403900Y0474721D01*
X0403991Y0474861D01*
X0404085Y0474998D01*
X0404183Y0475134D01*
X0404284Y0475267D01*
X0404389Y0475397D01*
X0404496Y0475525D01*
X0404607Y0475650D01*
X0404720Y0475772D01*
X0404837Y0475891D01*
X0404956Y0476008D01*
X0405078Y0476121D01*
X0405203Y0476232D01*
X0405331Y0476339D01*
X0405461Y0476444D01*
X0405594Y0476545D01*
X0405730Y0476643D01*
X0405867Y0476737D01*
X0406007Y0476828D01*
X0406149Y0476916D01*
X0406293Y0477000D01*
X0406440Y0477080D01*
X0406588Y0477157D01*
X0406738Y0477230D01*
X0406889Y0477300D01*
X0407043Y0477365D01*
X0407198Y0477427D01*
X0407354Y0477485D01*
X0407512Y0477540D01*
X0407671Y0477590D01*
X0407831Y0477637D01*
X0407993Y0477679D01*
X0408155Y0477718D01*
X0408318Y0477752D01*
X0408482Y0477783D01*
X0408647Y0477809D01*
X0408813Y0477832D01*
X0408978Y0477850D01*
X0409145Y0477865D01*
X0409311Y0477875D01*
X0409478Y0477881D01*
X0409645Y0477883D01*
X0409812Y0477881D01*
X0409979Y0477875D01*
X0410145Y0477865D01*
X0410312Y0477850D01*
X0410477Y0477832D01*
X0410643Y0477809D01*
X0410808Y0477783D01*
X0410972Y0477752D01*
X0411135Y0477718D01*
X0411297Y0477679D01*
X0411459Y0477637D01*
X0411619Y0477590D01*
X0411778Y0477540D01*
X0411936Y0477485D01*
X0412092Y0477427D01*
X0412247Y0477365D01*
X0412401Y0477300D01*
X0412552Y0477230D01*
X0412702Y0477157D01*
X0412850Y0477080D01*
X0412997Y0477000D01*
X0413141Y0476916D01*
X0413283Y0476828D01*
X0413423Y0476737D01*
X0413560Y0476643D01*
X0413696Y0476545D01*
X0413829Y0476444D01*
X0413959Y0476339D01*
X0414087Y0476232D01*
X0414212Y0476121D01*
X0414334Y0476008D01*
X0414453Y0475891D01*
X0414570Y0475772D01*
X0414683Y0475650D01*
X0414794Y0475525D01*
X0414901Y0475397D01*
X0415006Y0475267D01*
X0415107Y0475134D01*
X0415205Y0474998D01*
X0415299Y0474861D01*
X0415390Y0474721D01*
X0415478Y0474579D01*
X0415562Y0474435D01*
X0415642Y0474288D01*
X0415719Y0474140D01*
X0415792Y0473990D01*
X0415862Y0473839D01*
X0415927Y0473685D01*
X0415989Y0473530D01*
X0416047Y0473374D01*
X0416102Y0473216D01*
X0416152Y0473057D01*
X0416199Y0472897D01*
X0416241Y0472735D01*
X0416280Y0472573D01*
X0416314Y0472410D01*
X0416345Y0472246D01*
X0416371Y0472081D01*
X0416394Y0471915D01*
X0416412Y0471750D01*
X0416427Y0471583D01*
X0416437Y0471417D01*
X0416443Y0471250D01*
X0416445Y0471083D01*
X0416443Y0470916D01*
X0416437Y0470749D01*
X0416427Y0470583D01*
X0416412Y0470416D01*
X0416394Y0470251D01*
X0416371Y0470085D01*
X0416345Y0469920D01*
X0416314Y0469756D01*
X0416280Y0469593D01*
X0416241Y0469431D01*
X0416199Y0469269D01*
X0416152Y0469109D01*
X0416102Y0468950D01*
X0416047Y0468792D01*
X0415989Y0468636D01*
X0415927Y0468481D01*
X0415862Y0468327D01*
X0415792Y0468176D01*
X0415719Y0468026D01*
X0415642Y0467878D01*
X0415562Y0467731D01*
X0415478Y0467587D01*
X0415390Y0467445D01*
X0415299Y0467305D01*
X0415205Y0467168D01*
X0415107Y0467032D01*
X0415006Y0466899D01*
X0414901Y0466769D01*
X0414794Y0466641D01*
X0414683Y0466516D01*
X0414570Y0466394D01*
X0414453Y0466275D01*
X0414334Y0466158D01*
X0414212Y0466045D01*
X0414087Y0465934D01*
X0413959Y0465827D01*
X0413829Y0465722D01*
X0413696Y0465621D01*
X0413560Y0465523D01*
X0413423Y0465429D01*
X0413283Y0465338D01*
X0413141Y0465250D01*
X0412997Y0465166D01*
X0412850Y0465086D01*
X0412702Y0465009D01*
X0412552Y0464936D01*
X0412401Y0464866D01*
X0412247Y0464801D01*
X0412092Y0464739D01*
X0411936Y0464681D01*
X0411778Y0464626D01*
X0411619Y0464576D01*
X0411459Y0464529D01*
X0411297Y0464487D01*
X0411135Y0464448D01*
X0410972Y0464414D01*
X0410808Y0464383D01*
X0410643Y0464357D01*
X0410477Y0464334D01*
X0410312Y0464316D01*
X0410145Y0464301D01*
X0409979Y0464291D01*
X0409812Y0464285D01*
X0409645Y0464283D01*
X0409478Y0464285D01*
X0409311Y0464291D01*
X0409145Y0464301D01*
X0408978Y0464316D01*
X0408813Y0464334D01*
X0408647Y0464357D01*
X0408482Y0464383D01*
X0408318Y0464414D01*
X0408155Y0464448D01*
X0407993Y0464487D01*
X0407831Y0464529D01*
X0407671Y0464576D01*
X0407512Y0464626D01*
X0407354Y0464681D01*
X0407198Y0464739D01*
X0407043Y0464801D01*
X0406889Y0464866D01*
X0406738Y0464936D01*
X0406588Y0465009D01*
X0406440Y0465086D01*
X0406293Y0465166D01*
X0406149Y0465250D01*
X0406007Y0465338D01*
X0405867Y0465429D01*
X0405730Y0465523D01*
X0405594Y0465621D01*
X0405461Y0465722D01*
X0405331Y0465827D01*
X0405203Y0465934D01*
X0405078Y0466045D01*
X0404956Y0466158D01*
X0404837Y0466275D01*
X0404720Y0466394D01*
X0404607Y0466516D01*
X0404496Y0466641D01*
X0404389Y0466769D01*
X0404284Y0466899D01*
X0404183Y0467032D01*
X0404085Y0467168D01*
X0403991Y0467305D01*
X0403900Y0467445D01*
X0403812Y0467587D01*
X0403728Y0467731D01*
X0403648Y0467878D01*
X0403571Y0468026D01*
X0403498Y0468176D01*
X0403428Y0468327D01*
X0403363Y0468481D01*
X0403301Y0468636D01*
X0403243Y0468792D01*
X0403188Y0468950D01*
X0403138Y0469109D01*
X0403091Y0469269D01*
X0403049Y0469431D01*
X0403010Y0469593D01*
X0402976Y0469756D01*
X0402945Y0469920D01*
X0402919Y0470085D01*
X0402896Y0470251D01*
X0402878Y0470416D01*
X0402863Y0470583D01*
X0402853Y0470749D01*
X0402847Y0470916D01*
X0402845Y0471083D01*
X0437295Y0408083D02*
X0437297Y0408220D01*
X0437303Y0408356D01*
X0437313Y0408493D01*
X0437327Y0408629D01*
X0437345Y0408764D01*
X0437366Y0408899D01*
X0437392Y0409033D01*
X0437422Y0409167D01*
X0437455Y0409299D01*
X0437492Y0409431D01*
X0437534Y0409561D01*
X0437578Y0409690D01*
X0437627Y0409818D01*
X0437679Y0409945D01*
X0437735Y0410069D01*
X0437795Y0410192D01*
X0437858Y0410314D01*
X0437925Y0410433D01*
X0437995Y0410550D01*
X0438068Y0410666D01*
X0438145Y0410779D01*
X0438225Y0410890D01*
X0438308Y0410998D01*
X0438395Y0411104D01*
X0438484Y0411208D01*
X0438576Y0411308D01*
X0438672Y0411406D01*
X0438770Y0411502D01*
X0438870Y0411594D01*
X0438974Y0411683D01*
X0439080Y0411770D01*
X0439188Y0411853D01*
X0439299Y0411933D01*
X0439412Y0412010D01*
X0439528Y0412083D01*
X0439645Y0412153D01*
X0439764Y0412220D01*
X0439886Y0412283D01*
X0440009Y0412343D01*
X0440133Y0412399D01*
X0440260Y0412451D01*
X0440388Y0412500D01*
X0440517Y0412544D01*
X0440647Y0412586D01*
X0440779Y0412623D01*
X0440911Y0412656D01*
X0441045Y0412686D01*
X0441179Y0412712D01*
X0441314Y0412733D01*
X0441449Y0412751D01*
X0441585Y0412765D01*
X0441722Y0412775D01*
X0441858Y0412781D01*
X0441995Y0412783D01*
X0442132Y0412781D01*
X0442268Y0412775D01*
X0442405Y0412765D01*
X0442541Y0412751D01*
X0442676Y0412733D01*
X0442811Y0412712D01*
X0442945Y0412686D01*
X0443079Y0412656D01*
X0443211Y0412623D01*
X0443343Y0412586D01*
X0443473Y0412544D01*
X0443602Y0412500D01*
X0443730Y0412451D01*
X0443857Y0412399D01*
X0443981Y0412343D01*
X0444104Y0412283D01*
X0444226Y0412220D01*
X0444345Y0412153D01*
X0444462Y0412083D01*
X0444578Y0412010D01*
X0444691Y0411933D01*
X0444802Y0411853D01*
X0444910Y0411770D01*
X0445016Y0411683D01*
X0445120Y0411594D01*
X0445220Y0411502D01*
X0445318Y0411406D01*
X0445414Y0411308D01*
X0445506Y0411208D01*
X0445595Y0411104D01*
X0445682Y0410998D01*
X0445765Y0410890D01*
X0445845Y0410779D01*
X0445922Y0410666D01*
X0445995Y0410550D01*
X0446065Y0410433D01*
X0446132Y0410314D01*
X0446195Y0410192D01*
X0446255Y0410069D01*
X0446311Y0409945D01*
X0446363Y0409818D01*
X0446412Y0409690D01*
X0446456Y0409561D01*
X0446498Y0409431D01*
X0446535Y0409299D01*
X0446568Y0409167D01*
X0446598Y0409033D01*
X0446624Y0408899D01*
X0446645Y0408764D01*
X0446663Y0408629D01*
X0446677Y0408493D01*
X0446687Y0408356D01*
X0446693Y0408220D01*
X0446695Y0408083D01*
X0446693Y0407946D01*
X0446687Y0407810D01*
X0446677Y0407673D01*
X0446663Y0407537D01*
X0446645Y0407402D01*
X0446624Y0407267D01*
X0446598Y0407133D01*
X0446568Y0406999D01*
X0446535Y0406867D01*
X0446498Y0406735D01*
X0446456Y0406605D01*
X0446412Y0406476D01*
X0446363Y0406348D01*
X0446311Y0406221D01*
X0446255Y0406097D01*
X0446195Y0405974D01*
X0446132Y0405852D01*
X0446065Y0405733D01*
X0445995Y0405616D01*
X0445922Y0405500D01*
X0445845Y0405387D01*
X0445765Y0405276D01*
X0445682Y0405168D01*
X0445595Y0405062D01*
X0445506Y0404958D01*
X0445414Y0404858D01*
X0445318Y0404760D01*
X0445220Y0404664D01*
X0445120Y0404572D01*
X0445016Y0404483D01*
X0444910Y0404396D01*
X0444802Y0404313D01*
X0444691Y0404233D01*
X0444578Y0404156D01*
X0444462Y0404083D01*
X0444345Y0404013D01*
X0444226Y0403946D01*
X0444104Y0403883D01*
X0443981Y0403823D01*
X0443857Y0403767D01*
X0443730Y0403715D01*
X0443602Y0403666D01*
X0443473Y0403622D01*
X0443343Y0403580D01*
X0443211Y0403543D01*
X0443079Y0403510D01*
X0442945Y0403480D01*
X0442811Y0403454D01*
X0442676Y0403433D01*
X0442541Y0403415D01*
X0442405Y0403401D01*
X0442268Y0403391D01*
X0442132Y0403385D01*
X0441995Y0403383D01*
X0441858Y0403385D01*
X0441722Y0403391D01*
X0441585Y0403401D01*
X0441449Y0403415D01*
X0441314Y0403433D01*
X0441179Y0403454D01*
X0441045Y0403480D01*
X0440911Y0403510D01*
X0440779Y0403543D01*
X0440647Y0403580D01*
X0440517Y0403622D01*
X0440388Y0403666D01*
X0440260Y0403715D01*
X0440133Y0403767D01*
X0440009Y0403823D01*
X0439886Y0403883D01*
X0439764Y0403946D01*
X0439645Y0404013D01*
X0439528Y0404083D01*
X0439412Y0404156D01*
X0439299Y0404233D01*
X0439188Y0404313D01*
X0439080Y0404396D01*
X0438974Y0404483D01*
X0438870Y0404572D01*
X0438770Y0404664D01*
X0438672Y0404760D01*
X0438576Y0404858D01*
X0438484Y0404958D01*
X0438395Y0405062D01*
X0438308Y0405168D01*
X0438225Y0405276D01*
X0438145Y0405387D01*
X0438068Y0405500D01*
X0437995Y0405616D01*
X0437925Y0405733D01*
X0437858Y0405852D01*
X0437795Y0405974D01*
X0437735Y0406097D01*
X0437679Y0406221D01*
X0437627Y0406348D01*
X0437578Y0406476D01*
X0437534Y0406605D01*
X0437492Y0406735D01*
X0437455Y0406867D01*
X0437422Y0406999D01*
X0437392Y0407133D01*
X0437366Y0407267D01*
X0437345Y0407402D01*
X0437327Y0407537D01*
X0437313Y0407673D01*
X0437303Y0407810D01*
X0437297Y0407946D01*
X0437295Y0408083D01*
X0413485Y0377122D02*
X0413487Y0377280D01*
X0413493Y0377438D01*
X0413503Y0377596D01*
X0413517Y0377754D01*
X0413535Y0377911D01*
X0413556Y0378068D01*
X0413582Y0378224D01*
X0413612Y0378380D01*
X0413645Y0378535D01*
X0413683Y0378688D01*
X0413724Y0378841D01*
X0413769Y0378993D01*
X0413818Y0379144D01*
X0413871Y0379293D01*
X0413927Y0379441D01*
X0413987Y0379587D01*
X0414051Y0379732D01*
X0414119Y0379875D01*
X0414190Y0380017D01*
X0414264Y0380157D01*
X0414342Y0380294D01*
X0414424Y0380430D01*
X0414508Y0380564D01*
X0414597Y0380695D01*
X0414688Y0380824D01*
X0414783Y0380951D01*
X0414880Y0381076D01*
X0414981Y0381198D01*
X0415085Y0381317D01*
X0415192Y0381434D01*
X0415302Y0381548D01*
X0415415Y0381659D01*
X0415530Y0381768D01*
X0415648Y0381873D01*
X0415769Y0381975D01*
X0415892Y0382075D01*
X0416018Y0382171D01*
X0416146Y0382264D01*
X0416276Y0382354D01*
X0416409Y0382440D01*
X0416544Y0382524D01*
X0416680Y0382603D01*
X0416819Y0382680D01*
X0416960Y0382752D01*
X0417102Y0382822D01*
X0417246Y0382887D01*
X0417392Y0382949D01*
X0417539Y0383007D01*
X0417688Y0383062D01*
X0417838Y0383113D01*
X0417989Y0383160D01*
X0418141Y0383203D01*
X0418294Y0383242D01*
X0418449Y0383278D01*
X0418604Y0383309D01*
X0418760Y0383337D01*
X0418916Y0383361D01*
X0419073Y0383381D01*
X0419231Y0383397D01*
X0419388Y0383409D01*
X0419547Y0383417D01*
X0419705Y0383421D01*
X0419863Y0383421D01*
X0420021Y0383417D01*
X0420180Y0383409D01*
X0420337Y0383397D01*
X0420495Y0383381D01*
X0420652Y0383361D01*
X0420808Y0383337D01*
X0420964Y0383309D01*
X0421119Y0383278D01*
X0421274Y0383242D01*
X0421427Y0383203D01*
X0421579Y0383160D01*
X0421730Y0383113D01*
X0421880Y0383062D01*
X0422029Y0383007D01*
X0422176Y0382949D01*
X0422322Y0382887D01*
X0422466Y0382822D01*
X0422608Y0382752D01*
X0422749Y0382680D01*
X0422888Y0382603D01*
X0423024Y0382524D01*
X0423159Y0382440D01*
X0423292Y0382354D01*
X0423422Y0382264D01*
X0423550Y0382171D01*
X0423676Y0382075D01*
X0423799Y0381975D01*
X0423920Y0381873D01*
X0424038Y0381768D01*
X0424153Y0381659D01*
X0424266Y0381548D01*
X0424376Y0381434D01*
X0424483Y0381317D01*
X0424587Y0381198D01*
X0424688Y0381076D01*
X0424785Y0380951D01*
X0424880Y0380824D01*
X0424971Y0380695D01*
X0425060Y0380564D01*
X0425144Y0380430D01*
X0425226Y0380294D01*
X0425304Y0380157D01*
X0425378Y0380017D01*
X0425449Y0379875D01*
X0425517Y0379732D01*
X0425581Y0379587D01*
X0425641Y0379441D01*
X0425697Y0379293D01*
X0425750Y0379144D01*
X0425799Y0378993D01*
X0425844Y0378841D01*
X0425885Y0378688D01*
X0425923Y0378535D01*
X0425956Y0378380D01*
X0425986Y0378224D01*
X0426012Y0378068D01*
X0426033Y0377911D01*
X0426051Y0377754D01*
X0426065Y0377596D01*
X0426075Y0377438D01*
X0426081Y0377280D01*
X0426083Y0377122D01*
X0426081Y0376964D01*
X0426075Y0376806D01*
X0426065Y0376648D01*
X0426051Y0376490D01*
X0426033Y0376333D01*
X0426012Y0376176D01*
X0425986Y0376020D01*
X0425956Y0375864D01*
X0425923Y0375709D01*
X0425885Y0375556D01*
X0425844Y0375403D01*
X0425799Y0375251D01*
X0425750Y0375100D01*
X0425697Y0374951D01*
X0425641Y0374803D01*
X0425581Y0374657D01*
X0425517Y0374512D01*
X0425449Y0374369D01*
X0425378Y0374227D01*
X0425304Y0374087D01*
X0425226Y0373950D01*
X0425144Y0373814D01*
X0425060Y0373680D01*
X0424971Y0373549D01*
X0424880Y0373420D01*
X0424785Y0373293D01*
X0424688Y0373168D01*
X0424587Y0373046D01*
X0424483Y0372927D01*
X0424376Y0372810D01*
X0424266Y0372696D01*
X0424153Y0372585D01*
X0424038Y0372476D01*
X0423920Y0372371D01*
X0423799Y0372269D01*
X0423676Y0372169D01*
X0423550Y0372073D01*
X0423422Y0371980D01*
X0423292Y0371890D01*
X0423159Y0371804D01*
X0423024Y0371720D01*
X0422888Y0371641D01*
X0422749Y0371564D01*
X0422608Y0371492D01*
X0422466Y0371422D01*
X0422322Y0371357D01*
X0422176Y0371295D01*
X0422029Y0371237D01*
X0421880Y0371182D01*
X0421730Y0371131D01*
X0421579Y0371084D01*
X0421427Y0371041D01*
X0421274Y0371002D01*
X0421119Y0370966D01*
X0420964Y0370935D01*
X0420808Y0370907D01*
X0420652Y0370883D01*
X0420495Y0370863D01*
X0420337Y0370847D01*
X0420180Y0370835D01*
X0420021Y0370827D01*
X0419863Y0370823D01*
X0419705Y0370823D01*
X0419547Y0370827D01*
X0419388Y0370835D01*
X0419231Y0370847D01*
X0419073Y0370863D01*
X0418916Y0370883D01*
X0418760Y0370907D01*
X0418604Y0370935D01*
X0418449Y0370966D01*
X0418294Y0371002D01*
X0418141Y0371041D01*
X0417989Y0371084D01*
X0417838Y0371131D01*
X0417688Y0371182D01*
X0417539Y0371237D01*
X0417392Y0371295D01*
X0417246Y0371357D01*
X0417102Y0371422D01*
X0416960Y0371492D01*
X0416819Y0371564D01*
X0416680Y0371641D01*
X0416544Y0371720D01*
X0416409Y0371804D01*
X0416276Y0371890D01*
X0416146Y0371980D01*
X0416018Y0372073D01*
X0415892Y0372169D01*
X0415769Y0372269D01*
X0415648Y0372371D01*
X0415530Y0372476D01*
X0415415Y0372585D01*
X0415302Y0372696D01*
X0415192Y0372810D01*
X0415085Y0372927D01*
X0414981Y0373046D01*
X0414880Y0373168D01*
X0414783Y0373293D01*
X0414688Y0373420D01*
X0414597Y0373549D01*
X0414508Y0373680D01*
X0414424Y0373814D01*
X0414342Y0373950D01*
X0414264Y0374087D01*
X0414190Y0374227D01*
X0414119Y0374369D01*
X0414051Y0374512D01*
X0413987Y0374657D01*
X0413927Y0374803D01*
X0413871Y0374951D01*
X0413818Y0375100D01*
X0413769Y0375251D01*
X0413724Y0375403D01*
X0413683Y0375556D01*
X0413645Y0375709D01*
X0413612Y0375864D01*
X0413582Y0376020D01*
X0413556Y0376176D01*
X0413535Y0376333D01*
X0413517Y0376490D01*
X0413503Y0376648D01*
X0413493Y0376806D01*
X0413487Y0376964D01*
X0413485Y0377122D01*
X0515823Y0411272D02*
X0515825Y0411356D01*
X0515831Y0411439D01*
X0515841Y0411522D01*
X0515855Y0411605D01*
X0515872Y0411687D01*
X0515894Y0411768D01*
X0515919Y0411847D01*
X0515948Y0411926D01*
X0515981Y0412003D01*
X0516017Y0412078D01*
X0516057Y0412152D01*
X0516100Y0412224D01*
X0516147Y0412293D01*
X0516197Y0412360D01*
X0516250Y0412425D01*
X0516306Y0412487D01*
X0516364Y0412547D01*
X0516426Y0412604D01*
X0516490Y0412657D01*
X0516557Y0412708D01*
X0516626Y0412755D01*
X0516697Y0412800D01*
X0516770Y0412840D01*
X0516845Y0412877D01*
X0516922Y0412911D01*
X0517000Y0412941D01*
X0517079Y0412967D01*
X0517160Y0412990D01*
X0517242Y0413008D01*
X0517324Y0413023D01*
X0517407Y0413034D01*
X0517490Y0413041D01*
X0517574Y0413044D01*
X0517658Y0413043D01*
X0517741Y0413038D01*
X0517825Y0413029D01*
X0517907Y0413016D01*
X0517989Y0413000D01*
X0518070Y0412979D01*
X0518151Y0412955D01*
X0518229Y0412927D01*
X0518307Y0412895D01*
X0518383Y0412859D01*
X0518457Y0412820D01*
X0518529Y0412778D01*
X0518599Y0412732D01*
X0518667Y0412683D01*
X0518732Y0412631D01*
X0518795Y0412576D01*
X0518855Y0412518D01*
X0518913Y0412457D01*
X0518967Y0412393D01*
X0519019Y0412327D01*
X0519067Y0412259D01*
X0519112Y0412188D01*
X0519153Y0412115D01*
X0519192Y0412041D01*
X0519226Y0411965D01*
X0519257Y0411887D01*
X0519284Y0411808D01*
X0519308Y0411727D01*
X0519327Y0411646D01*
X0519343Y0411564D01*
X0519355Y0411481D01*
X0519363Y0411397D01*
X0519367Y0411314D01*
X0519367Y0411230D01*
X0519363Y0411147D01*
X0519355Y0411063D01*
X0519343Y0410980D01*
X0519327Y0410898D01*
X0519308Y0410817D01*
X0519284Y0410736D01*
X0519257Y0410657D01*
X0519226Y0410579D01*
X0519192Y0410503D01*
X0519153Y0410429D01*
X0519112Y0410356D01*
X0519067Y0410285D01*
X0519019Y0410217D01*
X0518967Y0410151D01*
X0518913Y0410087D01*
X0518855Y0410026D01*
X0518795Y0409968D01*
X0518732Y0409913D01*
X0518667Y0409861D01*
X0518599Y0409812D01*
X0518529Y0409766D01*
X0518457Y0409724D01*
X0518383Y0409685D01*
X0518307Y0409649D01*
X0518229Y0409617D01*
X0518151Y0409589D01*
X0518070Y0409565D01*
X0517989Y0409544D01*
X0517907Y0409528D01*
X0517825Y0409515D01*
X0517741Y0409506D01*
X0517658Y0409501D01*
X0517574Y0409500D01*
X0517490Y0409503D01*
X0517407Y0409510D01*
X0517324Y0409521D01*
X0517242Y0409536D01*
X0517160Y0409554D01*
X0517079Y0409577D01*
X0517000Y0409603D01*
X0516922Y0409633D01*
X0516845Y0409667D01*
X0516770Y0409704D01*
X0516697Y0409744D01*
X0516626Y0409789D01*
X0516557Y0409836D01*
X0516490Y0409887D01*
X0516426Y0409940D01*
X0516364Y0409997D01*
X0516306Y0410057D01*
X0516250Y0410119D01*
X0516197Y0410184D01*
X0516147Y0410251D01*
X0516100Y0410320D01*
X0516057Y0410392D01*
X0516017Y0410466D01*
X0515981Y0410541D01*
X0515948Y0410618D01*
X0515919Y0410697D01*
X0515894Y0410776D01*
X0515872Y0410857D01*
X0515855Y0410939D01*
X0515841Y0411022D01*
X0515831Y0411105D01*
X0515825Y0411188D01*
X0515823Y0411272D01*
X0515823Y0428594D02*
X0515825Y0428678D01*
X0515831Y0428761D01*
X0515841Y0428844D01*
X0515855Y0428927D01*
X0515872Y0429009D01*
X0515894Y0429090D01*
X0515919Y0429169D01*
X0515948Y0429248D01*
X0515981Y0429325D01*
X0516017Y0429400D01*
X0516057Y0429474D01*
X0516100Y0429546D01*
X0516147Y0429615D01*
X0516197Y0429682D01*
X0516250Y0429747D01*
X0516306Y0429809D01*
X0516364Y0429869D01*
X0516426Y0429926D01*
X0516490Y0429979D01*
X0516557Y0430030D01*
X0516626Y0430077D01*
X0516697Y0430122D01*
X0516770Y0430162D01*
X0516845Y0430199D01*
X0516922Y0430233D01*
X0517000Y0430263D01*
X0517079Y0430289D01*
X0517160Y0430312D01*
X0517242Y0430330D01*
X0517324Y0430345D01*
X0517407Y0430356D01*
X0517490Y0430363D01*
X0517574Y0430366D01*
X0517658Y0430365D01*
X0517741Y0430360D01*
X0517825Y0430351D01*
X0517907Y0430338D01*
X0517989Y0430322D01*
X0518070Y0430301D01*
X0518151Y0430277D01*
X0518229Y0430249D01*
X0518307Y0430217D01*
X0518383Y0430181D01*
X0518457Y0430142D01*
X0518529Y0430100D01*
X0518599Y0430054D01*
X0518667Y0430005D01*
X0518732Y0429953D01*
X0518795Y0429898D01*
X0518855Y0429840D01*
X0518913Y0429779D01*
X0518967Y0429715D01*
X0519019Y0429649D01*
X0519067Y0429581D01*
X0519112Y0429510D01*
X0519153Y0429437D01*
X0519192Y0429363D01*
X0519226Y0429287D01*
X0519257Y0429209D01*
X0519284Y0429130D01*
X0519308Y0429049D01*
X0519327Y0428968D01*
X0519343Y0428886D01*
X0519355Y0428803D01*
X0519363Y0428719D01*
X0519367Y0428636D01*
X0519367Y0428552D01*
X0519363Y0428469D01*
X0519355Y0428385D01*
X0519343Y0428302D01*
X0519327Y0428220D01*
X0519308Y0428139D01*
X0519284Y0428058D01*
X0519257Y0427979D01*
X0519226Y0427901D01*
X0519192Y0427825D01*
X0519153Y0427751D01*
X0519112Y0427678D01*
X0519067Y0427607D01*
X0519019Y0427539D01*
X0518967Y0427473D01*
X0518913Y0427409D01*
X0518855Y0427348D01*
X0518795Y0427290D01*
X0518732Y0427235D01*
X0518667Y0427183D01*
X0518599Y0427134D01*
X0518529Y0427088D01*
X0518457Y0427046D01*
X0518383Y0427007D01*
X0518307Y0426971D01*
X0518229Y0426939D01*
X0518151Y0426911D01*
X0518070Y0426887D01*
X0517989Y0426866D01*
X0517907Y0426850D01*
X0517825Y0426837D01*
X0517741Y0426828D01*
X0517658Y0426823D01*
X0517574Y0426822D01*
X0517490Y0426825D01*
X0517407Y0426832D01*
X0517324Y0426843D01*
X0517242Y0426858D01*
X0517160Y0426876D01*
X0517079Y0426899D01*
X0517000Y0426925D01*
X0516922Y0426955D01*
X0516845Y0426989D01*
X0516770Y0427026D01*
X0516697Y0427066D01*
X0516626Y0427111D01*
X0516557Y0427158D01*
X0516490Y0427209D01*
X0516426Y0427262D01*
X0516364Y0427319D01*
X0516306Y0427379D01*
X0516250Y0427441D01*
X0516197Y0427506D01*
X0516147Y0427573D01*
X0516100Y0427642D01*
X0516057Y0427714D01*
X0516017Y0427788D01*
X0515981Y0427863D01*
X0515948Y0427940D01*
X0515919Y0428019D01*
X0515894Y0428098D01*
X0515872Y0428179D01*
X0515855Y0428261D01*
X0515841Y0428344D01*
X0515831Y0428427D01*
X0515825Y0428510D01*
X0515823Y0428594D01*
X0413485Y0242870D02*
X0413487Y0243028D01*
X0413493Y0243186D01*
X0413503Y0243344D01*
X0413517Y0243502D01*
X0413535Y0243659D01*
X0413556Y0243816D01*
X0413582Y0243972D01*
X0413612Y0244128D01*
X0413645Y0244283D01*
X0413683Y0244436D01*
X0413724Y0244589D01*
X0413769Y0244741D01*
X0413818Y0244892D01*
X0413871Y0245041D01*
X0413927Y0245189D01*
X0413987Y0245335D01*
X0414051Y0245480D01*
X0414119Y0245623D01*
X0414190Y0245765D01*
X0414264Y0245905D01*
X0414342Y0246042D01*
X0414424Y0246178D01*
X0414508Y0246312D01*
X0414597Y0246443D01*
X0414688Y0246572D01*
X0414783Y0246699D01*
X0414880Y0246824D01*
X0414981Y0246946D01*
X0415085Y0247065D01*
X0415192Y0247182D01*
X0415302Y0247296D01*
X0415415Y0247407D01*
X0415530Y0247516D01*
X0415648Y0247621D01*
X0415769Y0247723D01*
X0415892Y0247823D01*
X0416018Y0247919D01*
X0416146Y0248012D01*
X0416276Y0248102D01*
X0416409Y0248188D01*
X0416544Y0248272D01*
X0416680Y0248351D01*
X0416819Y0248428D01*
X0416960Y0248500D01*
X0417102Y0248570D01*
X0417246Y0248635D01*
X0417392Y0248697D01*
X0417539Y0248755D01*
X0417688Y0248810D01*
X0417838Y0248861D01*
X0417989Y0248908D01*
X0418141Y0248951D01*
X0418294Y0248990D01*
X0418449Y0249026D01*
X0418604Y0249057D01*
X0418760Y0249085D01*
X0418916Y0249109D01*
X0419073Y0249129D01*
X0419231Y0249145D01*
X0419388Y0249157D01*
X0419547Y0249165D01*
X0419705Y0249169D01*
X0419863Y0249169D01*
X0420021Y0249165D01*
X0420180Y0249157D01*
X0420337Y0249145D01*
X0420495Y0249129D01*
X0420652Y0249109D01*
X0420808Y0249085D01*
X0420964Y0249057D01*
X0421119Y0249026D01*
X0421274Y0248990D01*
X0421427Y0248951D01*
X0421579Y0248908D01*
X0421730Y0248861D01*
X0421880Y0248810D01*
X0422029Y0248755D01*
X0422176Y0248697D01*
X0422322Y0248635D01*
X0422466Y0248570D01*
X0422608Y0248500D01*
X0422749Y0248428D01*
X0422888Y0248351D01*
X0423024Y0248272D01*
X0423159Y0248188D01*
X0423292Y0248102D01*
X0423422Y0248012D01*
X0423550Y0247919D01*
X0423676Y0247823D01*
X0423799Y0247723D01*
X0423920Y0247621D01*
X0424038Y0247516D01*
X0424153Y0247407D01*
X0424266Y0247296D01*
X0424376Y0247182D01*
X0424483Y0247065D01*
X0424587Y0246946D01*
X0424688Y0246824D01*
X0424785Y0246699D01*
X0424880Y0246572D01*
X0424971Y0246443D01*
X0425060Y0246312D01*
X0425144Y0246178D01*
X0425226Y0246042D01*
X0425304Y0245905D01*
X0425378Y0245765D01*
X0425449Y0245623D01*
X0425517Y0245480D01*
X0425581Y0245335D01*
X0425641Y0245189D01*
X0425697Y0245041D01*
X0425750Y0244892D01*
X0425799Y0244741D01*
X0425844Y0244589D01*
X0425885Y0244436D01*
X0425923Y0244283D01*
X0425956Y0244128D01*
X0425986Y0243972D01*
X0426012Y0243816D01*
X0426033Y0243659D01*
X0426051Y0243502D01*
X0426065Y0243344D01*
X0426075Y0243186D01*
X0426081Y0243028D01*
X0426083Y0242870D01*
X0426081Y0242712D01*
X0426075Y0242554D01*
X0426065Y0242396D01*
X0426051Y0242238D01*
X0426033Y0242081D01*
X0426012Y0241924D01*
X0425986Y0241768D01*
X0425956Y0241612D01*
X0425923Y0241457D01*
X0425885Y0241304D01*
X0425844Y0241151D01*
X0425799Y0240999D01*
X0425750Y0240848D01*
X0425697Y0240699D01*
X0425641Y0240551D01*
X0425581Y0240405D01*
X0425517Y0240260D01*
X0425449Y0240117D01*
X0425378Y0239975D01*
X0425304Y0239835D01*
X0425226Y0239698D01*
X0425144Y0239562D01*
X0425060Y0239428D01*
X0424971Y0239297D01*
X0424880Y0239168D01*
X0424785Y0239041D01*
X0424688Y0238916D01*
X0424587Y0238794D01*
X0424483Y0238675D01*
X0424376Y0238558D01*
X0424266Y0238444D01*
X0424153Y0238333D01*
X0424038Y0238224D01*
X0423920Y0238119D01*
X0423799Y0238017D01*
X0423676Y0237917D01*
X0423550Y0237821D01*
X0423422Y0237728D01*
X0423292Y0237638D01*
X0423159Y0237552D01*
X0423024Y0237468D01*
X0422888Y0237389D01*
X0422749Y0237312D01*
X0422608Y0237240D01*
X0422466Y0237170D01*
X0422322Y0237105D01*
X0422176Y0237043D01*
X0422029Y0236985D01*
X0421880Y0236930D01*
X0421730Y0236879D01*
X0421579Y0236832D01*
X0421427Y0236789D01*
X0421274Y0236750D01*
X0421119Y0236714D01*
X0420964Y0236683D01*
X0420808Y0236655D01*
X0420652Y0236631D01*
X0420495Y0236611D01*
X0420337Y0236595D01*
X0420180Y0236583D01*
X0420021Y0236575D01*
X0419863Y0236571D01*
X0419705Y0236571D01*
X0419547Y0236575D01*
X0419388Y0236583D01*
X0419231Y0236595D01*
X0419073Y0236611D01*
X0418916Y0236631D01*
X0418760Y0236655D01*
X0418604Y0236683D01*
X0418449Y0236714D01*
X0418294Y0236750D01*
X0418141Y0236789D01*
X0417989Y0236832D01*
X0417838Y0236879D01*
X0417688Y0236930D01*
X0417539Y0236985D01*
X0417392Y0237043D01*
X0417246Y0237105D01*
X0417102Y0237170D01*
X0416960Y0237240D01*
X0416819Y0237312D01*
X0416680Y0237389D01*
X0416544Y0237468D01*
X0416409Y0237552D01*
X0416276Y0237638D01*
X0416146Y0237728D01*
X0416018Y0237821D01*
X0415892Y0237917D01*
X0415769Y0238017D01*
X0415648Y0238119D01*
X0415530Y0238224D01*
X0415415Y0238333D01*
X0415302Y0238444D01*
X0415192Y0238558D01*
X0415085Y0238675D01*
X0414981Y0238794D01*
X0414880Y0238916D01*
X0414783Y0239041D01*
X0414688Y0239168D01*
X0414597Y0239297D01*
X0414508Y0239428D01*
X0414424Y0239562D01*
X0414342Y0239698D01*
X0414264Y0239835D01*
X0414190Y0239975D01*
X0414119Y0240117D01*
X0414051Y0240260D01*
X0413987Y0240405D01*
X0413927Y0240551D01*
X0413871Y0240699D01*
X0413818Y0240848D01*
X0413769Y0240999D01*
X0413724Y0241151D01*
X0413683Y0241304D01*
X0413645Y0241457D01*
X0413612Y0241612D01*
X0413582Y0241768D01*
X0413556Y0241924D01*
X0413535Y0242081D01*
X0413517Y0242238D01*
X0413503Y0242396D01*
X0413493Y0242554D01*
X0413487Y0242712D01*
X0413485Y0242870D01*
X0358878Y0179287D02*
X0358880Y0179366D01*
X0358886Y0179445D01*
X0358896Y0179524D01*
X0358910Y0179602D01*
X0358927Y0179679D01*
X0358949Y0179755D01*
X0358974Y0179830D01*
X0359004Y0179903D01*
X0359036Y0179975D01*
X0359073Y0180046D01*
X0359113Y0180114D01*
X0359156Y0180180D01*
X0359202Y0180244D01*
X0359252Y0180306D01*
X0359305Y0180365D01*
X0359360Y0180421D01*
X0359419Y0180475D01*
X0359480Y0180525D01*
X0359543Y0180573D01*
X0359609Y0180617D01*
X0359677Y0180658D01*
X0359747Y0180695D01*
X0359818Y0180729D01*
X0359892Y0180759D01*
X0359966Y0180785D01*
X0360042Y0180807D01*
X0360119Y0180826D01*
X0360197Y0180841D01*
X0360275Y0180852D01*
X0360354Y0180859D01*
X0360433Y0180862D01*
X0360512Y0180861D01*
X0360591Y0180856D01*
X0360670Y0180847D01*
X0360748Y0180834D01*
X0360825Y0180817D01*
X0360902Y0180797D01*
X0360977Y0180772D01*
X0361051Y0180744D01*
X0361124Y0180712D01*
X0361194Y0180677D01*
X0361263Y0180638D01*
X0361330Y0180595D01*
X0361395Y0180549D01*
X0361457Y0180501D01*
X0361517Y0180449D01*
X0361574Y0180394D01*
X0361628Y0180336D01*
X0361679Y0180276D01*
X0361727Y0180213D01*
X0361772Y0180148D01*
X0361814Y0180080D01*
X0361852Y0180011D01*
X0361886Y0179940D01*
X0361917Y0179867D01*
X0361945Y0179792D01*
X0361968Y0179717D01*
X0361988Y0179640D01*
X0362004Y0179563D01*
X0362016Y0179484D01*
X0362024Y0179406D01*
X0362028Y0179327D01*
X0362028Y0179247D01*
X0362024Y0179168D01*
X0362016Y0179090D01*
X0362004Y0179011D01*
X0361988Y0178934D01*
X0361968Y0178857D01*
X0361945Y0178782D01*
X0361917Y0178707D01*
X0361886Y0178634D01*
X0361852Y0178563D01*
X0361814Y0178494D01*
X0361772Y0178426D01*
X0361727Y0178361D01*
X0361679Y0178298D01*
X0361628Y0178238D01*
X0361574Y0178180D01*
X0361517Y0178125D01*
X0361457Y0178073D01*
X0361395Y0178025D01*
X0361330Y0177979D01*
X0361263Y0177936D01*
X0361194Y0177897D01*
X0361124Y0177862D01*
X0361051Y0177830D01*
X0360977Y0177802D01*
X0360902Y0177777D01*
X0360825Y0177757D01*
X0360748Y0177740D01*
X0360670Y0177727D01*
X0360591Y0177718D01*
X0360512Y0177713D01*
X0360433Y0177712D01*
X0360354Y0177715D01*
X0360275Y0177722D01*
X0360197Y0177733D01*
X0360119Y0177748D01*
X0360042Y0177767D01*
X0359966Y0177789D01*
X0359892Y0177815D01*
X0359818Y0177845D01*
X0359747Y0177879D01*
X0359677Y0177916D01*
X0359609Y0177957D01*
X0359543Y0178001D01*
X0359480Y0178049D01*
X0359419Y0178099D01*
X0359360Y0178153D01*
X0359305Y0178209D01*
X0359252Y0178268D01*
X0359202Y0178330D01*
X0359156Y0178394D01*
X0359113Y0178460D01*
X0359073Y0178528D01*
X0359036Y0178599D01*
X0359004Y0178671D01*
X0358974Y0178744D01*
X0358949Y0178819D01*
X0358927Y0178895D01*
X0358910Y0178972D01*
X0358896Y0179050D01*
X0358886Y0179129D01*
X0358880Y0179208D01*
X0358878Y0179287D01*
X0334666Y0155075D02*
X0334668Y0155154D01*
X0334674Y0155233D01*
X0334684Y0155312D01*
X0334698Y0155390D01*
X0334715Y0155467D01*
X0334737Y0155543D01*
X0334762Y0155618D01*
X0334792Y0155691D01*
X0334824Y0155763D01*
X0334861Y0155834D01*
X0334901Y0155902D01*
X0334944Y0155968D01*
X0334990Y0156032D01*
X0335040Y0156094D01*
X0335093Y0156153D01*
X0335148Y0156209D01*
X0335207Y0156263D01*
X0335268Y0156313D01*
X0335331Y0156361D01*
X0335397Y0156405D01*
X0335465Y0156446D01*
X0335535Y0156483D01*
X0335606Y0156517D01*
X0335680Y0156547D01*
X0335754Y0156573D01*
X0335830Y0156595D01*
X0335907Y0156614D01*
X0335985Y0156629D01*
X0336063Y0156640D01*
X0336142Y0156647D01*
X0336221Y0156650D01*
X0336300Y0156649D01*
X0336379Y0156644D01*
X0336458Y0156635D01*
X0336536Y0156622D01*
X0336613Y0156605D01*
X0336690Y0156585D01*
X0336765Y0156560D01*
X0336839Y0156532D01*
X0336912Y0156500D01*
X0336982Y0156465D01*
X0337051Y0156426D01*
X0337118Y0156383D01*
X0337183Y0156337D01*
X0337245Y0156289D01*
X0337305Y0156237D01*
X0337362Y0156182D01*
X0337416Y0156124D01*
X0337467Y0156064D01*
X0337515Y0156001D01*
X0337560Y0155936D01*
X0337602Y0155868D01*
X0337640Y0155799D01*
X0337674Y0155728D01*
X0337705Y0155655D01*
X0337733Y0155580D01*
X0337756Y0155505D01*
X0337776Y0155428D01*
X0337792Y0155351D01*
X0337804Y0155272D01*
X0337812Y0155194D01*
X0337816Y0155115D01*
X0337816Y0155035D01*
X0337812Y0154956D01*
X0337804Y0154878D01*
X0337792Y0154799D01*
X0337776Y0154722D01*
X0337756Y0154645D01*
X0337733Y0154570D01*
X0337705Y0154495D01*
X0337674Y0154422D01*
X0337640Y0154351D01*
X0337602Y0154282D01*
X0337560Y0154214D01*
X0337515Y0154149D01*
X0337467Y0154086D01*
X0337416Y0154026D01*
X0337362Y0153968D01*
X0337305Y0153913D01*
X0337245Y0153861D01*
X0337183Y0153813D01*
X0337118Y0153767D01*
X0337051Y0153724D01*
X0336982Y0153685D01*
X0336912Y0153650D01*
X0336839Y0153618D01*
X0336765Y0153590D01*
X0336690Y0153565D01*
X0336613Y0153545D01*
X0336536Y0153528D01*
X0336458Y0153515D01*
X0336379Y0153506D01*
X0336300Y0153501D01*
X0336221Y0153500D01*
X0336142Y0153503D01*
X0336063Y0153510D01*
X0335985Y0153521D01*
X0335907Y0153536D01*
X0335830Y0153555D01*
X0335754Y0153577D01*
X0335680Y0153603D01*
X0335606Y0153633D01*
X0335535Y0153667D01*
X0335465Y0153704D01*
X0335397Y0153745D01*
X0335331Y0153789D01*
X0335268Y0153837D01*
X0335207Y0153887D01*
X0335148Y0153941D01*
X0335093Y0153997D01*
X0335040Y0154056D01*
X0334990Y0154118D01*
X0334944Y0154182D01*
X0334901Y0154248D01*
X0334861Y0154316D01*
X0334824Y0154387D01*
X0334792Y0154459D01*
X0334762Y0154532D01*
X0334737Y0154607D01*
X0334715Y0154683D01*
X0334698Y0154760D01*
X0334684Y0154838D01*
X0334674Y0154917D01*
X0334668Y0154996D01*
X0334666Y0155075D01*
X0496595Y0121433D02*
X0496599Y0121740D01*
X0496610Y0122046D01*
X0496629Y0122353D01*
X0496655Y0122658D01*
X0496689Y0122963D01*
X0496730Y0123267D01*
X0496779Y0123570D01*
X0496835Y0123872D01*
X0496899Y0124172D01*
X0496970Y0124470D01*
X0497048Y0124767D01*
X0497133Y0125062D01*
X0497226Y0125354D01*
X0497326Y0125644D01*
X0497433Y0125932D01*
X0497547Y0126217D01*
X0497667Y0126499D01*
X0497795Y0126777D01*
X0497930Y0127053D01*
X0498071Y0127325D01*
X0498219Y0127594D01*
X0498373Y0127859D01*
X0498534Y0128120D01*
X0498702Y0128378D01*
X0498875Y0128631D01*
X0499055Y0128879D01*
X0499241Y0129123D01*
X0499432Y0129363D01*
X0499630Y0129598D01*
X0499833Y0129827D01*
X0500042Y0130052D01*
X0500256Y0130272D01*
X0500476Y0130486D01*
X0500701Y0130695D01*
X0500930Y0130898D01*
X0501165Y0131096D01*
X0501405Y0131287D01*
X0501649Y0131473D01*
X0501897Y0131653D01*
X0502150Y0131826D01*
X0502408Y0131994D01*
X0502669Y0132155D01*
X0502934Y0132309D01*
X0503203Y0132457D01*
X0503475Y0132598D01*
X0503751Y0132733D01*
X0504029Y0132861D01*
X0504311Y0132981D01*
X0504596Y0133095D01*
X0504884Y0133202D01*
X0505174Y0133302D01*
X0505466Y0133395D01*
X0505761Y0133480D01*
X0506058Y0133558D01*
X0506356Y0133629D01*
X0506656Y0133693D01*
X0506958Y0133749D01*
X0507261Y0133798D01*
X0507565Y0133839D01*
X0507870Y0133873D01*
X0508175Y0133899D01*
X0508482Y0133918D01*
X0508788Y0133929D01*
X0509095Y0133933D01*
X0509402Y0133929D01*
X0509708Y0133918D01*
X0510015Y0133899D01*
X0510320Y0133873D01*
X0510625Y0133839D01*
X0510929Y0133798D01*
X0511232Y0133749D01*
X0511534Y0133693D01*
X0511834Y0133629D01*
X0512132Y0133558D01*
X0512429Y0133480D01*
X0512724Y0133395D01*
X0513016Y0133302D01*
X0513306Y0133202D01*
X0513594Y0133095D01*
X0513879Y0132981D01*
X0514161Y0132861D01*
X0514439Y0132733D01*
X0514715Y0132598D01*
X0514987Y0132457D01*
X0515256Y0132309D01*
X0515521Y0132155D01*
X0515782Y0131994D01*
X0516040Y0131826D01*
X0516293Y0131653D01*
X0516541Y0131473D01*
X0516785Y0131287D01*
X0517025Y0131096D01*
X0517260Y0130898D01*
X0517489Y0130695D01*
X0517714Y0130486D01*
X0517934Y0130272D01*
X0518148Y0130052D01*
X0518357Y0129827D01*
X0518560Y0129598D01*
X0518758Y0129363D01*
X0518949Y0129123D01*
X0519135Y0128879D01*
X0519315Y0128631D01*
X0519488Y0128378D01*
X0519656Y0128120D01*
X0519817Y0127859D01*
X0519971Y0127594D01*
X0520119Y0127325D01*
X0520260Y0127053D01*
X0520395Y0126777D01*
X0520523Y0126499D01*
X0520643Y0126217D01*
X0520757Y0125932D01*
X0520864Y0125644D01*
X0520964Y0125354D01*
X0521057Y0125062D01*
X0521142Y0124767D01*
X0521220Y0124470D01*
X0521291Y0124172D01*
X0521355Y0123872D01*
X0521411Y0123570D01*
X0521460Y0123267D01*
X0521501Y0122963D01*
X0521535Y0122658D01*
X0521561Y0122353D01*
X0521580Y0122046D01*
X0521591Y0121740D01*
X0521595Y0121433D01*
X0521591Y0121126D01*
X0521580Y0120820D01*
X0521561Y0120513D01*
X0521535Y0120208D01*
X0521501Y0119903D01*
X0521460Y0119599D01*
X0521411Y0119296D01*
X0521355Y0118994D01*
X0521291Y0118694D01*
X0521220Y0118396D01*
X0521142Y0118099D01*
X0521057Y0117804D01*
X0520964Y0117512D01*
X0520864Y0117222D01*
X0520757Y0116934D01*
X0520643Y0116649D01*
X0520523Y0116367D01*
X0520395Y0116089D01*
X0520260Y0115813D01*
X0520119Y0115541D01*
X0519971Y0115272D01*
X0519817Y0115007D01*
X0519656Y0114746D01*
X0519488Y0114488D01*
X0519315Y0114235D01*
X0519135Y0113987D01*
X0518949Y0113743D01*
X0518758Y0113503D01*
X0518560Y0113268D01*
X0518357Y0113039D01*
X0518148Y0112814D01*
X0517934Y0112594D01*
X0517714Y0112380D01*
X0517489Y0112171D01*
X0517260Y0111968D01*
X0517025Y0111770D01*
X0516785Y0111579D01*
X0516541Y0111393D01*
X0516293Y0111213D01*
X0516040Y0111040D01*
X0515782Y0110872D01*
X0515521Y0110711D01*
X0515256Y0110557D01*
X0514987Y0110409D01*
X0514715Y0110268D01*
X0514439Y0110133D01*
X0514161Y0110005D01*
X0513879Y0109885D01*
X0513594Y0109771D01*
X0513306Y0109664D01*
X0513016Y0109564D01*
X0512724Y0109471D01*
X0512429Y0109386D01*
X0512132Y0109308D01*
X0511834Y0109237D01*
X0511534Y0109173D01*
X0511232Y0109117D01*
X0510929Y0109068D01*
X0510625Y0109027D01*
X0510320Y0108993D01*
X0510015Y0108967D01*
X0509708Y0108948D01*
X0509402Y0108937D01*
X0509095Y0108933D01*
X0508788Y0108937D01*
X0508482Y0108948D01*
X0508175Y0108967D01*
X0507870Y0108993D01*
X0507565Y0109027D01*
X0507261Y0109068D01*
X0506958Y0109117D01*
X0506656Y0109173D01*
X0506356Y0109237D01*
X0506058Y0109308D01*
X0505761Y0109386D01*
X0505466Y0109471D01*
X0505174Y0109564D01*
X0504884Y0109664D01*
X0504596Y0109771D01*
X0504311Y0109885D01*
X0504029Y0110005D01*
X0503751Y0110133D01*
X0503475Y0110268D01*
X0503203Y0110409D01*
X0502934Y0110557D01*
X0502669Y0110711D01*
X0502408Y0110872D01*
X0502150Y0111040D01*
X0501897Y0111213D01*
X0501649Y0111393D01*
X0501405Y0111579D01*
X0501165Y0111770D01*
X0500930Y0111968D01*
X0500701Y0112171D01*
X0500476Y0112380D01*
X0500256Y0112594D01*
X0500042Y0112814D01*
X0499833Y0113039D01*
X0499630Y0113268D01*
X0499432Y0113503D01*
X0499241Y0113743D01*
X0499055Y0113987D01*
X0498875Y0114235D01*
X0498702Y0114488D01*
X0498534Y0114746D01*
X0498373Y0115007D01*
X0498219Y0115272D01*
X0498071Y0115541D01*
X0497930Y0115813D01*
X0497795Y0116089D01*
X0497667Y0116367D01*
X0497547Y0116649D01*
X0497433Y0116934D01*
X0497326Y0117222D01*
X0497226Y0117512D01*
X0497133Y0117804D01*
X0497048Y0118099D01*
X0496970Y0118396D01*
X0496899Y0118694D01*
X0496835Y0118994D01*
X0496779Y0119296D01*
X0496730Y0119599D01*
X0496689Y0119903D01*
X0496655Y0120208D01*
X0496629Y0120513D01*
X0496610Y0120820D01*
X0496599Y0121126D01*
X0496595Y0121433D01*
M02*
